<svg width="164" height="164" viewBox="0 0 164 164" fill="none" xmlns="http://www.w3.org/2000/svg">
<path d="M109.11 90.3106C109.289 90.0187 109.41 89.7981 109.553 89.5922C110.467 88.2856 111.362 86.9684 111.938 85.4685C112.23 84.7101 112.396 83.9329 112.339 83.1073C112.295 82.4708 112.053 81.9267 111.715 81.4057C111.562 81.1704 111.393 81.1137 111.146 81.2628C110.454 81.6788 109.665 81.7817 108.896 81.9414C108.494 82.0254 108.427 81.9393 108.49 81.5422C108.566 81.078 108.631 80.6116 108.713 80.0612C108.536 80.0927 108.389 80.0948 108.259 80.1432C106.362 80.8616 104.463 81.5801 102.573 82.3174C102.251 82.4435 102.033 82.475 101.831 82.122C101.766 82.0065 101.501 81.9309 101.342 81.9498C99.9929 82.1073 98.8858 82.7081 98.0644 83.8068C97.5938 84.437 97.1401 85.0841 96.6275 85.6765C96.1926 86.1806 96.0813 86.1617 95.5162 85.813C95.0583 85.5315 94.9028 85.5966 94.8188 86.1155C94.8041 86.2016 94.7978 86.2899 94.7915 86.376C94.7305 87.3339 94.3902 88.1259 93.5521 88.6826C93.134 88.962 92.7853 89.3443 92.3967 89.672C91.6215 90.3296 90.8106 90.922 89.8842 91.3694C88.8779 91.8526 87.9095 92.4198 86.9495 92.9933C86.1092 93.4953 85.2122 93.4701 84.3026 93.3651C84.1555 93.3483 83.9749 93.1571 83.9076 93.0059C83.5148 92.0858 83.3215 91.1194 83.5946 90.1405C83.7018 89.754 83.9475 89.3695 84.2248 89.0712C85.5084 87.7037 87.0083 86.6323 88.7246 85.8634C89.9199 85.3277 91.1194 84.8026 92.2916 84.2207C92.7391 83.998 93.1256 83.6493 93.5184 83.33C94.1613 82.809 94.8461 82.3741 95.6234 82.0695C96.5561 81.7061 97.4573 81.2481 98.1358 80.4919C99.4404 79.0361 101.081 78.0298 102.69 76.9732C103.404 76.5026 104.091 75.9858 104.793 75.4964C104.919 75.4081 105.062 75.343 105.144 75.1918C104.646 74.9922 104.232 75.1182 103.82 75.2086C101.928 75.6266 100.344 76.6497 98.8291 77.7966C97.2241 79.0088 95.6507 80.2629 94.0289 81.4498C93.0143 82.1914 91.8295 82.6115 90.6152 82.893C89.1552 83.2333 87.8486 83.8635 86.6743 84.7794C85.9999 85.3046 85.3466 85.8592 84.6492 86.3529C83.5526 87.1281 82.3468 87.5398 80.9876 87.2289C80.7061 87.1638 80.4225 87.0356 80.1852 86.8739C79.3365 86.2899 78.513 85.6702 77.6685 85.0799C76.8639 84.519 76.1161 83.9329 75.5678 83.0716C74.8283 81.9099 73.7086 81.3175 72.2969 81.3028C71.4609 81.2944 70.6248 81.2229 69.7908 81.1578C69.3055 81.12 68.9043 80.8805 68.5241 80.5759C67.1565 79.4856 65.8036 78.3743 64.394 77.3387C62.7387 76.1224 60.8774 75.3262 58.8649 74.9082C57.9721 74.7233 57.9679 74.7464 57.4869 75.093C57.6024 75.3598 57.8608 75.4228 58.094 75.5258C59.0351 75.9438 60.0224 76.2862 60.9026 76.8072C62.4992 77.7504 64.0159 78.8281 65.3772 80.0906C66.6187 81.2418 68.0262 82.0968 69.6017 82.6682C70.4042 82.9581 71.2529 83.1199 72.0848 83.3279C72.9041 83.5337 73.7128 83.7669 74.3809 84.311C74.6477 84.5295 74.9312 84.771 75.0951 85.063C75.6707 86.084 76.5446 86.7436 77.5572 87.2688C78.2546 87.6301 78.9562 87.9957 79.6033 88.4368C80.6536 89.1511 81.0801 90.2623 81.3385 91.4492C81.5128 92.2496 80.3994 93.3819 79.7797 93.4491C79.4247 93.4869 79.1642 93.3 78.9688 93.05C78.7125 92.7202 78.5109 92.3483 78.2735 92.0017C78.0508 91.674 77.8176 91.3568 77.5908 91.0375C77.2399 91.1825 77.2483 91.445 77.2231 91.6803C77.1223 92.571 76.969 92.6887 76.1161 92.3673C75.5468 92.153 74.988 91.8862 74.4607 91.5816C72.8179 90.6363 71.3033 89.5124 69.9294 88.1994C69.4988 87.7898 69.2866 87.3003 69.2152 86.7226C69.1816 86.4474 69.1312 86.1701 69.0555 85.9012C68.9736 85.6134 68.7866 85.5546 68.5367 85.7332C68.4505 85.7941 68.3644 85.8529 68.2783 85.9138C67.9884 86.1281 67.7111 86.0882 67.4821 85.834C67.2132 85.5357 66.9611 85.2206 66.7174 84.9034C65.6692 83.54 64.2869 82.6409 62.6777 82.1073C61.3501 81.6683 59.9951 81.3154 58.6486 80.9351C57.8104 80.6977 56.9638 80.4856 56.1235 80.2545C55.9218 80.1999 55.7349 80.0885 55.5311 80.0444C55.3672 80.0087 55.1908 80.0381 55.0437 80.0381C55.2244 80.4688 55.3903 80.8448 55.5395 81.2271C55.6256 81.4456 55.5773 81.5885 55.3462 81.7397C54.987 81.9771 54.653 82.0653 54.2391 81.9351C53.9577 81.8468 53.6573 81.8195 53.3632 81.7691C52.7077 81.6578 52.5502 81.7775 52.5922 82.4287C52.6363 83.1073 52.7119 83.7858 52.8001 84.4622C52.9283 85.4538 53.1216 86.4327 53.5312 87.3528C53.8295 88.023 54.1824 88.6679 54.4975 89.3317C54.6236 89.5985 54.7307 89.88 54.8126 90.1657C54.9135 90.5165 54.8337 90.6258 54.4744 90.6279C53.464 90.6384 52.5628 90.3359 51.7204 89.7624C50.5041 88.9347 49.8591 87.7079 49.2415 86.4432C49.0609 86.0756 49.4369 85.5273 48.8592 85.3025C48.7311 84.9034 48.5777 84.5106 48.4811 84.1051C47.9223 81.7229 47.374 79.3407 46.8257 76.9564C46.7858 76.7862 46.7522 76.6118 46.7501 76.4375C46.748 76.2904 46.7921 76.1413 46.8152 75.9921C46.9601 76.0194 47.1198 76.0173 47.2479 76.0783C47.7374 76.3093 48.2101 76.5803 48.7058 76.7988C49.1134 76.9795 49.2709 76.8534 49.2058 76.4144C48.9789 74.8746 48.7248 73.3389 48.5042 71.7991C48.2752 70.2025 48.0693 68.6018 47.8635 67.001C47.8109 66.5872 47.729 66.1566 47.7878 65.7532C47.8403 65.3919 47.8488 65.0705 47.7836 64.7071C47.6954 64.1987 47.7542 63.6672 47.9832 63.1336C48.1071 63.1756 48.2185 63.2071 48.3256 63.2471C48.521 63.3206 48.7101 63.4235 48.9117 63.4697C49.5756 63.6189 49.7226 63.497 49.7604 62.8101C49.8339 61.4698 50.1427 60.18 50.6406 58.9385C51.1217 57.7369 51.6027 56.5311 52.3884 55.4828C53.4997 54.0039 54.8063 52.7287 56.3588 51.7162C56.7957 51.4305 56.9344 51.462 57.3818 51.8128C57.9574 52.2645 58.5456 52.7014 59.1422 53.1237C59.3208 53.2497 59.5498 53.3085 59.8523 53.4388C59.8733 53.1552 59.9132 52.943 59.8985 52.735C59.8586 52.1069 59.7977 51.4809 59.7493 50.8528C59.7241 50.4999 59.8523 50.3339 60.1947 50.3675C61.1148 50.46 62.0349 50.565 62.9508 50.7037C63.7764 50.8297 64.3562 51.3528 64.8772 51.9746C65.3142 52.4977 65.7973 52.9787 66.2553 53.4829C66.4822 53.7308 66.6754 53.6699 66.8603 53.4325C67.0746 53.1573 67.2846 52.8737 67.5115 52.609C67.9947 52.0418 68.3581 52.0334 68.8518 52.5754C69.0765 52.8212 69.2992 53.0691 69.4925 53.338C70.2361 54.3631 71.2592 54.8841 72.4902 55.0837C73.194 55.1971 73.9019 55.3378 74.5825 55.5458C75.1434 55.7181 75.6077 56.1067 75.9291 56.5962C76.8072 57.9301 78.0445 58.8229 79.4499 59.4952C80.4141 59.9573 81.204 60.6254 81.9519 61.3627C82.3111 61.7156 82.5422 61.7766 82.9749 61.5539C83.2501 61.4131 83.5232 61.2304 83.7312 61.0035C84.4979 60.1611 85.4559 59.5855 86.4243 59.0246C87.2415 58.5498 88.0566 58.0751 88.6994 57.3608C89.3779 56.6067 90.2371 56.092 91.1236 55.6382C91.5017 55.445 91.9555 55.3336 92.3819 55.3084C93.8924 55.2181 95.1297 54.5963 96.1969 53.548C96.617 53.1363 97.1086 52.7897 97.598 52.4557C98.2388 52.0166 98.3543 52.0691 98.6589 52.7918C98.7807 53.0817 98.8984 53.3716 99.0265 53.6594C99.0454 53.7014 99.1043 53.7245 99.2009 53.8043C99.3353 53.6552 99.4845 53.5228 99.5937 53.3611C99.9614 52.8275 100.308 52.2813 100.674 51.7456C101.129 51.0776 101.757 50.6553 102.558 50.5251C104.169 50.2646 105.69 50.4978 107.091 51.3864C107.623 51.7225 108.19 51.9998 108.734 52.317C109.28 52.6342 109.293 52.7182 108.986 53.2455C108.637 53.8442 108.301 54.4513 107.913 55.1341C108.32 55.1341 108.658 55.1467 108.994 55.132C109.654 55.1005 110.314 55.0269 110.973 55.0185C111.341 55.0143 111.597 55.2034 111.761 55.5899C111.925 55.9828 112.209 56.3336 112.467 56.6802C112.685 56.9722 112.702 57.2096 112.368 57.3902C112.396 57.4533 112.408 57.5121 112.419 57.51C113.026 57.4932 113.248 57.9301 113.456 58.3818C113.755 59.0309 114.114 59.6632 114.337 60.3376C114.763 61.6316 114.647 62.9656 114.442 64.2869C114.345 64.9087 114.187 65.52 114.063 66.1376C113.99 66.5032 114.087 66.604 114.44 66.5074C114.656 66.4486 114.86 66.3372 115.066 66.2448C115.208 66.1818 115.345 66.0914 115.492 66.0452C115.874 65.9276 116.028 66.0683 115.944 66.4612C115.828 67.0073 115.7 67.5535 115.574 68.0976C115.261 69.4463 115.397 70.8139 115.397 72.1772C115.397 72.2297 115.406 72.2823 115.41 72.3348C115.488 73.7465 115.555 75.1582 115.65 76.5698C115.696 77.2652 115.788 77.9584 115.868 78.6537C115.914 79.0466 116.074 79.16 116.477 79.0865C116.872 79.0151 117.263 78.91 117.66 78.8449C118.044 78.7819 118.135 78.8722 118.101 79.2651C117.899 81.7208 117.246 84.0442 116.059 86.2121C115.792 86.6995 115.498 87.065 114.853 87.0377C114.429 87.0209 114.074 87.4873 114.179 87.9851C114.303 88.5755 113.994 88.8612 113.608 89.1469C112.383 90.0544 111.03 90.5417 109.486 90.3947C109.419 90.3905 109.337 90.3632 109.11 90.3106ZM55.905 62.1043C55.8798 62.1652 55.8546 62.2282 55.8294 62.2891C55.9554 62.4257 56.0668 62.579 56.2096 62.6946C56.4407 62.8815 56.6802 63.0622 56.9365 63.2092C57.8293 63.726 58.7494 64.1966 59.6233 64.7449C60.2556 65.1419 60.8837 65.5789 61.4173 66.0977C62.3437 67.001 63.2029 67.9716 64.0726 68.9295C64.4171 69.3076 64.8247 69.5324 65.3141 69.6585C66.4758 69.9568 67.5451 70.4525 68.5451 71.1227C69.1059 71.4987 69.7047 71.8726 70.3433 72.0701C72.4755 72.7318 74.3031 73.8095 75.6581 75.6224C75.782 75.7884 75.9501 75.9249 76.114 76.0552C76.9311 76.7127 77.763 77.3555 78.5718 78.0214C79.326 78.6411 80.1473 79.1936 80.6893 80.0402C80.8553 80.2986 81.1242 80.3133 81.3931 80.2818C82.1136 80.1936 82.8153 80.0129 83.4098 79.5949C84.0232 79.1642 84.5799 78.6537 85.1744 78.1958C86.8381 76.9123 88.462 75.5909 89.8737 74.0196C90.2245 73.6288 90.714 73.3137 91.1992 73.0994C92.4681 72.5385 93.5962 71.8054 94.4911 70.734C94.5142 70.7067 94.5394 70.6836 94.5646 70.6605C95.8922 69.4358 97.4069 68.5871 99.2051 68.2657C100.148 68.0976 101.012 67.7153 101.713 67.0326C102.72 66.0536 103.789 65.1545 105.007 64.4487C105.793 63.9928 106.587 63.5454 107.373 63.0895C107.715 62.8899 108.049 62.6757 108.301 62.266C108.15 62.2576 108.06 62.2303 107.988 62.2534C106.976 62.5853 105.936 62.8584 104.963 63.2807C103.778 63.7932 102.654 64.4487 101.493 65.0159C100.426 65.5368 99.3773 66.1124 98.182 66.3099C97.7514 66.3813 97.3186 66.4444 96.8943 66.5452C95.6087 66.854 94.615 67.6691 93.6466 68.5052C93.3105 68.7951 93.0605 69.1942 92.8147 69.5702C92.6445 69.8307 92.5479 70.1374 92.4156 70.4231C92.2664 70.7445 91.9702 70.8475 91.6614 70.9336C91.3841 71.0113 91.3085 70.776 91.1677 70.6332C91.1299 70.5933 91.048 70.5975 90.9114 70.5597C91.1425 71.1332 90.7791 71.3012 90.4073 71.484C90.2224 71.5764 90.0501 71.7088 89.8989 71.8516C88.9095 72.7906 87.9221 73.7297 86.9495 74.6855C86.7037 74.9292 86.5314 75.2464 86.2983 75.5048C85.9726 75.8661 85.647 76.2358 85.2731 76.5404C84.9097 76.8366 84.4811 77.053 84.0883 77.3156C83.0947 77.9857 82.0254 78.0298 80.9225 77.6895C79.9751 77.3975 79.1117 76.9143 78.3743 76.2631C77.9962 75.9291 77.7357 75.4459 77.4689 75.0027C77.2547 74.6456 77.1727 74.2002 76.9227 73.8767C76.4207 73.2297 75.8745 72.6142 75.2947 72.0344C74.1813 70.9189 72.9482 69.9841 71.3537 69.6543C70.8075 69.5408 70.2613 69.4253 69.7278 69.2656C68.7572 68.9736 68.0556 68.2699 67.3203 67.625C66.6607 67.0452 65.9696 66.5284 65.1545 66.1671C64.1314 65.7154 63.1273 65.2175 62.1274 64.7176C60.327 63.8206 58.5456 62.8836 56.6298 62.2471C56.3966 62.1757 56.1466 62.1526 55.905 62.1043ZM107.276 67.9863C107.249 67.9422 107.221 67.8981 107.194 67.856C106.873 68.0031 106.53 68.1186 106.232 68.3035C105.173 68.9568 104.079 69.5261 102.934 70.0261C101.413 70.6878 99.9214 71.4252 98.4488 72.1898C97.3564 72.757 96.3439 73.4692 95.6192 74.4859C95.199 75.0762 94.6633 75.2968 93.9764 75.3493C92.1341 75.4922 90.6783 76.3388 89.6573 77.8765C89.2792 78.4458 88.8191 78.8869 88.2603 79.2714C87.6469 79.6936 87.065 80.1684 86.4936 80.6473C85.4286 81.5401 84.332 82.3741 83.0127 82.8594C82.3363 83.1094 81.622 83.164 80.9519 82.9413C80.3637 82.7459 79.765 82.4645 79.286 82.0779C78.4605 81.4099 77.6895 80.6641 76.9584 79.8911C76.3786 79.2756 75.719 78.8134 74.9502 78.4962C74.5153 78.3155 74.051 78.2063 73.6099 78.0361C72.631 77.658 71.652 77.282 70.6878 76.8681C69.7593 76.469 69.1963 75.6602 68.6627 74.864C67.7993 73.57 66.6145 72.6793 65.2595 71.9798C64.8877 71.7886 64.4234 71.6688 64.5474 71.1437C64.2197 71.1542 63.8752 71.2697 63.642 71.1563C62.6042 70.6563 61.5875 70.1101 60.5833 69.5429C59.367 68.8539 58.1801 68.1123 56.9617 67.4233C56.4995 67.1607 56.0038 66.9233 55.3714 67.0221C55.4597 67.1208 55.5059 67.1943 55.5689 67.2384C56.2979 67.751 57.0289 68.2636 57.7621 68.7699C58.3797 69.1984 59.0078 69.6143 59.6212 70.0471C60.7052 70.8097 61.7618 71.6142 62.8689 72.3432C63.7911 72.9503 64.747 73.5112 65.4822 74.3494C66.583 75.6056 67.8917 76.5698 69.3769 77.3261C69.8496 77.5677 70.3433 77.8933 70.6479 78.3113C71.2718 79.1642 72.0806 79.5739 73.0805 79.807C73.7317 79.9583 74.4628 80.1705 74.9355 80.599C76.0572 81.6179 77.4731 82.143 78.6558 83.038C79.1684 83.4266 79.6978 83.8005 80.1662 84.2396C80.5465 84.5967 80.9225 84.7479 81.4414 84.6366C82.8993 84.3194 84.2017 83.6472 85.4853 82.9245C86.626 82.2817 87.7478 81.62 89.0103 81.204C89.8401 80.9309 90.5543 80.4688 90.9556 79.5213C91.4681 78.3092 92.4828 77.5488 93.8399 77.3492C94.5751 77.24 95.2578 76.9837 95.8881 76.5845C96.8271 75.9879 97.5917 75.196 98.3543 74.3977C99.1211 73.5931 99.9887 72.9272 101.058 72.5533C102.287 72.1226 103.436 71.5302 104.423 70.6731C105.243 69.9631 106.024 69.211 106.818 68.4715C106.984 68.3161 107.127 68.1459 107.276 67.9863ZM91.1278 64.3772C90.985 64.5663 90.8463 64.6755 90.8043 64.8142C90.6993 65.1566 90.4367 65.3058 90.1468 65.4402C90.0039 65.5053 89.8611 65.5705 89.7182 65.6377C88.4116 66.2385 87.2919 67.0746 86.3739 68.1943C86.0231 68.6228 85.5987 69.0009 85.166 69.3518C84.4328 69.9421 83.5232 70.0933 82.6346 70.2929C81.7481 70.4945 80.8994 70.3979 80.0696 70.045C79.015 69.5975 78.1412 68.9169 77.4626 67.9968C77.2 67.6418 76.9248 67.4023 76.4459 67.3729C75.7505 67.3309 75.0594 67.2111 74.3704 67.1103C73.8095 67.0284 73.4124 66.7111 73.1477 66.2175C72.2045 64.4487 70.797 63.1021 69.2194 61.9131C68.2993 61.2199 67.3771 60.5329 66.4464 59.8544C66.1229 59.6191 65.7784 59.409 65.4339 59.2032C65.3246 59.138 65.186 59.1254 65.0579 59.0876C65.039 59.1696 65.0158 59.2158 65.0285 59.2326C65.7028 60.0981 66.3708 60.9678 67.064 61.8186C67.188 61.9698 67.4254 62.0244 67.5955 62.1442C67.835 62.3143 68.106 62.4656 68.2867 62.6883C68.9568 63.5138 69.6059 64.3583 70.2445 65.2091C71.1058 66.3561 71.9503 67.5157 73.0847 68.4211C73.675 68.8917 74.3178 69.1081 75.0846 68.9715C75.864 68.8308 76.5719 68.9736 77.1454 69.5912C77.4416 69.9105 77.7882 70.1815 78.118 70.4693C79.0676 71.2928 80.0213 72.1163 80.975 72.9356C81.3553 73.2633 81.7439 73.2822 82.1724 73.0007C82.706 72.6499 83.2963 72.4461 83.937 72.381C84.0925 72.3642 84.2942 72.276 84.374 72.1541C85.1471 70.9777 86.2436 70.1311 87.2877 69.2257C88.0944 68.5262 88.983 68.0031 90.0586 67.8245C91.4807 67.5872 92.6172 66.8939 93.5163 65.7385C94.6948 64.2239 95.9511 62.7702 97.1695 61.2871C97.2682 61.1673 97.3291 61.0161 97.409 60.8795C97.3775 60.848 97.3438 60.8165 97.3123 60.785C97.0455 60.8985 96.7514 60.9741 96.5162 61.1337C95.6633 61.7135 94.8209 62.3059 93.9953 62.9235C93.3798 63.3836 92.8063 63.8962 92.2034 64.373C91.8736 64.6293 91.5269 64.768 91.1278 64.3772ZM53.1489 80.6956C52.8422 80.6347 52.5775 80.5192 52.338 80.5549C52.0649 80.5948 51.8107 80.7671 51.5481 80.8847C51.3486 80.975 51.2624 81.2923 51.357 81.5717C51.4326 81.7901 51.6301 81.9204 51.796 81.8048C52.2393 81.4897 52.6426 81.1179 53.1489 80.6956ZM49.9852 70.4336C49.8087 70.5534 49.6449 70.6059 49.5839 70.7172C49.5041 70.8622 49.7646 71.1017 49.9999 71.0701C50.1154 71.0554 50.2163 70.9084 50.3213 70.8202C50.2205 70.7025 50.1196 70.587 49.9852 70.4336ZM100.552 81.3343C99.9172 81.3238 99.7597 81.4708 99.8164 81.9981C100.108 81.8384 100.501 81.8279 100.552 81.3343ZM116.977 80.473C116.439 80.5738 116.057 80.9939 116.095 81.4435C116.391 81.12 116.654 80.828 116.977 80.473ZM49.1827 66.728C48.8529 66.7385 48.7332 66.9212 48.7332 67.188C48.7332 67.2363 48.897 67.3372 48.9663 67.3225C49.2688 67.2552 49.252 67.0305 49.1827 66.728ZM96.2305 83.8761C95.9028 83.9497 95.6276 84.0106 95.2872 84.0883C95.741 84.437 96.0309 84.3719 96.2305 83.8761ZM52.1867 86.8235C51.983 86.7121 51.8359 86.5819 51.7813 86.6134C51.6679 86.6764 51.5838 86.8192 51.5334 86.9474C51.5208 86.9789 51.7099 87.1512 51.7729 87.1344C51.8947 87.1007 51.9914 86.9789 52.1867 86.8235Z" fill="white"/>
<path d="M96.9657 151.176C96.7388 150.979 96.5875 150.848 96.4195 150.701C96.1737 150.96 96.3018 151.176 96.4342 151.34C96.6716 151.63 96.6043 151.846 96.4027 152.13C95.8376 152.92 95.3313 153.751 94.7578 154.533C94.1675 155.338 93.781 156.251 93.2831 157.104C93.1192 157.386 92.9092 157.64 92.739 157.879C92.6613 158.159 92.6172 158.432 92.51 158.678C92.1088 159.591 91.7265 160.516 91.2601 161.396C90.9198 162.037 90.5164 162.663 90.0396 163.207C89.4598 163.869 88.6342 164.051 87.7813 163.957C85.9264 163.751 84.2311 163.198 82.9475 161.724C82.3867 161.079 82.3509 161.106 81.7396 161.667C81.4938 161.892 81.2649 162.133 81.0191 162.356C79.7839 163.469 78.3512 164.083 76.6706 163.99C75.8639 163.946 75.2274 163.604 74.6392 162.967C73.6182 161.86 73.1708 160.48 72.528 159.188C71.881 157.888 71.257 156.577 70.589 155.287C70.0323 154.209 69.3181 153.233 68.4442 152.384C66.73 150.72 65.5809 148.687 64.6314 146.529C63.9906 145.071 63.4781 143.55 62.747 142.141C61.2702 139.29 60.14 136.292 58.8229 133.374C57.7725 131.047 56.7873 128.69 55.7054 126.377C54.216 123.192 52.6677 120.033 51.1363 116.867C50.3275 115.195 49.815 113.439 49.6742 111.59C49.5713 110.248 49.6028 108.895 49.8087 107.559C49.9809 106.456 50.4368 106 51.5082 105.779C52.6173 105.55 53.4366 104.906 54.0605 103.987C54.4071 103.477 54.7895 103.009 55.3273 102.681C56.2453 102.12 57.2326 102.172 58.2305 102.336C58.491 102.378 58.5225 102.607 58.5204 102.828C58.5183 103.422 58.512 104.019 58.5078 104.614C58.5057 104.784 58.5078 104.956 58.5078 105.191C58.6716 105.132 58.785 105.109 58.8796 105.053C59.388 104.742 59.8984 104.435 60.3921 104.105C61.0832 103.645 61.7765 103.62 62.5306 103.96C63.0537 104.195 63.6041 104.387 64.1587 104.538C64.6881 104.683 65.0263 104.987 65.1628 105.502C65.3078 106.042 65.4233 106.588 65.5431 107.134C65.6061 107.42 65.6586 107.71 65.7279 108.071C65.8813 107.941 65.9926 107.868 66.0788 107.771C66.335 107.483 66.5934 107.197 66.8266 106.893C67.4925 106.021 68.3286 105.611 69.4588 105.687C71.0974 105.796 72.5469 105.195 73.8787 104.286C74.7526 103.689 75.4921 102.948 76.1832 102.151C76.3534 101.954 76.5383 101.761 76.7462 101.607C76.9773 101.435 77.1244 101.511 77.1916 101.796C77.2084 101.864 77.2273 101.941 77.2105 102.004C76.9815 102.901 77.3575 103.805 77.1496 104.716C76.9983 105.376 76.8092 105.998 76.4605 106.571C75.0929 108.817 73.0826 110.105 70.5176 110.58C69.1353 110.836 67.7404 110.937 66.3392 110.882C63.5243 110.775 60.7198 110.542 57.9763 109.851C57.7977 109.804 57.6528 109.632 57.4805 109.538C57.3356 109.46 57.1696 109.346 57.0247 109.361C56.5772 109.407 56.1928 109.25 55.8272 109.044C55.2159 108.702 54.6151 108.344 54.0185 107.979C53.1635 107.46 52.0459 107.765 51.5124 108.632C50.859 109.693 50.9494 110.811 51.2225 111.932C51.6825 113.823 52.5816 115.527 53.5395 117.201C53.8526 117.747 54.1971 118.277 54.4828 118.84C54.8294 119.522 55.1256 120.232 55.4449 120.93C55.6697 121.423 55.8651 121.932 56.1297 122.405C57.2746 124.442 58.1275 126.606 58.9153 128.799C59.1569 129.473 59.4174 130.144 59.6611 130.818C59.9867 131.717 60.4446 132.538 61.1064 133.232C62.1231 134.297 62.4466 135.616 62.518 137.028C62.5348 137.343 62.5159 137.658 62.5243 137.973C62.5285 138.139 62.558 138.307 62.5895 138.597C62.8983 138.431 63.123 138.326 63.3352 138.194C63.8919 137.851 64.0978 137.857 64.4801 138.395C65.4002 139.691 66.3119 140.996 67.1879 142.324C67.7656 143.2 68.4526 143.937 69.3412 144.508C69.9126 144.876 70.423 145.338 70.9587 145.762C71.5553 146.235 71.7948 146.865 71.7549 147.613C71.7276 148.151 71.6898 148.689 71.6499 149.371C71.8683 149.166 72.0133 149.04 72.1456 148.901C72.2906 148.75 72.4229 148.586 72.5595 148.426C72.9481 147.981 73.1456 147.941 73.7107 148.155C74.6749 148.521 75.6307 148.914 76.6139 149.222C77.513 149.506 78.4478 149.674 79.3553 149.93C79.8238 150.063 80.2775 150.262 80.7229 150.458C81.3867 150.75 81.851 151.268 82.2396 151.865C82.3047 151.964 82.3804 152.054 82.4959 152.207C82.6072 152.039 82.7102 151.926 82.7669 151.794C83.0253 151.193 83.4748 150.781 84.0735 150.573C84.8466 150.302 85.6302 150.035 86.4305 149.871C87.7645 149.6 89.0312 149.193 90.1992 148.483C91.071 147.953 91.5038 148.027 92.2432 148.758C92.4302 148.943 92.6298 149.113 92.8293 149.281C92.863 149.308 92.926 149.3 93.0604 149.321C93.031 149.025 93.0079 148.756 92.9764 148.491C92.9218 148.023 92.8503 147.556 92.8104 147.086C92.7747 146.662 92.9176 146.286 93.2474 146.008C93.7558 145.58 94.2641 145.151 94.7935 144.75C95.9153 143.903 96.8039 142.859 97.4929 141.641C98.2177 140.361 98.9718 139.107 99.8394 137.914C100.411 137.128 100.795 136.208 101.264 135.347C101.289 135.301 101.306 135.25 101.333 135.206C101.505 134.925 101.617 134.551 101.867 134.385C102.203 134.162 102.423 134.635 102.73 134.725C102.778 134.74 102.829 134.744 102.976 134.771C102.94 134.299 102.946 133.849 102.864 133.417C102.753 132.83 102.892 132.337 103.177 131.82C104.446 129.522 105.675 127.205 106.929 124.898C107.549 123.762 108.223 122.655 108.818 121.505C109.45 120.279 110.028 119.022 110.608 117.77C111.135 116.63 111.696 115.499 112.127 114.321C112.423 113.508 112.578 112.632 112.685 111.769C112.774 111.063 112.74 110.334 112.685 109.62C112.635 108.954 112.353 108.34 111.761 107.996C111.488 107.838 111.093 107.874 110.753 107.855C110.511 107.842 110.267 107.876 110.026 107.903C109.91 107.916 109.755 107.924 109.694 107.998C109.062 108.744 108.137 108.987 107.308 109.374C105.829 110.061 104.224 110.26 102.625 110.458C102.087 110.525 101.549 110.594 101.012 110.655C100.93 110.664 100.846 110.634 100.726 110.615C100.757 110.462 100.783 110.336 100.808 110.222C100.619 110.056 100.165 110.113 100.058 110.372C99.892 110.771 99.5958 110.794 99.2513 110.806C98.3269 110.838 97.4005 110.878 96.4762 110.905C96.3333 110.909 96.1884 110.865 95.909 110.823C96.1548 110.588 96.3165 110.464 96.4342 110.309C96.5035 110.216 96.5035 110.071 96.535 109.949C96.4258 109.939 96.3144 109.909 96.2073 109.922C96.1065 109.933 96.0119 110.012 95.9132 110.019C95.596 110.042 95.5414 110.237 95.5813 110.493C95.6191 110.729 95.5582 110.903 95.2977 110.865C94.5898 110.76 93.886 110.628 93.1802 110.5C93.1234 110.489 93.0751 110.418 93.0016 110.357C93.0814 110.214 93.1529 110.082 93.2432 109.922C92.9512 109.63 92.5815 109.363 92.8146 108.804C92.3672 108.989 91.8504 108.737 91.5164 109.244C91.7643 109.34 92.0689 109.019 92.1319 109.378C92.1508 109.487 91.8945 109.676 91.7328 109.777C91.4534 109.951 90.9429 109.825 90.6341 109.536C90.3295 109.25 90.4282 108.939 90.6068 108.601C90.2497 108.529 89.9493 108.548 89.7707 108.918C89.6804 108.897 89.5984 108.899 89.5522 108.861C89.0039 108.426 88.4535 107.996 87.92 107.544C87.4893 107.178 87.2624 106.687 87.1574 106.141C87.0818 105.746 86.9977 105.349 86.9746 104.95C86.9116 103.903 86.878 102.857 86.8381 101.811C86.8339 101.706 86.8423 101.599 86.8633 101.498C86.9137 101.246 87.065 101.181 87.2834 101.309C87.3738 101.362 87.4515 101.435 87.5292 101.504C88.8716 102.725 90.3442 103.748 92.0311 104.441C92.4995 104.635 92.9722 104.819 93.4428 105.006C93.9427 105.206 94.365 105.498 94.6696 105.954C95.0792 106.565 95.4868 107.174 95.9195 107.769C96.117 108.04 96.3712 108.269 96.6001 108.519C96.6442 108.502 96.6884 108.485 96.7325 108.466C96.7766 108.237 96.8081 108.004 96.869 107.777C97.0392 107.134 97.2283 106.498 97.3921 105.853C97.4593 105.588 97.6001 105.439 97.8543 105.338C99.4634 104.7 101.064 104.042 102.673 103.401C103.419 103.105 103.99 103.286 104.442 103.954C104.677 104.303 104.871 104.677 105.112 105.019C105.299 105.284 105.532 105.515 105.763 105.784C106.131 105.391 106.148 104.964 106.165 104.555C106.192 103.891 106.175 103.225 106.179 102.559C106.184 101.996 106.266 101.916 106.824 101.962C107.312 102.002 107.805 102.028 108.284 102.116C108.526 102.16 108.793 102.282 108.969 102.45C110.421 103.817 111.864 105.191 113.284 106.592C113.666 106.968 113.982 107.424 114.278 107.874C114.773 108.626 114.818 109.51 114.748 110.351C114.645 111.584 114.418 112.808 114.2 114.029C114.068 114.758 113.738 115.418 113.322 116.035C113.118 116.338 112.963 116.674 112.805 117.006C111.774 119.188 110.744 121.371 109.725 123.558C109.578 123.873 109.501 124.22 109.377 124.545C108.816 126.016 108.282 127.497 107.675 128.948C106.826 130.982 105.921 132.99 105.039 135.009C104.394 136.484 103.74 137.954 103.108 139.435C102.554 140.738 102.028 142.055 101.48 143.359C101.358 143.647 101.22 143.939 101.035 144.189C99.8962 145.752 98.9803 147.441 98.119 149.166C97.8606 149.682 97.6022 150.197 97.3291 150.705C97.2388 150.861 97.1043 150.995 96.9657 151.176ZM105.717 109.336C105.89 108.989 105.703 108.878 105.461 108.773C105.083 108.609 105.081 108.517 105.415 108.26C105.497 108.197 105.564 108.113 105.637 108.038C105.621 108.006 105.602 107.973 105.585 107.941C105.24 108.021 104.898 108.101 104.547 108.181C104.526 108.479 104.507 108.729 104.484 109.059C105.028 108.708 105.331 109.147 105.717 109.336ZM108.053 107.441C108.005 107.403 107.957 107.365 107.91 107.328C107.782 107.443 107.637 107.546 107.526 107.676C107.251 108.002 107.089 108.061 106.724 107.855C106.482 107.718 106.31 107.716 106.14 107.989C106.597 108.426 107.221 108.223 107.705 108.489C107.831 108.113 107.942 107.777 108.053 107.441ZM75.2421 158.917C74.8094 159.14 74.4711 159.457 74.1518 159.957C74.6896 159.791 74.7967 159.688 75.2421 158.917ZM66.5052 110.105C66.8308 110.344 67.0367 110.319 67.2132 110.141C67.3665 109.985 67.4337 109.798 67.2153 109.548C66.9926 109.722 66.7867 109.884 66.5052 110.105ZM101.675 108.979C102.129 109.126 102.474 109.172 102.852 108.958C102.459 108.712 102.18 108.71 101.675 108.979ZM57.9175 109.22C58.075 109.244 58.1569 109.283 58.2053 109.258C58.3628 109.174 58.5099 109.069 58.6485 108.958C58.659 108.949 58.5603 108.76 58.5435 108.767C58.3859 108.813 58.2263 108.87 58.0834 108.951C58.0225 108.985 57.9994 109.084 57.9175 109.22Z" fill="white"/>
<path d="M76.6153 54.8398C76.4976 54.2873 76.5816 53.8041 76.5816 53.3231C76.5816 50.8925 76.6447 48.4599 76.5543 46.0336C76.4934 44.3425 76.277 42.6535 76.0354 40.975C75.6615 38.3701 74.9368 35.8493 74.0545 33.3683C72.6638 29.461 70.7122 25.8246 68.7712 22.1778C67.9015 20.5434 67.1893 18.8229 66.4667 17.1171C65.5991 15.071 64.7357 13.0207 63.9857 10.9305C63.1643 8.64074 63.1874 6.32784 64.2399 4.08637C64.6306 3.25239 65.2755 2.64108 66.0864 2.21043C66.2461 2.1264 66.4246 2.08229 66.6935 1.98145C66.6494 2.22093 66.6452 2.35748 66.599 2.47512C65.8217 4.49181 66.1347 6.42868 67.0276 8.32143C67.809 9.981 68.9203 11.4242 70.0211 12.8758C70.8677 13.9913 71.7353 15.0899 72.5482 16.2306C73.8948 18.1213 74.754 20.2493 75.38 22.4635C75.9199 24.3814 76.3506 26.3309 76.8316 28.2657C76.8715 28.4274 76.924 28.585 76.9703 28.7446C77.0123 28.753 77.0522 28.7635 77.0942 28.7719C77.1782 28.6585 77.277 28.5514 77.3421 28.4274C77.8127 27.5115 78.0626 26.5326 78.1236 25.5074C78.2328 23.7092 78.071 21.932 77.5627 20.2073C76.84 17.7579 76.0585 15.3252 75.3044 12.8842C74.7267 11.0104 74.1595 9.1323 73.9746 7.16813C73.8612 5.95181 73.9179 4.7523 74.3591 3.5969C74.899 2.18312 75.9262 1.22099 77.2329 0.523551C77.2749 0.500443 77.3337 0.506745 77.4324 0.494141C77.4618 0.603378 77.5165 0.712614 77.5122 0.81765C77.4471 2.44361 77.8484 3.98344 78.4282 5.47285C79.0689 7.11981 79.7768 8.73947 80.4659 10.3675C81.4763 12.7476 82.2557 15.1908 82.5309 17.7726C82.7536 19.8628 82.5918 21.932 82.1107 23.976C81.8881 24.9276 81.7473 25.9087 81.4322 26.8288C80.9406 28.2678 80.3335 29.6669 79.7789 31.0848C79.5773 31.5995 79.3924 32.1205 79.1991 32.6373C79.2369 32.6688 79.2769 32.7003 79.3147 32.7297C79.4617 32.6079 79.6193 32.4965 79.7579 32.3663C81.3167 30.8979 82.6884 29.2635 83.9846 27.564C84.4824 26.9107 84.9614 26.2406 85.4509 25.581C85.5517 25.4465 85.6652 25.3205 85.8311 25.1209C85.9614 25.3268 86.0874 25.4507 86.1294 25.5999C86.4025 26.5578 86.7344 27.5052 86.9067 28.482C87.5474 32.1436 87.5096 35.8388 87.268 39.5276C87.0453 42.9224 86.518 46.2752 85.4929 49.5292C84.8333 51.6215 84.035 53.6634 82.6779 55.4196C82.1906 56.0519 81.5856 56.5939 81.0247 57.1695C80.9364 57.2598 80.802 57.3039 80.6885 57.3691C80.6528 57.3481 80.6171 57.3271 80.5793 57.306C80.6234 57.138 80.657 56.9678 80.7159 56.804C81.241 55.3566 81.8208 53.9281 82.2893 52.4639C82.9951 50.256 83.367 47.9872 83.5077 45.6638C83.6569 43.2249 83.4594 40.807 83.2871 38.3827C83.2073 37.2484 83.1338 36.114 83.0561 34.9796C83.054 34.9628 83.0603 34.9418 83.054 34.9271C82.993 34.7758 82.93 34.6246 82.867 34.4712C82.7136 34.5405 82.5225 34.572 82.4153 34.6855C82.1275 34.988 81.8502 35.3073 81.6171 35.6518C81.1402 36.364 80.9007 37.1853 80.7873 38.0109C80.5541 39.7062 80.3713 41.412 80.2432 43.1178C80.073 45.3866 79.9827 47.6637 79.4743 49.8884C79.092 51.5585 78.4891 53.1403 77.2518 54.3965C77.1425 54.5079 77.0186 54.6087 76.8946 54.7054C76.8505 54.7579 76.7791 54.7726 76.6153 54.8398Z" fill="#38EB38"/>
<path d="M124.761 23.3829C125.816 22.8157 126.369 21.9145 126.885 20.9818C126.929 20.9902 126.976 20.9965 127.02 21.0049C127.064 21.1519 127.135 21.2969 127.144 21.446C127.247 23.1812 126.997 24.8702 126.408 26.5025C125.226 29.7838 123.161 32.4328 120.518 34.6617C118.684 36.2078 116.674 37.464 114.439 38.3421C113.983 38.5207 113.514 38.6657 113.052 38.8295C112.911 38.8799 112.777 38.9409 112.569 39.0249C112.716 39.1572 112.789 39.2518 112.884 39.3064C113.689 39.7622 114.56 40.0101 115.481 40.0668C116.98 40.1614 118.447 39.9639 119.89 39.5501C122.297 38.8568 124.53 37.7834 126.642 36.4515C127.408 35.9683 128.127 35.4053 128.871 34.8802C128.99 34.7961 129.123 34.731 129.316 34.6197C129.316 34.8129 129.345 34.9222 129.312 35.0041C128.368 37.38 127.4 39.7433 125.993 41.8966C125.402 42.7999 124.642 43.5519 123.841 44.2557C122.457 45.472 120.961 46.5434 119.329 47.4005C117.917 48.1399 116.464 48.7953 114.863 49.0306C114.588 49.0705 114.306 49.1062 114.029 49.1083C111.964 49.1231 109.899 49.1462 107.844 48.8878C107.134 48.7974 106.433 48.642 105.731 48.497C105.552 48.4613 105.389 48.3563 105.218 48.2849C105.216 48.2387 105.214 48.1924 105.21 48.1462C105.424 48.0727 105.632 47.9719 105.853 47.9277C107.277 47.6462 108.706 47.3858 110.13 47.1001C112.619 46.6001 115.002 45.8144 117.119 44.3607C117.329 44.2158 117.527 44.0519 117.699 43.7977C117.573 43.783 117.443 43.7494 117.319 43.7599C114.453 43.9952 111.701 43.5225 109.056 42.4239C108.554 42.2159 108.208 42.239 107.731 42.5583C104.592 44.6632 101.422 46.7198 98.2567 48.7848C97.9563 48.9802 97.6202 49.1189 97.2504 49.31C97.1937 48.8899 97.4416 48.6903 97.6139 48.4697C98.4542 47.3942 99.3302 46.3459 100.141 45.2493C101.391 43.5624 102.609 41.8525 103.824 40.1404C105.733 37.4472 107.151 34.5167 108.054 31.3362C108.716 29.0002 108.653 26.6747 108.071 24.3345C107.46 21.8725 106.861 19.4084 106.288 16.9379C105.91 15.3077 105.962 13.6734 106.372 12.0474C106.477 11.6336 106.552 11.2113 106.641 10.7912C106.681 10.787 106.721 10.7828 106.76 10.7786C106.811 10.871 106.893 10.9592 106.91 11.058C107.206 12.8625 107.96 14.4906 108.777 16.1039C109.472 17.4757 110.151 18.8622 110.731 20.2844C111.369 21.8515 111.573 23.53 111.737 25.2063C111.811 25.9731 111.882 26.7399 111.966 27.5045C111.993 27.7587 112.054 28.0087 112.126 28.3952C112.319 28.181 112.439 28.0696 112.535 27.9394C115.531 23.9606 117.312 19.4903 117.913 14.5536C118.136 12.7302 118.291 10.8983 118.485 9.0728C118.512 8.80601 118.581 8.54342 118.632 8.27873C118.678 8.26823 118.726 8.25772 118.772 8.24512C118.898 8.36906 119.041 8.4825 119.15 8.62115C120.333 10.0938 121.201 11.7491 121.97 13.4612C122.881 15.4926 123.69 17.5618 124.129 19.755C124.331 20.7654 124.469 21.7906 124.64 22.8073C124.667 22.9817 124.709 23.1413 124.761 23.3829ZM121.159 18.7907C119.371 24.7001 116.31 29.9372 113.014 35.1848C113.313 35.1848 113.495 35.2058 113.672 35.1806C114.949 35.0083 116.092 34.502 117.13 33.7542C119.774 31.8488 121.19 29.246 121.503 26.0172C121.705 23.9312 121.592 21.8578 121.335 19.7865C121.295 19.4546 121.22 19.1248 121.159 18.7907Z" fill="#38EB38"/>
<path d="M87.1101 55.9172C87.1437 55.7554 87.1626 55.5874 87.2152 55.4298C87.9315 53.2661 88.4168 51.0435 88.8222 48.8062C89.2991 46.1698 89.5806 43.5124 89.7234 40.834C89.8936 37.6304 89.8369 34.431 89.5827 31.2379C89.3201 27.9398 88.9356 24.6542 88.2529 21.4149C87.7845 19.1924 87.1941 16.9929 86.6501 14.7871C86.1879 12.9175 85.7531 11.0416 85.627 9.11309C85.501 7.20143 85.6438 5.32969 86.587 3.605C87.5387 1.8635 89.047 0.775328 90.8431 0.0379749C90.9061 0.0127663 90.9796 0.00646245 91.0469 0.000160287C91.0784 -0.00194043 91.112 0.0169657 91.1813 0.0358722C91.1876 0.105196 91.2212 0.197628 91.1939 0.26275C90.6645 1.53159 90.904 2.77941 91.3242 4.00413C91.8578 5.56287 92.5195 7.06909 93.364 8.48707C93.6014 8.88411 93.8387 9.29585 94.3156 9.58365C94.7147 8.89671 94.7336 7.95769 95.6685 7.6846C95.7168 7.75392 95.7777 7.80434 95.7903 7.86316C96.139 9.51853 96.9877 10.9512 97.7839 12.4112C98.9897 14.6212 100.214 16.8248 101.345 19.0747C102.189 20.7532 102.752 22.5451 102.962 24.4252C103.195 26.5071 102.725 28.4376 101.513 30.1455C100.908 30.9984 100.219 31.7967 99.5107 32.5676C97.7818 34.4478 96.0046 36.2838 94.2778 38.1661C93.2988 39.2332 92.7884 40.5231 92.7296 41.9768C92.7106 42.4557 92.7274 42.9347 92.8052 43.4452C93.9522 42.4873 94.9794 41.4558 95.9857 40.4054C97.0024 39.3446 98.0276 38.2879 99.0023 37.1892C99.977 36.0906 100.899 34.9457 101.838 33.8155C102.769 32.6937 103.615 31.5047 104.565 30.3997C104.613 30.4165 104.662 30.4333 104.71 30.4522C104.729 30.5951 104.771 30.74 104.76 30.8808C104.653 32.2903 104.284 33.6348 103.742 34.9331C102.71 37.3972 101.349 39.6765 99.8447 41.878C98.3532 44.0607 96.7356 46.1425 95.034 48.1676C93.24 50.2998 91.3179 52.3081 89.3117 54.2345C88.6604 54.8584 87.9504 55.4214 87.2677 56.0117C87.2131 55.9802 87.1605 55.9487 87.1101 55.9172ZM91.6351 12.4049C91.5973 12.4238 91.5594 12.4448 91.5216 12.4637C93.4018 19.7911 94.3513 27.1961 93.4228 34.7713C93.5383 34.7272 93.6161 34.6831 93.656 34.6158C94.4416 33.2735 95.2924 31.9626 95.9836 30.572C96.7923 28.946 97.1201 27.1667 97.3301 25.3643C97.5927 23.1018 97.2335 20.9317 96.4352 18.8268C95.4878 16.3333 93.8576 14.3166 91.8914 12.5541C91.8178 12.491 91.7212 12.4553 91.6351 12.4049Z" fill="#38EB38"/>
<path d="M105.422 124.201C104.784 123.92 104.508 124.067 104.368 124.827C104.643 124.724 104.865 124.64 105.088 124.558C105.103 124.579 105.143 124.613 105.136 124.632C104.838 125.506 104.611 126.418 104.214 127.243C103.624 128.47 102.914 129.638 102.246 130.827C102.04 131.192 101.79 131.535 101.597 131.907C101.013 133.031 100.296 134.062 99.4898 135.035C98.6453 136.051 98.0424 137.219 97.4331 138.383C96.5088 140.152 95.6328 141.952 94.2505 143.425C93.5321 144.19 92.7927 144.942 92.0028 145.631C91.2339 146.303 90.297 146.723 89.3391 147.072C87.7572 147.647 86.1292 148.026 84.4654 148.311C82.9466 148.572 81.474 148.467 79.9908 148.149C78.6233 147.857 77.2431 147.62 75.8839 147.294C74.5416 146.973 73.3379 146.33 72.2203 145.526C71.9787 145.351 71.7329 145.166 71.8779 144.755C70.8884 144.732 70.4494 143.98 69.92 143.377C68.6659 141.952 67.6449 140.366 66.7521 138.692C66.3656 137.967 65.9622 137.245 65.4959 136.57C65.0715 135.955 64.519 135.428 64.0842 134.818C63.2628 133.665 62.4792 132.484 61.6957 131.306C61.2209 130.592 60.784 129.852 60.3071 129.142C59.8596 128.478 59.5403 127.762 59.387 126.983C59.1601 125.842 58.6538 124.834 57.9732 123.907C57.219 122.88 56.6161 121.783 56.3724 120.519C56.2905 120.09 56.2338 119.655 56.1813 119.22C56.0973 118.504 55.8073 117.887 55.3641 117.319C53.9986 115.576 53.3852 113.567 53.3327 111.372C53.3306 111.267 53.3327 111.16 53.3495 111.057C53.4083 110.715 53.5785 110.593 53.9062 110.725C54.1751 110.834 54.4566 110.979 54.6604 111.181C55.1603 111.675 55.717 111.862 56.4229 111.773C56.7653 111.731 57.1518 111.83 57.4858 111.954C58.8009 112.441 59.7987 113.364 60.7482 114.361C61.3743 115.019 62.0213 115.664 62.7187 116.242C63.8342 117.166 65.1535 117.401 66.5714 117.218C66.9832 117.166 67.4117 117.158 67.8235 117.206C68.4705 117.281 68.9873 117.586 69.399 118.134C69.8045 118.674 70.3212 119.128 70.7813 119.628C70.9578 119.821 71.109 120.038 71.2792 120.237C71.9724 121.052 72.8547 121.535 73.8862 121.806C75.2999 122.178 76.6087 122.794 77.8481 123.573C78.6338 124.067 78.8229 124.81 78.8565 125.642C78.8712 125.999 78.7535 126.088 78.4006 125.983C77.7641 125.796 77.1318 125.586 76.5037 125.367C75.4806 125.008 74.4597 124.64 73.4429 124.264C72.235 123.819 71.1573 123.132 70.1007 122.411C69.8444 122.237 69.5482 122.119 69.2688 121.983C69.1595 121.93 69.0356 121.905 68.9264 121.851C67.4979 121.115 66.0778 120.367 64.6409 119.647C64.1598 119.405 63.6493 119.214 63.1389 119.048C62.3994 118.809 61.7923 118.403 61.3028 117.802C60.9163 117.328 60.5046 116.876 60.0991 116.418C59.5109 115.754 58.7547 115.311 58.0152 114.843C56.9964 114.198 56.0006 113.515 54.9944 112.849C54.8914 112.782 54.7969 112.694 54.6856 112.656C54.6015 112.628 54.4755 112.639 54.402 112.687C54.3557 112.717 54.36 112.843 54.36 112.925C54.36 112.973 54.3894 113.025 54.4146 113.07C54.8767 113.845 55.049 114.735 55.4082 115.544C55.7443 116.303 56.2338 117.011 56.7527 117.662C57.5488 118.662 58.0341 119.767 58.2946 121.01C58.408 121.548 58.658 122.067 58.9143 122.559C59.5046 123.693 60.0634 124.829 60.4016 126.079C60.5445 126.611 60.9373 127.092 61.2839 127.546C61.6642 128.046 62.0948 128.514 62.5486 128.945C63.0422 129.413 63.4204 129.949 63.6746 130.571C64.0632 131.522 64.6976 132.293 65.5106 132.89C66.4034 133.545 67.0798 134.375 67.6995 135.272C68.2163 136.02 68.7457 136.759 69.2793 137.497C69.4011 137.665 69.5377 137.835 69.7036 137.959C70.7288 138.719 71.7434 139.499 72.8001 140.213C74.7117 141.507 76.8062 142.354 79.1106 142.627C80.0287 142.736 80.953 142.809 81.8752 142.881C82.1777 142.904 82.4634 142.908 82.684 143.164C82.8289 143.333 83.0558 143.366 83.1924 143.19C83.5075 142.78 83.9864 142.761 84.4087 142.635C85.5305 142.301 86.6753 142.041 87.7908 141.686C88.3517 141.507 88.8769 141.202 89.4 140.921C91.2864 139.906 93.009 138.642 94.6644 137.293C95.0509 136.978 95.3723 136.564 95.6496 136.144C96.4122 134.991 97.139 133.82 98.2776 132.97C98.6768 132.671 98.9898 132.249 99.3091 131.856C99.7166 131.35 100.147 130.886 100.7 130.518C101 130.319 101.196 129.945 101.406 129.627C101.87 128.93 102.326 128.224 102.765 127.51C102.956 127.199 103.097 126.857 103.277 126.539C103.412 126.302 103.571 126.079 103.758 125.789C103.538 125.331 103.756 124.84 103.979 124.369C104.366 123.548 104.807 122.75 105.185 121.924C105.431 121.388 105.63 120.828 105.8 120.262C105.991 119.622 106.202 119.002 106.58 118.439C107.231 117.466 107.603 116.374 107.849 115.235C107.93 114.859 108.042 114.49 108.105 114.112C108.128 113.977 108.084 113.788 107.996 113.696C107.939 113.637 107.72 113.666 107.617 113.727C106.893 114.149 106.17 114.578 105.464 115.03C105.281 115.147 105.111 115.332 105.01 115.525C104.645 116.231 104.095 116.765 103.471 117.218C102.525 117.908 101.588 118.62 100.584 119.216C99.4561 119.886 98.2314 120.363 96.95 120.685C96.2357 120.863 95.5551 121.113 94.927 121.529C93.8913 122.214 92.8389 122.876 91.7612 123.493C91.2969 123.76 90.755 123.884 90.2508 124.082C88.8832 124.621 87.5198 125.168 86.1544 125.712C86.0724 125.743 85.9926 125.789 85.9086 125.802C85.6544 125.838 85.3813 126.117 85.146 125.802C84.917 125.495 84.9738 124.966 85.1607 124.672C86.0031 123.338 87.3077 122.659 88.7173 122.126C89.3055 121.903 89.8916 121.666 90.4924 121.481C91.7444 121.096 92.6603 120.311 93.3388 119.21C93.6897 118.643 94.0573 118.09 94.6287 117.71C95.3765 117.212 96.221 117.019 97.076 117.162C98.6999 117.435 100.116 117.019 101.441 116.109C102.462 115.408 103.271 114.485 104.103 113.591C105.086 112.534 106.271 111.925 107.68 111.656C108.306 111.536 108.907 111.267 109.504 111.03C109.743 110.933 109.953 110.824 110.187 111.002C110.424 111.183 110.428 111.454 110.315 111.67C110.048 112.181 109.947 112.712 109.853 113.278C109.762 113.828 109.441 114.353 109.157 114.853C108.327 116.321 107.792 117.895 107.561 119.55C107.311 121.321 106.445 122.769 105.422 124.201ZM75.7054 124.764C75.7327 124.401 75.51 124.1 75.1823 124.04C75.0857 124.023 74.9701 124.098 74.8651 124.13C74.9071 124.233 74.9197 124.382 74.9953 124.428C75.197 124.556 75.4302 124.64 75.7054 124.764ZM91.2066 143.86C91.257 143.877 91.3095 143.893 91.36 143.91C91.402 143.822 91.5007 143.713 91.4755 143.652C91.4335 143.547 91.3242 143.454 91.2234 143.393C91.1982 143.379 91.0238 143.515 91.0322 143.557C91.0553 143.667 91.1436 143.759 91.2066 143.86Z" fill="#FF517D"/>
<path d="M56.8857 5.47492C56.7618 5.74802 56.6778 5.96649 56.5664 6.17026C55.9698 7.26474 55.4299 8.38022 55.1652 9.60914C54.6148 12.1699 55.1694 14.4471 56.9971 16.3504C57.9277 17.3209 58.9297 18.2242 59.9213 19.1338C61.3119 20.4132 62.7614 21.6295 64.1122 22.9487C66.82 25.5914 68.6876 28.7509 69.8346 32.3621C70.698 35.0804 71.6412 37.7777 72.2462 40.5675C72.7042 42.685 73.0529 44.8298 73.3806 46.9726C73.6033 48.4242 73.7041 49.8926 73.8575 51.3547C73.8701 51.4828 73.8596 51.6152 73.8596 51.882C73.6306 51.7055 73.4919 51.6194 73.3764 51.508C71.4731 49.6447 69.3997 47.9788 67.3494 46.2856C64.4504 43.8887 61.5325 41.5149 58.8121 38.91C56.4425 36.637 54.2262 34.238 52.4574 31.4608C51.2747 29.6038 50.3189 27.6312 49.9239 25.4486C49.4345 22.7471 49.3084 20.0371 49.8462 17.3104C50.3441 14.7853 51.0604 12.3464 52.323 10.0923C53.3103 8.3277 54.5602 6.79207 56.287 5.6892C56.4047 5.61357 56.5265 5.54635 56.6504 5.48122C56.6736 5.46442 56.7135 5.47492 56.8857 5.47492ZM54.2682 20.4426C54.2682 20.6946 54.264 20.8564 54.2682 21.0182C54.3208 22.4298 54.6506 23.7848 55.1085 25.1146C56.2009 28.2783 57.7932 31.1877 59.6062 33.9838C61.083 36.2631 62.7005 38.4352 64.5366 40.4393C65.4609 41.4477 66.4587 42.3762 67.612 43.1219C67.8032 43.2459 67.9901 43.4518 68.3199 43.3047C68.3073 43.1409 68.3032 42.9707 68.2779 42.8047C67.8977 40.349 67.1457 38.0025 66.0953 35.7589C64.7823 32.9566 63.0576 30.4063 61.1418 27.9863C60.2952 26.917 59.3982 25.8876 58.4886 24.873C57.205 23.4403 55.8879 22.037 54.5833 20.6232C54.5329 20.5686 54.4468 20.5434 54.2682 20.4426Z" fill="#38EB38"/>
<path d="M38.3565 42.13C38.493 42.2056 38.5686 42.2245 38.6064 42.2729C39.3165 43.1636 40.3248 43.5228 41.3731 43.7602C42.1735 43.9408 42.9949 44.0837 43.8099 44.111C44.499 44.1341 45.1964 43.985 45.8876 43.8862C46.9421 43.7371 47.9904 43.5018 49.0491 43.4178C50.4398 43.3106 51.8011 43.6068 53.1476 43.9366C53.7211 44.0774 54.2925 44.2307 54.9795 44.4072C54.9291 44.1467 54.9228 43.9829 54.8639 43.8421C54.5551 43.1048 54.011 42.5439 53.3577 42.1342C52.2632 41.4452 51.1373 40.8024 49.9987 40.1889C48.4252 39.3424 46.8476 38.5084 45.4065 37.4433C42.1651 35.0548 40.2072 31.8764 39.5434 27.9018C39.2514 26.1519 39.1085 24.3936 39.2493 22.6206C39.264 22.4379 39.2976 22.2593 39.3354 21.9841C40.0412 22.3685 40.4278 23.1038 41.2807 23.192C41.2933 22.9798 41.3164 22.7971 41.3122 22.6164C41.2786 20.3371 41.5811 18.1125 42.3688 15.9655C43.0474 14.1169 44.0032 12.4489 45.4842 11.1108C46.4947 10.1969 47.6627 9.59824 48.9609 9.23062C49.0365 9.20961 49.1248 9.22852 49.2907 9.22852C49.2088 9.37347 49.1794 9.50371 49.1017 9.54993C47.1732 10.6948 46.4652 12.6275 45.9086 14.6148C44.9905 17.8835 44.7574 21.2257 45.0179 24.6058C45.1439 26.236 45.4191 27.8325 46.0346 29.3618C46.4127 30.3008 46.9715 31.1096 47.6228 31.8785C49.0849 33.6032 50.8852 34.9371 52.6477 36.3173C54.5488 37.8067 56.45 39.2919 58.1074 41.067C59.83 42.9157 60.9119 45.0626 61.3657 47.5373C61.3825 47.6234 61.393 47.7095 61.3993 47.7978C61.4329 48.2641 61.3468 48.3334 60.9077 48.2242C58.3553 47.5961 55.7736 47.1339 53.1519 46.9197C52.2275 46.844 51.3557 47.157 50.4755 47.3839C49.1542 47.7221 47.8475 48.1381 46.5073 48.3713C44.2532 48.762 42.1861 48.2515 40.4362 46.7243C39.161 45.613 38.5287 44.1593 38.3165 42.506C38.306 42.4115 38.3376 42.3086 38.3565 42.13Z" fill="#38EB38"/>
<path d="M73.3147 113.653C73.6487 113.691 73.8399 113.75 74.0163 113.718C74.1151 113.702 74.1886 113.536 74.2747 113.439C74.1844 113.37 74.1025 113.267 73.9995 113.237C73.8756 113.202 73.7327 113.229 73.529 113.229C73.5794 113.046 73.5983 112.914 73.6508 112.798C74.3293 111.338 76.1654 110.859 77.5981 111.704C77.8691 111.863 78.1148 112.063 78.3774 112.235C78.5161 112.328 78.6652 112.403 78.89 112.532C78.9152 112.29 78.953 112.141 78.9425 111.996C78.9173 111.63 78.8816 111.263 78.8291 110.901C78.7177 110.111 78.7892 109.359 79.2912 108.704C79.6526 108.233 79.7744 107.708 79.7282 107.126C79.6988 106.761 79.7072 106.391 79.6757 106.026C79.5874 104.988 79.6547 103.973 79.9173 102.956C80.0433 102.467 80.016 101.917 79.9593 101.406C79.8795 100.7 79.85 100.026 80.1231 99.3432C80.3857 98.6857 80.808 98.2907 81.5012 98.1122C82.1923 97.9336 82.8205 98.0218 83.4171 98.3748C83.8666 98.6395 84.1355 99.0344 84.1082 99.5848C84.0746 100.299 84.0179 101.015 84.0179 101.73C84.0179 102.604 84.1103 103.467 84.3855 104.311C84.7342 105.383 84.7972 106.467 84.3981 107.555C84.3372 107.721 84.3582 108.011 84.4653 108.131C85.251 109.007 85.2279 110.044 85.1292 111.107C85.0934 111.5 85.0787 111.895 85.0556 112.288C85.0955 112.309 85.1355 112.33 85.1733 112.351C85.3224 112.25 85.5136 112.181 85.6144 112.044C86.795 110.471 89.881 110.966 90.6477 113.395C90.6961 113.544 90.736 113.697 90.7717 113.851C90.8641 114.25 90.8599 114.254 90.3873 114.775C91.0196 114.874 90.9566 115.33 90.9061 115.765C90.799 116.712 90.5931 117.634 90.0175 118.42C89.8033 118.714 89.5995 119.075 89.0764 119.067C89.0848 118.911 89.0869 118.783 89.0995 118.655C89.1499 118.187 89.2045 117.72 89.2529 117.25C89.2634 117.147 89.276 117.023 89.2319 116.939C89.0617 116.607 88.942 116.115 88.6689 116.004C88.2781 115.842 87.7508 115.93 87.4231 116.325C87.1921 116.605 86.9547 116.907 86.8223 117.239C86.3539 118.424 85.8686 119.6 85.4674 120.817C85.0073 122.203 84.3036 123.51 83.6755 124.838C83.3309 125.564 82.9276 126.262 82.5453 126.97C82.3898 127.26 82.1545 127.451 81.8289 127.541C81.3836 127.665 81.1672 127.585 81.0012 127.157C80.7996 126.636 80.642 126.096 80.4298 125.579C79.8984 124.285 79.3228 123.008 78.8144 121.705C78.4531 120.779 78.18 119.817 77.8501 118.878C77.6716 118.367 77.4888 117.853 77.2472 117.372C77.0939 117.067 76.8544 116.792 76.6065 116.554C76.3502 116.311 76.033 116.138 75.6528 116.317C75.2747 116.493 75.0142 116.792 75.0142 117.206C75.0142 117.67 75.1087 118.136 75.1507 118.603C75.1654 118.762 75.2074 119.012 75.1297 119.065C75.0163 119.142 74.7663 119.142 74.6465 119.065C74.3314 118.857 73.9869 118.638 73.7832 118.336C73.4134 117.785 73.1298 117.174 73.3882 116.466C73.4176 116.384 73.3882 116.26 73.3441 116.178C73.0983 115.729 73.1151 115.298 73.3441 114.838C73.4239 114.678 73.3693 114.449 73.363 114.254C73.3588 114.063 73.3336 113.874 73.3147 113.653ZM77.0897 114.368C76.8187 114.758 76.5771 115.107 76.3166 115.485C77.1233 115.302 77.4069 114.895 77.0897 114.368ZM89.7444 112.782C89.6919 112.798 89.6373 112.813 89.5848 112.83C89.5533 113.101 89.5029 113.372 89.4924 113.643C89.4818 113.966 89.6205 114.029 89.9944 113.901C89.8978 113.687 89.9083 113.515 89.923 113.195C89.9293 113.061 89.8075 112.92 89.7444 112.782ZM80.9781 123.869C81.6251 124.064 81.831 123.867 81.7407 123.207C81.4907 123.424 81.2659 123.619 80.9781 123.869Z" fill="white"/>
<path d="M36.5187 96.5915C36.3863 96.3751 36.2981 96.2848 36.2666 96.1776C35.7981 94.5622 34.9284 93.1379 34.0797 91.7115C33.3445 90.4784 32.8466 89.1696 32.5021 87.7874C32.0462 85.9702 32.0063 84.1195 32 82.2625C31.9979 81.8234 32.166 81.4726 32.5378 81.2436C33.2058 80.8298 33.8802 80.4222 34.565 80.0378C34.9452 79.8256 35.3339 79.9349 35.733 80.3613C36.2939 80.9621 36.8527 81.5671 37.3716 82.2037C39.842 85.2476 42.1297 88.426 44.3712 91.6422C44.3817 91.6569 44.3901 91.6716 44.4006 91.6842C45.7555 93.1547 46.2744 94.9676 46.5475 96.8835C46.6 97.2469 46.6967 97.604 46.7555 97.9654C46.7765 98.0893 46.745 98.2216 46.7324 98.4611C46.5496 98.2889 46.4362 98.2133 46.3627 98.1103C45.1968 96.4928 44.0519 94.8605 42.8692 93.2577C42.1129 92.2325 41.3272 91.2284 40.5121 90.2494C39.7412 89.323 38.9555 88.4029 38.1026 87.5563C37.2119 86.6698 36.233 85.8736 35.2918 85.0375C35.2393 84.9913 35.1763 84.9577 35.1133 84.9262C34.773 84.7581 34.6091 84.8338 34.5923 85.2098C34.5776 85.5585 34.5881 85.9114 34.6301 86.258C34.7814 87.508 34.9473 88.7558 35.1175 90.0015C35.2162 90.7263 35.5502 91.3649 35.901 91.9909C36.4977 93.0602 36.9325 94.1715 36.8443 95.4298C36.817 95.7974 36.7539 96.1482 36.5187 96.5915Z" fill="white"/>
<path d="M127.6 96.356C127.564 96.1943 127.501 96.0325 127.495 95.8686C127.438 94.3813 127.562 92.9402 128.377 91.621C128.972 90.6588 129.066 89.5434 129.157 88.4405C129.209 87.7977 129.297 87.1569 129.354 86.5141C129.388 86.1318 129.419 85.7453 129.402 85.3629C129.379 84.8462 129.041 84.6529 128.625 84.9659C128.112 85.3503 127.629 85.7957 127.211 86.2809C126.896 86.6465 126.621 86.9006 126.106 86.7347C125.825 86.6444 125.56 86.8082 125.571 87.0792C125.611 88.0813 124.968 88.6611 124.394 89.3564C123.583 90.3353 122.972 91.4739 122.216 92.5033C121.714 93.1881 121.111 93.7973 120.573 94.4191C120.289 94.3477 120.258 93.8961 119.901 94.1691C119.947 94.2469 119.976 94.3309 120.033 94.3813C120.241 94.5662 120.212 94.7511 120.033 94.9212C119.594 95.3435 119.136 95.7468 118.703 96.1753C118.397 96.4799 118.124 96.8203 117.823 97.1312C117.697 97.2614 117.54 97.3643 117.365 97.503C117.17 97.1648 117.266 96.9064 117.39 96.6564C118.401 94.6208 119.371 92.5621 120.445 90.5601C120.911 89.6904 121.56 88.9131 122.176 88.1317C123.182 86.8544 124.247 85.6234 125.247 84.3399C125.795 83.6382 126.251 82.8652 126.766 82.1362C127.058 81.7224 127.381 81.3295 127.697 80.9346C127.997 80.5586 128.36 80.4493 128.856 80.5481C129.837 80.7434 130.682 81.2455 131.57 81.6489C131.803 81.7539 131.904 81.9409 131.919 82.1887C132.093 85.073 131.89 87.8964 130.524 90.5202C129.856 91.8058 129.138 93.0684 128.491 94.3666C128.253 94.8435 128.167 95.3939 128.001 95.9064C127.947 96.0724 127.852 96.2279 127.776 96.3875C127.72 96.3749 127.661 96.3665 127.6 96.356Z" fill="white"/>
<path d="M86.0879 94.995C86.2496 94.9152 86.4093 94.8312 86.5753 94.7598C87.8273 94.222 89.1234 93.7661 90.3271 93.1359C92.6169 91.9385 94.7156 90.4575 96.457 88.5206C96.6608 88.2958 96.8898 88.2685 97.1629 88.2769C97.7931 88.2979 97.7658 88.2748 98.062 87.7118C98.2196 87.4135 98.4527 87.1257 98.7195 86.922C99.0914 86.6384 99.5304 86.4409 99.9338 86.1972C100.501 85.8527 101.081 85.5229 101.623 85.1427C102.209 84.7309 102.784 84.5545 103.534 84.6868C104.047 84.7771 104.633 84.586 105.158 84.4242C105.62 84.2814 106.034 83.9915 106.484 83.7961C106.933 83.6007 107.011 83.6512 107.158 84.1154C107.322 84.6364 107.425 84.6784 107.895 84.4032C108.061 84.3066 108.211 84.1805 108.374 84.0818C108.599 83.9453 108.761 84.0188 108.782 84.2772C108.919 85.9304 108.585 87.7118 106.828 88.779C106.318 89.0899 106.188 89.0395 105.984 88.4975C105.69 87.7202 105.274 87.4198 104.433 87.4345C103.425 87.4514 102.532 87.8547 101.648 88.2916C100.631 88.7916 99.9484 89.6151 99.3896 90.5667C99.3098 90.7033 99.2342 90.8398 99.1544 90.9764C99.0178 91.2137 98.8267 91.344 98.5452 91.2621C97.875 91.0646 97.3793 91.3251 96.8982 91.7851C95.6399 92.9931 94.1063 93.6821 92.4195 94.0707C92.1905 94.1233 91.9909 94.3291 91.7976 94.4909C91.6947 94.577 91.6422 94.722 91.554 94.8312C91.1317 95.3522 91.0498 95.3816 90.4616 95.077C90.1381 94.9089 89.8587 94.9131 89.5163 95.0455C88.5709 95.4089 87.5941 95.5833 86.5858 95.3291C86.4156 95.2849 86.2538 95.1988 86.09 95.1316C86.0921 95.0833 86.09 95.0392 86.0879 94.995Z" fill="#38EB38"/>
<path d="M116.271 56.0158C116.271 55.8499 116.243 55.6776 116.275 55.5159C116.666 53.5685 117.386 51.7556 118.974 50.4951C120.285 49.4553 121.737 48.5919 123.136 47.6634C123.529 47.4029 123.949 47.1823 124.365 46.9575C126.589 45.7664 128.113 43.8968 129.352 41.7645C129.995 40.6595 130.602 39.5357 131.23 38.4244C131.31 38.2836 131.417 38.1597 131.511 38.0273C131.556 38.0378 131.598 38.0484 131.642 38.061C131.665 38.2227 131.703 38.3824 131.711 38.5441C131.81 40.815 131.404 43.0061 130.646 45.1362C130.268 46.1971 129.602 47.0752 128.806 47.8524C127.747 48.886 126.533 49.72 125.241 50.4279C124.092 51.0581 122.892 51.598 121.743 52.2282C121.025 52.6211 120.331 53.0706 119.674 53.5601C118.705 54.2806 117.781 55.0579 116.834 55.8079C116.703 55.9108 116.561 55.9948 116.424 56.0872C116.376 56.0641 116.323 56.0389 116.271 56.0158Z" fill="#38EB38"/>
<path d="M77.9246 95.3815C77.6221 95.6483 77.2503 95.6525 76.8953 95.6483C75.8008 95.6315 74.7357 95.4151 73.7211 95.0097C71.967 94.3081 70.2297 93.5644 68.4735 92.8649C67.9357 92.6506 67.6269 92.3103 67.4756 91.7536C67.1353 90.4952 67.1626 90.6927 66.1144 91.0477C65.8034 91.1528 65.6501 91.0898 65.4778 90.8125C64.6376 89.4617 63.4065 88.5626 61.9801 87.9198C61.3436 87.632 60.6567 87.611 59.9677 87.6467C59.4656 87.6719 59.1526 88.0101 58.8312 88.3315C58.7576 88.405 58.7093 88.5017 58.6442 88.5857C58.3459 88.9722 58.2219 89.0142 57.8963 88.6697C57.4426 88.1908 56.9846 87.6971 56.6338 87.1425C56.1254 86.3358 55.8733 85.4178 55.7809 84.4641C55.72 83.8318 55.7977 83.7435 56.3901 83.9221C57.3607 84.2141 58.3165 84.5586 59.2849 84.859C59.9025 85.0502 60.5285 85.2098 61.1546 85.3716C61.4571 85.4493 61.5768 85.3044 61.4739 84.9914C61.4045 84.7813 61.31 84.5796 61.184 84.2645C61.4445 84.2876 61.602 84.2876 61.7554 84.3149C63.3813 84.6174 64.6439 85.5039 65.6837 86.7539C65.9946 87.1278 66.3349 87.4597 66.4589 87.9744C66.5702 88.4407 66.7131 88.487 67.2382 88.4386C67.5744 88.4071 67.8537 88.487 68.0953 88.7327C69.9839 90.6549 72.1224 92.2557 74.4185 93.6505C75.4374 94.2681 76.4667 94.869 77.6473 95.1357C77.7124 95.1505 77.7776 95.1883 77.8301 95.2303C77.8742 95.2555 77.8889 95.3122 77.9246 95.3815Z" fill="#38EB38"/>
<path d="M35.3237 22.4782C35.2544 23.3836 35.1766 24.287 35.1199 25.1924C35.0653 26.0831 34.9897 26.9738 34.996 27.8645C35.0044 29.0262 35.1976 30.1648 35.706 31.2298C35.7753 31.3748 35.8678 31.5113 36.0295 31.6521C36.2207 30.1648 36.8068 28.8875 37.6849 27.7489C37.7374 27.7594 37.7899 27.7699 37.8445 27.7804C37.8677 27.9611 37.8887 28.1439 37.9139 28.3245C38.0987 29.6753 38.2143 31.0408 38.4853 32.3747C38.9642 34.7359 40.2037 36.6308 42.2119 38.0068C42.9619 38.5193 43.6741 39.0886 44.3799 39.6621C44.653 39.8827 44.9429 40.1243 45.0542 40.5465C44.9135 40.5717 44.8147 40.6159 44.7265 40.6033C40.2856 39.8953 36.685 37.8177 34.2187 33.9986C32.9562 32.0428 32.4184 29.8707 32.7356 27.5305C32.9835 25.6965 33.7733 24.0916 34.8825 22.6337C34.9624 22.5286 35.0905 22.4572 35.1955 22.3711C35.2397 22.4026 35.2817 22.4404 35.3237 22.4782Z" fill="#38EB38"/>
<path d="M68.1307 100.987C63.6583 101.047 60.2467 98.0938 59.8055 94.1508C59.7572 93.7138 59.8349 93.5773 60.274 93.6298C61.1395 93.7306 62.0029 93.8672 62.8558 94.0458C63.5049 94.1802 64.1372 94.3924 64.7716 94.5919C65.259 94.7432 65.2737 94.8083 65.2611 95.3062C65.2506 95.6885 65.2401 96.0792 65.3073 96.4532C65.5216 97.6443 66.803 98.14 67.7673 97.4111C68.0572 97.1926 68.3072 96.9153 68.5529 96.6443C68.7966 96.3776 69.0424 96.3145 69.3911 96.4637C70.7398 97.0435 71.9477 97.827 73.0107 98.8375C73.3867 99.1967 73.3762 99.3543 72.9077 99.6232C72.0065 100.14 71.0339 100.487 70.0213 100.699C69.2861 100.85 68.5382 100.926 68.1307 100.987Z" fill="white"/>
<path d="M97.7555 101.007C96.4908 101.032 95.2682 100.822 94.0834 100.429C93.4406 100.217 92.8104 99.9419 92.2054 99.6352C91.6844 99.3705 91.6949 99.1688 92.115 98.7718C93.1318 97.8117 94.2893 97.0723 95.5665 96.5177C96.1001 96.2866 96.1631 96.3055 96.5686 96.7278C96.7009 96.8664 96.8353 97.0051 96.9677 97.1458C97.4719 97.6752 98.0769 97.879 98.7785 97.6521C99.518 97.4147 99.7406 96.7824 99.8457 96.1018C99.8898 95.8119 99.8709 95.5052 99.831 95.2132C99.7911 94.9233 99.8604 94.7552 100.152 94.6544C101.509 94.1817 102.892 93.812 104.322 93.6355C104.444 93.6208 104.566 93.6187 104.69 93.6166C105.268 93.6082 105.335 93.7342 105.253 94.3077C105.049 95.711 104.509 96.9504 103.625 98.0575C102.535 99.423 101.133 100.288 99.4592 100.719C98.9025 100.862 98.3248 100.914 97.7555 101.007Z" fill="white"/>
<path d="M48.0571 109.349C47.9605 109.863 47.9016 110.46 47.7336 111.023C47.2903 112.512 46.0971 113.475 44.2296 112.807C42.4377 112.168 41.3369 110.92 40.9672 109.09C40.734 107.931 40.6962 106.735 40.5407 105.559C40.4672 104.992 40.3222 104.435 40.2214 103.872C40.1962 103.734 40.2172 103.584 40.2172 103.439C40.3663 103.458 40.526 103.45 40.6583 103.505C40.7991 103.563 40.9272 103.671 41.0365 103.782C41.9944 104.74 43.1939 105.244 44.467 105.618C45.1875 105.83 45.906 106.053 46.6244 106.271C47.4122 106.511 47.8617 106.998 47.8764 107.866C47.8848 108.332 47.9857 108.798 48.0571 109.349Z" fill="white"/>
<path d="M35.5859 42.1699C35.6846 42.3401 35.777 42.4577 35.8253 42.588C35.9745 42.9997 36.1026 43.4178 36.2434 43.8316C36.9807 45.9722 38.05 47.8881 39.9112 49.2683C41.4784 50.43 43.2598 50.993 45.1925 51.0812C45.8878 51.1127 46.5894 51.0518 47.2869 51.0077C48.0074 50.9614 48.7511 50.8753 49.4065 51.203C50.085 51.5412 50.7006 52.0118 51.3392 52.4298C51.3665 52.4466 51.356 52.5223 51.3644 52.5643C50.8938 52.5265 50.4296 52.4319 49.9779 52.4719C49.4611 52.516 48.9591 52.7155 48.4444 52.7891C46.7134 53.0349 44.9803 53.2701 43.222 53.2176C41.0961 53.1525 39.1298 52.6315 37.4996 51.2093C36.006 49.909 34.9661 48.3208 34.6973 46.3104C34.5145 44.9492 34.8233 43.6677 35.3695 42.4304C35.3989 42.3548 35.4724 42.3002 35.5859 42.1699Z" fill="#38EB38"/>
<path d="M48.5764 55.8145C48.131 56.8229 47.4924 57.4678 46.7445 58.0329C45.3644 59.0749 43.8182 59.6589 42.0977 59.7933C41.1923 59.8647 40.3163 59.6673 39.4655 59.3984C37.6379 58.8207 35.9174 58.0077 34.3209 56.9384C34.1549 56.8271 34.0142 56.6779 33.8608 56.5456C33.8692 56.5036 33.8776 56.4595 33.8881 56.4174C34.0436 56.3943 34.1969 56.3523 34.3524 56.3502C34.9133 56.3439 35.4721 56.3586 36.033 56.3502C36.2304 56.346 36.4279 56.2956 36.6548 56.2074C35.0309 54.9532 34.136 53.3105 33.8062 51.3421C33.7747 51.1488 33.802 50.9451 33.802 50.7476C33.844 50.7266 33.886 50.7056 33.9259 50.6846C34.0562 50.798 34.199 50.9009 34.3146 51.0291C35.5099 52.3567 36.7346 53.6529 38.1337 54.7726C39.9235 56.2053 41.9486 56.7956 44.2216 56.4426C45.3959 56.2599 46.5618 56.0183 47.734 55.8208C47.9777 55.7809 48.234 55.8145 48.5764 55.8145Z" fill="#38EB38"/>
<path d="M124.254 102.972C124.271 103.226 124.3 103.344 124.281 103.453C123.907 105.602 123.645 107.78 122.817 109.82C122.582 110.398 122.284 110.959 121.947 111.484C121.605 112.019 121.059 112.307 120.441 112.454C119.914 112.578 119.391 112.715 118.864 112.845C117.775 113.114 116.889 112.58 116.567 111.501C116.307 110.625 116.362 109.734 116.399 108.845C116.423 108.289 116.54 107.736 116.591 107.182C116.63 106.732 116.885 106.543 117.296 106.484C117.71 106.425 118.122 106.312 118.538 106.293C119.599 106.247 120.5 105.797 121.33 105.201C122.109 104.642 122.842 104.018 123.601 103.428C123.775 103.293 123.962 103.175 124.254 102.972Z" fill="white"/>
<path d="M118.326 60.0616C118.179 59.6982 118.307 59.402 118.425 59.1163C119.143 57.3559 120.176 55.8013 121.639 54.5808C123.134 53.333 124.924 53.0557 126.787 53.354C127.621 53.4884 128.439 53.7972 129.229 54.1082C130.14 54.4695 130.672 55.232 131.071 56.0996C131.728 57.5302 131.777 59.0427 131.697 60.5742C131.695 60.6225 131.657 60.6687 131.602 60.7821C131.485 60.6981 131.359 60.6456 131.291 60.549C131.083 60.2465 130.888 59.9356 130.705 59.6162C130.092 58.5491 129.308 57.6458 128.218 57.0471C126.817 56.274 125.336 56.2698 123.836 56.6689C121.889 57.1857 120.288 58.2907 118.87 59.6856C118.759 59.7948 118.643 59.904 118.521 60.0028C118.49 60.0343 118.429 60.0343 118.326 60.0616Z" fill="#38EB38"/>
<path d="M36.1099 60.8711C36.3556 60.9131 36.6077 60.932 36.8451 61.0013C38.5929 61.5097 40.1768 62.3563 41.6537 63.4067C42.2797 63.852 42.8952 64.3121 43.3489 64.9549C43.7922 65.583 44.0401 66.291 44.2354 67.0157C44.7249 68.8139 44.8215 70.6352 44.4371 72.465C44.3846 72.715 44.206 72.9397 44.0842 73.1771C43.9266 72.986 43.7355 72.8116 43.6157 72.5994C42.0507 69.8076 40.0193 67.4464 37.3136 65.6965C37.1938 65.6187 37.1035 65.499 36.9985 65.3981C37.009 65.3519 37.0195 65.3078 37.0321 65.2616C37.7064 65.1734 38.3807 65.0851 39.1874 64.9801C38.2358 63.476 36.8724 62.4592 36.0195 61.056C36.0489 60.9929 36.0805 60.932 36.1099 60.8711Z" fill="#38EB38"/>
<path d="M99.3244 5.7145C99.6269 6.17035 99.9273 6.62621 100.23 7.07996C100.272 7.07156 100.316 7.06526 100.358 7.05686C100.375 6.81107 100.406 6.56529 100.408 6.3195C100.415 5.30065 100.513 4.29861 100.822 3.31757C101.116 2.39116 101.698 1.70002 102.452 1.12652C102.505 1.08661 102.578 1.0782 102.736 1.02148C102.746 1.27777 102.774 1.48785 102.763 1.69582C102.679 3.28606 102.568 4.87421 102.503 6.46445C102.402 8.90339 102.644 11.3213 102.965 13.7351C103.097 14.735 103.026 15.7265 102.803 16.7055C102.772 16.8399 102.686 16.9618 102.593 17.1508C102.467 16.9975 102.385 16.9302 102.343 16.8441C101.599 15.319 100.841 13.8002 100.125 12.2624C99.2004 10.2773 99.0135 8.16184 99.1143 6.0044C99.1185 5.92247 99.1563 5.84474 99.1773 5.76491C99.2299 5.75021 99.2782 5.7313 99.3244 5.7145Z" fill="#38EB38"/>
<path d="M120.692 85.6758C120.478 85.3145 120.419 84.8985 120.369 84.4952C120.301 83.9595 120.272 83.4154 120.262 82.8755C120.245 81.9134 120.245 80.9534 120.255 79.9912C120.272 78.3317 120.953 76.9557 122.215 75.9221C124.039 74.4285 125.923 73.0042 127.784 71.5547C127.872 71.4875 127.988 71.456 128.198 71.3594C128.152 71.601 128.148 71.7522 128.095 71.8825C127.501 73.3572 126.91 74.834 126.293 76.2982C126.024 76.9368 125.534 77.4094 125.018 77.8716C123.432 79.2854 122.131 80.9177 121.488 82.9806C121.262 83.7116 121.167 84.4826 121.005 85.2346C120.972 85.3922 120.904 85.5413 120.852 85.6947C120.797 85.6863 120.745 85.68 120.692 85.6758Z" fill="#38EB38"/>
<path d="M128.997 19.8984C130.048 21.4299 130.142 23.2197 130.249 25.1418C130.508 24.9108 130.676 24.7595 130.844 24.6062C131.018 24.4465 131.188 24.2826 131.377 24.1083C131.802 25.0662 131.129 28.1165 130.144 29.9126C128.69 32.5616 126.558 34.3976 123.766 35.4753C123.735 35.448 123.703 35.4186 123.672 35.3913C123.743 35.2862 123.798 35.1665 123.886 35.0761C126.062 32.8347 127.237 30.0743 127.991 27.1039C128.567 24.8393 128.854 22.5369 128.827 20.1967C128.827 20.1022 128.863 20.0077 128.882 19.911C128.922 19.9068 128.959 19.9026 128.997 19.8984Z" fill="#38EB38"/>
<path d="M119.609 74.1238C119.579 73.9663 119.537 73.8087 119.525 73.6491C119.271 70.3404 120.714 67.8553 123.346 66.013C124.474 65.2231 125.711 64.5866 126.903 63.887C127.077 63.7841 127.274 63.7211 127.573 63.5908C127.552 63.8513 127.571 64.0194 127.52 64.1622C127.192 65.0844 126.871 66.0109 126.501 66.9184C126.235 67.5738 125.806 68.1326 125.26 68.5884C124.844 68.9372 124.428 69.2859 123.995 69.6115C122.504 70.7396 121.187 72.0294 120.184 73.6239C120.063 73.8192 119.89 73.981 119.741 74.1595C119.699 74.1469 119.653 74.1343 119.609 74.1238Z" fill="#38EB38"/>
<path d="M60.0462 5.03734C60.0462 5.17178 60.0567 5.30833 60.0441 5.44067C59.9138 6.83765 59.9012 8.23464 60.0609 9.63162C60.231 11.1378 60.7835 12.4655 61.7877 13.6083C62.5607 14.4864 63.1636 15.4632 63.3989 16.6312C63.4388 16.8266 63.4451 17.0304 63.4745 17.295C63.2834 17.2425 63.1594 17.2341 63.0628 17.1795C61.6868 16.4022 60.3676 15.5451 59.2479 14.4192C58.0127 13.1776 57.3824 11.7029 57.7081 9.94462C57.9139 8.82704 58.3425 7.76617 58.8635 6.75152C59.1197 6.25365 59.3928 5.76419 59.6659 5.27682C59.7268 5.16758 59.8235 5.07725 59.9054 4.97852C59.9537 4.99742 59.9999 5.01843 60.0462 5.03734Z" fill="#38EB38"/>
<path d="M114.306 5.54352C114.321 5.72629 114.354 5.90905 114.35 6.08971C114.281 9.23659 114.232 12.3835 114.123 15.5304C114.085 16.6437 113.974 17.7676 113.575 18.8306C113.514 18.9944 113.403 19.1415 113.262 19.3915C113.062 19.0806 112.907 18.8747 112.791 18.6499C111.926 16.9693 111.648 15.1753 111.785 13.3057C111.978 10.6861 112.766 8.23455 113.903 5.88384C113.966 5.75149 114.058 5.63176 114.136 5.50781C114.192 5.51832 114.249 5.53092 114.306 5.54352Z" fill="#38EB38"/>
<path d="M119.228 67.2124C119.167 67.0422 119.1 66.9078 119.071 66.7649C118.84 65.6579 119.012 64.6138 119.558 63.6244C120.461 61.9879 121.8 60.8157 123.472 60.0405C124.175 59.7149 124.946 59.4817 125.709 59.341C126.696 59.1582 127.625 59.3767 128.347 60.1519C128.415 60.2254 128.461 60.3178 128.566 60.4754C128.345 60.5888 128.163 60.7086 127.965 60.7821C126.919 61.1749 125.862 61.5404 124.82 61.948C123.558 62.4417 122.386 63.1034 121.419 64.0676C120.646 64.8386 120.029 65.7272 119.611 66.7418C119.558 66.87 119.491 66.9918 119.422 67.1116C119.407 67.1368 119.363 67.1452 119.228 67.2124Z" fill="#38EB38"/>
<path d="M44.8972 87.985C43.8868 87.2497 39.4648 78.9855 39.4963 77.9414C39.5803 77.9624 39.6727 77.9624 39.7357 78.0044C40.6138 78.5758 41.5129 79.1199 42.3616 79.7354C43.996 80.9244 44.8069 82.563 44.8615 84.5818C44.8867 85.525 44.9329 86.4661 44.9581 87.4094C44.9623 87.5858 44.9224 87.7665 44.8972 87.985Z" fill="#38EB38"/>
<path d="M118.652 102.397C118.741 101.29 123.291 93.8767 124.121 93.4629C124.156 93.5742 124.223 93.6793 124.221 93.7843C124.205 95.4292 124.055 97.0572 123.667 98.6622C123.442 99.5928 122.854 100.223 122.098 100.742C121.142 101.397 120.1 101.887 119.037 102.334C118.936 102.378 118.812 102.372 118.652 102.397Z" fill="white"/>
<path d="M45.8236 102.732C45.5631 102.633 45.3489 102.572 45.1535 102.476C44.7165 102.257 44.2922 102.011 43.8531 101.795C43.5296 101.635 43.2019 101.497 43.4267 100.963C43.0507 101.396 42.7755 101.171 42.4982 100.946C42.2398 100.738 41.9835 100.526 41.723 100.323C41.034 99.7868 40.6916 99.0663 40.6012 98.2134C40.4605 96.8605 40.3155 95.5056 40.1832 94.1527C40.1664 93.9804 40.2147 93.8019 40.2357 93.5918C41.2818 94.2178 45.8782 101.707 45.8236 102.732Z" fill="white"/>
<path d="M37.7954 69.8047C38.1609 70.1177 38.5411 70.4139 38.8899 70.7437C40.5893 72.355 42.3224 73.9389 43.7614 75.8001C44.1228 76.2686 44.4316 76.7791 44.7551 77.2749C44.8286 77.3904 44.879 77.529 44.9084 77.6635C44.984 77.9975 44.8265 78.1425 44.5051 78.0017C44.0408 77.8 43.5724 77.5921 43.1417 77.3274C42.1901 76.7413 41.2301 76.1615 40.333 75.4997C39.3058 74.7435 38.7869 73.6259 38.4109 72.439C38.1672 71.6722 37.9298 70.9034 37.6945 70.1345C37.6714 70.0568 37.6819 69.9685 37.6777 69.8866C37.7176 69.8614 37.7576 69.8341 37.7954 69.8047Z" fill="#38EB38"/>
<path d="M86.9288 131.484C86.8007 130.022 87.3406 128.949 88.2901 128.046C88.3909 127.949 88.496 127.854 88.6094 127.773C89.5568 127.081 90.4559 127.367 90.7185 128.512C90.8845 129.237 90.895 129.999 90.9601 130.745C90.9811 130.989 90.8572 131.157 90.6513 131.308C89.6472 132.039 88.4792 132.323 87.2965 132.579C87.0381 132.636 86.9414 132.476 86.933 132.255C86.9204 131.959 86.9288 131.661 86.9288 131.484Z" fill="white"/>
<path d="M77.8184 131.661C77.8877 131.27 77.9339 130.778 78.0683 130.312C78.1461 130.039 78.3267 129.774 78.52 129.56C78.938 129.094 79.4233 129.026 79.9926 129.299C80.6375 129.606 81.0682 130.127 81.398 130.738C81.8139 131.509 81.9736 132.35 81.9988 133.213C82.0156 133.835 81.8244 134.02 81.2047 133.925C80.3266 133.793 79.4548 133.606 78.583 133.423C78.1776 133.339 77.9591 133.077 77.9381 132.646C77.9234 132.35 77.8667 132.056 77.8184 131.661Z" fill="white"/>
<path d="M77.5858 131.618C77.5858 131.829 77.5963 132.039 77.5837 132.247C77.5564 132.709 77.4598 132.789 76.9871 132.715C76.7476 132.677 76.506 132.618 76.2813 132.528C75.4893 132.209 74.7036 131.873 73.918 131.543C73.6953 131.448 73.5377 131.305 73.523 131.041C73.4705 130.085 73.5629 129.154 74.002 128.289C74.357 127.585 74.6784 127.461 75.3969 127.799C76.7455 128.43 77.4745 129.505 77.5837 130.992C77.5984 131.2 77.5858 131.411 77.5858 131.618Z" fill="white"/>
<path d="M86.5586 131.837C86.5586 131.907 86.5586 131.978 86.5586 132.047C86.5628 132.959 86.464 133.184 85.6112 133.43C84.794 133.665 83.939 133.791 83.0966 133.923C82.7164 133.982 82.5987 133.843 82.5735 133.451C82.4937 132.161 82.8487 130.982 83.5987 129.951C83.8424 129.615 84.2352 129.348 84.6154 129.157C85.2519 128.837 85.8675 129.047 86.1447 129.699C86.3527 130.188 86.4304 130.736 86.5418 131.262C86.5817 131.447 86.5481 131.646 86.5481 131.837C86.5523 131.837 86.5544 131.837 86.5586 131.837Z" fill="white"/>
<path d="M48.6797 91.7853C48.6986 91.2181 49.1145 90.8568 49.5914 91.0248C50.2132 91.2412 50.8392 91.4891 51.4043 91.8231C52.7593 92.6256 54.068 93.5016 55.1247 94.6969C55.2633 94.8544 55.4146 95.012 55.5028 95.1968C55.5785 95.3523 55.5743 95.5477 55.6037 95.7262C55.4398 95.7388 55.2697 95.7871 55.1142 95.7556C53.8895 95.5077 52.732 95.0582 51.6186 94.5057C51.1186 94.2578 50.6292 93.9784 50.167 93.6675C49.5683 93.2663 49.0641 92.76 48.7721 92.0815C48.7217 91.9701 48.6986 91.8504 48.6797 91.7853Z" fill="white"/>
<path d="M91.4358 129.268C91.4064 128.22 91.7404 127.27 92.3118 126.415C93.0512 125.308 93.9608 125.344 94.6183 126.491C95.0595 127.262 95.2885 128.098 95.2528 128.993C95.2318 129.487 95.1099 129.642 94.6268 129.756C93.7445 129.966 92.8621 130.165 91.9777 130.361C91.5912 130.445 91.4694 130.348 91.4421 129.947C91.4231 129.724 91.4358 129.495 91.4358 129.268Z" fill="white"/>
<path d="M113.255 95.8057C113.724 95.8855 114.255 95.9674 114.785 96.0683C115.108 96.1292 115.255 96.3455 115.24 96.6712C115.238 96.7405 115.24 96.8098 115.24 96.8812C115.234 98.1249 114.869 98.4274 113.612 98.3412C111.816 98.2152 110.043 97.9589 108.281 97.5976C108.178 97.5766 108.071 97.5619 107.978 97.5177C107.753 97.4127 107.705 97.2342 107.886 97.0619C108.018 96.9358 108.188 96.814 108.361 96.772C109.445 96.5031 110.531 96.2405 111.623 96.0115C112.136 95.9044 112.663 95.8771 113.255 95.8057Z" fill="white"/>
<path d="M69.2188 128.941C69.3742 128.354 69.5129 127.764 69.6935 127.184C69.7649 126.958 69.9057 126.743 70.0485 126.548C70.6788 125.693 71.4077 125.663 72.0505 126.51C72.8761 127.596 73.1996 128.848 73.0757 130.201C73.0316 130.686 72.9307 130.747 72.4602 130.634C71.58 130.42 70.7019 130.186 69.8301 129.938C69.3343 129.8 69.2923 129.691 69.2188 128.941Z" fill="white"/>
<path d="M78.5569 136.071C78.5107 136.43 78.4834 136.957 78.3699 137.466C78.2145 138.157 77.6242 138.562 76.9268 138.47C76.7524 138.447 76.5213 138.293 76.452 138.14C75.9163 136.94 75.473 135.709 75.3302 134.39C75.3134 134.235 75.3197 134.075 75.3365 133.92C75.3974 133.323 75.6621 133.167 76.2188 133.373C76.6936 133.55 77.1683 133.724 77.6536 133.863C78.1494 134.004 78.4498 134.279 78.4792 134.808C78.5023 135.174 78.5233 135.539 78.5569 136.071Z" fill="white"/>
<path d="M89.1712 134.389C89.0284 134.94 88.8036 135.851 88.5515 136.757C88.4297 137.194 88.2511 137.614 88.1125 138.045C88.0011 138.393 87.7658 138.488 87.4276 138.456C86.5579 138.376 86.0916 137.904 86.0705 137.03C86.0516 136.261 86.0453 135.492 86.0558 134.725C86.0642 134.186 86.2281 133.988 86.7407 133.801C87.2007 133.635 87.6671 133.486 88.1167 133.295C88.8834 132.973 89.2048 133.179 89.1712 134.389Z" fill="white"/>
<path d="M108.105 94.783C108.225 94.6464 108.328 94.4868 108.469 94.3775C109.185 93.825 109.883 93.2368 110.643 92.7495C111.609 92.1297 112.63 91.592 113.63 91.0227C113.75 90.9534 113.882 90.9029 114.013 90.8546C114.305 90.7454 114.611 90.5647 114.876 90.8798C115.153 91.2075 115.359 91.5647 115.183 92.0268C115.021 92.4491 114.775 92.7852 114.382 93.0268C113.433 93.6108 112.372 93.9112 111.32 94.2221C110.433 94.4826 109.528 94.6779 108.629 94.8922C108.486 94.9258 108.332 94.9174 108.183 94.9279C108.156 94.8796 108.131 94.8313 108.105 94.783Z" fill="white"/>
<path d="M82.716 135.864C82.716 135.621 82.7202 135.375 82.7139 135.131C82.7076 134.829 82.8316 134.618 83.1383 134.564C83.7034 134.463 84.2684 134.343 84.8398 134.291C85.2747 134.251 85.4806 134.423 85.5499 134.822C85.7411 135.923 85.6213 136.982 85.0247 137.95C84.8041 138.307 84.552 138.698 84.0689 138.667C83.5479 138.633 83.2013 138.253 83.0353 137.805C82.8631 137.339 82.8105 136.828 82.7223 136.335C82.695 136.184 82.7181 136.022 82.7181 135.864H82.716Z" fill="white"/>
<path d="M108.356 99.4018C108.753 99.2569 109.144 99.1308 109.594 99.1434C110.623 99.1708 111.606 99.4039 112.526 99.843C113.19 100.16 113.774 100.614 114.104 101.313C114.236 101.593 114.217 101.841 114.02 102.093C113.335 102.975 113.152 103.023 112.226 102.366C111.558 101.891 110.94 101.343 110.279 100.858C109.76 100.475 109.207 100.139 108.669 99.78C108.558 99.7064 108.453 99.6266 108.344 99.5489C108.35 99.5006 108.352 99.4523 108.356 99.4018Z" fill="white"/>
<path d="M79.0095 135.797C79.0095 135.484 79.0011 135.169 79.0117 134.856C79.0201 134.566 79.2028 134.362 79.4717 134.386C80.1628 134.442 80.8519 134.539 81.5325 134.663C81.6439 134.684 81.7867 134.915 81.7951 135.056C81.8581 136.022 81.7678 136.974 81.4254 137.887C81.3708 138.032 81.2867 138.171 81.1922 138.295C80.8309 138.778 80.312 138.852 79.8141 138.497C79.352 138.169 79.1692 137.675 79.081 137.154C79.0054 136.709 78.9948 136.253 78.957 135.801C78.9759 135.799 78.9927 135.797 79.0095 135.797Z" fill="white"/>
<path d="M89.7769 135.034C89.7769 134.667 89.7433 134.297 89.7832 133.936C89.9114 132.782 90.8273 132.062 91.9743 132.163C92.2621 132.188 92.4406 132.314 92.4889 132.589C92.6738 133.656 92.2894 135.816 90.9554 136.658C90.1697 137.154 89.8672 137.013 89.7916 136.083C89.7622 135.736 89.7874 135.385 89.7874 135.034C89.7832 135.034 89.7811 135.034 89.7769 135.034Z" fill="white"/>
<path d="M74.8735 135.289C74.8378 135.642 74.8231 135.976 74.7664 136.301C74.6361 137.06 74.2328 137.257 73.5795 136.828C73.2538 136.616 72.945 136.316 72.7455 135.984C72.1678 135.028 72.0207 133.955 72.048 132.852C72.0564 132.524 72.2476 132.402 72.5522 132.371C73.4534 132.278 74.2559 132.755 74.5962 133.608C74.6676 133.787 74.7327 133.971 74.7601 134.161C74.8147 134.541 74.8399 134.925 74.8735 135.289Z" fill="white"/>
<path d="M68.6956 127.684C68.6956 127.999 68.7124 128.314 68.6914 128.627C68.6662 128.968 68.5402 129.062 68.2062 128.989C67.8994 128.919 67.5969 128.827 67.3028 128.715C66.6474 128.463 66.2987 127.974 66.2798 127.272C66.2588 126.417 66.1727 125.552 66.5004 124.73C66.6243 124.417 66.66 123.968 67.0718 123.924C67.4898 123.88 67.7566 124.228 67.973 124.554C68.4414 125.262 68.5633 126.077 68.6431 126.898C68.6683 127.159 68.6473 127.421 68.6473 127.684C68.662 127.684 68.6788 127.684 68.6956 127.684Z" fill="white"/>
<path d="M95.7637 127.47C95.8897 126.716 96.0032 125.96 96.1481 125.212C96.2405 124.735 96.5199 124.353 96.8666 124.018C97.2867 123.613 97.4968 123.632 97.7846 124.157C98.1249 124.779 98.3202 125.457 98.3139 126.163C98.3076 126.661 98.253 127.178 98.106 127.651C97.9085 128.291 96.7783 128.922 96.146 128.789C96.0284 128.764 95.8855 128.562 95.8666 128.428C95.8246 128.119 95.854 127.802 95.854 127.487C95.8225 127.48 95.7931 127.476 95.7637 127.47Z" fill="white"/>
<path d="M50.2821 96.5342C51.4249 96.6623 52.5698 96.7716 53.7084 96.9312C54.0802 96.9837 54.4458 97.1413 54.7945 97.2967C54.9121 97.3493 54.9668 97.5488 55.0487 97.6812C54.8953 97.7043 54.6832 97.8009 54.5991 97.7358C54.2525 97.4648 54.0529 97.553 53.8597 97.9101C53.8051 98.011 53.6349 98.074 53.5068 98.1076C52.49 98.3597 51.4754 98.6202 50.4523 98.8366C49.7486 98.9857 49.2591 98.595 49.1919 97.8807C49.1667 97.6202 49.1688 97.3577 49.1793 97.0951C49.1982 96.6371 49.2843 96.5636 49.7549 96.5573C49.9292 96.5552 50.1036 96.5573 50.2779 96.5573C50.28 96.551 50.28 96.5426 50.2821 96.5342Z" fill="white"/>
<path d="M50.2384 101.921C50.2993 101.547 50.5157 101.15 50.8771 100.854C51.669 100.209 52.5408 99.7005 53.5387 99.4358C53.7739 99.3728 54.0092 99.2741 54.2487 99.2594C54.3979 99.251 54.6016 99.3329 54.692 99.4442C54.7571 99.5241 54.7235 99.7678 54.6458 99.8623C54.087 100.53 53.5093 101.184 52.9253 101.831C52.837 101.927 52.6942 101.992 52.5618 102.03C52.1543 102.146 51.793 102.244 51.6774 102.768C51.5976 103.125 51.1754 103.177 50.875 102.923C50.5851 102.681 50.23 102.473 50.2384 101.921Z" fill="white"/>
<path d="M95.4789 131.606C95.4033 132.868 94.9138 133.99 93.8971 134.853C93.5021 135.19 93.3089 135.148 93.2185 134.654C93.0799 133.9 92.9685 133.137 92.9265 132.372C92.8887 131.704 93.2521 131.2 93.8445 130.902C94.1365 130.755 94.46 130.652 94.7815 130.583C95.2289 130.486 95.3823 130.616 95.4474 131.078C95.4684 131.234 95.4663 131.391 95.4789 131.606Z" fill="white"/>
<path d="M71.5613 132.993C71.473 133.625 71.4016 134.195 71.3092 134.762C71.2399 135.195 71.055 135.279 70.7105 135.027C69.9689 134.485 69.4458 133.766 69.2042 132.884C69.0677 132.386 69.0341 131.852 69.0131 131.331C68.9942 130.806 69.1685 130.68 69.6958 130.779C70.4584 130.924 71.1663 131.18 71.4226 132.018C71.5234 132.344 71.5234 132.701 71.5613 132.993Z" fill="white"/>
<path d="M63.75 125.036C63.8193 124.519 63.8571 123.998 63.9706 123.492C64.0483 123.139 64.208 122.733 64.6239 122.693C65.0293 122.653 65.2142 123.046 65.3592 123.349C65.9053 124.487 66.044 125.68 65.7205 126.909C65.6449 127.195 65.4054 127.262 65.1386 127.241C64.3676 127.178 63.8529 126.655 63.8109 125.882C63.7962 125.605 63.8088 125.323 63.8088 125.044C63.792 125.042 63.771 125.038 63.75 125.036Z" fill="white"/>
<path d="M98.6016 125.709C98.7423 124.978 98.8747 124.243 99.0343 123.516C99.07 123.354 99.1814 123.199 99.2864 123.062C99.7149 122.51 100.085 122.535 100.375 123.165C100.759 123.999 100.835 124.869 100.656 125.776C100.528 126.426 100.175 126.841 99.5805 127.085C99.0805 127.289 98.7969 127.152 98.7192 126.619C98.6772 126.329 98.7108 126.026 98.7108 125.73C98.6772 125.722 98.6394 125.716 98.6016 125.709Z" fill="white"/>
<path d="M96.2313 130.941C96.2313 130.8 96.2502 130.657 96.2271 130.523C96.099 129.77 96.5464 129.392 97.1388 129.117C97.6262 128.89 97.9791 129.098 98.0064 129.634C98.0547 130.638 97.7795 131.508 96.8825 132.073C96.7481 132.157 96.5233 132.237 96.412 132.178C96.309 132.123 96.2712 131.888 96.2565 131.728C96.2334 131.468 96.2502 131.205 96.2502 130.943C96.2439 130.941 96.2376 130.941 96.2313 130.941Z" fill="white"/>
<path d="M68.2355 131.148C68.2355 131.306 68.2565 131.587 68.2271 131.862C68.2103 132.016 68.141 132.247 68.0359 132.289C67.912 132.337 67.6914 132.259 67.5654 132.167C67.1095 131.827 66.7482 131.396 66.6221 130.829C66.5402 130.459 66.4961 130.072 66.4961 129.694C66.4961 129.272 66.7398 129.11 67.1557 129.194C67.9771 129.358 68.3363 129.825 68.2817 130.665C68.2712 130.785 68.2565 130.906 68.2355 131.148Z" fill="white"/>
<path d="M53.1487 80.6956C52.6424 81.1178 52.2391 81.4897 51.7958 81.8048C51.6299 81.9224 51.4303 81.7922 51.3568 81.5716C51.2622 81.2922 51.3484 80.975 51.5479 80.8847C51.8084 80.767 52.0647 80.5927 52.3378 80.5548C52.5773 80.5212 52.8399 80.6368 53.1487 80.6956Z" fill="white"/>
<path d="M49.9842 70.4336C50.1186 70.5869 50.2194 70.7025 50.3224 70.8201C50.2152 70.9084 50.1165 71.0554 50.001 71.0701C49.7657 71.1016 49.5052 70.8621 49.585 70.7172C49.6438 70.6059 49.8077 70.5512 49.9842 70.4336Z" fill="white"/>
<path d="M100.551 81.3335C100.5 81.8272 100.107 81.8377 99.8154 81.9973C99.7587 81.4701 99.9162 81.323 100.551 81.3335Z" fill="white"/>
<path d="M116.977 80.4727C116.653 80.8277 116.391 81.1176 116.094 81.4432C116.057 80.9957 116.439 80.5756 116.977 80.4727Z" fill="white"/>
<path d="M49.1821 66.7275C49.2515 67.03 49.2662 67.2569 48.9637 67.3199C48.8943 67.3346 48.7305 67.2338 48.7305 67.1855C48.7347 66.9208 48.8544 66.738 49.1821 66.7275Z" fill="white"/>
<path d="M96.2303 83.876C96.0308 84.3696 95.7409 84.4369 95.2871 84.0882C95.6274 84.0125 95.9026 83.9495 96.2303 83.876Z" fill="white"/>
<path d="M52.1852 86.8228C51.9898 86.9783 51.8932 87.1001 51.7713 87.1316C51.7083 87.1484 51.5192 86.9762 51.5319 86.9447C51.5823 86.8165 51.6663 86.6737 51.7797 86.6107C51.8344 86.5812 51.9814 86.7115 52.1852 86.8228Z" fill="white"/>
<path d="M105.716 109.336C105.329 109.145 105.025 108.708 104.48 109.061C104.504 108.731 104.522 108.481 104.543 108.183C104.894 108.101 105.237 108.023 105.581 107.943C105.598 107.975 105.617 108.008 105.634 108.04C105.56 108.116 105.493 108.2 105.411 108.263C105.077 108.519 105.079 108.609 105.457 108.775C105.701 108.88 105.89 108.99 105.716 109.336Z" fill="white"/>
<path d="M108.052 107.442C107.941 107.778 107.83 108.114 107.706 108.49C107.223 108.223 106.599 108.427 106.141 107.99C106.313 107.717 106.483 107.719 106.725 107.855C107.088 108.061 107.252 108.005 107.527 107.677C107.638 107.547 107.781 107.444 107.912 107.328C107.956 107.366 108.004 107.404 108.052 107.442Z" fill="white"/>
<path d="M75.2407 158.918C74.7974 159.687 74.6882 159.792 74.1504 159.958C74.4676 159.46 74.8079 159.143 75.2407 158.918Z" fill="white"/>
<path d="M66.5039 110.105C66.7854 109.885 66.9913 109.723 67.214 109.551C67.4345 109.799 67.3652 109.988 67.2118 110.143C67.0354 110.32 66.8295 110.345 66.5039 110.105Z" fill="white"/>
<path d="M101.674 108.979C102.176 108.71 102.457 108.712 102.85 108.958C102.472 109.172 102.13 109.126 101.674 108.979Z" fill="white"/>
<path d="M57.916 109.22C57.9979 109.084 58.021 108.985 58.082 108.952C58.2248 108.87 58.3824 108.813 58.542 108.767C58.5588 108.762 58.6576 108.949 58.6471 108.958C58.5084 109.069 58.3614 109.172 58.2038 109.258C58.1555 109.281 58.0736 109.244 57.916 109.22Z" fill="white"/>
<path d="M77.0895 114.367C77.4067 114.894 77.1231 115.302 76.3164 115.485C76.5769 115.109 76.8185 114.76 77.0895 114.367Z" fill="white"/>
<path d="M89.7448 112.781C89.8078 112.918 89.9297 113.059 89.9234 113.193C89.9087 113.512 89.8982 113.685 89.9948 113.899C89.6209 114.029 89.4822 113.964 89.4927 113.64C89.5011 113.369 89.5516 113.098 89.5852 112.827C89.6398 112.815 89.6923 112.798 89.7448 112.781Z" fill="white"/>
<path d="M80.9785 123.869C81.2663 123.619 81.4911 123.423 81.7411 123.207C81.8314 123.865 81.6234 124.064 80.9785 123.869Z" fill="white"/>
</svg>
