<svg width="26" height="26" viewBox="0 0 26 26" fill="none" xmlns="http://www.w3.org/2000/svg">
<path d="M13.573 16.5375C13.5639 16.4059 13.5541 16.2743 13.5461 16.1423C13.5166 15.6468 13.4864 15.1514 13.4592 14.6559C13.4483 14.4563 13.4461 14.2564 13.4359 14.0571C13.4148 13.6431 13.3919 13.229 13.369 12.815C13.3497 12.4674 13.329 12.1199 13.309 11.7724C13.2803 11.2798 13.2512 10.7872 13.2225 10.295C13.2025 9.95041 13.1818 9.60615 13.164 9.26153C13.1273 8.54502 13.0935 7.82888 13.0568 7.11237C13.0324 6.6347 13.0073 6.15703 12.9797 5.67972C12.9466 5.11153 12.9084 4.54371 12.8768 3.97588C12.8637 3.74032 12.8655 3.50366 12.8535 3.2681C12.8277 2.76317 12.7965 2.25859 12.7685 1.75402C12.7536 1.48792 12.7423 1.22182 12.7274 0.955723C12.7118 0.680898 12.694 0.406074 12.675 0.131249C12.6681 0.032007 12.6885 0.00365195 12.7885 0.00328843C13.3788 -0.000346817 13.9703 -0.019977 14.5534 0.105075C14.7628 0.149789 14.9714 0.200319 15.1826 0.234127C15.3331 0.258483 15.3971 0.360633 15.4604 0.477325C15.5971 0.729611 15.7396 0.978624 15.8777 1.23018C15.9533 1.3676 16.0264 1.50683 16.0976 1.64642C16.1122 1.67477 16.1209 1.71076 16.1191 1.74239C16.1104 1.89652 16.0987 2.05029 16.0849 2.20407C16.0638 2.44217 16.0395 2.67956 16.0187 2.91766C15.9973 3.16486 15.9769 3.41242 15.9599 3.65998C15.9406 3.93771 15.9322 4.21617 15.9068 4.49318C15.8413 5.2075 15.7828 5.92292 15.6952 6.6347C15.6087 7.34067 15.4898 8.04263 15.3855 8.74605C15.295 9.35677 15.2048 9.96786 15.1139 10.5786C15.0183 11.2224 14.922 11.8662 14.8257 12.5096C14.7337 13.1232 14.6395 13.7369 14.5501 14.3509C14.5007 14.6893 14.4701 15.0307 14.4083 15.3666C14.3872 15.4814 14.3076 15.5905 14.2382 15.6912C14.0579 15.9522 13.8692 16.207 13.6827 16.4633C13.6595 16.4957 13.6286 16.5226 13.6013 16.552C13.5929 16.5469 13.5831 16.5422 13.573 16.5375ZM13.8089 15.0954C13.8151 15.0972 13.8212 15.0994 13.8274 15.1012C13.8471 15.0725 13.87 15.0456 13.8852 15.0147C13.951 14.882 14.0175 14.7497 14.0772 14.6141C14.1168 14.5243 14.1666 14.4316 14.1746 14.3367C14.2193 13.8092 14.2513 13.2807 14.2906 12.7525C14.3204 12.3511 14.3542 11.9498 14.3876 11.5488C14.4272 11.0722 14.4712 10.596 14.5079 10.1194C14.5428 9.66686 14.5676 9.21354 14.6025 8.76095C14.6592 8.02155 14.7239 7.28286 14.7784 6.54346C14.826 5.90074 14.862 5.25694 14.9075 4.61423C14.9525 3.97734 15.0045 3.34081 15.0489 2.70355C15.0536 2.63775 15.0387 2.56359 15.0103 2.50361C14.946 2.36729 14.87 2.23642 14.7933 2.10628C14.7791 2.08228 14.7424 2.06156 14.7133 2.05793C14.4552 2.02485 14.1968 1.99286 13.9379 1.96632C13.6951 1.9416 13.6915 1.94487 13.6929 2.19062C13.6962 2.71445 13.7042 3.23829 13.7089 3.76177C13.7158 4.49136 13.722 5.22132 13.7271 5.95091C13.734 6.90189 13.7384 7.85287 13.7471 8.80385C13.7558 9.71521 13.7707 10.6266 13.7794 11.5379C13.7889 12.51 13.794 13.482 13.8009 14.4545C13.8023 14.6391 13.802 14.8242 13.8027 15.0089C13.8034 15.0379 13.8067 15.0667 13.8089 15.0954Z" fill="#8A8A8F"/>
<path d="M14.9453 15.1211C14.9533 15.0419 14.9591 14.9626 14.9693 14.8837C15.0518 14.2537 15.134 13.6234 15.219 12.9934C15.2681 12.6302 15.3201 12.2678 15.375 11.9054C15.4641 11.3161 15.5535 10.7265 15.6484 10.1379C15.7407 9.56427 15.8487 8.99318 15.9348 8.41845C16.0363 7.74229 16.13 7.06468 16.2122 6.38562C16.3169 5.52043 16.4074 4.65342 16.5019 3.78678C16.5786 3.08263 16.6531 2.37849 16.7262 1.67434C16.7491 1.45477 16.7651 1.23448 16.7851 1.01491C16.7887 0.976737 16.7982 0.938931 16.808 0.884766C16.8927 0.916392 16.9763 0.932024 17.0418 0.97492C17.3976 1.20867 17.7524 1.44423 18.1007 1.68925C18.2806 1.81575 18.4511 1.95716 18.6173 2.10148C18.7696 2.2338 18.915 2.37485 19.0546 2.52063C19.2484 2.72347 19.4323 2.93541 19.6235 3.1408C19.6799 3.20151 19.6893 3.26112 19.6679 3.33928C19.5432 3.79478 19.4228 4.25136 19.3003 4.70722C19.2124 5.0344 19.1229 5.36157 19.0346 5.68874C18.9335 6.06281 18.819 6.4336 18.7369 6.81167C18.674 7.10176 18.5787 7.37586 18.4533 7.64196C18.4406 7.66922 18.4271 7.69649 18.4104 7.72157C18.2109 8.02439 18.0124 8.32793 17.8106 8.62893C17.5849 8.96555 17.3497 9.29563 17.1305 9.63589C16.8851 10.0169 16.6266 10.3898 16.4387 10.8061C16.302 11.1093 16.1413 11.4015 15.9966 11.7011C15.9672 11.7618 15.9581 11.833 15.9457 11.9006C15.9025 12.1358 15.8632 12.3714 15.8203 12.6066C15.7683 12.8927 15.7142 13.1781 15.6622 13.4642C15.6571 13.4925 15.6589 13.5223 15.6571 13.5572C15.6756 13.5518 15.688 13.5521 15.6909 13.547C15.8727 13.2373 16.0853 12.9429 16.1962 12.5968C16.3089 12.246 16.4085 11.8905 16.5179 11.5386C16.5401 11.4673 16.5732 11.3964 16.6157 11.335C16.7357 11.1612 16.8636 10.9926 16.9876 10.8217C17.1824 10.5527 17.3773 10.2841 17.571 10.0143C17.6645 9.88418 17.7539 9.75149 17.8481 9.62208C17.871 9.59045 17.9037 9.56609 17.932 9.53846C17.9397 9.54355 17.9469 9.54864 17.9546 9.5541C17.8906 9.74167 17.8284 9.92998 17.7619 10.1168C17.6267 10.4956 17.4882 10.873 17.3529 11.2518C17.1861 11.7189 17.0178 12.1853 16.8564 12.6542C16.7789 12.8793 16.6161 13.0425 16.4761 13.2231C16.2874 13.4667 16.102 13.7132 15.9123 13.9556C15.752 14.1603 15.5858 14.3606 15.4244 14.5649C15.2936 14.7307 15.1656 14.899 15.0362 15.0655C15.0184 15.0884 14.9973 15.1091 14.978 15.1306C14.9671 15.128 14.9562 15.1244 14.9453 15.1211ZM16.4325 9.52429C16.4412 9.52938 16.4503 9.53483 16.459 9.53992C16.4681 9.52465 16.4768 9.50902 16.4867 9.49411C16.5906 9.33525 16.6906 9.17385 16.8004 9.01862C16.9451 8.81396 17.0992 8.61657 17.245 8.41263C17.3257 8.29994 17.3987 8.18143 17.4718 8.06328C17.4903 8.03347 17.5005 7.99639 17.5074 7.96113C17.5489 7.74774 17.5856 7.5329 17.6288 7.31987C17.7175 6.88401 17.8026 6.44705 17.9029 6.0141C17.9949 5.6164 18.1043 5.22307 18.2079 4.82828C18.2639 4.61453 18.3297 4.40332 18.3788 4.18811C18.3919 4.13067 18.3788 4.05179 18.3468 4.00271C18.2352 3.8304 18.1098 3.66682 17.9902 3.49996C17.9182 3.39963 17.8491 3.29675 17.7746 3.1986C17.7568 3.17497 17.7117 3.1448 17.6961 3.15243C17.6703 3.16479 17.6481 3.20369 17.6419 3.23495C17.6259 3.31783 17.6245 3.40363 17.6085 3.48651C17.5056 4.02162 17.4006 4.556 17.2962 5.09074C17.2122 5.52116 17.1294 5.95193 17.0443 6.38235C16.9436 6.8931 16.8407 7.40312 16.7397 7.91351C16.6382 8.42717 16.5379 8.94083 16.4376 9.45449C16.4332 9.47739 16.4339 9.50102 16.4325 9.52429Z" fill="#8A8A8F"/>
<path d="M10.8684 12.5921C11.2258 13.5311 11.5759 14.4519 11.9263 15.3724C11.9168 15.3778 11.9074 15.3833 11.8983 15.3887C11.875 15.364 11.8492 15.3418 11.8292 15.3149C11.6635 15.0917 11.4999 14.8667 11.3334 14.6435C11.0862 14.312 10.8379 13.9812 10.5885 13.6515C10.4562 13.4766 10.3948 13.2708 10.3224 13.0684C10.2664 12.9117 10.1945 12.7608 10.1356 12.6052C10.0192 12.297 9.90727 11.9872 9.79276 11.6786C9.76841 11.6135 9.73896 11.5503 9.71351 11.4856C9.56192 11.0995 9.40924 10.7142 9.26056 10.3274C9.08498 9.87044 8.9134 9.41167 8.73927 8.95399C8.63385 8.67699 8.52661 8.40071 8.42046 8.1237C8.24488 7.66675 8.06784 7.21017 7.89408 6.75213C7.77957 6.44967 7.67124 6.14468 7.55818 5.8415C7.51601 5.72808 7.46693 5.6172 7.42258 5.50451C7.29426 5.17807 7.16412 4.85235 7.03907 4.52445C6.92274 4.21945 6.80968 3.913 6.70244 3.60473C6.68754 3.56184 6.69663 3.49168 6.72389 3.45605C6.87766 3.2543 7.03943 3.05908 7.19974 2.86242C7.30444 2.73373 7.40368 2.59922 7.51855 2.47999C7.69196 2.30004 7.86645 2.11901 8.05911 1.96124C8.36229 1.71259 8.67711 1.47775 8.99483 1.24764C9.13369 1.14694 9.29146 1.07315 9.43978 0.985539C9.49613 0.952459 9.52848 0.960819 9.54048 1.02953C9.62845 1.53628 9.71606 2.0434 9.80658 2.54978C9.87528 2.93439 9.95053 3.31755 10.0189 3.70216C10.1341 4.34887 10.2468 4.99558 10.3595 5.64265C10.45 6.1614 10.5387 6.68051 10.6281 7.19926C10.7187 7.72419 10.8085 8.24948 10.8993 8.77441C10.9968 9.33788 11.096 9.90134 11.1934 10.4652C11.2843 10.993 11.3745 11.5208 11.4632 12.049C11.4966 12.249 11.5264 12.4493 11.5566 12.6499C11.5693 12.735 11.5453 12.7532 11.4599 12.731C11.2934 12.6878 11.1265 12.6452 10.9597 12.6031C10.9393 12.5987 10.919 12.5983 10.8684 12.5921ZM9.04208 3.38044C9.02791 3.37717 9.01373 3.37389 8.99955 3.37062C8.94539 3.43715 8.89122 3.50367 8.83669 3.5702C8.6313 3.81994 8.42773 4.07113 8.21943 4.31833C8.09147 4.46992 7.98386 4.6186 8.11546 4.82436C8.14345 4.86798 8.14272 4.92905 8.16054 4.98031C8.24597 5.22932 8.33248 5.47761 8.41937 5.72626C8.6084 6.26864 8.7978 6.81102 8.98683 7.35376C9.07553 7.60786 9.1635 7.86197 9.2522 8.11607C9.34999 8.39562 9.44814 8.67517 9.54593 8.95472C9.63863 9.22009 9.73133 9.48547 9.82439 9.75084C9.91527 10.0104 10.0058 10.2703 10.0974 10.5299C10.2163 10.8665 10.3402 11.2013 10.4526 11.5401C10.4925 11.6608 10.5729 11.7331 10.6747 11.7902C10.7452 11.8298 10.8208 11.8607 10.9055 11.9007C10.9037 11.8647 10.9048 11.8527 10.9022 11.8411C10.803 11.3827 10.7034 10.9243 10.6041 10.4659C10.5224 10.0875 10.442 9.70903 10.3591 9.33097C10.2497 8.83149 10.1392 8.33273 10.0276 7.83361C9.95671 7.51735 9.87965 7.2029 9.8113 6.88627C9.70261 6.38388 9.60082 5.88003 9.49322 5.37764C9.3798 4.84835 9.26347 4.31942 9.14642 3.79049C9.11479 3.65308 9.07662 3.51712 9.04208 3.38044Z" fill="#8A8A8F"/>
<path d="M20.9803 12.2794C20.9393 12.6786 20.9091 13.0792 20.8535 13.4762C20.8164 13.7412 20.7484 14.0029 20.6848 14.2636C20.6219 14.5213 20.5485 14.7761 20.4765 15.0317C20.3649 15.4287 20.198 15.8049 20.0145 16.1713C19.8981 16.4036 19.7407 16.6167 19.5942 16.8329C19.4866 16.9918 19.3768 17.151 19.2496 17.2935C19.1118 17.4477 18.9522 17.5822 18.8032 17.7261C18.6269 17.8966 18.4128 18.0042 18.1892 18.0951C17.9551 18.19 17.7141 18.2205 17.4636 18.1714C17.3636 18.1518 17.2593 18.1551 17.159 18.1362C17.0176 18.1096 16.8783 18.0711 16.7377 18.0406C16.3509 17.9559 15.9724 17.8461 15.6118 17.6785C15.3715 17.5669 15.1258 17.4669 14.8866 17.3539C14.8146 17.3197 14.7517 17.2623 14.6932 17.2066C14.6772 17.1914 14.6783 17.135 14.6936 17.1129C14.864 16.8642 15.0334 16.6148 15.2141 16.3738C15.329 16.2208 15.4635 16.0826 15.5867 15.9358C15.7256 15.7707 15.8605 15.6021 16.0004 15.4377C16.0393 15.3923 16.0935 15.3599 16.1364 15.3178C16.2218 15.2338 16.3051 15.1469 16.3887 15.0611C16.5294 14.9164 16.6646 14.7663 16.8111 14.6282C16.9638 14.4842 17.1281 14.3519 17.2851 14.2127C17.3204 14.1814 17.3444 14.1367 17.3804 14.1062C17.5309 13.9782 17.6839 13.8531 17.8362 13.7274C18.0333 13.5649 18.2277 13.3991 18.4284 13.241C18.5804 13.121 18.7407 13.0119 18.8963 12.8963C18.9566 12.8516 19.0122 12.8 19.0737 12.7571C19.2554 12.6302 19.4357 12.5005 19.6233 12.3823C19.8316 12.2511 20.045 12.1278 20.2602 12.0083C20.4416 11.9072 20.6288 11.8159 20.8139 11.7211C20.9033 11.6753 20.9462 11.7007 20.948 11.8047C20.9509 11.9621 20.9487 12.1195 20.9487 12.2769C20.96 12.2776 20.9702 12.2783 20.9803 12.2794Z" fill="#8A8A8F"/>
<path d="M10.3466 15.0205C10.3829 15.155 10.5193 15.1968 10.6003 15.2914C10.8813 15.6182 11.1776 15.9323 11.4586 16.2594C11.5949 16.4183 11.712 16.5939 11.8352 16.7636C11.9199 16.8803 12.0003 17.0003 12.0828 17.1188C12.1191 17.1708 12.1268 17.2231 12.0671 17.2598C11.9196 17.3504 11.7756 17.4518 11.6182 17.5219C11.3128 17.6579 11.0049 17.7939 10.6868 17.896C10.3426 18.0065 9.98742 18.0865 9.63371 18.1636C9.45885 18.2017 9.276 18.2177 9.09678 18.2185C8.80487 18.2196 8.53441 18.137 8.28467 17.9778C8.09745 17.8589 7.92623 17.727 7.78119 17.5583C7.65359 17.41 7.50382 17.2802 7.38204 17.1275C7.2439 16.9545 7.12357 16.7669 6.99997 16.583C6.91927 16.463 6.83857 16.3419 6.77204 16.214C6.69425 16.0646 6.623 15.9104 6.56411 15.7527C6.43869 15.4168 6.30928 15.0812 6.20749 14.7377C6.1177 14.4345 6.06935 14.1197 5.99228 13.8125C5.92321 13.5366 5.92031 13.2534 5.87996 12.975C5.83197 12.6438 5.83815 12.3134 5.83815 11.9822C5.83815 11.8939 5.86142 11.8055 5.87559 11.7041C6.03046 11.7783 6.17804 11.8382 6.31509 11.9168C6.62627 12.0945 6.93781 12.2723 7.23881 12.4664C7.52163 12.6489 7.79718 12.8441 8.0651 13.0477C8.34865 13.2633 8.61984 13.4945 8.89503 13.7206C9.08515 13.8765 9.27527 14.0317 9.46067 14.1932C9.58827 14.3044 9.70787 14.4251 9.83037 14.5425C9.91908 14.6276 10.0067 14.7137 10.0947 14.7995C10.1586 14.8958 10.2335 14.9802 10.3466 15.0205Z" fill="#8A8A8F"/>
<path d="M13.0925 16.4738C13.0511 16.3844 13.0071 16.296 12.9682 16.2055C12.8497 15.9271 12.7316 15.6486 12.6167 15.3691C12.5407 15.1844 12.4586 15.0015 12.4022 14.8107C12.3553 14.6522 12.3397 14.4842 12.3146 14.3196C12.267 14.0084 12.2244 13.6965 12.1765 13.3857C12.1354 13.1225 12.087 12.8604 12.0459 12.5968C11.9489 11.9748 11.8547 11.3525 11.7584 10.7301C11.6686 10.1499 11.5774 9.56975 11.4872 8.9892C11.3952 8.39702 11.3044 7.80484 11.212 7.21265C11.115 6.59066 11.0164 5.96867 10.9198 5.34632C10.8289 4.76323 10.7391 4.17977 10.6493 3.59631C10.558 3.00413 10.4668 2.41159 10.3766 1.81904C10.3221 1.45988 10.2716 1.10036 10.2142 0.741557C10.2018 0.663763 10.2243 0.629591 10.2949 0.596874C10.7703 0.376578 11.2764 0.253707 11.7798 0.122838C11.7828 0.122111 11.7857 0.121384 11.7886 0.120657C12.0056 0.073399 12.0332 0.0984824 12.0383 0.317324C12.043 0.525987 12.0598 0.734286 12.0663 0.942949C12.0714 1.1029 12.0638 1.26321 12.071 1.42317C12.0918 1.87357 12.1194 2.32325 12.1401 2.77366C12.1521 3.03358 12.1514 3.29422 12.1648 3.55414C12.1895 4.02854 12.2212 4.50294 12.2484 4.97734C12.2644 5.25544 12.2775 5.53354 12.291 5.81163C12.3204 6.42235 12.3495 7.03271 12.3786 7.64343C12.3978 8.04549 12.4157 8.44755 12.4367 8.8496C12.4705 9.49632 12.5069 10.143 12.5414 10.7901C12.5556 11.0562 12.58 11.3223 12.5774 11.5884C12.5731 12.0966 12.6465 12.5964 12.7072 13.0985C12.7741 13.6514 12.8384 14.2047 12.9079 14.7572C12.9762 15.3011 13.0493 15.8438 13.1198 16.3873C13.1231 16.4127 13.1202 16.4389 13.1202 16.4647C13.1114 16.468 13.102 16.4709 13.0925 16.4738Z" fill="#8A8A8F"/>
<path d="M13.4556 17.9248C13.4687 17.9535 13.4858 17.9812 13.4945 18.011C13.6374 18.5083 13.7799 19.0056 13.9213 19.5032C14.034 19.8987 14.1456 20.2946 14.2575 20.6905C14.3473 21.0079 14.4375 21.3248 14.5266 21.6422C14.6196 21.9741 14.7109 22.3064 14.8039 22.6383C14.8937 22.9585 14.985 23.2784 15.0755 23.5987C15.174 23.948 15.2729 24.2974 15.3699 24.6475C15.4176 24.8194 15.4655 24.9914 15.5033 25.1655C15.5124 25.2069 15.4957 25.2735 15.4659 25.3004C15.4019 25.3574 15.3216 25.3967 15.2474 25.4425C15.2347 25.4505 15.2172 25.4523 15.2067 25.4621C15.0231 25.6272 14.7912 25.706 14.5778 25.8176C14.4589 25.8798 14.428 25.8729 14.392 25.7409C14.3026 25.4145 14.2176 25.0866 14.1303 24.7594C14.095 24.6278 14.0569 24.4973 14.0231 24.3654C14.006 24.2985 13.9922 24.2301 13.9824 24.1618C13.9711 24.0811 13.9358 24.0327 13.8479 24.0349C13.5545 24.0422 13.2608 24.0491 12.9674 24.0556C12.9081 24.0571 12.8827 24.0869 12.8751 24.1447C12.8122 24.6155 12.7475 25.0859 12.6835 25.5566C12.6675 25.6737 12.6486 25.7904 12.6395 25.9078C12.6337 25.9856 12.5959 26.0089 12.5272 25.998C12.4977 25.9932 12.4672 25.986 12.4407 25.9729C12.1357 25.8195 11.8227 25.6813 11.5526 25.4654C11.4911 25.4163 11.4689 25.3712 11.4904 25.296C11.5493 25.0891 11.6056 24.8819 11.6605 24.674C11.7496 24.3345 11.8361 23.9946 11.9248 23.655C12.039 23.2188 12.1546 22.7833 12.2691 22.3471C12.369 21.9668 12.4683 21.5862 12.5672 21.2056C12.6631 20.837 12.7584 20.468 12.8543 20.0994C12.9481 19.7395 13.0419 19.3793 13.1357 19.0194C13.2233 18.6828 13.3109 18.3465 13.3989 18.0102C13.4062 17.9822 13.4174 17.9553 13.4273 17.9281C13.4367 17.9263 13.4462 17.9255 13.4556 17.9248ZM13.4974 19.7733C13.4883 19.7733 13.4792 19.7733 13.4705 19.773C13.4651 19.7919 13.4574 19.8108 13.4549 19.83C13.4091 20.1714 13.3655 20.5131 13.3182 20.8541C13.2313 21.483 13.1426 22.1115 13.0554 22.7404C13.0408 22.8462 13.0579 22.8687 13.1604 22.8698C13.336 22.872 13.5116 22.872 13.6868 22.8676C13.7875 22.8651 13.806 22.836 13.7941 22.7357C13.7766 22.5885 13.7584 22.4416 13.7457 22.294C13.7188 21.9781 13.6995 21.6611 13.669 21.3456C13.6246 20.8883 13.573 20.4317 13.524 19.9751C13.5167 19.9078 13.5065 19.8406 13.4974 19.7733Z" fill="#8A8A8F"/>
<path d="M20.0442 8.8922C20.5956 8.64355 21.1467 8.3949 21.6982 8.14625C21.7055 8.15461 21.7127 8.16297 21.72 8.17133C21.7135 8.20841 21.7109 8.24658 21.7 8.28184C21.563 8.72062 21.423 9.15903 21.2871 9.59817C21.2431 9.73958 21.2104 9.88426 21.1682 10.0264C21.1155 10.2027 21.0315 10.3536 20.8745 10.4681C20.692 10.6011 20.5298 10.7611 20.3543 10.9043C20.1721 11.0526 19.9853 11.1951 19.7999 11.3391C19.7792 11.3551 19.7541 11.3656 19.7312 11.3791C19.7235 11.3751 19.7159 11.3707 19.7086 11.3667C19.938 10.7502 20.167 10.1336 20.3964 9.5171C20.3906 9.5091 20.3848 9.50074 20.3793 9.49274C20.2819 9.52619 20.1816 9.55309 20.0878 9.59417C19.9242 9.66542 19.7621 9.74067 19.6043 9.82355C19.552 9.85118 19.4993 9.90062 19.4738 9.95333C19.3996 10.1053 19.3389 10.2638 19.2739 10.4201C19.2099 10.5739 19.147 10.728 19.0845 10.8821C19.0139 11.0555 18.9456 11.2297 18.8747 11.4027C18.8078 11.5652 18.7024 11.6961 18.5701 11.8138C18.401 11.964 18.248 12.1319 18.0862 12.2901C17.9117 12.4606 17.7351 12.6289 17.5588 12.7975C17.5446 12.811 17.5271 12.8215 17.498 12.843C17.5031 12.8099 17.5035 12.7925 17.5086 12.7765C17.618 12.4337 17.7285 12.0912 17.8372 11.748C17.963 11.3504 18.084 10.9508 18.2131 10.5539C18.3701 10.0704 18.5337 9.58908 18.6933 9.10668C18.7976 8.79078 18.9002 8.47415 19.003 8.15788C19.1881 7.5886 19.3717 7.0186 19.557 6.44932C19.6461 6.17631 19.7395 5.90439 19.8272 5.63102C19.9598 5.21661 20.0889 4.80073 20.2212 4.38595C20.2492 4.29798 20.2856 4.21291 20.3277 4.10059C20.399 4.20674 20.4619 4.28671 20.5106 4.37468C20.6502 4.62552 20.7952 4.87417 20.9181 5.133C21.1569 5.63684 21.3507 6.1585 21.4935 6.69797C21.5204 6.79976 21.5404 6.90554 21.5459 7.0106C21.5484 7.05822 21.5186 7.11675 21.4863 7.15565C21.3423 7.3265 21.1896 7.48972 21.045 7.65949C20.9137 7.8129 20.7909 7.97358 20.6596 8.12735C20.4808 8.33637 20.2972 8.54104 20.1169 8.74861C20.0827 8.78787 20.0547 8.83295 20.0242 8.87512C20.0296 8.88057 20.0369 8.88638 20.0442 8.8922ZM20.4869 6.30682C20.4735 6.30863 20.4597 6.31081 20.4462 6.31263C20.3016 6.80521 20.1565 7.29742 20.0118 7.79C20.0231 7.7969 20.034 7.80417 20.0453 7.81108C20.0707 7.79145 20.0987 7.77436 20.1201 7.7511C20.1467 7.72238 20.1641 7.68566 20.1914 7.65767C20.3361 7.50863 20.4837 7.36176 20.6287 7.21272C20.7363 7.10221 20.8094 6.98406 20.704 6.82993C20.6876 6.80594 20.6843 6.77285 20.6727 6.74486C20.6113 6.59909 20.5487 6.45295 20.4869 6.30682Z" fill="#8A8A8F"/>
<path d="M7.85248 8.27809C7.73252 8.22393 7.63946 8.17631 7.54167 8.13923C7.28247 8.04144 7.1407 7.83314 7.0091 7.60557C6.85061 7.33075 6.67393 7.06647 6.50708 6.79673C6.45945 6.71966 6.42056 6.63751 6.37294 6.56044C6.33004 6.49137 6.29587 6.49028 6.26715 6.56444C6.21626 6.6964 6.16136 6.83127 6.1421 6.96941C6.13192 7.04247 6.18354 7.13154 6.22498 7.20315C6.37221 7.45689 6.5278 7.70554 6.67866 7.95674C6.72047 8.02653 6.76118 8.09742 6.7939 8.17158C6.90259 8.41732 7.1287 8.54819 7.32174 8.7096C7.53912 8.89172 7.7576 9.0753 7.99207 9.23416C8.1393 9.33413 8.2131 9.469 8.2749 9.61986C8.40031 9.92486 8.521 10.2317 8.64424 10.5374C8.74348 10.7842 8.84417 11.0307 8.94269 11.2779C9.12772 11.7414 9.31276 12.2045 9.49561 12.6691C9.5476 12.8011 9.59231 12.9363 9.63884 13.0704C9.64938 13.1002 9.65447 13.1322 9.66792 13.1875C9.6203 13.165 9.59267 13.1562 9.57013 13.1402C9.29931 12.9476 9.02848 12.7549 8.75947 12.5597C8.54936 12.4074 8.3436 12.2485 8.13239 12.0976C7.9779 11.9871 7.81504 11.8886 7.66018 11.7785C7.43588 11.6189 7.21668 11.4517 6.99311 11.2913C6.83607 11.179 6.67466 11.0732 6.51616 10.9624C6.41474 10.8915 6.3155 10.8169 6.21553 10.7439C6.09375 10.6548 5.96688 10.5716 5.85237 10.4738C5.79857 10.428 5.75094 10.3589 5.73168 10.2913C5.61644 9.88051 5.50884 9.46755 5.40124 9.05458C5.35907 8.89209 5.32271 8.72814 5.28345 8.56491C5.29581 8.55728 5.30817 8.54965 5.32053 8.54201C6.19699 9.43701 7.07381 10.3316 7.95027 11.2266C7.95936 11.2219 7.96844 11.2172 7.97753 11.2121C7.95681 11.1358 7.93863 11.0587 7.91501 10.9834C7.8034 10.6286 7.69071 10.2738 7.57584 9.92013C7.56421 9.88451 7.54094 9.84888 7.51404 9.82307C7.38317 9.69802 7.24758 9.57733 7.11634 9.45264C6.94331 9.28833 6.767 9.12692 6.60196 8.95461C6.50017 8.8481 6.41547 8.72523 6.32495 8.60817C6.1072 8.32572 5.88981 8.04326 5.67424 7.75934C5.55173 7.59794 5.43541 7.43217 5.3129 7.27077C5.25655 7.19697 5.24746 7.11881 5.262 7.03084C5.3398 6.56735 5.43395 6.10822 5.60299 5.66799C5.73168 5.33246 5.86109 4.99729 5.99959 4.66575C6.05485 4.53343 6.13483 4.41128 6.21335 4.2666C6.24352 4.31022 6.27079 4.33785 6.2846 4.37093C6.36094 4.55197 6.43328 4.73446 6.50889 4.91586C6.66157 5.28156 6.81825 5.64545 6.96802 6.01225C7.09599 6.32597 7.21486 6.64296 7.341 6.95741C7.39371 7.08937 7.45696 7.21733 7.51077 7.34929C7.61546 7.60666 7.71798 7.86513 7.81904 8.12396C7.8354 8.16395 7.8383 8.20902 7.85248 8.27809Z" fill="#8A8A8F"/>
<path d="M16.7477 19.4146C16.876 19.4917 17.0054 19.5669 17.1319 19.6469C17.3896 19.8098 17.6452 19.9763 17.9033 20.1391C18.1941 20.3227 18.4864 20.5048 18.779 20.6855C18.887 20.752 18.9975 20.8138 19.108 20.8764C19.1727 20.9131 19.1891 20.96 19.1506 21.0269C19.0451 21.2104 18.9408 21.3947 18.8368 21.5794C18.7776 21.6848 18.7271 21.7961 18.6602 21.8964C18.4391 22.2287 18.2138 22.5577 17.9873 22.8863C17.9244 22.9772 17.8739 22.9841 17.7939 22.9066C17.6379 22.7554 17.4885 22.5969 17.3358 22.4421C17.2279 22.3323 17.1195 22.2229 17.0109 22.1138C16.8382 21.9408 16.6655 21.7674 16.4914 21.5958C16.3387 21.4453 16.1831 21.2977 16.0301 21.1472C15.8407 20.9607 15.6527 20.7728 15.4641 20.5855C15.4455 20.567 15.4248 20.5503 15.4052 20.5328C15.3986 20.5372 15.3917 20.5412 15.3852 20.5456C15.4321 20.6346 15.4782 20.724 15.5259 20.8127C15.7854 21.298 16.0446 21.7834 16.3053 22.2679C16.4314 22.502 16.5626 22.7336 16.6891 22.9681C16.7495 23.0797 16.8033 23.1953 16.8611 23.3083C16.9381 23.4585 17.0163 23.6086 17.0945 23.7584C17.1257 23.818 17.1275 23.8743 17.0785 23.9252C16.9407 24.0688 16.8066 24.2161 16.6637 24.3542C16.5161 24.4967 16.3612 24.6319 16.2053 24.7653C16.1526 24.8104 16.0864 24.8399 16.0264 24.8762C16.0028 24.8191 15.973 24.7639 15.9563 24.7046C15.8647 24.3847 15.776 24.0641 15.6869 23.7431C15.5869 23.3818 15.4873 23.0201 15.3881 22.6584C15.311 22.3784 15.2347 22.0982 15.1576 21.8183C15.0478 21.4187 14.9373 21.0192 14.8283 20.6193C14.7581 20.3627 14.6919 20.105 14.621 19.8483C14.5098 19.4455 14.3953 19.0438 14.2848 18.641C14.2553 18.5334 14.2335 18.4237 14.2092 18.3146C14.2044 18.2928 14.2044 18.2702 14.2012 18.2354C14.2299 18.2473 14.2488 18.2499 14.2604 18.2608C14.637 18.6065 15.0122 18.9537 15.3892 19.299C15.5095 19.4092 15.6356 19.5128 15.7563 19.6222C15.9217 19.772 16.0831 19.9265 16.2493 20.0755C16.3929 20.2042 16.5423 20.3267 16.6873 20.4539C16.7986 20.5514 16.9069 20.6521 17.0163 20.7517C17.2759 20.9876 17.5354 21.2239 17.795 21.4602C17.8371 21.4987 17.8739 21.5485 17.94 21.49C18.004 21.4333 17.9978 21.3806 17.9546 21.3155C17.7201 20.9636 17.4885 20.6095 17.254 20.2576C17.1083 20.0388 16.9574 19.8232 16.8124 19.604C16.7775 19.5509 16.7553 19.4895 16.7273 19.4321C16.7335 19.4259 16.7408 19.4201 16.7477 19.4146Z" fill="#8A8A8F"/>
<path d="M11.1392 20.8626C11.0582 20.9346 10.9873 20.9862 10.9302 21.0498C10.8161 21.1782 10.7099 21.3137 10.5987 21.445C10.5674 21.4817 10.53 21.5133 10.4958 21.5475C10.47 21.5729 10.4427 21.5969 10.4194 21.6246C10.2948 21.7718 10.1748 21.9226 10.0465 22.0666C9.84399 22.2945 9.63641 22.5177 9.43102 22.7428C9.36995 22.8096 9.31142 22.8798 9.24526 22.9416C9.22127 22.9641 9.17801 22.9663 9.14384 22.9776C9.13693 22.9445 9.11767 22.9085 9.12457 22.8787C9.22818 22.4305 9.33687 21.9834 9.44084 21.5355C9.53572 21.1258 9.62696 20.715 9.71894 20.3046C9.72257 20.2875 9.72148 20.2697 9.70439 20.2395C9.63751 20.317 9.56989 20.394 9.50373 20.4722C9.35178 20.6525 9.19873 20.8317 9.04969 21.0142C8.92173 21.1705 8.79958 21.3319 8.67235 21.489C8.56184 21.6253 8.44805 21.7583 8.33572 21.8932C8.29137 21.9463 8.24666 21.943 8.21031 21.8878C8.09362 21.7111 7.97693 21.5344 7.86496 21.3548C7.79771 21.2472 7.74173 21.1331 7.67593 21.0244C7.6483 20.9786 7.6523 20.9455 7.69265 20.915C7.79844 20.8353 7.90495 20.7561 8.01146 20.6772C8.21104 20.53 8.40988 20.382 8.61055 20.2366C8.98025 19.9683 9.35032 19.7012 9.72112 19.4351C9.9196 19.2926 10.121 19.154 10.3188 19.0105C10.4209 18.9363 10.518 18.8552 10.6172 18.7774C10.6288 18.784 10.6401 18.7909 10.6517 18.7974C10.3976 19.6975 10.1435 20.5972 9.88943 21.4973C9.89597 21.5028 9.90288 21.5082 9.90942 21.5137C9.95886 21.4573 10.0123 21.4043 10.0574 21.3446C10.2322 21.1138 10.4056 20.8822 10.5772 20.6489C10.7419 20.4249 10.9044 20.1995 11.0662 19.9734C11.2959 19.6517 11.5213 19.3271 11.7536 19.0072C11.8205 18.9148 11.9063 18.8363 11.9822 18.7505C12.0957 18.6218 12.2073 18.4913 12.3214 18.3634C12.441 18.2292 12.5628 18.0969 12.6835 17.9639C12.6911 17.9679 12.6984 17.9719 12.706 17.9762C12.6955 18.0308 12.6889 18.0867 12.6737 18.1402C12.5592 18.5419 12.4406 18.9425 12.3276 19.3445C12.212 19.755 12.1037 20.1676 11.9873 20.5776C11.9164 20.8281 11.8328 21.0753 11.7623 21.3257C11.6449 21.742 11.5351 22.1604 11.4184 22.5766C11.3639 22.7718 11.2977 22.9641 11.2425 23.1594C11.1192 23.596 11 24.0336 10.8782 24.4706C10.8513 24.5669 10.8219 24.6625 10.7924 24.7578C10.7673 24.8378 10.735 24.8483 10.6794 24.7919C10.4423 24.5509 10.2057 24.3096 9.97268 24.0649C9.95086 24.042 9.93778 23.9904 9.94759 23.9613C10.0632 23.6141 10.1766 23.2659 10.3049 22.9234C10.4351 22.5752 10.5787 22.2316 10.7201 21.8878C10.8502 21.5718 10.9855 21.2585 11.1181 20.9437C11.1261 20.9248 11.1287 20.9044 11.1392 20.8626Z" fill="#8A8A8F"/>
<path d="M5.03169 10.6602C5.04405 10.7292 5.05895 10.7979 5.0684 10.8674C5.12039 11.2512 5.17382 11.6348 5.22217 12.0194C5.27816 12.4636 5.32105 12.9096 5.38467 13.3528C5.44319 13.7603 5.52644 14.1638 5.5897 14.5706C5.65295 14.9759 5.77618 15.3645 5.89178 15.7564C6.02447 16.2054 6.2066 16.6329 6.41926 17.0476C6.54177 17.2868 6.66936 17.525 6.81514 17.7503C7.00053 18.0368 7.20556 18.3105 7.40405 18.5883C7.46585 18.6744 7.46366 18.697 7.36733 18.7304C7.18157 18.7951 6.99472 18.8558 6.80896 18.9209C6.72607 18.95 6.67882 18.9332 6.64065 18.8453C6.44907 18.4069 6.28403 17.959 6.14734 17.5006C5.98158 16.944 5.80345 16.3904 5.65513 15.8291C5.53698 15.382 5.43411 14.9283 5.36213 14.4717C5.25053 13.7607 5.15746 13.0456 5.08258 12.3295C5.03241 11.8518 5.02623 11.369 5.00188 10.8888C4.99788 10.8139 5.00151 10.7387 5.00151 10.6638C5.01169 10.6627 5.02151 10.6612 5.03169 10.6602Z" fill="#8A8A8F"/>
<path d="M21.794 10.6704C21.7893 10.7409 21.7842 10.8118 21.7798 10.8823C21.7627 11.1691 21.7547 11.457 21.7271 11.7431C21.6631 12.4058 21.5857 13.0671 21.5221 13.7298C21.4726 14.2438 21.361 14.7459 21.2469 15.2475C21.1651 15.607 21.0804 15.9662 20.9859 16.3228C20.8957 16.662 20.8023 17.0008 20.6903 17.3331C20.5195 17.8398 20.3312 18.3407 20.1505 18.8442C20.1465 18.8555 20.1411 18.8664 20.1367 18.8777C20.0771 19.0354 20.0727 19.0416 19.912 18.9896C19.7335 18.9318 19.5583 18.8635 19.3813 18.801C19.314 18.777 19.306 18.7403 19.3482 18.685C19.4747 18.5192 19.6074 18.3578 19.7237 18.1855C19.8637 17.9783 19.992 17.7624 20.1211 17.5479C20.1992 17.4185 20.2745 17.2869 20.3417 17.1517C20.4504 16.9324 20.5689 16.7158 20.6522 16.4871C20.7867 16.1185 20.9052 15.7434 21.0135 15.3657C21.0982 15.069 21.1713 14.7677 21.224 14.4638C21.3 14.0257 21.3549 13.5837 21.4159 13.1427C21.5225 12.3724 21.6268 11.6014 21.7326 10.8311C21.7402 10.7758 21.7504 10.7209 21.7595 10.666C21.7707 10.6675 21.7824 10.6689 21.794 10.6704Z" fill="#8A8A8F"/>
<path d="M17.7584 19.2652C17.8009 19.2525 17.8423 19.2354 17.8856 19.2281C18.139 19.186 18.3934 19.1489 18.6465 19.1045C18.7504 19.0864 18.8413 19.1045 18.9336 19.1547C19.167 19.2819 19.4037 19.4026 19.6385 19.5273C19.7338 19.5779 19.7457 19.6088 19.7076 19.7102C19.628 19.9221 19.5473 20.134 19.4651 20.3453C19.4531 20.3758 19.4328 20.4031 19.416 20.4314C19.3877 20.4794 19.3517 20.4907 19.3033 20.4576C19.2463 20.4183 19.1856 20.3841 19.1299 20.3427C18.7319 20.0435 18.3349 19.7436 17.9379 19.443C17.874 19.3946 17.8125 19.3434 17.75 19.2932C17.7529 19.2834 17.7558 19.2743 17.7584 19.2652Z" fill="#8A8A8F"/>
<path d="M8.93952 19.3304C8.83046 19.4202 8.74031 19.4984 8.64579 19.5714C8.53819 19.6543 8.42695 19.7318 8.31753 19.8121C8.09069 19.9782 7.86421 20.144 7.63738 20.3105C7.57703 20.3548 7.51923 20.4032 7.45634 20.4443C7.39454 20.485 7.34692 20.4599 7.31566 20.3985C7.20078 20.172 7.087 19.9448 6.97176 19.7187C6.93868 19.6536 6.95504 19.6103 7.01866 19.5783C7.29348 19.4395 7.56612 19.2952 7.84458 19.1639C7.89802 19.1388 7.97545 19.1545 8.0398 19.1643C8.31208 19.2054 8.58363 19.2512 8.85518 19.2962C8.87445 19.2995 8.89263 19.3112 8.93952 19.3304Z" fill="#8A8A8F"/>
<path d="M10.346 15.0205C10.233 14.9801 10.1581 14.8961 10.0938 14.7998C10.1777 14.8732 10.2621 14.9467 10.346 15.0205Z" fill="#8A8A8F"/>
</svg>
