<svg width="164" height="164" viewBox="0 0 164 164" fill="none" xmlns="http://www.w3.org/2000/svg">
<path d="M41.0874 87.8105C42.1607 87.9849 43.2341 88.1593 44.4493 88.3567C44.3017 88.1076 44.2404 87.9581 44.1407 87.8392C43.098 86.6125 42.0975 85.3418 40.9839 84.1802C40.0562 83.2123 39.7169 82.0278 39.4275 80.803C39.2435 80.0229 39.0001 79.3099 38.31 78.8173C36.5237 77.5407 35.4925 75.6374 34.2639 73.899C33.7579 73.1821 33.2269 72.4844 32.7209 71.7676C32.5752 71.5625 32.4334 71.3402 32.3625 71.1025C32.0501 70.0483 31.8105 68.9711 31.4578 67.9322C30.4534 64.9882 29.9283 61.9425 29.4242 58.8873C29.1367 57.1431 28.7533 55.4123 28.4006 53.6776C28.2914 53.141 28.3221 53.0854 28.8741 53.139C29.2555 53.1755 29.6369 53.2176 30.0164 53.2713C30.3442 53.3192 30.4285 53.1908 30.3269 52.8937C29.8094 51.3508 29.3226 49.7982 28.7687 48.2706C28.4102 47.2854 28.2013 46.2983 28.1936 45.2422C28.1764 42.3844 28.1093 39.5246 28.0575 36.6668C28.0518 36.3007 27.9981 35.9346 28.0001 35.5666C28.002 35.1756 28.1476 35.1047 28.4658 35.3213C28.7763 35.5321 29.0792 35.7545 29.5066 36.0573C29.4759 35.7679 29.4759 35.6069 29.4376 35.4535C29.1827 34.4147 28.8511 33.3892 28.6901 32.337C28.6057 31.7811 28.7878 31.1754 28.9028 30.6023C29.2881 28.6933 29.7347 26.7977 30.0797 24.8829C30.2023 24.2024 30.1199 23.4837 30.1008 22.7821C30.0816 22.0653 30.0126 21.3484 29.9973 20.6316C29.9934 20.4668 30.072 20.2406 30.1928 20.1428C30.5895 19.8247 31.0265 19.5563 31.4444 19.2611C31.6955 19.0829 31.8316 19.1806 31.8833 19.4413C31.9236 19.6445 31.9063 19.8592 31.9581 20.0585C31.9926 20.1907 32.1018 20.3019 32.1766 20.4246C32.2609 20.3038 32.3951 20.1946 32.4219 20.0623C32.4756 19.7997 32.4507 19.5199 32.4947 19.2535C32.7688 17.6319 33.0372 16.0104 33.3381 14.3946C33.4627 13.7238 33.6371 13.0587 33.8384 12.407C33.9074 12.1827 34.0971 11.9642 34.2888 11.8147C37.2099 9.49549 40.1252 7.16476 43.0788 4.88579C44.3151 3.93127 45.6338 3.08408 46.9257 2.20622C47.1135 2.0778 47.3627 2.00305 47.5927 1.98197C49.3407 1.8248 51.0907 1.67913 52.8407 1.55263C53.0822 1.53538 53.3543 1.59863 53.5767 1.70405C54.8455 2.30206 56.1144 2.90582 57.3603 3.54984C57.7474 3.75109 58.0829 4.06544 58.4125 4.36253C59.1792 5.05254 59.9267 5.76173 60.7854 6.55908C60.5612 6.54183 60.4634 6.56483 60.4059 6.52649C59.0681 5.62756 57.504 5.30938 56.009 4.81871C55.1445 4.53503 54.2763 4.26094 53.4003 4.0156C53.1933 3.9581 52.9192 3.97343 52.7257 4.06352C49.2967 5.65439 45.8753 7.25868 42.4597 8.8783C42.1876 9.00672 41.9384 9.23865 41.7486 9.48015C41.1276 10.2679 40.5373 11.0806 39.9412 11.8875C39.8473 12.014 39.7418 12.1501 39.7035 12.2958C39.3892 13.4976 39.0365 14.6936 38.8065 15.9146C38.7011 16.4723 38.8046 17.0818 38.887 17.6568C39.0212 18.6018 39.2147 19.5391 39.3796 20.4783C39.3892 20.5319 39.3566 20.5933 39.3336 20.7063C38.726 20.2348 38.1529 19.7901 37.5817 19.3416C37.3804 19.1845 37.1984 19.0024 36.9933 18.851C36.7211 18.6497 36.5428 18.7283 36.5294 19.0695C36.5064 19.6751 36.4911 20.2827 36.4988 20.8884C36.5294 23.2805 36.5582 25.6745 36.6099 28.0665C36.6348 29.2472 36.7748 30.4298 36.7422 31.6067C36.7134 32.6475 36.9013 33.5847 37.4456 34.4722C37.8021 35.0549 38.0839 35.6855 38.4001 36.2931C38.6167 36.709 38.5516 36.8144 38.0724 36.8278C37.689 36.8374 37.3076 36.8566 36.9243 36.8623C36.6118 36.8662 36.4892 36.9658 36.5984 37.3032C37.4935 40.0249 38.0743 42.8175 38.4845 45.6504C38.5266 45.936 38.6819 46.2197 38.841 46.4689C39.3566 47.2758 39.8779 48.077 40.4376 48.8533C40.6638 49.1676 40.9532 49.4685 41.279 49.6755C43.2571 50.931 45.2601 52.1481 47.2381 53.4016C47.4719 53.5492 47.6981 53.8118 47.7901 54.0706C49.1222 57.743 50.4294 61.425 51.7424 65.1032C51.775 65.1933 51.7865 65.2987 51.8421 65.3715C51.9226 65.4769 52.0241 65.5977 52.1411 65.636C52.1947 65.6533 52.3308 65.498 52.3864 65.3964C52.8311 64.6029 53.2681 63.8056 53.7032 63.0082C53.9102 62.6306 54.1229 62.2569 54.3108 61.8697C54.4794 61.5208 54.6309 61.4691 54.8724 61.8141C55.8077 63.1462 56.7546 64.4687 57.6957 65.7951C59.0259 67.6677 60.3523 69.5423 61.6844 71.4149C62.8842 73.1035 64.1129 74.7711 65.282 76.4808C65.7421 77.1516 66.3362 77.6078 67.0167 78.0065C70.1237 79.8274 73.2249 81.6636 76.3319 83.4864C76.629 83.6608 76.7612 83.841 76.675 84.2166C76.4143 85.3494 76.1536 86.486 76.1824 87.661C76.215 88.9835 76.1996 90.3099 76.3012 91.6286C76.5772 95.209 76.8992 98.7856 77.2155 102.362C77.2864 103.173 77.4148 103.978 77.5145 104.785C77.5298 104.904 77.5318 105.024 77.549 105.268C77.3248 105.116 77.181 105.04 77.0583 104.936C75.1646 103.322 73.2728 101.707 71.3791 100.093C71.174 99.9164 70.9574 99.7497 70.7313 99.6021C69.6847 98.9255 68.9621 97.9729 68.3392 96.9149C67.6204 95.6901 67.6051 95.7112 66.3113 96.2728C65.215 96.7481 64.1128 97.212 62.9992 97.6509C62.8056 97.7275 62.5143 97.7256 62.3322 97.6336C61.6786 97.304 61.0538 96.9149 60.4117 96.5584C60.1031 96.3878 60.1567 96.2517 60.4117 96.0773C60.7509 95.8453 61.0749 95.5923 61.5138 95.2665C61.2531 95.1668 61.0978 95.0729 60.9349 95.0499C59.6871 94.8717 58.4355 94.7164 57.1878 94.5362C54.7554 94.1874 52.327 93.8079 49.8908 93.4859C49.2602 93.4034 48.7485 93.1466 48.2425 92.8074C45.952 91.2721 43.6538 89.7464 41.3615 88.2149C41.2388 88.1325 41.1334 88.0251 41.0203 87.9312C41.0471 87.8891 41.0663 87.8507 41.0874 87.8105ZM47.3244 4.1306C47.3723 4.51778 47.4298 4.7267 47.7556 4.55803C48.0335 4.41428 48.3095 4.27053 48.5836 4.12102C48.7811 4.01369 48.9861 3.79135 48.7121 3.67634C48.4475 3.56517 48.0719 3.62268 47.7767 3.71276C47.5774 3.77601 47.4355 4.02135 47.3244 4.1306ZM38.0072 14.8354C37.9727 14.7818 37.9382 14.7281 37.9037 14.6725C37.7082 14.7914 37.5127 14.9102 37.3172 15.029C37.3536 15.0885 37.3919 15.146 37.4284 15.2054C37.622 15.0846 37.8136 14.96 38.0072 14.8354Z" fill="white"/>
<path d="M132.22 56.4015C132.69 56.3459 133.062 56.2922 133.433 56.2596C133.662 56.2405 133.893 56.252 134.125 56.252C134.081 56.4762 134.066 56.7139 133.985 56.9247C133.571 58.0134 133.064 59.0714 132.732 60.1831C132.044 62.4947 131.638 64.8657 131.388 67.2711C131.206 69.0307 130.913 70.7807 130.612 72.5249C130.528 73.0136 130.256 73.4755 130.039 73.9356C129.435 75.2178 128.906 76.5557 127.798 77.516C127.064 78.1523 126.284 78.735 125.54 79.3599C124.931 79.8735 124.306 80.3796 123.762 80.9584C123.422 81.3207 123.202 81.8018 122.961 82.2464C122.596 82.9134 122.257 83.5958 121.858 84.3663C122.372 84.3663 122.801 84.3663 123.302 84.3663C123.261 84.5676 123.269 84.7017 123.212 84.7937C122.504 85.9304 121.768 87.0478 121.084 88.1978C120.712 88.8246 120.179 89.1849 119.535 89.4724C117.498 90.3829 115.495 91.3719 113.436 92.2344C112.459 92.6427 111.393 92.8459 110.36 93.1161C108.524 93.5991 106.684 94.0611 104.846 94.5345C104.804 94.546 104.769 94.5881 104.608 94.7051C104.924 94.8373 105.17 94.9312 105.405 95.0386C105.643 95.1459 105.873 95.2686 106.107 95.3855C105.906 95.5465 105.722 95.7343 105.503 95.8666C104.414 96.5279 103.324 97.1872 102.214 97.814C102.005 97.9328 101.687 97.9827 101.461 97.9213C99.9696 97.5131 98.4937 97.0511 97.0006 96.6448C96.7648 96.5796 96.4179 96.6275 96.2186 96.7636C94.5625 97.9021 92.8892 99.0215 91.3041 100.252C90.1483 101.149 89.1267 102.219 88.0285 103.19C87.4113 103.737 86.7596 104.241 86.0082 104.858C86.0082 104.567 85.9929 104.421 86.0101 104.279C86.3149 101.841 86.6235 99.401 86.9321 96.963C86.9762 96.6141 87.0126 96.2634 87.0873 95.9222C87.4994 94.04 87.0241 92.1999 86.7538 90.3656C86.5909 89.252 86.7328 88.2074 86.9493 87.1455C87.1468 86.1776 87.3691 85.2135 87.5876 84.2494C87.6164 84.121 87.6911 84.0041 87.7448 83.8814C87.856 83.9523 87.971 84.0194 88.0802 84.0941C88.1185 84.121 88.1454 84.1631 88.176 84.1996C88.6418 84.7516 88.6284 84.7228 89.1555 84.2187C91.0339 82.4228 92.872 80.5789 94.8424 78.8884C96.2281 77.6981 97.7788 76.6918 99.3026 75.6721C100.433 74.915 101.34 73.9413 102.245 72.9542C102.687 72.4712 103.098 71.9594 103.563 71.5013C104.821 70.2631 105.4 68.6071 106.297 67.1466C107.37 65.3966 107.945 63.4588 108.532 61.5191C108.558 61.4309 108.602 61.3485 108.67 61.1894C108.813 61.3083 108.946 61.383 109.034 61.4923C109.858 62.5273 110.676 63.5681 111.497 64.6069C111.727 64.8983 111.88 64.7909 112.02 64.5149C113.122 62.3414 114.257 60.1831 115.326 57.9923C116.781 55.0138 118.178 52.0084 119.627 49.0279C119.746 48.7825 120.061 48.541 120.327 48.4739C121.145 48.2708 121.983 48.127 122.821 48.0139C123.202 47.9622 123.373 47.7897 123.484 47.4485C124.07 45.643 124.688 43.8451 125.255 42.0338C125.477 41.3227 125.663 40.5867 125.751 39.8468C125.935 38.3077 126.432 36.8644 126.999 35.4403C127.191 34.9592 127.116 34.6736 126.66 34.4321C126.252 34.2155 125.876 33.9433 125.483 33.6999C125.224 33.5389 125.142 33.3396 125.192 33.0176C125.437 31.4593 125.665 29.8952 125.866 28.3312C125.905 28.0264 125.799 27.7025 125.753 27.3882C125.609 26.3781 125.462 25.368 125.32 24.3559C125.088 22.7133 124.868 21.0707 124.628 19.43C124.325 17.3465 124.011 15.2669 123.691 13.1853C123.672 13.0627 123.566 12.9553 123.501 12.8403C123.411 12.9323 123.286 13.009 123.238 13.1182C123.014 13.6453 122.817 14.1859 122.593 14.7149C122.545 14.8299 122.432 14.918 122.347 15.0196C122.267 14.9315 122.159 14.8586 122.108 14.7551C121.297 13.1642 120.509 11.56 119.673 9.98058C119.464 9.58382 119.135 9.23306 118.805 8.92064C117.889 8.0562 116.909 7.25502 116.018 6.36566C115.263 5.61239 114.412 5.1083 113.392 4.79779C112.005 4.37611 110.625 3.91035 109.277 3.37176C108.545 3.08042 107.865 3.113 107.134 3.26059C105.398 3.61326 103.657 3.94485 101.919 4.28219C101.783 4.30903 101.641 4.30519 101.445 4.22469C101.566 4.12311 101.679 4.00619 101.812 3.91994C103.778 2.64532 105.747 1.37071 107.725 0.113343C107.882 0.0136735 108.219 -0.0457447 108.315 0.0443408C109.588 1.2327 111.2 1.14262 112.762 1.32279C114.171 1.48379 115.581 1.7138 116.952 2.06456C117.511 2.20831 117.975 2.73924 118.477 3.10342C121.228 5.0968 123.618 7.50036 126.01 9.88858C126.98 10.8584 127.678 12.0986 128.5 13.2179C128.623 13.3847 128.73 13.5648 128.866 13.7201C129.805 14.7896 130.223 16.1083 130.737 17.4002C131.455 19.2096 131.687 21.0803 131.868 22.9989C132.111 25.6037 132.544 28.1894 132.893 30.7846C133.052 31.971 133.215 33.1556 133.355 34.3439C133.397 34.7043 133.55 34.8538 133.909 34.8269C134.275 34.8001 134.643 34.8116 135.007 34.7752C135.375 34.7388 135.504 34.8653 135.442 35.2371C135.174 36.874 134.875 38.507 134.681 40.1516C134.606 40.786 134.767 41.4511 134.848 42.0989C135.021 43.4771 135.241 44.8475 135.375 46.2295C135.421 46.7086 135.264 47.207 135.205 47.6977C135.053 48.9646 134.93 50.2373 134.739 51.4985C134.664 51.9873 134.507 52.4952 134.261 52.9226C133.66 53.9749 132.987 54.9831 132.345 56.0124C132.306 56.0852 132.293 56.183 132.22 56.4015Z" fill="white"/>
<path d="M130.432 91.792C130.133 93.6435 129.876 95.3628 129.572 97.0745C129.238 98.9432 128.914 100.818 128.483 102.666C128.272 103.57 127.868 104.44 127.477 105.291C126.829 106.698 126.212 108.105 125.953 109.652C125.767 110.767 125.5 111.871 125.263 112.979C125.234 113.117 125.19 113.261 125.117 113.38C124.444 114.497 123.76 115.607 123.089 116.725C122.514 117.681 121.937 118.636 121.385 119.605C120.597 120.993 119.722 122.312 118.681 123.533C117.429 125.001 116.256 126.536 115.047 128.041C114.899 128.223 114.734 128.39 114.504 128.532C116.12 122.417 118.2 116.454 120.111 110.438C120.063 110.413 120.013 110.386 119.965 110.361C119.854 110.48 119.723 110.587 119.635 110.721C117.707 113.671 115.763 116.612 113.868 119.582C112.555 121.639 111.322 123.747 110.025 125.814C109.367 126.862 108.641 127.866 107.961 128.901C107.665 129.352 107.41 129.829 107.037 130.285C107.046 130.13 107.044 129.971 107.067 129.818C107.19 128.982 107.274 128.137 107.455 127.313C107.729 126.053 108.035 124.8 108.392 123.562C108.867 121.907 109.398 120.267 109.916 118.626C110.261 117.532 110.631 116.443 110.983 115.35C111.023 115.226 111.027 115.088 111.05 114.957C111.012 114.938 110.976 114.919 110.937 114.898C110.811 115.044 110.671 115.18 110.56 115.337C108.633 118.016 106.705 120.696 104.792 123.385C104.643 123.594 104.545 123.87 104.516 124.127C104.401 125.126 104.39 126.139 104.206 127.123C104.108 127.644 103.75 128.121 103.489 128.608C102.613 130.237 101.729 131.861 100.846 133.484C100.305 134.477 99.7609 135.468 99.2127 136.459C99.1533 136.564 99.0651 136.653 98.8926 136.731C98.9079 136.557 98.9079 136.379 98.9386 136.206C99.5328 132.89 100.129 129.576 100.725 126.262C101.074 124.33 101.426 122.4 101.771 120.47C102.069 118.804 102.383 117.142 102.634 115.471C102.774 114.543 102.803 113.598 102.872 112.661C102.985 111.149 103.075 109.635 103.217 108.124C103.234 107.944 103.497 107.699 103.694 107.636C105.181 107.164 106.682 106.733 108.177 106.284C108.631 106.148 109.084 106.002 109.699 105.811C109.053 108.002 108.442 110.068 107.832 112.134C107.872 112.155 107.913 112.178 107.953 112.199C111.501 108.78 114.665 105.031 117.467 100.967C117.517 100.979 117.565 100.99 117.615 101.002C117.653 101.134 117.72 101.264 117.728 101.397C117.784 102.353 117.824 103.311 117.881 104.268C117.889 104.396 117.964 104.519 118.008 104.645C118.125 104.578 118.265 104.532 118.353 104.438C120.427 102.228 122.48 99.9974 124.571 97.8047C126.211 96.0854 127.9 94.4121 129.564 92.7178C129.838 92.4417 130.097 92.1523 130.432 91.792Z" fill="white"/>
<path d="M69.955 108.709C70.1486 108.822 70.2578 108.858 70.3268 108.931C71.4117 110.091 72.6479 111.068 73.959 111.956C74.2197 112.132 74.304 112.324 74.2235 112.638C74.0682 113.24 73.8804 113.848 73.8382 114.463C73.7846 115.285 73.8421 116.115 73.8785 116.941C73.9322 118.168 74.0031 119.395 74.074 120.619C74.1142 121.336 74.1679 122.051 74.2197 122.768C74.2254 122.852 74.2676 122.935 74.4075 123.042C74.534 122.711 74.649 122.375 74.7889 122.049C75.5345 120.322 76.2782 118.597 77.0353 116.876C77.6717 115.433 78.3253 113.995 78.9789 112.56C79.021 112.47 79.1073 112.351 79.1859 112.339C79.2549 112.328 79.3737 112.431 79.4216 112.514C80.3321 114.03 81.2751 115.527 82.1165 117.079C82.381 117.566 82.4059 118.199 82.4711 118.772C82.659 120.403 82.841 122.038 82.9714 123.675C83.1765 126.266 83.3125 128.863 83.5291 131.453C83.625 132.589 83.5656 133.695 83.4122 134.826C83.2972 135.675 83.4927 136.57 83.5713 137.442C83.6633 138.439 83.7783 139.432 83.7764 140.479C83.6882 140.385 83.5828 140.3 83.5138 140.193C82.3101 138.288 80.9109 136.53 79.4657 134.803C79.138 134.41 78.8945 133.858 78.8274 133.35C78.5936 131.581 78.4403 129.802 78.285 128.024C78.1815 126.832 78.1278 125.637 78.0493 124.443C78.0435 124.353 78.0109 124.265 77.9668 124.07C77.8212 124.257 77.7042 124.361 77.6448 124.491C77.2193 125.436 76.8034 126.383 76.3932 127.336C76.3376 127.464 76.305 127.612 76.3031 127.752C76.259 130.991 76.2188 134.232 76.1824 137.471C76.1747 138.18 76.1805 138.89 76.0712 139.635C75.8009 139.104 75.5384 138.569 75.2604 138.042C74.0702 135.786 72.8818 133.53 71.6781 131.284C71.3829 130.734 71.2277 130.176 71.2756 129.547C71.3273 128.88 71.3139 128.208 71.358 127.539C71.4711 125.8 71.1299 124.106 70.875 122.406C70.3958 119.213 70.1006 116.01 70.0834 112.78C70.0776 111.617 69.9952 110.451 69.9492 109.288C69.9511 109.129 69.955 108.975 69.955 108.709Z" fill="white"/>
<path d="M99.5847 107.963C99.5502 108.383 99.5214 108.802 99.4773 109.222C99.2627 111.283 99.0288 113.343 98.8333 115.405C98.6167 117.709 98.4308 120.017 98.2391 122.323C98.1893 122.927 98.1471 123.53 98.1337 124.136C98.0992 125.623 97.7427 127.032 97.1715 128.399C96.9147 129.016 96.7556 129.674 96.4815 130.281C95.9908 131.37 95.4618 132.439 94.9252 133.505C94.4268 134.498 93.8978 135.477 93.3822 136.463C93.3247 136.451 93.2672 136.439 93.2097 136.428C93.4263 134.189 93.6812 131.952 93.8499 129.708C94.0185 127.448 94.0588 125.181 94.237 122.923C94.4153 120.657 94.6971 118.399 94.9482 116.003C94.3003 116.383 93.7291 116.715 93.1618 117.052C92.5733 117.403 91.9945 117.771 91.3965 118.106C91.1013 118.273 90.9652 118.478 90.946 118.825C90.8483 120.514 90.7314 122.202 90.6145 123.889C90.4726 125.922 90.3902 127.966 90.1449 129.988C90.0241 130.983 89.6197 131.949 89.2958 132.913C88.807 134.364 88.2761 135.799 87.7643 137.243C87.5247 137.919 87.2928 138.598 87.0494 139.274C86.9976 139.42 86.9114 139.556 86.7868 139.803C86.7427 139.598 86.7063 139.504 86.7044 139.412C86.6315 135.726 86.5817 132.039 86.482 128.353C86.4168 125.945 86.2712 123.542 86.1849 121.135C86.1658 120.611 86.2348 120.084 86.2788 119.561C86.4053 118.052 86.5261 116.542 86.6871 115.036C86.7101 114.829 86.9056 114.556 87.0934 114.466C89.2574 113.416 91.4252 112.367 93.6179 111.375C94.515 110.968 95.4848 110.719 96.3991 110.347C96.8591 110.159 97.3172 109.906 97.6948 109.588C98.312 109.071 98.8621 108.475 99.4409 107.911C99.4908 107.926 99.5368 107.946 99.5847 107.963Z" fill="white"/>
<path d="M48.3892 117.49C48.8224 118.301 49.269 119.104 49.6888 119.923C50.766 122.021 51.8489 124.118 52.8916 126.234C53.6947 127.864 54.4154 129.533 55.2242 131.16C55.4945 131.703 55.6593 132.22 55.6785 132.834C55.7475 135.195 55.8242 137.556 55.9967 139.912C56.0484 140.621 56.3819 141.319 56.6445 142.001C57.2981 143.698 57.9421 145.4 58.6724 147.061C59.3835 148.679 60.1962 150.253 60.9686 151.844C61.5226 152.982 62.0861 154.117 62.6457 155.253C62.5997 155.294 62.5518 155.334 62.5058 155.374C62.3659 155.19 62.2336 155 62.0861 154.824C60.4358 152.856 58.8238 150.855 57.1218 148.934C55.2837 146.858 53.8116 144.529 52.2763 142.243C51.1838 140.616 50.1162 138.971 49.0217 137.348C48.3892 136.41 47.6647 135.529 47.0955 134.557C46.6987 133.88 46.4438 133.104 46.2195 132.345C45.4471 129.723 44.46 127.191 43.2448 124.741C42.0334 122.299 40.893 119.823 39.7218 117.362C39.7027 117.322 39.7046 117.272 39.6797 117.138C39.8234 117.245 39.9269 117.297 39.9998 117.379C41.8513 119.468 43.6358 121.619 45.5717 123.626C46.6584 124.755 47.013 126.148 47.521 127.511C48.0979 129.062 48.6288 130.631 49.246 132.167C49.7079 133.319 50.281 134.425 50.7928 135.555C51.042 136.107 51.2662 136.669 51.502 137.227C51.5614 137.365 51.6227 137.503 51.6821 137.643C51.7339 137.641 51.7837 137.639 51.8355 137.639C51.8585 137.474 51.9122 137.309 51.9007 137.146C51.8144 135.985 51.6706 134.827 51.6304 133.666C51.5652 131.827 51.019 130.087 50.6375 128.314C50.1833 126.208 49.7252 124.103 49.2556 122C48.9566 120.663 48.6365 119.328 48.3298 117.993C48.2953 117.843 48.2857 117.688 48.2627 117.534C48.303 117.517 48.3451 117.504 48.3892 117.49Z" fill="white"/>
<path d="M58.179 124.493C58.4646 124.999 58.7559 125.503 59.0338 126.013C59.9539 127.709 60.9103 129.387 61.7671 131.113C62.1657 131.917 62.3823 132.816 62.6468 133.68C62.8328 134.289 62.8979 134.939 63.126 135.53C63.6934 136.998 64.3221 138.443 64.9296 139.896C64.9526 139.95 65.0063 139.99 65.1232 140.13C65.1769 139.9 65.2402 139.752 65.2402 139.605C65.2459 137.801 65.2382 135.995 65.2517 134.192C65.2536 133.927 65.3302 133.657 65.4146 133.404C65.7845 132.288 66.0682 131.131 66.8732 130.215C66.946 130.132 66.9978 130.031 67.0706 129.946C67.0974 129.916 67.153 129.908 67.2546 129.864C67.2968 129.983 67.3543 130.088 67.3696 130.197C67.8066 133.134 68.2666 136.066 68.6653 139.007C68.9452 141.077 69.1349 143.16 69.3841 145.236C69.4742 145.995 69.6141 146.748 69.7444 147.501C69.9419 148.646 70.1163 149.794 70.3635 150.927C70.7392 152.654 71.1513 154.371 71.5806 156.086C71.9046 157.384 72.2783 158.67 72.6253 159.962C72.6444 160.033 72.6272 160.111 72.6272 160.34C71.8106 159.711 70.8255 159.579 70.2811 158.666C69.5815 157.491 68.7746 156.382 68.0175 155.241C67.9255 155.101 67.6706 154.674 67.5594 154.472C68.0366 154.329 68.5196 154.817 68.7707 155.067C69.0122 155.306 69.1541 155.506 69.5968 155.567C70.1661 155.647 70.3329 155.419 70.5514 155.067C70.559 155.055 70.5514 155.036 70.5514 155.099C70.0281 154.63 69.5451 154.195 69.0084 153.712C69.5451 153.51 69.5949 153.181 69.4895 152.734C69.4071 152.383 69.4397 152.006 69.4186 151.553C69.4263 151.549 69.5336 151.494 69.6429 151.436C69.9284 151.287 70.0396 151.13 69.9246 150.754C69.7981 150.344 69.846 149.88 69.8096 149.338C69.3918 149.732 69.4109 150.208 69.2768 150.618C69.1982 150.858 69.1943 151.17 69.0352 151.323C68.5657 151.779 68.5196 152.366 68.4238 152.941C68.3491 153.38 68.2551 153.775 67.7817 153.986C67.6667 154.037 67.638 154.287 67.5594 154.472C67.0419 154.126 66.8272 153.572 66.6068 153.037C66.0452 151.682 65.5027 150.319 64.9546 148.96C64.508 147.85 64.0556 146.744 63.6224 145.629C62.7561 143.402 61.9185 141.161 61.0387 138.939C60.4292 137.4 60.1015 135.794 59.7967 134.18C59.3501 131.828 58.9265 129.473 58.4952 127.119C58.3381 126.266 58.1905 125.411 58.0391 124.556C58.0831 124.535 58.1311 124.514 58.179 124.493Z" fill="white"/>
<path d="M67.2205 122.645C67.071 122.288 66.9004 121.937 66.7739 121.573C65.9037 119.057 65.0431 116.538 64.1787 114.019C63.9928 113.477 63.8241 112.925 63.596 112.4C63.4982 112.174 63.3066 111.917 63.0938 111.823C61.8863 111.286 60.6615 110.794 59.4406 110.291C59.3447 110.251 59.2336 110.245 58.9882 110.196C59.1281 110.573 59.2182 110.866 59.3428 111.144C59.6552 111.842 59.9907 112.53 60.2954 113.23C60.3817 113.427 60.4334 113.655 60.4392 113.872C60.466 115.085 60.4718 116.298 60.4967 117.512C60.5005 117.655 60.5772 117.797 60.6193 117.939C60.7574 117.876 60.9107 117.832 61.0334 117.744C61.3439 117.521 61.6525 117.293 61.938 117.038C62.2409 116.77 62.3636 116.891 62.4709 117.211C62.9021 118.512 63.366 119.804 63.7743 121.113C63.9755 121.761 64.1097 122.432 64.2228 123.103C64.4662 124.546 64.677 125.997 64.8975 127.444C64.909 127.515 64.8802 127.59 64.861 127.73C64.7173 127.632 64.6042 127.58 64.5218 127.498C63.2855 126.275 62.055 125.048 60.8168 123.825C60.0347 123.053 59.2623 122.267 58.4477 121.529C58.026 121.148 57.9398 120.657 57.8286 120.166C57.2632 117.663 56.6575 115.166 56.1764 112.645C55.8985 111.192 55.8218 109.701 55.6685 108.225C55.4806 106.416 55.3062 104.606 55.1241 102.797C55.1088 102.648 55.0973 102.5 55.0781 102.291C55.2085 102.35 55.2756 102.364 55.3158 102.404C56.7054 103.765 58.4439 104.643 60.0003 105.776C61.0046 106.508 62.0531 107.179 63.067 107.897C63.3679 108.11 63.6037 108.158 63.8375 107.84C64.2055 107.34 64.6272 107.133 65.2674 107.395C65.7791 107.604 66.3522 107.662 66.8774 107.844C67.0288 107.895 67.2109 108.147 67.2109 108.308C67.2416 111.436 67.2378 114.562 67.2627 117.69C67.2761 119.267 67.3317 120.845 67.3681 122.422C67.37 122.484 67.3508 122.545 67.3413 122.608C67.3029 122.62 67.2608 122.631 67.2205 122.645Z" fill="white"/>
<path d="M35.0351 90.4258C36.2675 91.9477 37.4865 93.4829 38.7401 94.9895C39.9016 96.3868 41.0938 97.761 42.2898 99.1315C42.539 99.4171 42.8399 99.6682 43.1485 99.8905C43.5261 100.163 43.6756 100.489 43.6162 100.956C43.5491 101.478 43.4724 102.01 43.5146 102.53C43.6277 103.973 43.783 105.416 43.9535 106.854C44.2276 109.167 44.5305 111.477 44.8122 113.789C44.9598 115.008 45.0288 116.24 45.2454 117.448C45.4198 118.416 45.761 119.353 46.0293 120.304C46.1731 120.817 46.3207 121.329 46.4663 121.843C46.4146 121.873 46.3628 121.906 46.3092 121.937C45.9201 121.496 45.4735 121.095 45.1515 120.61C43.5108 118.14 41.9027 115.648 40.2811 113.164C39.4358 111.868 38.5676 110.588 37.7568 109.271C37.5594 108.949 37.5191 108.518 37.4559 108.129C37.0093 105.405 36.5435 102.683 36.1487 99.9518C35.9455 98.5526 35.6369 97.1554 35.8075 95.7197C35.9493 94.5275 35.497 93.4235 35.2651 92.2869C35.1654 91.8039 35.0255 91.3286 34.9181 90.8455C34.8894 90.721 34.9143 90.5829 34.9143 90.4526C34.9527 90.443 34.9929 90.4334 35.0351 90.4258Z" fill="white"/>
<path d="M89.144 138.578C89.144 139.006 89.1555 139.433 89.1421 139.859C89.0635 142.282 88.9006 144.706 88.939 147.129C88.9543 148.026 89.4354 148.917 89.7133 149.808C89.7306 149.866 89.8321 149.899 89.9701 149.996C90.0679 149.743 90.1733 149.538 90.227 149.322C90.8787 146.675 91.4863 144.018 92.1935 141.386C92.3852 140.671 92.8395 140.014 93.2362 139.368C94.1122 137.942 95.0284 136.541 95.9292 135.13C96.0212 134.985 96.1266 134.848 96.28 134.636C96.3279 134.812 96.3815 134.908 96.3739 134.998C96.3106 135.889 96.2263 136.779 96.165 137.668C96.0116 139.916 95.2565 142.029 94.7102 144.189C94.1984 146.213 93.7231 148.248 93.1481 150.255C92.7628 151.601 92.2242 152.9 91.7623 154.225C91.3962 155.275 91.0435 156.329 90.6812 157.379C90.1944 158.794 89.6961 160.207 89.2188 161.625C89.006 162.258 88.8354 162.905 88.638 163.544C88.5882 163.703 88.5077 163.852 88.3256 164C88.2432 163.578 88.1627 163.155 88.0764 162.733C87.7947 161.345 87.4861 159.961 87.2369 158.568C87.1085 157.849 87.051 157.113 87.0127 156.381C86.8996 154.203 86.7884 152.024 86.7213 149.845C86.6715 148.265 86.6542 146.684 86.7022 145.107C86.7175 144.603 86.9724 144.1 87.1487 143.608C87.7333 141.971 88.3314 140.34 88.9275 138.707C88.9466 138.653 88.9888 138.609 89.0195 138.559C89.0597 138.563 89.1019 138.571 89.144 138.578ZM88.6284 157.322C89.0156 157.24 89.0904 156.958 89.1421 156.615C89.1651 156.467 89.3836 156.218 89.4737 156.233C89.9241 156.312 89.9701 156.032 90.0487 155.72C90.1024 155.499 90.1561 155.214 90.3132 155.101C90.6027 154.89 90.5605 154.711 90.4321 154.456C90.3631 154.32 90.3362 154.161 90.3037 154.01C90.2979 153.981 90.3516 153.939 90.3803 153.901C90.5049 153.972 90.618 154.035 90.7311 154.1C90.7694 154.054 90.8078 154.01 90.8461 153.964C90.6736 153.816 90.4627 153.513 90.3324 153.544C89.4641 153.751 90.1292 154.336 90.0334 154.79C89.7536 154.435 89.491 154.069 89.33 153.663C89.215 153.374 89.3664 153.165 89.8571 153.356C89.4373 152.877 89.8705 152.768 90.0142 152.578C89.8877 152.358 89.7766 152.168 89.6347 151.921C89.5255 152.047 89.4124 152.168 89.3089 152.296C89.0674 152.595 88.8335 152.77 88.5039 152.375C88.4425 152.3 88.2163 152.363 88.0132 152.363C88.2374 152.661 88.5307 152.915 88.4866 153.011C88.2317 153.558 88.7243 153.878 88.9083 154.179C89.1766 154.617 88.914 154.89 88.868 155.252C88.7818 155.148 88.6955 155.045 88.5441 154.863C88.4694 155.131 88.4023 155.319 88.3659 155.511C88.2432 156.149 88.3313 156.76 88.6457 157.335C87.9902 157.602 87.8905 156.841 87.3327 156.622C87.4017 156.86 87.3998 157.057 87.4918 157.126C87.7813 157.341 87.7544 157.498 87.511 157.728C87.4324 157.803 87.4669 157.999 87.4343 158.267C87.6892 158.085 87.81 158 87.9135 157.926C88.2221 158.167 88.5019 158.388 88.7799 158.606C88.8259 158.585 88.8719 158.564 88.9179 158.541C88.8834 158.345 88.8604 158.146 88.8144 157.953C88.7607 157.74 88.6898 157.531 88.6284 157.322ZM88.0668 154.347C88.2087 153.711 88.0803 153.397 87.6452 153.232C87.7391 153.607 87.649 154.025 88.0668 154.347Z" fill="white"/>
<path d="M53.4474 122.649C53.3726 122.54 53.2825 122.438 53.2231 122.322C52.1823 120.313 51.1416 118.306 50.1104 116.294C49.3628 114.833 48.6268 113.369 47.8946 111.9C47.8276 111.764 47.7969 111.594 47.7988 111.44C47.8122 110.693 47.8065 109.942 47.8755 109.198C47.9867 108.017 47.7049 106.884 47.5573 105.732C47.3771 104.327 47.22 102.919 47.08 101.508C46.942 100.113 46.8366 98.7115 46.7216 97.3142C46.712 97.1973 46.7197 97.0785 46.7197 96.9596C46.758 96.9366 46.7964 96.9136 46.8347 96.8906C47.1395 97.1973 47.4404 97.5078 47.7528 97.8087C49.2325 99.2348 50.7045 100.668 52.2034 102.073C52.5638 102.413 52.7439 102.733 52.7535 103.254C52.8129 106.524 52.8819 109.794 53.0257 113.062C53.1618 116.152 53.3937 119.238 53.5796 122.325C53.5854 122.417 53.57 122.509 53.5643 122.601C53.524 122.617 53.4857 122.634 53.4474 122.649Z" fill="white"/>
<path d="M71.408 134.668C72.029 136.268 72.5925 137.896 73.2902 139.462C73.7406 140.47 74.3751 141.399 74.9501 142.348C75.3392 142.988 75.7992 143.586 76.1691 144.236C76.3397 144.537 76.4375 144.913 76.4528 145.26C76.4854 146.072 76.424 146.887 76.449 147.702C76.4643 148.238 76.585 148.771 76.6234 149.31C76.6809 150.103 76.7307 150.899 76.7384 151.694C76.7537 153.097 76.7326 154.5 76.7346 155.903C76.7365 157.032 76.7288 158.159 76.7595 159.286C76.7882 160.271 76.8687 161.255 76.9186 162.238C76.9339 162.545 76.9205 162.851 76.9205 163.158C76.8687 163.164 76.817 163.17 76.7652 163.175C76.6445 162.756 76.5295 162.336 76.403 161.918C75.7685 159.815 75.1149 157.718 74.5035 155.61C74.1278 154.312 73.7675 153.021 73.7387 151.637C73.6889 149.227 73.158 146.872 72.7555 144.503C72.236 141.44 71.8028 138.363 71.3371 135.291C71.3064 135.092 71.3083 134.886 71.2949 134.683C71.3333 134.678 71.3697 134.674 71.408 134.668Z" fill="white"/>
<path d="M96.3824 156.751C96.3824 156.586 96.369 156.419 96.3843 156.256C96.5396 154.577 96.7216 152.9 96.852 151.219C97.0226 149.011 97.1721 146.801 97.2928 144.591C97.3388 143.75 97.3292 142.897 97.2564 142.057C97.197 141.369 97.4941 140.867 97.8678 140.361C99.1904 138.565 100.507 136.763 101.828 134.967C102.144 134.538 102.472 134.116 102.867 133.599C102.888 133.821 102.918 133.924 102.903 134.022C102.612 135.945 102.384 137.881 101.996 139.784C101.715 141.164 101.218 142.502 100.818 143.857C100.406 145.246 100.022 146.644 99.5737 148.02C98.8665 150.186 98.1208 152.34 97.381 154.495C97.1184 155.259 96.8251 156.013 96.5472 156.772C96.4916 156.762 96.4361 156.756 96.3824 156.751Z" fill="white"/>
<path d="M111.034 128.337C110.933 129.004 110.848 129.675 110.728 130.339C110.549 131.326 110.358 132.309 110.155 133.292C109.767 135.165 109.378 137.035 108.964 138.902C108.905 139.169 108.711 139.412 108.554 139.648C107.523 141.201 106.58 142.805 105.886 144.538C105.254 146.119 104.679 147.723 104.075 149.318C104.006 149.502 103.91 149.674 103.827 149.853C103.781 149.841 103.735 149.831 103.691 149.82C103.712 149.373 103.739 148.927 103.753 148.478C103.808 146.585 103.827 144.689 103.921 142.799C103.979 141.624 104.077 140.441 104.295 139.288C104.412 138.669 104.769 138.071 105.108 137.519C106.545 135.192 108.017 132.886 109.482 130.574C109.963 129.815 110.461 129.068 110.952 128.314C110.979 128.322 111.007 128.33 111.034 128.337Z" fill="white"/>
<path d="M110.373 145.972C110.511 144.95 110.657 143.93 110.785 142.907C111.048 140.804 111.295 138.7 111.558 136.597C111.682 135.6 111.818 134.605 111.966 133.613C111.987 133.467 112.083 133.315 112.186 133.204C113.208 132.11 114.254 131.04 115.261 129.932C116.213 128.884 117.124 127.797 118.049 126.726C118.159 126.599 118.255 126.459 118.356 126.327C118.4 126.356 118.442 126.387 118.486 126.415C118.486 126.502 118.509 126.594 118.483 126.67C118.222 127.404 117.946 128.133 117.691 128.869C117.352 129.848 117.032 130.833 116.7 131.815C116.648 131.966 116.589 132.114 116.535 132.263C116.449 132.497 116.443 132.696 116.721 132.815C116.938 132.907 116.97 133.049 116.853 133.275C115.759 135.397 114.659 137.519 113.595 139.656C112.639 141.58 111.724 143.526 110.789 145.46C110.701 145.642 110.599 145.818 110.503 145.998C110.457 145.989 110.415 145.979 110.373 145.972Z" fill="white"/>
<path d="M83.3735 163.649C83.3371 163.486 83.2949 163.323 83.2643 163.158C82.9192 161.311 82.6049 159.457 82.2235 157.617C81.8286 155.71 81.5814 153.788 81.4453 151.846C81.3265 150.144 81.2 148.438 80.947 146.753C80.7227 145.258 80.3221 143.79 79.9982 142.308C79.6685 140.798 79.335 139.288 79.0072 137.777C78.9823 137.659 78.99 137.532 78.9766 137.264C79.1146 137.452 79.1778 137.522 79.2238 137.603C80.6364 140.1 82.0548 142.596 83.4483 145.103C83.6093 145.392 83.7128 145.76 83.7089 146.09C83.684 148.388 83.5997 150.684 83.5805 152.983C83.5633 154.991 83.615 156.998 83.615 159.007C83.615 160.458 83.5786 161.909 83.5556 163.36C83.5537 163.45 83.5211 163.538 83.5019 163.626C83.4579 163.636 83.4157 163.643 83.3735 163.649Z" fill="white"/>
<path d="M47.3242 4.13071C47.4354 4.02145 47.5772 3.77612 47.7746 3.71478C48.0698 3.62469 48.4455 3.5672 48.71 3.67837C48.9841 3.79337 48.779 4.01379 48.5816 4.12304C48.3075 4.27254 48.0315 4.4163 47.7536 4.56005C47.4296 4.72681 47.3721 4.51788 47.3242 4.13071Z" fill="white"/>
<path d="M38.0064 14.8358C37.8128 14.9604 37.6212 15.0831 37.4276 15.2077C37.3912 15.1482 37.3528 15.0907 37.3164 15.0313C37.5119 14.9125 37.7074 14.7936 37.9029 14.6748C37.9374 14.7285 37.9719 14.7821 38.0064 14.8358Z" fill="white"/>
<path d="M88.6403 157.334C88.326 156.761 88.2378 156.149 88.3605 155.509C88.3969 155.317 88.464 155.129 88.5387 154.861C88.6902 155.043 88.7764 155.147 88.8627 155.25C88.9087 154.89 89.1713 154.616 88.9029 154.177C88.7189 153.876 88.2263 153.556 88.4812 153.01C88.5272 152.912 88.2321 152.657 88.0078 152.362C88.211 152.362 88.4372 152.298 88.4985 152.373C88.8282 152.768 89.062 152.594 89.3035 152.295C89.407 152.166 89.5201 152.045 89.6294 151.919C89.7712 152.166 89.8824 152.356 90.0089 152.576C89.8651 152.766 89.4319 152.875 89.8517 153.355C89.361 153.165 89.2096 153.372 89.3246 153.661C89.4875 154.068 89.7501 154.434 90.028 154.788C90.1239 154.334 89.4607 153.749 90.327 153.542C90.4574 153.512 90.6682 153.815 90.8407 153.962C90.8024 154.008 90.7641 154.052 90.7257 154.098C90.6126 154.033 90.4995 153.97 90.375 153.899C90.3462 153.937 90.2925 153.979 90.2983 154.008C90.3309 154.16 90.3577 154.319 90.4267 154.455C90.5551 154.71 90.5973 154.888 90.3079 155.099C90.1507 155.212 90.099 155.499 90.0434 155.718C89.9667 156.03 89.9207 156.31 89.4684 156.232C89.3783 156.216 89.1578 156.465 89.1368 156.613C89.085 156.958 89.0103 157.238 88.6231 157.32L88.6403 157.334Z" fill="white"/>
<path d="M88.6277 157.322C88.689 157.531 88.7599 157.74 88.8098 157.952C88.8558 158.146 88.8807 158.343 88.9133 158.541C88.8673 158.562 88.8212 158.583 88.7752 158.606C88.4954 158.387 88.2175 158.169 87.9089 157.925C87.8054 157.998 87.6866 158.085 87.4297 158.267C87.4623 157.998 87.4278 157.803 87.5064 157.728C87.7498 157.498 87.7786 157.341 87.4872 157.126C87.3933 157.057 87.3971 156.858 87.3281 156.622C87.8859 156.841 87.9856 157.602 88.6411 157.335C88.6411 157.333 88.6277 157.322 88.6277 157.322Z" fill="white"/>
<path d="M88.0662 154.348C87.6484 154.024 87.7385 153.606 87.6445 153.232C88.0796 153.397 88.208 153.712 88.0662 154.348Z" fill="white"/>
</svg>
