<svg width="164" height="164" viewBox="0 0 164 164" fill="none" xmlns="http://www.w3.org/2000/svg">
<path d="M42.0515 70.1281C41.6232 68.4893 41.0875 66.9138 39.858 65.6543C39.3112 65.0932 38.8324 64.4501 38.4089 63.7895C37.6661 62.6359 37.7357 61.7477 38.5543 60.6573C38.7913 60.3412 39.0457 60.0394 39.2812 59.7218C39.621 59.2635 39.7995 58.7388 39.7885 58.173C39.7822 57.8791 39.6731 57.5868 39.6115 57.3023C39.1184 57.2802 38.9715 57.5883 38.796 57.8333C38.3978 58.3895 38.0422 58.9774 37.6219 59.5163C36.4809 60.9797 35.0175 61.7604 33.1085 61.6308C31.8111 61.5423 30.5326 61.4396 29.4248 60.651C29.2999 60.5625 29.1419 60.5135 28.9949 60.4598C28.9538 60.4455 28.8969 60.4771 28.8084 60.4961C28.72 60.8375 29.0123 60.9955 29.1877 61.1883C29.7156 61.7651 30.117 62.3988 30.2228 63.189C30.2371 63.2933 30.2766 63.4023 30.2592 63.5019C30.2086 63.8005 30.1359 64.0945 30.0711 64.39C29.8072 64.311 29.5338 64.2557 29.281 64.1498C28.9981 64.0313 28.7326 63.8669 28.3391 63.6583C28.377 63.9396 28.3628 64.0929 28.4213 64.2067C28.5651 64.4864 28.7247 64.7645 28.9128 65.0158C29.6745 66.0367 30.2687 67.1461 30.7175 68.3345C31.0651 69.2574 31.5835 70.0776 32.1935 70.8424C32.9963 71.8475 33.4246 72.9774 33.3866 74.2733C33.3819 74.4313 33.4151 74.5894 33.4056 74.7458C33.3313 75.901 33.9034 76.6691 34.9211 77.0752C36.1838 77.5777 36.9597 78.5291 37.5334 79.689C38.3046 81.2456 39.1042 82.7896 39.798 84.3794C40.5202 86.0324 40.6782 87.7929 40.3732 89.5692C40.2784 90.1254 40.0777 90.7054 39.7695 91.1732C38.589 92.9732 37.0372 94.3749 35.0254 95.1983C33.1764 95.9552 31.3859 95.8762 29.6824 94.7336C28.9617 94.2501 28.1969 93.8329 27.4525 93.3856C26.7414 92.9589 26.7082 92.8373 26.9437 92.0471C27.176 91.2664 27.3988 90.481 27.5742 89.6861C27.6548 89.3195 27.718 88.9133 27.413 88.4787C27.2408 88.6573 27.0907 88.7853 26.9753 88.9402C25.3823 91.0689 23.8068 93.2086 22.1964 95.3231C21.8171 95.8209 21.3588 96.2744 20.8768 96.6743C20.1404 97.2843 19.6853 97.24 19.0374 96.5399C18.0607 95.4843 17.3812 94.2343 16.7965 92.9337C16.0458 91.2601 15.7424 89.5218 16.098 87.6965C16.3334 86.4875 16.256 85.2897 15.9716 84.095C15.6903 82.9145 15.5101 81.7276 15.6492 80.4966C15.8119 79.049 16.4172 77.9554 17.7779 77.3217C18.5886 76.944 19.3613 76.4826 20.1752 76.1128C20.6983 75.8757 21.264 75.7351 21.8108 75.5486C22.0716 75.4601 22.3292 75.3653 22.601 75.2673C22.4919 74.8312 22.2012 74.7347 21.9325 74.6763C21.2925 74.5356 20.6461 74.4139 19.9966 74.3318C19.423 74.2607 18.8398 74.2717 18.263 74.2148C17.092 74.0995 16.2671 73.4831 15.97 72.3485C15.2177 69.4913 15.3473 66.7131 16.9229 64.1166C17.2232 63.622 17.5345 63.1305 17.8822 62.669C18.4637 61.8947 18.7308 61.054 18.6059 60.0805C18.5585 59.7107 18.4226 59.2919 18.8319 58.9664C19.5383 59.077 19.9808 59.5669 20.3759 60.09C20.8437 60.7095 21.1455 61.4206 21.215 62.1934C21.3288 63.4513 21.3636 64.7156 21.4932 65.9719C21.5738 66.751 21.7587 67.5206 21.912 68.2918C21.9989 68.7296 22.1269 69.1594 22.2201 69.5971C22.258 69.7757 22.2691 69.9638 22.2612 70.1471C22.247 70.4616 22.1237 70.7176 21.7808 70.7808C21.4663 70.8393 21.3162 70.6386 21.1724 70.3905C20.801 69.7489 20.4913 69.6525 19.7343 69.9243C19.8196 70.4916 20.191 70.8614 20.6588 71.1032C21.3114 71.4414 22.002 71.7021 22.6721 72.0071C23.3896 72.3343 24.1402 72.6108 24.8087 73.0201C25.7916 73.6206 26.4443 74.5562 26.6655 75.6656C26.8741 76.7133 26.9326 77.8069 26.9231 78.8783C26.9137 79.8803 26.5265 80.3385 25.5404 80.5234C24.5922 80.702 23.6108 80.7352 22.6405 80.7684C21.8582 80.7953 21.0775 80.781 20.1863 80.9533C20.3143 81.2962 20.3933 81.5601 20.5071 81.8051C20.7631 82.3534 21.0554 82.886 21.3004 83.4375C21.6006 84.1139 21.5532 84.765 21.0839 85.3703C20.8421 85.6816 20.6256 86.0135 20.4201 86.3501C20.1325 86.8163 20.0424 87.333 20.1246 87.8703C20.2226 88.5009 20.5671 88.6336 21.0349 88.2133C21.3067 87.9683 21.5343 87.6728 21.7745 87.3947C22.3766 86.6977 22.9344 85.9581 23.5808 85.3071C25.0441 83.8326 26.7857 83.368 28.7942 84.0159C30.482 84.5596 31.9817 85.3861 33.0911 86.8178C33.3171 87.1086 33.5668 87.3804 33.8086 87.6586C34.4249 88.3665 35.2862 88.5277 36.1443 88.6731C36.4667 88.7284 36.6895 88.5214 36.8459 88.2543C37.1099 87.804 37.2015 87.3204 37.0988 86.8083C36.8854 85.7448 36.2944 84.9341 35.2546 84.6291C33.9081 84.234 33.2096 83.2906 32.8082 82.0627C32.4985 81.1145 32.1714 80.1489 32.0449 79.1675C31.9075 78.1071 31.4239 77.3549 30.5879 76.7686C30.3508 76.6027 30.1106 76.4415 29.8736 76.2787L29.8846 76.2898C29.7298 76.0164 29.5876 75.7351 29.4185 75.4712C29.0755 74.9402 28.6994 74.4313 28.3691 73.8924C27.7149 72.8242 27.2708 71.6816 27.1586 70.4173C27.0827 69.5513 26.9832 68.6869 26.8504 67.8288C26.7619 67.2599 26.615 66.6957 26.4522 66.1426C26.3858 65.9198 26.2073 65.7301 26.0793 65.5247C26.0113 65.5326 25.9449 65.5405 25.877 65.5468C25.6684 66.2216 25.4613 66.8948 25.2338 67.6297C25.052 67.519 24.9414 67.4874 24.8861 67.4132C24.0312 66.2437 23.35 64.981 23.4338 63.4908C23.5065 62.2076 23.6234 60.9102 23.9063 59.6617C24.2935 57.9518 24.0312 56.3699 23.3311 54.8212C23.1999 54.5304 22.9739 54.2807 22.808 54.0358C22.3876 54.1796 22.4524 54.4498 22.4603 54.6711C22.4809 55.3032 22.5393 55.9322 22.5567 56.5643C22.5646 56.8582 22.5125 57.1553 22.473 57.6215C22.0763 57.3434 21.8029 57.198 21.5864 56.991C20.4944 55.9543 19.4767 54.8417 18.7213 53.5348C17.8695 52.062 17.7589 50.4911 18.4258 48.914C18.6486 48.3862 18.9773 47.8947 19.3123 47.4253C20.0251 46.4281 20.2558 45.3267 20.1088 44.1319C20.0567 43.7147 19.9808 43.2975 19.8892 42.8882C19.709 42.0949 19.8734 41.368 20.3 40.6979C21.1344 39.3926 22.228 38.3338 23.4923 37.4535C24.2287 36.9399 25.052 36.8277 25.9054 37.098C26.3811 37.2497 26.8394 37.452 27.304 37.6353C27.5426 37.7301 27.7749 37.836 28.1479 37.9956C28.1147 37.6779 28.1115 37.4883 28.0736 37.305C27.9551 36.7392 27.7797 36.1814 27.7086 35.6093C27.6043 34.7559 27.8287 33.9452 28.4734 33.3732C29.6523 32.327 30.8897 31.344 32.116 30.3516C32.3057 30.1983 32.5664 30.1351 32.7798 30.0355C33.1022 30.3706 32.9394 30.6455 32.8446 30.9047C32.647 31.4483 32.4274 31.9856 32.2172 32.5261C31.7937 33.6181 31.5819 34.7465 31.5803 35.9222C31.5787 36.7645 31.514 37.6068 31.4586 38.4476C31.3828 39.5712 31.032 40.6142 30.4773 41.5892C29.7282 42.9056 28.475 43.4113 27.0543 42.9119C26.438 42.6954 25.8659 42.3541 25.2701 42.0791C25.0268 41.9669 24.7708 41.88 24.4974 41.771C24.3046 42.2751 24.5906 42.52 24.7628 42.7966C25.2638 43.5994 25.7932 44.3864 26.2736 45.2034C26.7951 46.09 26.9295 47.0871 26.9595 48.0954C26.9769 48.6848 26.8615 48.8444 26.2831 48.9788C25.4882 49.1621 24.6823 49.2948 23.8842 49.4655C23.565 49.5335 23.2552 49.6457 22.9439 49.7373C22.9913 50.2367 23.3058 50.3442 23.6092 50.4074C24.0201 50.4943 24.4405 50.548 24.8592 50.5733C25.3713 50.6033 25.6842 50.8356 25.8469 51.324C26.0382 51.8976 26.2626 52.4618 26.4822 53.026C26.6039 53.3373 26.7461 53.6407 26.8836 53.9568C27.2977 53.8793 27.3941 53.5791 27.5 53.3325C28.1321 51.8802 29.1561 50.7851 30.4931 49.9601C30.7601 49.7958 30.9988 49.5825 31.2374 49.3754C31.7715 48.9124 32.0086 48.3229 31.958 47.6181C31.9438 47.4079 31.947 47.193 31.9043 46.9892C31.7557 46.2701 31.9422 45.6443 32.3563 45.0517C32.8541 44.3374 33.0516 43.5267 33.0358 42.6591C33.02 41.8689 33.0247 41.0788 33.001 40.2886C32.9615 39.0054 33.3155 37.8597 34.0535 36.8009C34.6098 36.0044 35.1202 35.1668 35.5675 34.3055C35.8156 33.8283 35.9515 33.2704 36.0305 32.7331C36.1301 32.0583 36.1648 31.3677 36.1459 30.685C36.1 29.0399 36.5536 27.4991 37.1162 25.9947C37.3501 25.3704 37.7799 24.7984 38.2066 24.2705C38.8245 23.5057 39.6763 23.177 40.6608 23.2512C41.1855 23.2908 41.707 23.3713 42.2301 23.433C42.4387 23.4583 42.6489 23.4883 42.8575 23.5009C44.1707 23.5768 44.2892 23.493 44.8155 22.2952C45.1015 21.6441 45.4081 21.0025 45.7336 20.3703C46.2615 19.3494 47.0643 18.6241 48.1389 18.1927C49.1708 17.7786 50.2249 17.4483 51.3358 17.3535C52.3014 17.2713 53.0758 16.9142 53.7047 16.1256C54.3874 15.2691 55.3309 14.8139 56.4576 14.7902C57.0234 14.7792 57.4216 14.9941 57.6445 15.5203C57.7883 15.8601 57.9226 16.2046 58.0933 16.5302C58.4789 17.2619 59.0225 17.8561 59.8822 17.9382C62.1484 18.1531 63.5501 19.6213 64.8428 21.2632C65.102 21.5919 65.3216 21.957 65.5334 22.3204C65.9775 23.0853 65.9253 23.817 65.3817 24.5281C64.9992 25.0291 64.6484 25.5569 64.2944 26.08C62.9575 28.0586 62.2479 30.222 62.3585 32.6304C62.368 32.8374 62.3396 33.0476 62.3159 33.2546C62.3111 33.2957 62.2527 33.3321 62.1863 33.4063C61.66 33.3005 61.4325 32.8501 61.3266 32.4218C61.1322 31.6364 60.9679 30.8273 60.9426 30.0229C60.8999 28.6559 60.9679 27.2858 61.0026 25.9188C61.0311 24.7857 60.6313 23.8691 59.7257 23.1691C59.2674 22.8151 58.8439 22.4168 58.3951 22.0518C57.6429 21.4386 57.0866 20.6959 56.7721 19.7651C56.6267 19.3321 56.5145 18.8485 55.9567 18.5688C55.7797 18.7932 55.5837 18.997 55.4368 19.2325C55.1934 19.6213 54.8615 19.7951 54.4048 19.8599C53.7032 19.961 53.0015 20.0954 52.3204 20.2882C50.0684 20.9282 48.6224 22.518 47.5115 24.476C47.2002 25.0244 46.9062 25.5854 46.636 26.1574C46.4179 26.6205 46.0687 26.8228 45.574 26.8291C44.994 26.837 44.4141 26.8386 43.8373 26.8717C42.287 26.9618 41.8903 27.33 41.7607 28.8614C41.7038 29.5425 41.6928 30.2315 41.7323 30.9126C41.7702 31.5827 41.5347 32.0757 41.0243 32.4882C40.4096 32.9844 39.8312 33.5249 39.2164 34.0211C38.687 34.4478 38.4721 34.9867 38.6317 35.6267C38.8735 36.5938 39.15 37.5531 39.4487 38.5044C39.7158 39.3578 40.0682 40.1843 40.3179 41.0408C40.6324 42.1202 40.4127 43.1537 39.7569 44.0419C39.3081 44.6503 38.7708 45.2066 38.2034 45.7091C37.625 46.2211 37.3343 46.0852 37.2568 45.333C37.1462 44.26 37.0656 43.1822 36.9613 42.1076C36.936 41.8357 36.8728 41.5687 36.827 41.2984C36.7685 41.2905 36.7116 41.2826 36.6531 41.2763C36.5599 41.4454 36.4335 41.605 36.3797 41.7868C35.8567 43.5156 35.5596 45.2698 35.7903 47.0856C35.863 47.6592 35.8804 48.2408 35.9041 48.8192C35.9373 49.6441 35.6481 50.3584 35.1645 51.0205C34.2195 52.3132 32.9457 53.2614 31.7763 54.3218C31.4839 54.5873 31.1726 54.8354 30.9055 55.123C30.6116 55.4407 30.1675 55.7394 30.3745 56.2609C30.6211 56.8803 30.9482 57.4666 31.7052 57.5899C32.7276 57.7574 33.7343 57.6721 34.5829 57.0558C35.3225 56.5185 35.9799 55.8642 36.6579 55.2463C36.9297 54.9998 37.1636 54.7106 37.4133 54.4403C37.7625 54.0626 38.1924 53.9109 38.6981 53.9931C39.8359 54.1796 40.8963 54.581 41.7718 55.3332C42.0926 55.6082 42.2822 56.0475 42.4956 56.4315C42.6062 56.6307 42.6394 56.8725 42.7152 57.119C42.9697 57.1364 43.1909 57.1506 43.5639 57.1759C43.3126 57.5172 43.1735 57.808 42.946 57.9897C42.6204 58.2505 42.5019 58.5618 42.5035 58.949C42.5066 59.6064 42.4308 60.2796 42.5351 60.9212C42.8322 62.7386 43.1877 64.5465 43.5623 66.3496C43.6445 66.7494 43.8388 67.1587 44.0854 67.4843C44.678 68.2665 45.5503 68.1922 45.9533 67.3136C46.2362 66.6973 46.4811 66.0351 46.5728 65.3698C46.7355 64.183 47.1717 63.1431 47.886 62.1981C48.0045 62.0401 48.0899 61.8568 48.1009 61.5533C47.7754 61.6893 47.4499 61.8252 47.1259 61.9611C46.5475 62.206 46.3831 62.2044 46.0845 61.664C45.7305 61.0255 45.3812 60.3539 45.2105 59.6522C44.9498 58.5824 44.8455 57.4745 44.6732 56.3826C44.5421 55.5513 44.4583 54.709 44.2639 53.8936C44.0901 53.165 43.9194 53.0829 43.1846 52.9959C42.7611 51.5847 41.5505 51.049 40.3764 50.488C40.0745 50.3442 39.7158 50.3205 39.3855 50.2288C39.1943 50.1751 39.0094 50.0961 38.7344 49.9981C38.8988 49.7547 38.9794 49.5508 39.1279 49.4323C39.7 48.9725 40.2721 48.5063 40.8852 48.1049C41.5015 47.7019 42.1779 47.3953 42.8053 47.0097C43.9352 46.3175 44.5215 45.2603 44.7475 43.9818C44.7696 43.8554 44.7633 43.7211 44.7523 43.5931C44.7491 43.5536 44.689 43.5188 44.6037 43.4255C43.9858 43.906 43.3616 44.3911 42.6062 44.979C42.5509 44.5902 42.4924 44.3722 42.4924 44.1525C42.4956 42.2561 42.5114 40.3597 42.5193 38.4634C42.524 37.4772 42.8985 36.6697 43.6808 36.066C44.1391 35.712 44.6053 35.3675 45.0841 35.042C45.6183 34.6801 45.8743 34.2329 45.7115 33.566C45.574 33.0049 45.4903 32.4281 45.3907 31.8576C45.2137 30.8557 45.4444 29.9881 46.1998 29.2659C46.8304 28.6638 47.4625 28.087 48.3016 27.7662C50.0273 27.1088 51.26 25.9315 52.077 24.2547C52.8798 22.6065 54.0145 22.439 55.3198 23.7127C56.4987 24.8647 57.3885 26.2333 58.1312 27.6967C58.4899 28.4031 58.5358 29.16 58.4283 29.9328C58.3524 30.4812 58.2845 31.0296 58.2007 31.5763C58.1075 32.18 58.3003 32.6162 58.7949 33.0097C61.6901 35.3106 63.076 38.3417 63.0491 42.0254C63.046 42.4979 62.9954 42.9736 62.9196 43.4398C62.8295 43.9913 62.624 44.1003 62.093 43.9423C61.6648 43.8143 61.246 43.6531 60.813 43.5441C59.6199 43.2422 58.52 43.5978 57.4469 44.0735C57.2304 44.1699 57.0092 44.2694 56.8211 44.4085C55.4052 45.4562 53.7632 45.7676 52.0612 45.8908C51.772 45.9114 51.4844 45.943 51.1968 45.973C50.4635 46.0489 49.8156 46.2828 49.3636 46.918C49.2688 47.0508 49.0855 47.1219 48.8168 47.3068C48.7584 46.9528 48.6793 46.7126 48.6872 46.474C48.7315 45.1339 49.0191 43.8475 49.8061 42.7429C50.4319 41.8658 51.1446 41.0503 51.8368 40.2238C52.2477 39.7324 52.8087 39.5143 53.4361 39.4653C54.6087 39.372 55.7512 39.4716 56.8338 39.9789C57.0487 40.08 57.2668 40.1764 57.4912 40.2475C57.9589 40.3961 58.1723 40.2997 58.4188 39.9062C58.6495 39.5396 58.5373 39.2535 58.2402 39.0086C57.9558 38.7747 57.665 38.5471 57.3647 38.3354C57.0202 38.092 56.6552 37.8802 56.3138 37.6337C54.9674 36.6634 54.2341 35.3565 54.1883 33.6845C54.1788 33.3684 54.1867 33.0524 54.1646 32.7363C54.1235 32.1848 53.9939 32.0441 53.4471 31.9935C52.8703 31.9398 52.2888 31.9335 51.7151 31.8703C50.7495 31.7628 49.7871 31.6269 48.8247 31.5021C48.6003 31.4736 48.3759 31.4452 48.1452 31.4152C48.0156 31.8545 48.2685 32.0504 48.4992 32.1895C49.6749 32.8943 49.9373 34.0432 50.1285 35.2774C50.3181 36.5069 50.1569 37.5657 49.3541 38.5898C48.289 39.9473 47.63 41.5371 47.216 43.2201C47.0959 43.7053 46.9363 44.1809 46.7814 44.6566C46.4953 45.5384 46.429 46.5577 45.3512 46.8754C45.3654 47.3637 45.7241 47.4348 45.9817 47.5834C46.4985 47.882 46.9631 48.2392 47.1464 48.8192C47.2697 49.2095 47.2855 49.6346 47.3297 50.0471C47.3566 50.2904 47.344 50.5385 47.3487 50.7835C47.4072 50.8072 47.4672 50.8309 47.5257 50.8546C47.7185 50.6997 47.916 50.5496 48.1025 50.3868C48.5181 50.0234 48.9116 49.633 49.3446 49.2901C49.9705 48.7955 50.7164 48.6343 51.497 48.6437C52.1876 48.6532 52.3156 48.8855 51.9522 49.4545C51.6819 49.8748 51.3833 50.2778 51.1067 50.695C51.0277 50.8135 50.9819 50.9557 51.0182 51.1912C51.2394 51.079 51.4686 50.9779 51.6835 50.8514C52.5227 50.3568 53.3444 49.8306 54.1978 49.3628C55.0844 48.8776 56.0341 48.5758 57.0645 48.5837C58.5057 48.5948 59.7194 49.1542 60.5412 50.3094C61.8939 52.2105 62.3048 54.3345 61.6711 56.6149C61.581 56.9404 61.4325 57.258 61.2634 57.5536C60.9868 58.0387 60.8098 58.045 60.4416 57.631C60.1271 57.277 59.8269 56.9088 59.495 56.5722C59.2817 56.3557 59.0415 56.1408 58.5879 56.1961C58.6748 56.4442 58.7112 56.6433 58.8092 56.8077C59.0383 57.1917 59.2911 57.5615 59.544 57.9313C60.0228 58.6345 60.4084 59.3725 60.5491 60.2275C60.5997 60.5325 60.7245 60.8359 60.8667 61.114C61.5731 62.4984 61.9477 63.9222 61.8844 65.5168C61.8481 66.4207 61.7612 67.0465 60.8809 67.4858C60.3673 67.7419 59.9833 68.257 59.5092 68.6837C59.9106 69.0488 60.2472 68.8323 60.5586 68.7991C61.3661 68.7153 62.1689 68.5652 62.9796 68.513C65.1968 68.3677 67.0236 69.2526 68.6071 70.7334C68.7715 70.8867 68.9358 71.04 69.2076 71.296C69.2724 70.4458 69.1492 69.7947 68.7114 69.24C68.2879 68.7043 67.8312 68.1907 67.3602 67.696C67.0379 67.3578 66.8134 66.9959 66.7913 66.5203C66.7439 65.4725 66.4042 64.5022 65.9237 63.5888C64.7875 61.4317 64.6674 59.1686 65.1178 56.825C65.2758 56.0064 65.5397 55.2447 66.1039 54.6189C66.6096 54.0563 66.7281 53.4811 66.4658 52.7352C65.9316 51.2181 66.4516 50.2588 67.9781 49.7373C68.3859 49.5983 68.792 49.4576 69.2361 49.3043C69.0164 48.8666 68.6893 48.8413 68.3874 48.797C68.1551 48.7623 67.9149 48.7686 67.6779 48.767C67.3049 48.767 67.0695 48.5979 67.0331 48.2202C66.9494 47.3558 66.853 46.4898 66.8214 45.6238C66.8135 45.3978 66.9778 45.1291 67.1358 44.9411C67.4061 44.6203 67.7237 44.3374 68.0382 44.0577C69.0227 43.1885 69.1081 42.1107 68.7351 40.9524C68.5581 40.404 68.2752 39.8904 68.0619 39.3515C67.425 37.7364 66.7913 36.1182 66.1734 34.4968C65.949 33.9057 65.9996 33.3052 66.2319 32.7205C66.6017 31.7897 66.9399 30.8462 67.3492 29.9344C68.0919 28.2735 68.31 26.4925 68.6182 24.7304C68.6703 24.4365 68.7493 24.1473 68.9105 23.847C69.7829 25.0212 69.8508 26.5952 70.976 27.6287C71.2447 27.3854 71.1072 27.1483 71.0582 26.9413C70.8227 25.9409 70.562 24.9485 70.3312 23.9466C69.805 21.6535 69.5664 19.3273 69.5142 16.9758C69.4984 16.2599 69.7434 15.7542 70.3581 15.4145C71.4533 14.8092 72.3509 13.9653 73.2358 13.093C73.6199 12.7137 74.1082 12.4245 74.5854 12.159C75.0248 11.9156 75.5099 11.9646 75.9493 12.2175C76.3364 12.4403 76.7125 12.6837 77.0871 12.9286C78.108 13.5955 79.2047 13.9811 80.4452 13.8579C80.9699 13.8057 81.4946 13.7583 82.0192 13.7188C83.127 13.6366 83.353 13.8041 83.6169 14.8724C84.4624 18.2985 85.2273 21.7468 86.1897 25.1381C86.6448 26.7437 86.7286 28.2514 86.343 29.8601C85.7883 32.1816 86.0838 34.5189 86.3746 36.8514C86.4852 37.738 86.5073 38.6356 86.5468 39.5285C86.5563 39.7466 86.4789 39.9694 86.4299 40.2523C85.6318 39.9093 85.428 39.0781 84.7105 38.6467C84.6789 38.8837 84.611 39.056 84.6457 39.2045C84.8527 40.0737 85.0013 40.9697 85.3237 41.7978C85.9432 43.3924 85.861 44.9395 85.2573 46.4945C85.0282 47.084 84.7911 47.6703 84.5193 48.2408C84.1953 48.9171 84.1432 49.5983 84.3407 50.3141C84.5509 51.0759 84.7358 51.8439 84.9507 52.604C85.1293 53.2346 85.123 53.8509 84.8812 54.4625C84.8227 54.6094 84.7911 54.7675 84.7247 54.9097C84.0547 56.3731 84.4703 57.6247 85.4722 58.7625C85.507 58.802 85.5354 58.8478 85.5765 58.881C86.7207 59.7976 87.0794 61.065 87.1584 62.4494C87.2264 63.633 87.2738 64.8167 87.3275 66.0003C87.3496 66.4697 87.2122 66.8837 86.8914 67.233C86.6069 67.5427 86.3145 67.8477 86.0332 68.1606C85.3521 68.916 84.8259 69.7599 84.6441 70.7761C84.5778 71.149 84.5003 71.5583 84.9855 71.8886C85.1593 71.6278 85.3458 71.4098 85.4612 71.1601C85.8215 70.3857 86.4362 69.8453 87.1189 69.398C87.7763 68.9666 88.4796 68.5921 89.1986 68.2697C90.1579 67.8383 90.7947 68.0816 91.3194 68.9887C91.4379 69.1942 91.5106 69.4423 91.6734 69.5987C91.8219 69.7425 92.089 69.8958 92.2565 69.8547C92.4351 69.8105 92.5931 69.5624 92.6974 69.368C92.7638 69.2447 92.7369 69.0567 92.7132 68.9034C92.68 68.6964 92.6469 68.4751 92.5489 68.2965C91.8219 66.9628 91.931 65.4931 91.8283 64.0566C91.7777 63.3596 91.9168 62.6959 92.1902 62.0543C92.3972 61.5691 92.5631 61.0682 92.7812 60.5894C93.1858 59.7044 93.0451 58.8874 92.4857 58.1351C91.7951 57.2075 91.0871 56.2893 90.357 55.3933C90.161 55.1515 90.0204 54.9334 90.0583 54.6205C90.0646 54.5683 90.0678 54.513 90.0567 54.4625C89.649 52.7289 89.8292 51.0079 90.1642 49.2917C90.3554 48.3166 90.1152 47.449 89.668 46.5641C88.5791 44.4164 88.5286 42.2166 89.6158 40.0389C90.7031 37.8613 90.7189 37.866 90.5371 35.4544C90.436 34.1159 90.2748 32.779 90.2148 31.4389C90.1784 30.6297 90.2558 29.8127 90.3301 29.0036C90.417 28.0601 90.5846 27.1246 90.6667 26.1811C90.9069 23.4567 90.1421 20.9108 89.2018 18.4092C88.7672 17.2524 88.2315 16.1335 87.7684 14.9862C87.5914 14.55 87.4555 14.0886 87.3623 13.6271C87.2849 13.2463 87.4618 13.0961 87.8553 13.1277C87.9849 13.1388 88.1177 13.1673 88.241 13.2115C91.1203 14.2292 93.5208 15.9044 95.3318 18.3902C95.7964 19.0271 95.9165 19.724 95.8154 20.4873C95.6574 21.6883 95.542 22.8957 95.3476 24.0888C95.1864 25.0749 94.9383 26.0452 94.7265 27.0219C94.5922 27.6398 94.4374 28.2529 94.322 28.874C94.2777 29.1126 94.3141 29.3686 94.3141 29.6152C94.3678 29.6405 94.4231 29.6657 94.4769 29.6895C94.6286 29.5377 94.8103 29.405 94.9288 29.2296C96.5155 26.8654 98.08 24.495 98.8638 21.7041C99.0898 20.8982 99.4375 20.1159 99.8136 19.3668C100.787 17.4278 102.456 16.5918 104.562 16.5191C105.188 16.497 105.702 16.753 106.046 17.2713C106.337 17.7075 106.595 18.1705 106.833 18.6367C108.061 21.0262 108.235 23.4788 107.453 26.0658C106.882 27.9527 106.524 29.9012 106.056 31.8197C105.782 32.9449 106.076 33.8883 106.874 34.7148C107.423 35.2822 107.93 35.889 108.458 36.4769C108.93 37.0031 109.235 37.5894 109.246 38.3195C109.269 39.9504 109.357 41.5829 109.326 43.2122C109.311 43.9376 109.128 44.6756 108.923 45.3788C108.63 46.3823 108.845 47.1835 109.631 47.8631C110.029 48.2076 110.397 48.5853 110.762 48.9646C111.528 49.7579 111.909 50.7045 111.92 51.8154C111.935 53.3531 111.701 54.8607 111.412 56.362C110.936 58.8447 110.49 61.3368 109.572 63.7073C109.431 64.0708 109.256 64.4422 109.016 64.744C108.192 65.7712 107.371 66.8032 106.475 67.7656C105.944 68.3376 105.297 68.8133 104.66 69.2732C104.114 69.6683 103.453 69.7931 102.781 69.7789C102.22 69.7662 102.066 69.564 102.219 69.0219C102.454 68.1859 102.74 67.3642 102.979 66.5298C103.314 65.3508 103.407 64.1514 103.227 62.9314C102.985 61.2958 103.453 59.796 104.166 58.3595C104.75 57.1806 105.417 56.0412 105.991 54.8575C106.31 54.2001 106.525 53.4906 106.756 52.7937C106.816 52.6119 106.765 52.3923 106.765 52.1789C106.306 52.0193 106.097 52.329 105.901 52.5898C105.664 52.9043 105.477 53.2551 105.256 53.5838C104.869 54.159 104.575 54.2207 104.033 53.7861C103.379 53.2614 102.946 52.5566 102.701 51.7696C102.499 51.1201 102.374 50.439 102.288 49.761C102.176 48.8776 102.361 48.0306 102.8 47.2467C102.865 47.1314 102.932 47.0176 102.99 46.9007C103.428 46.041 103.421 45.913 102.713 45.2777C102.192 44.8099 101.904 44.2331 101.84 43.5583C101.667 41.7615 101.705 39.9773 102.301 38.2469C102.424 37.8865 102.619 37.5515 102.8 37.1628C103.714 37.5452 104.011 38.4491 104.776 38.9264C104.845 38.7589 104.937 38.6325 104.948 38.4997C105.059 37.1991 104.607 36.1766 103.436 35.5256C102.93 35.2443 102.423 34.963 101.904 34.7038C101.056 34.2803 100.607 33.5944 100.463 32.6668C100.183 30.862 100.476 29.1474 101.272 27.5197C101.735 26.5746 102.261 25.6612 102.748 24.7273C102.894 24.4491 103.037 24.1599 103.115 23.8597C103.205 23.5104 102.946 23.2734 102.614 23.4093C102.358 23.5136 102.1 23.6969 101.931 23.9134C101.623 24.3037 101.332 24.7225 101.121 25.1713C100.558 26.3613 100.051 27.5766 99.5038 28.7729C98.9254 30.0403 98.3739 31.3235 97.7197 32.5514C97.3657 33.2151 96.8505 33.8046 96.3527 34.3782C95.8091 35.0056 95.7427 34.9803 95.03 34.5679C94.7819 34.4241 94.518 34.2739 94.243 34.2186C94.0375 34.1775 93.7167 34.2155 93.6061 34.3498C93.5081 34.4683 93.5666 34.8049 93.6693 34.9803C93.8811 35.3407 94.1529 35.6694 94.4247 35.9902C95.7016 37.4946 96.2737 39.2551 96.4475 41.1973C96.6988 43.996 96.3843 46.7742 96.2326 49.5587C96.2215 49.7563 96.1536 49.9523 96.1046 50.1798C95.2322 50.1087 94.7345 49.3359 93.9411 49.1984C93.6867 49.6283 93.9206 49.957 94.1245 50.2304C94.5496 50.7977 95.0157 51.3366 95.4946 51.8613C95.8675 52.269 96.2721 52.6498 96.6877 53.0133C97.8414 54.0184 98.6584 55.2668 99.33 56.6228C99.9084 57.7906 99.9511 59.0659 100.021 60.3254C100.248 64.4738 99.281 68.3787 97.4905 72.0909C96.9058 73.303 96.171 74.4424 95.1675 75.3574C94.7724 75.7177 94.2509 75.9468 93.7705 76.2044C93.5192 76.3403 93.2221 76.3893 92.9629 76.5142C91.6639 77.1447 90.5561 76.9519 89.5226 75.9026C88.8051 75.1725 88.8399 75.2104 88.1145 75.8963C87.4492 76.5252 86.7033 77.072 85.9763 77.633C85.5639 77.9507 85.0756 78.0376 84.5556 78.0044C83.549 77.9396 82.5534 77.799 81.6494 77.3391C81.188 77.1052 80.7882 76.7481 80.3694 76.4336C80.0596 76.2013 79.7673 75.9484 79.5176 75.7477C79.3817 75.3321 79.2727 74.937 79.1241 74.5578C78.8539 73.8735 78.4145 73.2192 78.3102 72.5128C78.1285 71.3007 77.9831 70.0633 78.3213 68.8291C78.7116 67.3958 79.3058 66.0541 79.9964 64.7472C80.7107 63.396 81.4361 62.0496 81.7901 60.5451C81.8596 60.2496 81.8928 59.9477 81.9434 59.6475C81.8912 59.6222 81.8375 59.5953 81.7854 59.57C81.6068 59.7439 81.425 59.913 81.2528 60.0916C80.815 60.5483 80.3994 61.0255 79.9443 61.4633C79.4971 61.8947 79.2711 61.8378 79.0182 61.2594C78.7338 60.6099 78.6626 59.913 78.8539 59.2461C79.0988 58.3911 79.3991 57.5425 79.7689 56.7334C80.2382 55.7046 80.8229 54.728 81.3128 53.7087C81.6004 53.1097 81.9418 52.5029 81.8328 51.6811C81.621 51.817 81.4551 51.8834 81.346 52.0019C81.1153 52.2532 80.902 52.5234 80.7028 52.8016C79.8352 54.0073 78.6231 54.5699 77.1787 54.5968C76.3412 54.6126 75.4989 54.5083 74.6629 54.4119C74.3895 54.3803 74.1082 54.2381 73.8711 54.0832C72.836 53.4084 71.8151 52.7083 70.7879 52.0193C70.562 51.8676 70.3297 51.7269 70.1005 51.58C70.0499 51.6321 69.9994 51.6843 69.9472 51.738C70.1131 51.9814 70.2664 52.2342 70.4466 52.4665C71.0313 53.2109 71.6729 53.9157 72.2071 54.6932C73.4302 56.4726 73.4887 58.4923 73.2801 60.5451C73.2659 60.681 73.1521 60.809 73.032 61.0382C72.3825 60.5151 71.7851 60.0331 71.1862 59.5511C71.1372 59.5843 71.0866 59.6175 71.0376 59.6506C71.2352 60.5024 71.5007 61.3432 72.0127 62.0669C73.7005 64.4516 74.4811 67.1161 74.4606 70.0112C74.4495 71.4825 74.3199 72.9553 74.2346 74.425C74.1998 75.0287 73.9407 75.536 73.5203 75.9674C72.7191 76.7892 71.7029 77.2443 70.6236 77.4956C69.7402 77.701 68.8347 77.5872 68.0572 77.0199C67.6115 76.6943 67.09 76.4273 66.7502 76.0132C65.7167 74.7506 64.3339 74.3191 62.8042 74.1753C60.1145 73.924 60.1097 73.9335 58.2229 71.9961C57.7266 71.4872 57.2573 70.9515 56.7943 70.4142C55.6138 69.0456 55.1507 67.4195 55.2392 65.6527C55.285 64.7393 55.4589 63.8211 55.6738 62.9298C55.9883 61.6213 55.9978 60.3918 55.2487 59.205C54.871 58.6061 54.5818 57.9486 54.2816 57.3055C53.6415 55.9369 53.5641 54.5194 53.9402 53.0639C54.0208 52.7526 54.0461 52.4254 54.1235 51.9324C53.7758 52.0967 53.5672 52.1441 53.4329 52.2706C53.2243 52.4649 52.992 52.6878 52.9019 52.9454C52.5717 53.8809 51.8858 54.0453 51.0182 53.9378C50.1316 53.8288 49.234 53.7877 48.3554 53.6407C47.905 53.5648 47.483 53.3215 46.9805 53.1271C46.9347 53.6186 47.2002 53.8951 47.4293 54.1527C47.8133 54.5842 48.2432 54.9761 48.6572 55.3806C49.1281 55.8405 49.6165 56.283 50.0763 56.7539C51.5271 58.2394 52.1371 60.0204 51.9285 62.0891C51.7088 64.2715 51.1336 66.3306 49.8756 68.1591C49.7713 68.3108 49.6512 68.4609 49.588 68.63C48.9938 70.1961 47.5684 70.7634 46.2219 71.3924C44.9988 71.9645 43.861 71.7337 42.8622 70.8219C42.5904 70.5738 42.3107 70.3367 42.0341 70.0934L42.0515 70.1281ZM72.2071 31.8213C72.2687 32.1453 72.2845 32.3238 72.3382 32.4898C72.6306 33.3921 72.8977 34.3024 73.2358 35.1874C74.1825 37.6621 74.7561 40.2238 75.1054 42.8424C75.227 43.7511 75.1212 44.6424 74.8462 45.4942C74.5665 46.3602 74.1746 47.1899 73.8095 48.0859C72.6622 48.0227 71.6571 47.664 70.8085 46.8722C70.5778 46.6573 70.4087 46.3159 69.865 46.3191C70.0531 46.6952 70.1606 47.0097 70.3486 47.2673C71.2589 48.511 72.4805 49.3501 73.8822 49.9649C75.4973 50.6729 77.0523 50.5844 78.5805 49.7231C79.6914 49.0957 80.6854 48.3277 81.5309 47.3716C81.6969 47.1835 81.8312 46.9686 82.0271 46.7047C81.4693 46.534 81.0505 46.7426 80.6238 46.8027C80.0849 46.8785 79.9522 46.8106 79.8463 46.2907C79.6282 45.2271 79.4828 44.1335 79.7104 43.0731C80.1023 41.2495 80.6049 39.4511 81.0695 37.6432C81.2923 36.7787 81.5451 35.9206 81.768 35.0562C81.8091 34.8966 81.7743 34.7164 81.7743 34.3514C81.2718 34.8255 80.9162 35.2 80.5211 35.524C80.1355 35.84 79.9111 36.3916 79.2806 36.4437C79.23 36.2967 79.1731 36.1782 79.1478 36.055C78.5821 33.2862 78.5631 30.5112 79.1099 27.7393C79.5018 25.7497 79.949 23.7727 80.3441 21.7847C80.5179 20.9076 80.6349 20.0195 80.7487 19.1314C80.7819 18.8675 80.853 18.553 80.4689 18.2827C80.2825 18.5435 80.0865 18.7726 79.9411 19.0318C79.6314 19.5818 79.3928 20.176 79.0467 20.7006C78.0906 22.1513 76.1879 22.2398 75.0975 20.8997C74.7988 20.5331 74.557 20.1206 74.2725 19.7429C74.1098 19.528 73.9106 19.3415 73.7289 19.1408C73.6752 19.1725 73.6199 19.2041 73.5661 19.2357C73.5582 19.9389 73.7368 20.6184 73.9486 21.2838C74.3152 22.4374 74.704 23.5863 75.1133 24.7257C76.1262 27.5481 75.8607 30.3753 75.1607 33.2025C75.0817 33.5233 74.99 33.8757 74.538 34.0385C73.691 33.4854 73.1505 32.5451 72.2071 31.8213Z" fill="#FF2061"/>
<path d="M52.7419 108.175C53.7153 108.175 54.6904 108.201 55.6639 108.171C58.3204 108.09 60.9089 108.491 63.4738 109.149C65.3354 109.626 67.1986 110.124 69.087 110.462C70.9739 110.8 72.8925 110.966 74.7999 111.183C75.5316 111.265 76.2696 111.303 77.006 111.315C77.714 111.328 78.4314 111.341 79.1315 111.249C81.1148 110.991 83.0997 110.721 85.0688 110.372C86.0201 110.203 86.962 109.909 87.8675 109.564C89.1697 109.07 90.4482 108.504 91.714 107.919C92.7333 107.448 93.789 107.301 94.8731 107.483C96.0378 107.679 97.1803 107.624 98.326 107.398C99.2158 107.222 100.109 107.21 100.992 107.415C101.45 107.521 101.915 107.649 102.335 107.851C103.72 108.517 105.161 108.842 106.699 108.702C106.909 108.683 107.12 108.695 107.329 108.675C108.549 108.548 109.658 108.809 110.724 109.449C112.174 110.321 113.763 110.604 115.439 110.26C116.399 110.062 117.342 110.167 118.227 110.543C119.071 110.901 119.905 111.306 120.687 111.785C122.156 112.681 123.009 114.043 123.421 115.694C123.485 115.949 123.559 116.211 123.562 116.47C123.583 117.766 124.003 118.789 125.217 119.462C125.945 119.866 126.28 120.638 126.258 121.48C126.223 122.744 126.558 123.926 126.931 125.11C127.478 126.845 127.243 128.5 126.291 130.033C126.005 130.493 125.617 130.916 125.193 131.257C123.447 132.665 121.465 133.618 119.298 134.194C118.657 134.364 118.052 134.323 117.467 133.993C117.17 133.824 116.857 133.682 116.555 133.52C115.841 133.143 115.085 132.955 114.273 133.002C113.984 133.019 113.695 133.012 113.404 133.019C112.745 133.038 112.228 132.76 111.841 132.247C111.604 131.932 111.387 131.6 111.182 131.264C110.082 129.464 108.456 128.312 106.476 127.766C104.448 127.209 102.527 126.434 100.75 125.345C99.29 124.449 97.7429 123.846 96.0978 123.436C93.7178 122.844 91.4106 122.063 89.1665 121.045C87.9576 120.499 86.6017 120.277 85.3106 119.915C84.9566 119.816 84.5868 119.765 84.236 119.655C80.9584 118.62 77.6539 118.688 74.329 119.375C73.9687 119.449 73.6036 119.568 73.2417 119.561C72.2603 119.546 71.4117 119.923 70.5267 120.281C69.2103 120.81 67.8528 121.245 66.4906 121.644C65.9201 121.812 65.2927 121.78 64.6906 121.842C64.1707 121.896 63.6413 121.91 63.1308 122.014C61.974 122.251 60.8394 122.616 59.6747 122.782C56.6737 123.207 53.9223 124.446 51.0651 125.333C49.4327 125.84 47.8018 126.363 46.1456 126.785C44.2714 127.262 42.4635 127.828 40.8358 128.936C39.5478 129.813 38.1208 130.44 36.58 130.774C36.1185 130.873 35.665 131.02 35.2146 131.167C33.1934 131.825 31.395 130.875 30.7881 128.813C30.5637 128.048 30.4547 127.262 30.5906 126.469C30.815 125.153 30.5195 124.02 29.5207 123.092C29.3311 122.917 29.1778 122.691 29.0419 122.466C28.7179 121.927 28.6958 121.368 29.0166 120.818C29.162 120.57 29.3295 120.33 29.516 120.108C30.265 119.215 30.9209 118.269 31.3286 117.164C31.7379 116.056 32.6134 115.318 33.4367 114.542C35.1071 112.97 36.8613 111.507 38.854 110.344C39.8876 109.74 40.9653 109.286 42.1348 109.027C45.6368 108.253 49.1751 108.06 52.7419 108.175ZM77.6555 114.037C77.9289 114.819 77.9289 114.824 78.7191 114.825C79.2975 114.827 79.8806 114.765 80.4543 114.813C82.2448 114.961 83.9894 115.334 85.7072 115.873C87.6083 116.47 89.244 117.461 90.6789 118.838C91.1625 119.302 91.7456 119.743 92.3651 119.972C95.0548 120.97 97.5485 122.422 100.294 123.288C101.849 123.779 103.342 124.46 104.895 124.954C107.391 125.744 109.662 126.916 111.662 128.604C112.119 128.99 112.642 129.208 113.233 129.287C114.836 129.497 116.321 129.148 117.715 128.362C119.284 127.477 120.669 126.339 121.999 125.14C122.401 124.778 122.729 124.306 122.988 123.828C123.388 123.095 123.39 122.319 122.998 121.554C122.794 121.156 122.603 120.748 122.456 120.328C122.239 119.713 121.827 119.334 121.249 119.049C120.662 118.76 120.104 118.405 119.561 118.036C118.772 117.504 118.357 116.733 118.246 115.792C118.203 115.426 118.154 115.061 118.105 114.696C118.004 113.95 117.614 113.394 117.04 112.915C116.193 112.208 115.207 112.033 114.158 112.046C112.5 112.064 110.975 111.625 109.616 110.682C108.642 110.004 107.584 109.711 106.411 109.792C104.778 109.906 103.223 109.626 101.702 109.013C100.572 108.558 99.437 108.547 98.2534 109.056C96.7015 109.722 95.0643 110.135 93.3449 110.129C93.043 110.127 92.6985 110.198 92.4457 110.355C90.9681 111.265 89.3467 111.807 87.681 112.211C86.1734 112.578 84.6405 112.844 83.1203 113.163C81.826 113.435 80.5301 113.626 79.2011 113.473C78.8897 113.436 78.5689 113.457 78.256 113.48C75.6975 113.68 73.1485 113.634 70.6342 113.073C68.4771 112.592 66.3215 112.115 64.1786 111.564C62.0215 111.007 59.7743 110.783 57.5602 110.465C56.6515 110.334 55.7239 110.32 54.8026 110.288C53.9081 110.258 53.0058 110.212 52.1176 110.293C51.2153 110.375 50.3192 110.317 49.4248 110.342C47.6643 110.391 45.9022 110.558 44.1513 110.756C42.4777 110.944 40.9211 111.524 39.5494 112.515C38.1334 113.539 36.9608 114.828 35.8198 116.139C35.4595 116.551 35.153 117.027 34.9017 117.515C34.4671 118.359 34.023 119.241 34.2 120.222C34.5034 121.91 35.3363 123.261 36.9134 124.076C37.9169 124.595 38.9757 124.887 40.1041 124.848C42.0242 124.781 43.9474 124.743 45.8612 124.584C48.5193 124.362 51.0256 123.634 53.2918 122.152C54.2495 121.524 55.343 121.216 56.503 121.159C57.0798 121.131 57.6535 121.041 58.2287 120.97C60.0176 120.748 61.718 120.168 63.4264 119.641C64.2481 119.386 65.1141 119.098 65.7984 118.602C67.4261 117.42 69.2024 116.586 71.1257 116.093C72.755 115.674 74.419 115.391 76.0752 115.084C76.671 114.974 77.2146 114.871 77.4058 114.19C77.4216 114.136 77.5307 114.109 77.6555 114.037ZM116.34 131.166C116.579 131.254 116.738 131.36 116.899 131.363C117.476 131.378 118.063 131.425 118.628 131.34C121.621 130.889 123.698 129.167 125.076 126.546C125.3 126.118 125.391 125.605 125.465 125.119C125.511 124.827 125.481 124.475 124.946 124.283C123.929 125.778 122.451 126.877 121.015 127.994C119.559 129.13 117.958 130.08 116.34 131.166ZM32.4522 120.769C32.3179 121.039 32.1693 121.232 32.1251 121.445C31.7553 123.233 31.9765 124.98 32.8172 126.572C33.6343 128.119 35.4026 128.572 36.7996 127.736C37.0841 127.566 37.3401 127.318 37.5455 127.054C37.7557 126.785 37.6862 126.488 37.367 126.33C37.0873 126.191 36.787 126.076 36.4851 126C35.3916 125.725 34.6093 125.08 34.1447 124.059C33.8176 123.343 33.5221 122.615 33.2044 121.896C33.0401 121.524 32.9927 121.077 32.4522 120.769Z" fill="#FF2061"/>
<path d="M122.373 64.9419C122.373 64.9514 122.396 64.8645 122.369 64.7981C121.834 63.469 121.829 62.0736 121.845 60.6735C121.856 59.7363 121.767 59.5625 120.865 59.3255C119.83 59.0521 119.146 58.4278 118.542 57.5666C116.601 54.7979 115.982 51.7241 116.276 48.4165C116.399 47.0259 116.543 45.6383 116.339 44.2413C116.244 43.5903 116.122 42.9534 115.656 42.2596C115.536 42.533 115.429 42.6942 115.394 42.8681C115.217 43.7451 115.064 44.6269 114.891 45.5056C114.842 45.7553 114.765 46.0002 114.659 46.4111C114.392 46.1772 114.199 46.0619 114.078 45.8944C113.42 44.9873 113.137 43.949 113.164 42.8459C113.186 41.9262 113.3 41.0096 113.374 40.0914C113.436 39.3313 113.491 38.5696 113.559 37.8095C113.603 37.3148 113.401 36.9735 113.017 36.6622C112.344 36.1169 111.705 35.5243 111.069 34.9365C110.574 34.4797 110.444 33.9124 110.677 33.2787C110.839 32.8346 111.001 32.3858 111.203 31.9591C111.908 30.4689 111.802 28.996 111.146 27.5311C110.877 26.9306 110.58 26.3427 110.299 25.7469C109.442 23.9422 109.635 22.1059 110.157 20.2695C110.299 19.767 110.591 19.6643 110.969 20.0436C112.102 21.1751 113.444 21.2604 114.925 21.0581C116.932 20.7847 117.858 21.5054 118.234 23.5218C118.363 24.2203 118.417 24.9315 118.547 25.63C118.724 26.5734 118.948 26.7394 119.895 26.6035C120.546 26.5102 121.186 26.3459 121.832 26.2226C123.262 25.9492 124.041 26.3316 124.587 27.6796C124.86 28.3576 125.018 29.0861 125.187 29.8004C125.382 30.619 125.535 31.4487 125.701 32.2752C125.96 33.5616 126.764 34.4213 127.871 35.036C128.629 35.458 129.407 35.8483 130.162 36.275C131.35 36.9435 132.074 37.8948 132.291 39.3076C132.542 40.9432 132.945 42.5599 133.357 44.1639C133.566 44.973 133.944 45.7395 134.239 46.5265C134.29 46.6624 134.318 46.8078 134.246 47.0496C134.095 46.9421 133.914 46.8615 133.801 46.7224C132.491 45.0963 130.77 44.0817 128.877 43.2679C127.942 42.8665 127.063 42.307 126.218 41.7318C125.797 41.4458 125.419 41.0128 125.182 40.5608C124.583 39.423 124.034 38.2535 123.548 37.062C123.357 36.591 123.344 36.0316 123.327 35.5101C123.28 34.1684 123.275 32.8252 123.248 31.4819C123.243 31.2322 123.216 30.9825 123.193 30.6317C122.017 31.4123 122.169 32.6892 121.693 33.8065C121.198 33.3166 120.776 32.9042 120.362 32.4854C119.937 32.054 119.528 31.6083 119.098 31.1816C118.687 30.7723 118.466 30.1465 117.693 29.9632C117.693 30.2461 117.663 30.4689 117.698 30.6822C117.873 31.7742 118.074 32.8615 118.248 33.9535C118.295 34.249 118.499 34.6236 118.167 34.8258C117.834 35.0297 117.491 34.7816 117.243 34.5619C116.892 34.2506 116.549 33.9077 116.29 33.5189C115.854 32.8631 115.49 32.1598 115.09 31.4787C114.966 31.2654 114.823 31.0615 114.643 30.7818C114.349 31.2116 114.487 31.5388 114.558 31.8564C114.918 33.4589 115.745 34.8353 116.707 36.1296C117.192 36.7807 117.75 37.3891 118.34 37.947C119.669 39.2033 120.519 40.7647 120.917 42.4872C121.183 43.6377 121.002 44.8909 121.01 46.0998C121.012 46.3621 120.947 46.6229 120.946 46.8852C120.942 47.0938 120.909 47.3751 121.025 47.4984C121.775 48.3012 121.812 49.5338 122.752 50.2371C123.335 50.6748 123.831 51.2406 124.323 51.7873C125.258 52.8288 125.882 54.0361 126.077 55.4363C126.214 56.4272 126.35 57.4196 126.423 58.4152C126.489 59.3097 126.361 60.1899 126.146 61.0717C125.924 61.9867 125.821 62.9365 125.723 63.8768C125.649 64.5879 125.772 64.9214 126.151 65.435C126.334 65.1584 126.549 64.9324 126.651 64.6638C126.891 64.0237 127.125 63.3742 127.273 62.7089C127.553 61.451 128.029 60.28 128.871 59.3128C129.882 58.1513 130.05 56.8365 129.841 55.3952C129.642 54.0172 129.65 54.0203 131.036 54.3396C131.703 54.4944 132.373 54.6367 133.043 54.771C133.157 54.7947 133.283 54.7552 133.471 54.7378C133.231 54.1009 132.804 53.7074 132.294 53.453C131.543 53.0785 130.774 52.696 129.969 52.4827C128.518 52.0987 127.321 51.3449 126.273 50.3082C126.067 50.1043 125.871 49.8878 125.652 49.6998C125.048 49.1798 124.715 48.5272 124.538 47.7512C124.305 46.7288 123.844 45.7553 123.917 44.6712C123.934 44.4247 123.966 44.1781 124.002 43.8273C124.277 43.9711 124.47 44.0169 124.574 44.137C125.622 45.346 127.084 45.8454 128.498 46.4016C129.765 46.8994 130.883 47.6185 131.926 48.4766C132.559 48.9981 132.969 49.6682 133.195 50.4378C133.455 51.3291 134.001 51.9881 134.784 52.4179C136.24 53.216 136.663 54.4628 136.467 56.0115C136.395 56.5852 136.278 57.1557 136.229 57.7309C136.189 58.1987 136.175 58.6775 136.23 59.1421C136.311 59.8169 136.093 60.3242 135.557 60.7209C135.325 60.8931 135.113 61.0938 134.881 61.2661C133.495 62.3028 132.3 63.4943 131.521 65.0794C131.06 66.0181 130.341 66.7276 129.353 67.178C128.547 67.5463 127.973 68.2337 127.461 68.9369C126.771 69.8835 125.949 70.6753 125.039 71.4085C124.451 71.8826 123.97 72.4911 123.444 73.041C123.272 73.2212 123.104 73.4076 122.823 73.7126C122.791 73.3729 122.741 73.2006 122.765 73.0378C122.986 71.4496 123.177 69.8551 123.463 68.2764C123.631 67.3566 123.329 66.6186 122.837 65.9122C122.584 65.5487 122.137 65.5029 121.709 65.7589C121.578 65.8379 121.467 65.9596 121.364 66.0766C121.184 66.282 120.982 66.5349 120.734 66.2362C120.525 65.9865 120.691 65.7004 120.936 65.5709C121.364 65.3449 121.821 65.1789 122.373 64.9419Z" fill="#FF2061"/>
<path d="M42.0408 70.1184C41.8875 70.5325 41.769 70.9639 41.5762 71.359C41.159 72.2171 41.5287 74.213 42.262 74.8056C42.3963 74.9147 42.5876 74.9716 42.763 75.0063C42.9684 75.0458 43.1833 75.0522 43.3919 75.0427C45.173 74.9605 46.295 75.9071 46.8829 77.4606C47.4296 78.9097 47.9116 80.3999 48.2277 81.9139C48.7144 84.2385 49.9992 85.9895 51.7818 87.4402C52.1437 87.7342 52.5752 87.957 53.0034 88.1514C53.2278 88.2525 53.5233 88.2731 53.7699 88.2288C53.9469 88.1972 54.1871 88.0281 54.2297 87.8733C54.2708 87.7294 54.0938 87.5193 53.9974 87.347C53.9611 87.2838 53.8805 87.2411 53.8141 87.2C51.7123 85.9231 50.6772 83.8355 49.7401 81.7116C49.1222 80.3114 48.7381 78.8212 48.8187 77.2599C48.8424 76.7889 48.882 76.3069 49.0036 75.855C49.6121 73.5888 51.6112 72.6343 53.7873 73.0546C54.0701 73.11 54.3641 73.3217 54.5663 73.5414C55.6868 74.7614 56.861 75.9387 57.5911 77.4685C57.8502 78.0121 58.0367 78.0358 58.6167 77.8051C58.9106 77.6881 59.1982 77.5554 59.4859 77.4242C60.6174 76.9074 61.6651 77.0481 62.6955 77.7371C63.9819 78.5936 64.7467 79.8389 65.3615 81.1917C65.687 81.9076 65.9304 82.6645 66.1832 83.412C66.7237 85.0066 67.2026 86.6248 67.7888 88.202C68.6233 90.4428 68.7686 92.6569 67.8284 94.8993C67.6561 95.3102 67.5218 95.7448 67.4317 96.1794C67.2942 96.8431 67.6087 97.1529 68.2029 96.8826C69.7058 96.1999 71.0648 95.3055 71.9656 93.8626C72.3307 93.2795 72.4144 92.6268 72.3022 91.9584C72.2201 91.4653 72.092 90.9801 71.9846 90.4918C71.8281 89.7838 71.8882 89.6922 72.6151 89.5326C72.9991 89.4488 73.3847 89.3698 73.7688 89.2813C73.8114 89.2718 73.843 89.2118 73.9047 89.1517C73.9031 88.7898 73.6044 88.6271 73.3452 88.4817C72.6562 88.0977 71.9719 87.6931 71.2434 87.3976C69.6252 86.7433 68.8113 85.4585 68.3262 83.8845C68.2566 83.6585 68.2329 83.4089 68.1239 83.2066C68.037 83.047 67.86 82.8558 67.7019 82.8352C67.3764 82.7941 67.1283 82.7198 67.0824 82.3627C67.0414 82.0292 67.2831 81.9123 67.5423 81.8112C67.6119 81.7843 67.6656 81.7179 67.7778 81.631C67.7462 81.217 67.7019 80.7761 67.6814 80.3336C67.6466 79.6303 67.7683 79.4818 68.4526 79.4249C70.5576 79.2479 72.544 79.5956 74.3345 80.7887C74.6838 81.0226 75.0551 81.2233 75.4139 81.443C76.3099 81.9929 76.8583 82.8036 77.1759 83.7913C77.8871 86.0101 78.1067 88.2668 77.7527 90.5772C77.5362 91.9868 77.266 93.3806 76.7698 94.7208C75.978 96.8573 74.856 98.7695 72.9786 100.143C71.7633 101.031 70.458 101.466 68.8998 101.135C67.811 100.905 66.8359 100.536 65.9873 99.8283C64.8021 98.8406 64.2237 97.5653 64.1699 96.034C64.1178 94.569 64.4433 93.1562 64.7452 91.7387C64.7894 91.5333 64.8242 91.3262 64.8431 91.1176C64.8495 91.0497 64.7926 90.9754 64.723 90.8C64.4623 90.9343 64.1636 91.0054 63.9977 91.1935C63.7085 91.5222 63.454 91.9015 63.2707 92.2997C63.0621 92.7501 62.9562 93.2479 62.784 93.7173C62.6086 94.1945 62.4411 94.2656 62.0175 94.0175C61.033 93.4407 60.2571 92.6663 59.9157 91.5491C59.1761 89.117 59.1145 86.7307 60.4356 84.4408C60.6964 83.9873 60.9097 83.4958 61.0709 82.998C61.2416 82.4717 61.2938 81.9202 60.965 81.4303C60.5652 81.3387 60.4815 81.6294 60.3598 81.8491C60.118 82.2868 59.922 82.753 59.6534 83.1718C59.1066 84.0236 58.4966 84.0362 57.9514 83.1781C57.629 82.6724 57.3983 82.1035 57.1707 81.5457C56.823 80.6923 56.5259 79.82 56.1846 78.9634C56.0898 78.7248 55.9428 78.4878 55.7626 78.3076C55.4813 78.0247 55.1163 78.1211 55.0515 78.5115C54.9978 78.8354 55.0262 79.1989 55.1163 79.515C55.2238 79.8895 55.4324 80.2356 55.6078 80.5896C56.8151 83.0185 57.3272 85.6071 57.3841 88.2999C57.4014 89.1264 57.2371 89.9261 56.891 90.6799C56.6445 91.2172 56.2557 91.5886 55.6236 91.5965C52.8549 91.6312 50.3674 90.9154 48.3668 88.8831C47.6288 88.134 47.1483 87.238 46.7865 86.2677C46.5194 85.5518 46.2333 84.8422 46.0058 84.1137C45.7513 83.2998 45.2583 82.9032 44.386 82.9205C43.836 82.9332 43.2829 82.851 42.7345 82.7815C41.1005 82.576 40.0575 81.5883 39.8015 79.9511C39.7035 79.3301 39.7114 78.6932 39.6877 78.0627C39.6735 77.6676 39.6735 77.2725 39.6956 76.8774C39.743 76.0272 39.3732 75.4678 38.5704 75.1865C38.3476 75.1075 38.1327 75.0032 37.9082 74.9273C36.565 74.4722 35.5899 73.5761 34.9341 72.3514C33.82 70.2701 32.9713 68.0877 32.7912 65.7078C32.7406 65.0377 32.8354 64.3424 32.965 63.6771C33.0567 63.203 33.4281 63.1318 33.6841 63.5364C34.7682 65.2574 36.4291 66.3525 37.9715 67.5788C39.0524 68.4385 40.0101 69.4057 40.7181 70.602C40.7813 70.7094 40.8856 70.7948 41.0167 70.9418C41.3802 70.6589 41.72 70.3934 42.0613 70.1279C42.0518 70.1279 42.0408 70.1184 42.0408 70.1184Z" fill="#FF2061"/>
<path d="M105.613 79.3128C105.344 79.6273 105.069 79.9339 104.81 80.2562C104.099 81.1381 103.394 82.023 102.454 82.6852C101.819 83.1324 101.133 83.4564 100.357 83.548C99.0262 83.7045 97.6908 83.9368 96.3665 83.4911C96.2686 83.458 96.1595 83.4437 96.0552 83.4422C95.6301 83.4311 95.4515 83.646 95.6111 84.0348C95.7075 84.2702 95.8656 84.4994 96.0505 84.6764C96.2559 84.8739 96.5103 85.0256 96.7616 85.1663C97.6482 85.6593 97.664 85.6609 97.2104 86.606C96.8801 87.2934 96.5451 87.984 96.1469 88.6335C95.431 89.8029 94.7625 90.985 94.2394 92.2619C94.0103 92.8197 93.5504 93.327 93.0905 93.7395C91.9369 94.7778 90.7501 95.7828 89.5254 96.7374C88.3385 97.6618 86.97 98.2481 85.456 98.3019C83.193 98.3825 81.5369 97.2968 80.3785 95.402C79.8333 94.5123 79.5599 93.5182 79.3908 92.5021C78.9578 89.8851 79.277 87.3519 80.4006 84.9482C80.6835 84.3429 81.1054 83.7645 81.5843 83.2952C83.0508 81.8603 84.7986 80.9247 86.8562 80.6497C87.8644 80.5154 88.7937 80.7525 89.6059 81.3798C90.3155 81.9266 90.3376 82.1763 89.7403 82.8401C88.7004 83.9937 87.6305 85.122 86.6239 86.3041C86.0123 87.0231 85.4655 87.8038 84.9472 88.594C84.677 89.0049 84.5079 89.49 84.3419 89.9594C84.2329 90.2707 84.1539 90.6184 84.4604 91.0324C84.6422 90.8602 84.7923 90.7069 84.9551 90.5694C85.2917 90.2833 85.5999 89.9294 85.9855 89.7397C86.665 89.4063 87.2323 89.7476 87.237 90.5014C87.2418 91.0972 87.0853 91.6946 87 92.2919C86.9305 92.7723 86.7266 93.2496 86.9652 93.8027C87.3903 93.6352 87.4725 93.2575 87.6195 92.9509C88.0746 92.0011 88.4602 91.015 88.9723 90.0984C89.3926 89.3478 89.9252 88.6509 90.472 87.9808C90.728 87.6663 91.1199 87.4514 91.477 87.2349C91.8611 87.0026 92.2293 87.0595 92.5343 87.4198C92.6528 87.5605 92.7824 87.698 92.9309 87.8007C93.3181 88.0725 93.6895 87.9223 93.71 87.4498C93.7243 87.118 93.65 86.7671 93.5425 86.4495C93.3576 85.9011 93.1095 85.3765 92.8993 84.836C91.752 81.8808 93.1964 78.8087 96.218 77.7989C96.7664 77.6155 97.3353 77.4923 97.8915 77.3342C98.3214 77.211 98.7497 77.083 99.1763 76.9471C100.313 76.5836 101.096 75.8298 101.713 74.8152C102.201 74.0124 102.783 73.2554 103.399 72.5443C103.734 72.1587 104.199 71.849 104.66 71.6151C105.668 71.1078 106.699 71.0888 107.65 71.7763C109.034 72.7766 109.817 74.1373 109.872 75.8519C109.897 76.6373 109.807 77.4291 109.725 78.2145C109.616 79.2464 109.67 80.2578 109.875 81.2756C110.041 82.0989 110.112 82.9396 110.224 83.7724C110.254 83.9969 110.281 84.2228 110.318 84.5136C110.977 84.2718 111.157 83.7677 111.214 83.262C111.288 82.6125 111.264 81.9503 111.252 81.2929C111.244 80.8994 111.179 80.5075 111.135 80.114C110.932 78.314 111.71 76.9281 113.059 75.8566C113.467 75.5327 114.058 75.3573 114.589 75.2877C116.269 75.0697 116.293 73.7422 115.515 72.7608C114.829 71.8932 114.136 71.0319 113.42 70.1912C113.116 69.8356 112.906 69.4595 112.871 68.9965C112.803 68.1305 112.731 67.2661 112.688 66.3985C112.649 65.5751 112.914 64.8434 113.445 64.2113C113.699 63.9095 113.959 63.6108 114.218 63.3137C115.006 62.4082 115.237 61.3762 114.912 60.221C114.712 59.5114 114.494 58.8066 114.32 58.0907C114.238 57.7494 114.238 57.3875 114.188 56.9023C114.485 57.0177 114.679 57.0398 114.788 57.1473C115.217 57.5724 115.665 57.9912 116.022 58.4732C118.29 61.539 119.414 65.0204 119.864 68.7832C120.002 69.9289 119.918 71.0319 119.815 72.1461C119.697 73.453 119.496 74.7536 119.298 76.051C119.156 76.9803 118.715 77.7941 118.178 78.5542C117.767 79.1342 117.345 79.7079 116.907 80.2673C116.356 80.9721 115.823 81.0211 115.19 80.3732C114.845 80.0208 114.599 79.572 114.306 79.169C114.189 79.0062 114.068 78.8482 113.853 78.5606C113.793 78.875 113.714 79.0441 113.739 79.1974C113.804 79.5862 113.883 79.9765 114.012 80.3479C114.537 81.8587 114.765 83.4121 114.735 85.0051C114.727 85.4239 114.679 85.8474 114.602 86.2583C114.42 87.2254 113.914 87.9619 112.977 88.3427C111.392 88.9859 109.826 89.6891 108.206 90.228C107.298 90.5299 106.3 90.6041 105.335 90.6721C104.771 90.7116 104.173 90.6042 103.623 90.4493C102.203 90.0479 101.691 89.2972 101.773 87.8323C101.801 87.3361 101.855 86.8367 101.945 86.3484C102.138 85.2943 102.702 84.4788 103.53 83.7961C104.682 82.848 105.439 81.6295 105.75 80.1583C105.803 79.9149 105.812 79.662 105.842 79.4124C105.766 79.376 105.69 79.3444 105.613 79.3128Z" fill="#FF2061"/>
<path d="M4.32654 144.227C4.4909 144.357 4.55727 144.382 4.56833 144.422C4.82434 145.4 5.55919 145.872 6.44101 146.17C7.1885 146.419 7.93441 146.693 8.70402 146.849C9.62692 147.036 10.4266 146.71 11.0113 145.961C12.2487 144.381 12.9677 142.608 12.9693 140.572C12.9709 139.717 12.7228 138.968 12.1507 138.328C11.7477 137.876 11.3163 137.445 10.9512 136.964C10.5546 136.443 10.1421 135.912 9.87345 135.322C8.9142 133.217 7.31966 131.672 5.56077 130.264C4.94445 129.771 4.28388 129.333 3.65175 128.86C1.65581 127.372 0.43739 125.388 0.0849794 122.934C-0.0430262 122.04 -0.031962 121.076 0.156095 120.196C0.450034 118.827 1.3919 117.917 2.69092 117.368C3.5032 117.027 3.43367 117 3.42893 116.137C3.42577 115.493 3.49846 114.81 3.7197 114.211C4.05947 113.291 4.15587 112.382 4.05315 111.423C3.91408 110.129 4.22382 109.656 5.46279 109.246C7.14267 108.688 8.73721 109.01 10.2749 109.772C10.6525 109.958 11.0034 110.198 11.3842 110.375C11.7445 110.545 11.9326 110.431 11.9768 110.034C12.0385 109.468 11.9042 108.948 11.615 108.447C11.0097 107.398 10.4139 106.344 9.85291 105.271C9.41042 104.424 9.54949 104.143 10.4424 103.786C11.0065 103.56 11.5486 103.616 12.0132 103.975C12.383 104.261 12.7307 104.603 13.0025 104.98C13.4797 105.641 13.889 106.349 14.3331 107.033C14.4706 107.245 14.6255 107.444 14.8198 107.714C15.0711 107.319 14.9463 107.014 14.8799 106.727C14.6824 105.881 14.4421 105.043 14.2588 104.195C13.9538 102.787 14.4611 101.903 15.8028 101.426C16.4792 101.186 16.9548 101.357 17.1887 102.041C17.3736 102.581 17.508 103.168 17.5174 103.735C17.5585 106.093 17.9979 108.391 18.4135 110.698C18.7122 112.356 18.9524 114.024 19.2068 115.69C19.4059 117 19.2068 118.272 18.6979 119.48C18.5004 119.949 18.1701 120.391 17.8066 120.755C17.4368 121.123 17.0196 121.06 16.7289 120.627C16.5155 120.309 16.3701 119.924 16.2895 119.548C16.1441 118.881 16.0762 118.196 15.964 117.52C15.9355 117.353 15.8644 117.191 15.6621 117.016C15.6116 117.195 15.5405 117.37 15.5152 117.552C15.4251 118.203 15.3824 118.862 15.2623 119.508C15.0885 120.442 14.5433 121.125 13.7184 121.597C12.9329 122.049 12.1523 122.067 11.4158 121.537C10.9054 121.171 10.4471 120.731 9.96827 120.32C9.61586 120.019 9.29348 119.668 8.80042 119.533C8.57285 119.865 8.72298 120.143 8.86995 120.365C9.30454 121.02 9.78653 121.645 10.2385 122.289C10.9022 123.234 11.5786 124.172 12.206 125.142C12.4146 125.464 12.541 125.864 12.6027 126.247C12.6501 126.539 12.5963 126.882 12.4794 127.157C12.3182 127.538 11.9942 127.617 11.6308 127.394C11.272 127.176 10.9481 126.902 10.6083 126.653C9.94931 126.171 9.29505 125.686 8.62974 125.213C8.46065 125.093 8.26785 124.989 8.07031 124.93C7.7906 124.848 7.5899 125.022 7.63731 125.309C7.67049 125.51 7.74635 125.725 7.86487 125.889C8.24731 126.422 8.61868 126.974 9.06749 127.448C9.91612 128.347 10.828 129.188 11.6908 130.074C12.334 130.736 13.102 131.172 13.9712 131.433C15.0047 131.744 16.0509 132.012 17.0829 132.328C17.5838 132.481 18.0863 132.661 18.5494 132.901C19.3759 133.33 19.5387 133.769 19.2147 134.657C19.0251 135.174 18.807 135.692 18.5178 136.158C17.8651 137.216 17.7324 138.3 18.1006 139.486C18.5367 140.893 18.4972 142.296 17.8825 143.652C17.0133 145.569 16.1362 147.483 15.2528 149.393C14.9621 150.021 14.4643 150.446 13.8195 150.68C11.6181 151.479 9.53052 151.456 7.69261 149.781C6.93564 149.09 6.15339 148.418 5.45805 147.668C4.99976 147.173 4.62838 146.577 4.31074 145.978C4.02786 145.455 3.96623 144.861 4.32654 144.227Z" fill="#FF2061"/>
<path d="M138.944 150.195C138.576 150.01 138.377 149.898 138.167 149.81C137.737 149.629 137.434 149.77 137.35 150.228C137.304 150.478 137.336 150.751 137.386 151.004C137.483 151.488 137.448 151.937 137.192 152.417C135.939 152.202 134.878 151.733 134.43 150.481C134.158 149.723 133.944 148.91 133.897 148.111C133.78 146.143 134.273 144.299 135.315 142.614C136.561 140.599 137.867 138.622 139.351 136.774C139.627 136.429 139.956 136.113 140.307 135.843C141.4 134.997 142.639 134.419 143.941 133.97C144.728 133.698 145.539 133.681 146.361 133.776C146.712 133.815 147.162 133.945 147.349 133.518C147.526 133.11 147.247 132.755 146.985 132.456C146.56 131.974 145.991 131.862 145.395 131.987C144.804 132.11 144.229 132.306 143.649 132.477C143.422 132.543 143.203 132.643 142.976 132.706C142.252 132.911 141.983 132.657 142.153 131.908C142.352 131.018 142.946 130.386 143.568 129.766C144.126 129.212 144.687 128.652 145.187 128.045C145.658 127.473 145.959 126.803 145.948 126.046C145.61 125.744 145.367 125.989 145.16 126.157C144.608 126.604 144.079 127.078 143.551 127.554C143.278 127.8 143.044 128.094 142.758 128.322C142.592 128.453 142.355 128.493 142.149 128.573C142.067 128.363 141.931 128.156 141.915 127.941C141.865 127.268 142.04 126.647 142.399 126.064C142.84 125.348 143.312 124.635 143.638 123.865C144.014 122.974 144.321 122.037 144.51 121.09C144.635 120.466 144.51 119.788 144.465 119.137C144.453 118.985 144.308 118.842 144.147 118.559C143.954 118.892 143.818 119.101 143.708 119.322C143.109 120.523 142.519 121.729 141.919 122.928C141.381 124.003 140.46 124.144 139.6 123.282C139.415 123.097 139.27 122.873 139.104 122.669C138.687 122.156 138.551 122.121 137.965 122.377C137.772 122.461 137.587 122.566 137.388 122.633C136.715 122.859 136.09 122.773 135.54 122.298C134.976 121.809 134.531 121.239 134.215 120.553C132.991 117.901 132.685 115.101 132.833 112.225C132.93 110.363 133.379 108.582 134.112 106.876C134.757 105.377 135.409 103.881 136.1 102.403C136.577 101.382 137.367 100.666 138.464 100.33C139.314 100.069 139.572 100.249 139.441 101.109C139.31 101.964 139.129 102.819 138.884 103.649C138.556 104.758 138.108 105.833 137.778 106.942C137.456 108.024 137.214 109.131 136.944 110.229C136.915 110.347 136.941 110.479 136.941 110.662C137.339 110.564 137.419 110.262 137.535 110.025C138.188 108.687 139.027 107.481 140.081 106.433C140.526 105.989 140.994 105.553 141.514 105.204C142.642 104.447 143.526 104.687 144.055 105.927C144.404 106.746 144.619 107.621 144.872 108.478C145.125 109.336 145.34 110.205 145.591 111.063C145.795 111.763 146.136 112.362 146.821 112.731C147.031 112.843 147.157 113.115 147.315 113.318C147.6 113.687 147.842 114.099 148.17 114.422C148.828 115.066 149.545 115.648 150.215 116.28C151.832 117.802 152.447 120.068 151.397 122.19C151.035 122.922 150.658 123.646 150.324 124.389C149.947 125.231 149.961 125.384 150.737 125.884C152.259 126.863 153.163 129.741 152.671 131.402C152.57 131.747 152.398 132.091 152.181 132.379C151.568 133.193 151.143 134.082 150.934 135.079C150.764 135.896 150.277 136.432 149.479 136.696C148.779 136.927 148.095 137.205 147.39 137.417C145.752 137.908 144.299 138.743 142.916 139.719C142.184 140.236 141.454 140.756 140.752 141.309C139.377 142.392 138.54 143.757 138.586 145.571C138.605 146.282 138.549 146.995 138.598 147.703C138.641 148.327 138.785 148.944 138.88 149.565C138.9 149.71 138.91 149.859 138.944 150.195Z" fill="#FF2061"/>
<path d="M125.768 115.616C124.864 115.404 124.153 114.551 124.081 113.514C124.051 113.074 124.098 112.62 124.156 112.179C124.357 110.629 124.126 110.193 122.682 109.542C120.726 108.66 118.685 108.241 116.533 108.434C116.114 108.472 115.689 108.489 115.272 108.462C114.396 108.407 113.613 108.102 113.077 107.378C112.402 106.466 111.5 106.082 110.401 106.161C109.513 106.224 108.627 106.337 107.743 106.463C107.275 106.529 106.824 106.692 106.357 106.776C105.498 106.931 104.673 106.866 103.962 106.285C103.176 105.641 102.271 105.49 101.288 105.578C100.344 105.663 99.3976 105.746 98.451 105.768C97.4538 105.791 96.4535 105.708 95.4563 105.731C94.4591 105.757 93.4635 105.844 92.4695 105.931C91.8406 105.986 91.2163 106.09 90.589 106.172C89.5396 106.311 88.5377 106.583 87.5579 107.008C85.7105 107.811 83.7683 108.288 81.7471 108.389C79.6974 108.492 77.6477 108.608 75.5965 108.639C74.7652 108.652 73.9261 108.484 73.098 108.353C71.8511 108.156 70.609 107.931 69.3685 107.693C68.986 107.618 68.621 107.454 68.2449 107.342C66.0214 106.681 63.7773 106.106 61.4637 105.859C59.7918 105.681 58.1435 105.919 56.53 106.311C52.8242 107.209 49.0725 107.266 45.305 106.977C43.9933 106.876 42.8302 107.087 41.6924 107.792C40.9955 108.225 40.1453 108.44 39.3393 108.661C38.5555 108.876 37.7416 108.992 36.9357 109.121C36.2577 109.23 35.6793 109.494 35.2526 110.047C35.2368 110.068 35.2163 110.085 35.1989 110.104C33.2045 112.348 33.2061 112.198 30.439 112.895C30.2098 112.953 29.9807 113.013 29.7531 113.08C28.3941 113.469 27.6276 114.441 27.6639 115.853C27.6861 116.692 27.8409 117.527 27.9057 118.366C27.95 118.94 27.9753 119.52 27.9453 120.095C27.9231 120.526 27.8425 120.582 27.3779 120.994C27.2325 120.781 27.0666 120.593 26.9607 120.375C26.4519 119.335 25.9351 118.296 25.4689 117.238C25.2824 116.813 25.1813 116.34 25.107 115.879C24.9869 115.13 25.0343 114.352 24.6724 113.646C24.5049 113.318 24.6171 113.012 24.8937 112.802C25.2255 112.55 25.5732 112.304 25.9461 112.121C26.346 111.925 26.7821 111.801 27.2041 111.653C27.9737 111.381 28.5584 110.89 29.0736 110.257C29.603 109.609 30.2035 109.018 30.8009 108.429C31.4409 107.798 32.2247 107.454 33.1239 107.361C34.4972 107.217 35.8073 106.823 37.0684 106.272C37.4524 106.104 37.8364 105.916 38.1794 105.678C39.6933 104.624 41.37 104.38 43.1542 104.628C43.2585 104.643 43.3628 104.657 43.4671 104.676C44.8973 104.936 46.3322 105.069 47.7861 104.921C48.8512 104.812 49.8958 104.949 50.8993 105.3C52.595 105.893 54.2654 105.821 55.9216 105.189C58.7677 104.102 61.7197 103.716 64.7524 103.758C66.3833 103.78 68.0173 103.74 69.6466 103.675C70.1602 103.655 70.6896 103.521 71.1748 103.34C72.5591 102.824 73.9466 102.338 75.4069 102.079C75.7419 102.019 76.0706 101.91 76.3946 101.803C78.2799 101.177 80.1525 101.12 82.0426 101.815C83.5723 102.378 85.1195 102.895 86.6729 103.394C87.4726 103.652 88.2912 103.875 89.1177 104.018C89.7324 104.126 90.374 104.115 91.003 104.102C92.3447 104.075 93.6864 103.984 95.0281 103.979C95.7345 103.976 96.4393 104.119 97.1473 104.161C97.7999 104.2 98.4668 104.278 99.1068 104.189C101.817 103.818 104.507 103.77 107.193 104.374C108.707 104.714 110.232 104.549 111.751 104.336C112.611 104.216 113.472 104.102 114.335 104.003C115.057 103.919 115.744 104.029 116.405 104.363C116.802 104.564 117.225 104.75 117.657 104.839C119.619 105.243 121.342 106.236 123.132 107.051C123.736 107.326 124.277 107.8 124.754 108.276C125.598 109.118 125.994 110.153 125.797 111.37C125.734 111.759 125.704 112.155 125.637 112.544C125.489 113.413 125.459 114.271 125.805 115.109C125.852 115.224 125.852 115.363 125.857 115.491C125.857 115.532 125.798 115.575 125.768 115.616Z" fill="#FF2061"/>
<path d="M124.24 83.5813C124.523 83.3569 124.819 83.1452 125.087 82.9049C126.641 81.5222 128.197 80.1441 129.735 78.7424C130.693 77.8701 131.792 77.4292 133.09 77.3707C134.451 77.309 135.767 77.4939 137.072 77.8416C137.497 77.9554 137.858 78.1482 138.022 78.5907C139.024 81.2851 139.526 84.0175 138.657 86.8573C138.006 88.9844 136.718 90.6422 134.884 91.8606C134.033 92.4248 133.001 92.5148 132.023 92.6997C130.912 92.9099 129.79 93.0601 128.673 93.2355C128.595 93.2481 128.515 93.2718 128.439 93.2639C127.094 93.1154 125.843 93.5958 124.55 93.8139C123.576 93.9782 122.579 93.9972 121.441 94.0952C121.593 93.7949 121.633 93.6068 121.748 93.5073C122.146 93.1659 122.543 92.8104 122.989 92.5401C124.43 91.6694 125.868 90.7844 127.356 90.0006C128.516 89.389 129.749 88.918 130.952 88.3871C131.144 88.3017 131.35 88.248 131.54 88.1563C131.895 87.9841 132.137 87.7186 132.121 87.2951C132.104 86.8383 131.83 86.5239 131.419 86.448C130.885 86.3485 130.321 86.2916 129.785 86.3516C129.3 86.4053 128.81 86.5902 128.366 86.8083C127.421 87.2714 126.516 87.815 125.575 88.2843C124.8 88.6715 124.02 89.0808 123.197 89.3321C122.56 89.5265 121.848 89.5897 121.179 89.5423C119.758 89.4411 118.995 88.6162 118.891 87.1955C118.767 85.5077 119.17 83.9306 120.131 82.5525C120.986 81.3246 121.942 80.1631 122.891 79.0016C123.804 77.8811 124.758 76.7954 125.707 75.7019C126.293 75.0271 126.833 74.2938 127.505 73.7154C129.653 71.8712 131.252 69.5987 132.755 67.2393C133.052 66.7731 133.359 66.3116 133.689 65.8691C134.049 65.3887 134.302 65.3145 134.849 65.5705C135.874 66.0493 136.917 66.506 137.889 67.0781C139.699 68.1432 139.917 70.9578 138.31 72.3232C137.752 72.7972 137.12 73.1907 136.491 73.5716C135.633 74.0931 134.688 74.2164 133.682 74.1879C132.769 74.1626 131.834 74.2164 130.939 74.3934C129.378 74.7015 128.259 75.7003 127.44 77.0246C126.569 78.4358 125.734 79.8692 124.904 81.3057C124.514 81.9805 124.142 82.6726 124.077 83.4675C124.134 83.5086 124.188 83.545 124.24 83.5813Z" fill="#FF2061"/>
<path d="M85.7655 145.854C85.7387 145.681 85.6786 145.508 85.6897 145.337C85.7292 144.733 85.7529 144.125 85.854 143.531C86.0547 142.345 86.0437 141.166 85.8003 139.997C85.4526 138.315 85.4605 136.659 85.9457 134.998C86.1811 134.192 86.3155 133.356 86.4782 132.53C86.5336 132.247 86.5509 131.956 86.5604 131.667C86.5794 131.07 86.336 130.632 85.8272 130.278C84.4665 129.335 82.962 128.799 81.3248 128.753C77.6901 128.652 74.0538 128.634 70.4712 129.399C69.8312 129.537 69.1801 129.689 68.5827 129.948C67.7847 130.294 67.26 130.907 66.9614 131.773C66.2502 133.837 66.2802 135.964 66.3055 138.094C66.3197 139.279 66.4888 140.441 66.8002 141.599C67.2158 143.145 67.0577 144.684 66.2992 146.125C66.1586 146.392 66.0147 146.816 65.6576 146.693C65.4395 146.618 65.2546 146.23 65.1977 145.953C65.0476 145.233 64.948 144.499 64.8801 143.766C64.7521 142.375 64.308 141.087 63.6364 139.882C62.8067 138.395 62.233 136.822 61.8885 135.161C61.8459 134.956 61.7779 134.755 61.7368 134.548C61.563 133.652 61.0763 133.036 60.215 132.685C59.8341 132.528 59.4564 132.293 59.1609 132.007C58.238 131.112 58.5335 129.763 59.7488 129.369C60.2656 129.202 60.8345 129.115 61.3781 129.12C63.3819 129.14 65.283 128.608 67.2 128.138C68.3473 127.857 69.4946 127.495 70.6624 127.388C74.2513 127.056 77.8466 126.665 81.4576 126.874C83.5294 126.993 85.5948 127.252 87.6587 127.498C88.2766 127.573 88.8851 127.787 89.4793 127.991C90.3026 128.273 91.1196 128.53 91.9967 128.625C92.5862 128.688 93.1772 128.892 93.7224 129.134C94.0353 129.273 94.3134 129.576 94.5126 129.869C94.7765 130.256 94.7006 130.624 94.3103 130.902C93.0128 131.822 92.2069 133.094 91.6396 134.54C91.3756 135.212 90.9758 135.781 90.5302 136.343C90.0434 136.958 89.6199 137.631 89.2264 138.311C88.6259 139.347 88.539 140.52 88.5247 141.678C88.5121 142.666 88.1486 143.464 87.5197 144.178C87.0029 144.765 86.4861 145.351 85.9694 145.936C85.9014 145.907 85.8335 145.88 85.7655 145.854Z" fill="#FF2061"/>
<path d="M45.0566 129.849C45.4328 129.054 45.8389 128.585 46.539 128.429C46.667 128.4 46.7966 128.377 46.9277 128.358C48.6187 128.111 50.3175 127.913 51.9974 127.61C54.2225 127.209 56.446 126.79 58.5067 125.772C60.6101 124.735 62.8668 124.242 65.1946 124.024C66.7686 123.876 68.3015 123.558 69.8139 123.041C70.9469 122.654 72.1669 122.428 73.3648 122.341C75.6199 122.177 77.8861 122.164 80.1491 122.09C80.8065 122.068 81.4639 122.033 82.1214 122.043C82.4848 122.047 82.8499 122.12 83.2102 122.177C84.013 122.303 84.811 122.472 85.6186 122.563C86.3914 122.649 87.0741 122.833 87.7125 123.35C88.8061 124.236 90.0719 124.826 91.4689 125.105C93.0682 125.424 94.6754 125.718 96.2573 126.114C97.2466 126.362 98.2358 126.692 99.1524 127.136C100.273 127.681 101.415 128.146 102.618 128.437C103.797 128.721 104.721 129.375 105.538 130.222C105.945 130.644 105.935 130.796 105.442 131.166C103.454 132.659 101.961 134.593 100.597 136.635C100.178 137.261 99.8952 137.977 99.5475 138.656C99.2425 138.729 99.0955 138.527 99.0276 138.299C98.9612 138.078 98.9327 137.83 98.9517 137.601C99.1018 135.832 99.4163 134.118 100.265 132.515C100.625 131.833 100.835 131.044 100.973 130.278C101.129 129.405 100.91 129.11 100.112 128.716C99.7814 128.554 99.4416 128.403 99.0924 128.291C96.9858 127.61 94.8524 127.047 92.6352 126.844C90.3058 126.63 88.0807 126.036 85.9884 124.969C84.7241 124.325 83.3983 124.137 82.0028 124.503C80.6343 124.863 79.2468 124.838 77.845 124.731C76.7183 124.644 75.5836 124.62 74.4537 124.647C73.9116 124.66 73.3743 124.854 72.8338 124.965C72.1417 125.107 71.4542 125.314 70.7557 125.374C68.7108 125.546 66.658 125.632 64.6115 125.802C63.2461 125.918 61.9281 126.237 60.6243 126.711C58.7738 127.384 56.8727 127.926 54.9731 128.452C54.2825 128.644 53.8701 128.968 53.6852 129.658C53.456 130.518 53.3738 131.365 53.6709 132.221C53.8606 132.768 54.0218 133.328 54.243 133.862C54.9194 135.499 54.9257 137.196 54.7298 138.912C54.706 139.118 54.6697 139.35 54.5543 139.511C54.4311 139.685 54.2114 139.892 54.0297 139.895C53.8448 139.899 53.5809 139.712 53.4876 139.537C53.3438 139.268 53.2838 138.941 53.2458 138.631C53.1083 137.515 52.7291 136.477 52.1965 135.505C51.4759 134.191 50.7031 132.904 49.9446 131.61C49.4594 130.78 48.8099 130.235 47.8111 130.02C46.942 129.834 46.106 129.521 45.0566 129.849Z" fill="#FF2061"/>
<path d="M129.633 108.599C128.989 108.067 128.345 107.577 127.754 107.03C127.389 106.692 127.32 106.196 127.348 105.709C127.421 104.502 127.508 103.294 127.589 102.088C127.615 101.695 127.691 101.298 127.655 100.911C127.626 100.612 127.513 100.288 127.34 100.044C127.046 99.6232 126.642 99.6089 126.258 99.955C126.084 100.111 125.932 100.301 125.796 100.492C125.246 101.264 124.684 102.027 124.17 102.823C123.687 103.572 123.062 104.053 122.173 104.235C121.212 104.43 120.257 104.552 119.274 104.461C118.306 104.37 117.549 103.93 117.083 103.105C116.684 102.401 116.395 101.632 116.084 100.881C115.883 100.396 115.765 99.876 115.548 99.3988C115.33 98.9168 115.004 98.8583 114.725 99.2897C113.985 100.426 112.819 101.004 111.735 101.692C110.534 102.454 110.053 102.196 109.865 100.801C109.698 99.5631 109.895 98.4458 110.73 97.4771C111.691 96.3614 112.601 95.1967 113.614 94.1332C114.671 93.0238 116.498 93.3082 117.271 94.6136C117.565 95.1114 117.917 95.576 118.182 96.088C118.508 96.7138 118.807 97.3586 119.05 98.0191C119.323 98.7651 119.719 99.0021 120.43 98.645C120.965 98.3763 121.509 98.0681 121.945 97.6652C123.293 96.4167 124.869 95.8446 126.686 95.8399C127.396 95.8383 128.107 95.7451 128.815 95.7561C131.356 95.8004 133.034 97.5277 133.075 100.075C133.091 101.075 132.913 102.011 132.367 102.863C131.9 103.593 131.462 104.347 130.959 105.052C130.316 105.954 129.861 106.905 129.897 108.043C129.901 108.146 129.877 108.253 129.85 108.353C129.837 108.392 129.787 108.426 129.633 108.599Z" fill="#FF2061"/>
<path d="M38.9177 99.8555C38.4531 100.379 38.0975 100.789 37.7309 101.188C36.808 102.194 35.9451 103.266 34.9369 104.179C33.9176 105.104 32.6739 105.568 31.231 105.406C30.0458 105.271 29.1434 104.75 28.5018 103.756C28.388 103.579 28.2932 103.386 28.1605 103.225C27.9013 102.91 27.5932 102.901 27.4004 103.264C27.2218 103.601 27.108 103.999 27.078 104.378C27.0258 105.006 27.0606 105.639 27.0637 106.272C27.0701 107.942 26.37 109.265 25.0931 110.309C24.7533 110.587 24.4167 110.872 23.9774 111.237C23.9426 110.937 23.8889 110.766 23.9079 110.605C24.0643 109.304 23.7609 108.098 23.1762 106.946C22.8427 106.289 22.5535 105.609 22.1964 104.965C21.4141 103.552 21.52 102.063 22.0794 100.684C23.0529 98.2752 24.3377 97.1926 27.0306 97.1405C27.7401 97.1279 28.4528 97.0994 29.1608 97.1231C30.5136 97.1705 31.7494 97.5514 32.7655 98.4996C33.0342 98.7508 33.3076 99.0005 33.6047 99.217C33.8781 99.4162 34.1688 99.6137 34.4833 99.7338C35.1866 100.001 35.7175 99.7622 36.0289 99.0795C36.2248 98.6481 36.3797 98.1977 36.5899 97.7758C36.8001 97.3538 37.0276 96.9335 37.2995 96.5479C38.3456 95.0576 40.0318 94.7131 41.6058 95.636C42.6978 96.2761 43.6033 97.071 44.1027 98.2815C44.3745 98.9373 44.5073 99.5884 44.3603 100.281C44.2513 100.794 44.1438 101.314 43.9684 101.807C43.7724 102.357 43.4074 102.615 42.8622 102.444C41.9171 102.147 40.9974 101.749 40.0966 101.331C39.8358 101.211 39.6668 100.883 39.4692 100.638C39.3144 100.44 39.1769 100.222 38.9177 99.8555Z" fill="#FF2061"/>
<path d="M45.6777 93.168C46.0997 93.3055 46.3446 93.375 46.5817 93.4651C49.3393 94.5002 52.0954 95.5448 54.8546 96.5751C56.732 97.2768 58.5731 98.048 60.2467 99.17C60.618 99.4181 61.0858 99.6378 61.0589 100.151C61.0321 100.667 60.5074 100.75 60.1313 100.881C58.1448 101.575 56.16 102.263 54.0044 102.242C50.6052 102.211 47.2912 99.8369 46.4837 96.4708C46.2814 95.6269 46.0207 94.7973 45.7978 93.9597C45.7473 93.7685 45.7362 93.5662 45.6777 93.168Z" fill="white"/>
<path d="M108.409 94.7388C108.056 95.2856 107.74 95.7945 107.405 96.2891C106.534 97.5803 105.555 98.7813 104.355 99.7864C102.064 101.706 99.4389 102.353 96.5342 101.686C95.3079 101.405 94.1195 100.956 92.9169 100.573C92.7178 100.51 92.5234 100.417 92.348 100.305C92.0304 100.101 91.9719 99.8686 92.2216 99.5857C92.4428 99.336 92.7146 99.0942 93.0133 98.9567C95.9242 97.6087 98.8178 96.2338 102.007 95.6001C103.428 95.3172 104.837 95.0296 106.28 94.9032C106.666 94.87 107.04 94.7057 107.423 94.6077C107.724 94.5302 108.031 94.4196 108.409 94.7388Z" fill="white"/>
<path d="M95.3426 106.701C95.3331 106.717 95.3252 106.733 95.3157 106.749C95.2999 106.739 95.2747 106.733 95.2699 106.72C95.2667 106.708 95.2841 106.689 95.2936 106.673C95.311 106.684 95.3268 106.693 95.3426 106.701Z" fill="#FF2061"/>
<path d="M164 36.7769L163.957 36.8196L163.941 36.7627L164 36.7769Z" fill="#FF2061"/>
<path d="M136.556 132.974L136.52 132.938L136.567 132.924L136.556 132.974Z" fill="#FF2061"/>
<path d="M129.848 69.3633L129.799 69.338L129.845 69.3096L129.848 69.3633Z" fill="#FF2061"/>
<path d="M105.099 121.056C105.112 121.975 104.908 122.209 104.16 122.119C103.328 122.018 102.496 121.865 101.683 121.661C100.688 121.411 100.039 120.645 99.3895 119.924C99.2488 119.768 99.233 119.422 99.2789 119.185C99.5665 117.712 99.9157 116.251 100.538 114.877C100.688 114.545 100.881 114.218 101.12 113.944C101.545 113.457 101.967 113.481 102.383 113.968C102.484 114.086 102.575 114.221 102.645 114.36C103.539 116.15 104.379 117.965 104.883 119.912C104.996 120.343 105.05 120.789 105.099 121.056Z" fill="white"/>
<path d="M105.24 112.776C105.921 112.835 106.607 112.86 107.281 112.961C107.718 113.026 108.168 113.137 108.557 113.334C109.421 113.775 109.91 114.507 109.865 115.498C109.843 115.989 109.767 116.5 109.605 116.963C109.085 118.445 108.249 119.746 107.172 120.89C107.065 121.003 106.953 121.119 106.826 121.212C106.409 121.525 106.163 121.452 106.013 120.967C105.951 120.766 105.926 120.556 105.881 120.351C105.421 118.219 104.974 116.082 104.138 114.053C103.71 113.013 103.931 112.735 105.082 112.776C105.134 112.778 105.186 112.781 105.24 112.784C105.238 112.781 105.24 112.778 105.24 112.776Z" fill="white"/>
<path d="M117.95 120.692C117.853 121.033 117.858 121.49 117.634 121.691C117.302 121.988 116.97 121.568 116.667 121.4C114.886 120.409 113.22 119.265 112.011 117.587C111.616 117.038 111.29 116.428 111.003 115.815C110.797 115.376 110.906 115.216 111.339 115.008C112.867 114.27 115.221 114.643 116.428 115.844C116.663 116.078 116.858 116.381 116.986 116.689C117.512 117.96 117.777 119.297 117.95 120.692Z" fill="white"/>
<path d="M49.5592 112.261C50.0301 112.298 50.509 112.291 50.972 112.378C51.7922 112.532 52.0703 113.085 51.6942 113.831C51.435 114.344 51.1095 114.828 50.7824 115.303C50.0681 116.343 49.3395 117.375 48.6015 118.401C48.3882 118.698 48.1448 118.984 47.8746 119.227C47.5174 119.548 47.2994 119.501 47.0481 119.101C46.9501 118.946 46.8663 118.777 46.8063 118.605C46.4286 117.54 46.0541 116.474 45.6906 115.405C45.4377 114.66 45.689 113.944 45.8834 113.241C45.994 112.843 46.3812 112.698 46.7462 112.633C47.6755 112.468 48.6126 112.345 49.545 112.206C49.5497 112.223 49.5545 112.242 49.5592 112.261Z" fill="white"/>
<path d="M114.211 125.916C112.118 125.708 110.342 124.84 108.877 123.334C108.608 123.057 108.574 122.746 108.705 122.391C109.124 121.257 109.525 120.116 109.95 118.985C110.108 118.566 110.299 118.508 110.671 118.746C110.89 118.887 111.088 119.066 111.276 119.247C112.471 120.398 113.585 121.623 114.522 122.991C114.874 123.506 115.183 124.07 115.405 124.652C115.737 125.518 115.472 125.855 114.525 125.913C114.421 125.923 114.315 125.916 114.211 125.916Z" fill="white"/>
<path d="M51.2928 121.25C50.6669 121.209 50.1913 121.204 49.7235 121.141C49.2873 121.081 49.1925 120.866 49.4074 120.48C49.5481 120.229 49.7219 119.994 49.8973 119.766C51.0225 118.309 52.1509 116.857 53.2808 115.403C53.3772 115.278 53.4799 115.156 53.5921 115.046C53.9793 114.666 54.2416 114.662 54.5482 115.123C54.8216 115.536 55.0665 115.988 55.2088 116.457C55.3984 117.081 55.5122 117.735 55.5912 118.385C55.6829 119.143 55.3968 119.738 54.7631 120.223C53.679 121.054 52.4827 121.38 51.2928 121.25Z" fill="white"/>
<path d="M41.8071 122.62C40.979 122.608 40.1952 122.396 39.4493 122.048C38.9056 121.794 38.8519 121.637 39.1901 121.15C39.6089 120.545 40.0466 119.953 40.5081 119.377C41.265 118.434 42.0457 117.511 42.8185 116.58C42.9196 116.459 43.0145 116.323 43.1425 116.237C43.3258 116.116 43.5739 115.92 43.7256 115.969C43.8852 116.019 44.0227 116.31 44.0669 116.517C44.3261 117.724 44.5553 118.938 44.7971 120.147C44.8539 120.43 44.9251 120.711 44.993 120.992C45.0768 121.343 44.9819 121.618 44.6532 121.789C43.7588 122.25 42.8469 122.652 41.8071 122.62Z" fill="white"/>
<path d="M65.8264 116.807C65.8706 117.338 65.6889 117.572 65.3507 117.681C65.0758 117.77 64.796 117.846 64.5147 117.906C63.0277 118.228 61.5374 118.544 60.0488 118.86C59.9208 118.887 59.7912 118.92 59.6616 118.922C59.2728 118.925 59.1259 118.726 59.2633 118.369C59.3281 118.2 59.4324 118.042 59.5383 117.893C60.4612 116.585 61.3794 115.273 62.3197 113.977C62.7969 113.318 62.9218 113.32 63.6171 113.697C64.6728 114.271 65.1658 115.298 65.7095 116.28C65.8169 116.474 65.8106 116.735 65.8264 116.807Z" fill="white"/>
<path d="M58.5178 112.232C59.0535 112.338 59.6177 112.371 60.1186 112.567C60.9293 112.884 61.0889 113.43 60.6749 114.195C59.9716 115.494 59.1515 116.714 58.1416 117.797C57.9804 117.969 57.8114 118.14 57.6186 118.272C57.3578 118.454 57.0702 118.419 56.9801 118.1C56.5819 116.686 56.141 115.278 55.8676 113.838C55.7111 113.015 56.0446 112.721 56.8632 112.493C57.0402 112.444 57.2203 112.4 57.4036 112.381C57.7687 112.343 58.1369 112.323 58.5035 112.296C58.5067 112.275 58.5114 112.255 58.5178 112.232Z" fill="white"/>
<path d="M98.5946 112.01C98.898 112.03 99.1619 112.033 99.4211 112.067C100.159 112.161 100.338 112.372 100.189 113.118C99.862 114.758 99.2062 116.27 98.3149 117.682C98.2453 117.792 98.16 117.895 98.0652 117.985C97.7523 118.284 97.5152 118.258 97.3114 117.893C97.2102 117.712 97.1581 117.503 97.0727 117.31C96.5986 116.231 96.123 115.151 95.6457 114.074C95.5825 113.93 95.5003 113.792 95.4434 113.647C95.2364 113.118 95.287 112.846 95.8132 112.621C96.3837 112.376 97.0048 112.239 97.6132 112.097C97.9451 112.022 98.2943 112.035 98.5946 112.01Z" fill="white"/>
<path d="M43.3897 113.517C43.1827 113.876 43.0784 114.106 42.9314 114.306C41.8284 115.778 40.7174 117.245 39.608 118.713C39.1181 119.361 38.8036 119.356 38.3548 118.696C37.285 117.123 37.6247 115.505 39.2398 114.5C40.1943 113.906 41.2452 113.579 42.3499 113.432C42.6359 113.394 42.9393 113.476 43.3897 113.517Z" fill="white"/>
<path d="M94.7818 118.623C94.2192 118.509 93.6455 118.436 93.1003 118.269C92.5156 118.089 92.3765 117.836 92.5267 117.259C92.7116 116.549 92.936 115.848 93.1951 115.162C93.3785 114.677 93.6187 114.595 94.0501 114.86C95.0883 115.5 95.8453 116.39 96.2341 117.556C96.43 118.141 96.2641 118.39 95.6588 118.496C95.376 118.545 95.0852 118.545 94.7976 118.567C94.7928 118.586 94.7881 118.605 94.7818 118.623Z" fill="white"/>
<path d="M92.4272 113.699C92.4035 113.796 92.3987 113.879 92.364 113.947C91.9357 114.783 91.5438 115.643 91.0586 116.444C90.7536 116.95 90.4581 116.934 90.0741 116.443C89.5447 115.762 89.0469 115.054 88.5775 114.328C88.2567 113.832 88.3531 113.56 88.9031 113.495C89.8876 113.378 90.8832 113.342 91.8741 113.293C92.1459 113.28 92.3956 113.375 92.4272 113.699Z" fill="white"/>
<path d="M68.4907 116.123C68.143 116.123 67.9076 116.09 67.6847 116.13C66.9657 116.254 66.9641 116.266 66.5738 115.651C66.3636 115.319 66.1186 114.998 65.9701 114.639C65.8026 114.235 65.6651 113.799 65.6224 113.366C65.5782 112.912 65.8168 112.724 66.2577 112.835C67.2249 113.076 68.1904 113.329 69.1355 113.641C69.7707 113.849 69.8102 114.198 69.333 114.687C69.2777 114.744 69.2224 114.802 69.1592 114.845C68.7262 115.134 68.4022 115.488 68.4907 116.123Z" fill="white"/>
</svg>
