<svg width="164" height="164" viewBox="0 0 164 164" fill="none" xmlns="http://www.w3.org/2000/svg">
<path d="M98.6064 12.6328C98.9849 14.458 99.4613 16.268 99.7267 18.1106C100.512 23.5798 101.365 29.0467 101.911 34.542C102.566 41.1402 103.027 47.7623 103.403 54.3823C103.973 64.3764 104.093 74.3814 103.756 84.3885C103.597 89.1397 103.268 93.8757 102.272 98.5378C102.031 99.669 101.793 100.829 101.341 101.884C99.8812 105.29 99.4156 108.85 99.4896 112.511C99.5048 113.255 99.4961 113.997 99.4874 114.741C99.4853 114.923 99.4418 115.106 99.4156 115.291C99.3504 115.298 99.2851 115.302 99.2199 115.308C99.1676 115.05 99.0806 114.791 99.0654 114.53C98.974 112.955 98.9001 111.38 98.8174 109.807C98.813 109.724 98.7804 109.644 98.7391 109.478C98.6129 109.626 98.515 109.7 98.4715 109.8C98.0473 110.77 97.7057 111.773 97.7862 112.846C97.9885 115.589 98.2322 118.33 98.4454 121.073C98.5106 121.922 98.5302 122.775 98.5716 123.625C98.5803 123.799 98.5977 123.973 98.6085 124.147C98.6629 124.16 98.7173 124.171 98.7739 124.184C98.8457 123.912 98.9501 123.645 98.9806 123.369C99.1154 122.126 99.1785 120.873 99.3656 119.638C99.5505 118.424 99.7681 117.203 100.123 116.033C100.634 114.349 100.901 112.659 100.906 110.899C100.908 109.4 100.988 107.897 101.132 106.404C101.2 105.699 101.5 105.016 101.811 104.34C101.82 104.544 101.841 104.747 101.837 104.951C101.774 107.614 101.78 110.281 101.606 112.937C101.535 114.031 101.056 115.097 100.782 116.181C100.575 117.001 100.218 117.839 100.251 118.654C100.377 121.661 99.7093 124.467 98.5455 127.213C98.2039 128.02 98.0864 128.962 98.0451 129.851C97.9668 131.461 98.0342 133.076 98.0146 134.69C98.0081 135.134 97.9516 135.595 97.3729 136.012C97.3359 135.621 97.2641 135.347 97.2902 135.079C97.3859 134.072 97.6361 133.065 97.6035 132.064C97.5317 129.832 97.4577 127.611 97.8558 125.4C97.8841 125.244 97.8624 125.076 97.8536 124.913C97.8515 124.867 97.808 124.824 97.7014 124.628C97.5078 124.996 97.3033 125.261 97.2249 125.561C96.8573 126.962 96.5244 128.372 96.1829 129.78C95.7434 131.594 95.3997 133.437 94.8493 135.214C94.2097 137.281 93.8943 139.313 94.0923 141.505C94.3142 143.951 94.1597 146.429 94.1532 148.893C94.1532 149.25 94.114 149.629 93.9857 149.955C93.9117 150.144 93.6289 150.253 93.4396 150.397C93.3265 150.216 93.1111 150.031 93.1176 149.853C93.1459 149.113 93.2852 148.38 93.3069 147.64C93.3657 145.526 93.3852 143.409 93.4179 141.294C93.4179 141.266 93.3809 141.238 93.3026 141.123C93.2068 141.334 93.1068 141.49 93.0654 141.664C92.6847 143.265 92.2932 144.864 91.9429 146.474C91.2859 149.496 90.2286 152.315 87.9857 154.558C87.9335 154.611 87.8944 154.68 87.8356 154.713C86.7892 155.283 86.5999 156.246 86.6587 157.308C86.7218 158.442 86.8197 159.571 86.8958 160.704C86.911 160.937 86.9567 161.204 86.861 161.394C86.7631 161.587 86.5108 161.703 86.3258 161.853C86.2062 161.674 85.9886 161.498 85.9865 161.317C85.9756 160.267 86.0169 159.216 86.0409 158.167C86.0474 157.878 86.08 157.587 86.0648 157.299C86.0278 156.695 85.8472 156.525 85.249 156.538C84.7965 156.547 84.3418 156.568 83.8915 156.618C82.8299 156.738 81.7856 156.653 80.7784 156.305C80.265 156.127 80.0083 156.286 79.9387 156.782C79.7255 158.302 79.5036 159.821 79.3361 161.348C79.2599 162.046 79.3208 162.762 79.2708 163.465C79.2577 163.65 79.0554 163.821 78.9401 164C78.7487 163.843 78.4593 163.721 78.3854 163.519C78.2701 163.208 78.2766 162.845 78.2701 162.503C78.2287 160.565 78.1983 158.629 78.1656 156.69C78.1461 155.457 77.7219 154.432 76.8212 153.54C75.1961 151.928 74.5609 149.824 74.128 147.647C73.6037 145.021 73.3426 142.35 72.6051 139.756C71.4391 135.662 70.384 131.537 69.2789 127.426C69.2353 127.263 69.1505 127.11 68.9416 126.947C68.8829 127.136 68.7785 127.324 68.7741 127.515C68.7415 128.799 68.6849 130.084 68.7219 131.366C68.7915 133.791 68.9221 136.217 69.0221 138.643C69.0265 138.762 68.9939 138.886 68.9786 138.999C68.1346 139.099 67.9366 138.864 68.1346 138.118C68.2499 137.685 68.3499 137.233 68.3652 136.787C68.4674 133.937 68.2498 131.107 67.8539 128.283C67.7103 127.258 66.9837 126.58 66.5726 125.72C65.8764 124.269 65.4457 122.803 65.5414 121.178C65.5762 120.58 65.4979 119.931 65.2977 119.366C63.7619 115.021 63.6509 110.52 63.7597 105.993C63.7684 105.652 63.7597 105.308 63.7597 104.966C63.8141 104.953 63.8706 104.94 63.925 104.927C64.0512 105.336 64.2448 105.736 64.2883 106.154C64.3971 107.198 64.5124 108.249 64.4906 109.295C64.4363 112.08 65.0171 114.771 65.5784 117.467C65.6001 117.575 65.6632 117.675 65.7067 117.78C65.7589 117.775 65.8133 117.773 65.8655 117.769C65.9199 116.79 66.0592 115.804 66.0135 114.83C65.9178 112.822 65.722 110.82 65.5653 108.817C65.4217 106.963 65.0889 105.175 64.1796 103.5C63.1223 101.551 62.933 99.347 62.6219 97.1999C61.5559 89.8294 61.4102 82.3958 61.1469 74.9687C60.8685 67.0979 60.9968 59.2357 61.4385 51.3779C61.8018 44.9016 62.2281 38.4252 62.759 31.9597C63.1745 26.8865 63.7292 21.8198 64.7974 16.8293C65.0802 15.5088 65.4935 14.2166 65.8481 12.9091C65.9112 12.92 65.9765 12.9287 66.0396 12.9396C66.0396 13.1375 66.0613 13.3377 66.0374 13.5313C65.6893 16.3355 65.3021 19.1375 64.9866 21.946C64.3906 27.2585 63.7575 32.5666 63.2767 37.89C62.6132 45.2562 62.2368 52.6419 62.1281 60.0406C62.0302 66.7324 62.226 73.4154 62.6893 80.092C62.9917 84.4494 63.2049 88.8134 63.553 93.1665C63.9033 97.5349 64.5885 101.851 66.4051 105.891C68.8133 111.247 72.3223 115.685 77.4891 118.633C80.0235 120.077 82.7537 120.793 85.6949 120.175C88.1859 119.653 90.0742 118.2 91.8689 116.442C94.9994 113.372 96.6941 109.515 98.2605 105.562C99.1807 103.239 100.116 100.911 100.86 98.5291C101.959 95.0157 102.305 91.3609 102.52 87.6996C103.116 77.6054 102.923 67.5134 102.426 57.4236C102.146 51.7217 101.809 46.0219 101.397 40.3287C101.058 35.6667 100.616 31.0112 100.134 26.36C99.6832 22.0178 99.1198 17.6864 98.6042 13.3485C98.5759 13.1179 98.5367 12.8895 98.5019 12.6611C98.5389 12.6459 98.5715 12.6393 98.6064 12.6328ZM92.7957 128.002C92.7957 127.143 92.824 126.199 92.787 125.259C92.7565 124.482 92.7195 123.697 92.5607 122.94C92.3062 121.722 91.6122 121.372 90.4288 121.785C90.0372 121.922 89.6586 122.102 89.2801 122.274C88.275 122.733 87.2917 123.245 86.2649 123.647C85.0836 124.11 83.8697 124.448 82.5579 124.284C80.4477 124.021 78.4659 123.371 76.5515 122.472C75.8466 122.142 75.1526 121.78 74.4282 121.502C73.5732 121.174 73.1903 121.415 73.0946 122.313C73.0359 122.868 73.0294 123.436 73.0663 123.993C73.3383 128.205 73.6472 132.414 73.9017 136.626C74.0801 139.576 74.3869 142.504 74.9351 145.415C75.4811 148.31 76.6167 150.832 78.8988 152.761C80.2476 153.901 81.7704 154.656 83.5717 154.436C86.6674 154.06 88.8407 152.265 89.8675 149.435C90.7203 147.088 91.1924 144.579 91.6122 142.104C92.3997 137.472 92.5629 132.775 92.7957 128.002ZM73.1816 138.462C73.2491 138.455 73.3187 138.447 73.3861 138.44C73.4057 138.029 73.4732 137.614 73.4362 137.209C73.223 134.735 72.9663 132.266 72.7639 129.793C72.579 127.537 72.3941 125.281 72.3136 123.021C72.2875 122.248 72.5029 121.439 72.7509 120.693C73.0033 119.927 73.5798 119.738 74.3216 120.066C75.1983 120.453 76.0707 120.86 76.9234 121.302C80.7088 123.264 84.5224 123.312 88.3773 121.515C89.378 121.047 90.3766 120.569 91.4012 120.16C92.2453 119.825 92.7935 120.066 93.0611 120.93C93.2939 121.68 93.5201 122.49 93.481 123.26C93.2373 127.926 92.9197 132.588 92.6151 137.25C92.5825 137.753 92.4367 138.249 92.3932 138.751C92.3802 138.888 92.5455 139.041 92.6282 139.186C92.75 139.095 92.9371 139.028 92.9828 138.908C93.1176 138.556 93.2417 138.19 93.2895 137.818C93.4331 136.704 93.5288 135.586 93.6572 134.47C94.2489 129.373 94.8058 124.274 94.0074 119.144C93.953 118.791 93.8878 118.415 93.7181 118.113C93.357 117.469 92.824 117.414 92.2257 117.839C91.5317 118.332 90.8356 118.826 90.1003 119.25C87.3331 120.845 84.4049 121.761 81.1613 121.228C79.0097 120.876 77.1018 119.94 75.2657 118.815C74.6174 118.419 73.9561 118.037 73.2687 117.719C72.4594 117.345 71.9438 117.601 71.8154 118.476C71.6545 119.566 71.5196 120.671 71.5044 121.77C71.4326 127.023 72.0025 132.225 72.9119 137.392C72.975 137.751 73.0903 138.105 73.1816 138.462ZM96.8769 113.411C96.8007 113.379 96.7246 113.346 96.6506 113.314C96.4874 113.546 96.2482 113.757 96.1807 114.014C96.0545 114.499 95.9849 115.01 95.9719 115.513C95.9436 116.581 95.9697 117.649 95.9697 118.72C95.9697 118.891 95.9392 119.063 95.9218 119.235C95.8761 119.231 95.8305 119.226 95.7848 119.222C95.7108 118.45 95.6477 117.675 95.5607 116.905C95.5237 116.566 95.4911 116.209 95.3627 115.9C95.2822 115.704 95.0299 115.58 94.8537 115.424C94.7166 115.611 94.5013 115.783 94.4599 115.989C94.4012 116.281 94.4621 116.601 94.4838 116.907C94.5861 118.387 94.7601 119.866 94.7797 121.348C94.8276 124.876 94.9407 128.411 94.4534 131.927C94.4229 132.153 94.4795 132.392 94.4947 132.625C95.106 132.197 95.2387 131.588 95.3149 130.996C95.5433 129.201 95.7391 127.402 95.9153 125.601C96.0284 124.45 96.0241 123.284 96.1829 122.142C96.5288 119.668 97.0096 117.21 96.9682 114.697C96.9595 114.266 96.9073 113.84 96.8769 113.411ZM66.8249 109.134C66.7618 109.141 66.6987 109.15 66.6357 109.156C66.5834 109.317 66.4877 109.48 66.4877 109.641C66.4834 110.979 66.479 112.317 66.5073 113.653C66.5312 114.826 66.6574 115.998 66.6313 117.168C66.5965 118.724 66.4181 120.275 66.3768 121.828C66.3311 123.488 67.2861 124.826 67.8865 126.362C68.2912 125.96 68.3129 125.561 68.2194 125.176C68.0649 124.546 67.8822 123.919 67.6538 123.31C67.3536 122.505 67.2992 121.707 67.4623 120.86C67.6016 120.138 67.6973 119.394 67.6908 118.659C67.669 116.525 67.6146 114.388 67.5102 112.254C67.471 111.43 67.2774 110.609 67.1251 109.794C67.0773 109.567 66.925 109.354 66.8249 109.134ZM70.9975 124.841C71.0627 124.833 71.1258 124.824 71.1911 124.813C71.1911 124.426 71.1954 124.036 71.1911 123.649C71.1672 121.713 71.1367 119.779 71.1171 117.843C71.1106 117.247 71.1672 116.646 71.1302 116.052C71.1193 115.865 70.8974 115.691 70.7712 115.513C70.6363 115.674 70.397 115.826 70.3818 115.998C70.3013 116.825 70.2796 117.658 70.2382 118.489C70.2339 118.598 70.2404 118.707 70.2317 118.815C70.223 118.902 70.1969 118.989 70.1534 119.205C69.7988 117.971 69.3985 116.903 69.6378 115.72C69.7052 115.387 69.5856 115.002 69.4877 114.66C69.4507 114.53 69.2332 114.369 69.0961 114.371C68.9743 114.371 68.8046 114.554 68.7459 114.693C68.6632 114.886 68.6219 115.119 68.6393 115.33C68.7198 116.303 68.7132 117.301 68.9504 118.234C69.3963 119.984 69.9881 121.693 70.5232 123.419C70.669 123.895 70.8365 124.367 70.9975 124.841ZM71.4347 133.03C72.0569 131.783 70.9931 125.078 70.0664 124.28C70.1251 127.311 70.6581 130.191 71.4347 133.03ZM97.4729 118.178C96.7942 120.351 96.4526 122.572 96.4874 124.844C98.0342 122.788 97.7166 120.477 97.4729 118.178ZM68.5609 119.046C67.7843 120.421 68.1389 124.174 68.8307 124.787C69.4007 123.871 69.2527 120.421 68.5609 119.046ZM78.6573 155.407C78.7269 156.277 78.79 157.086 78.8553 157.895C78.9118 157.9 78.9662 157.904 79.0228 157.909C79.1381 157.443 79.249 156.977 79.3709 156.516C79.5862 155.705 79.5732 155.681 78.6573 155.407Z" fill="#38EB38"/>
<path d="M84.4396 0.258789C84.903 1.7207 85.436 3.16522 85.8189 4.64889C87.1589 9.85043 88.0813 15.1368 88.7557 20.4602C89.5411 26.6603 90.2807 32.8713 90.8812 39.0931C91.5839 46.3657 92.0603 53.6579 91.8275 60.9718C91.7731 62.7209 91.5055 64.4678 91.2597 66.2038C91.201 66.6237 90.9029 67.0675 90.594 67.3829C89.8457 68.1443 89.5346 69.0841 89.4475 70.0805C89.304 71.7034 89.2039 73.335 89.1908 74.9622C89.1734 77.2465 89.2583 79.5286 89.2909 81.8128C89.2953 82.1739 89.2757 82.5394 89.23 82.8962C89.1821 83.2791 88.9972 83.675 88.5795 83.6076C88.3859 83.5771 88.1227 83.1355 88.1227 82.8788C88.1162 81.5757 88.1814 80.2726 88.2293 78.9695C88.3163 76.5438 88.412 74.1203 88.4947 71.6947C88.5034 71.4684 88.4599 71.2422 88.4425 71.0138C88.3924 70.9964 88.3402 70.9811 88.2902 70.9637C88.1684 71.1813 87.9921 71.3858 87.9356 71.6186C87.5549 73.2001 87.0872 74.773 86.8587 76.3785C86.2975 80.3161 86.1191 84.282 86.3867 88.2565C86.4302 88.9048 86.5389 89.5553 86.6956 90.184C86.7608 90.4429 87.0284 90.6517 87.2046 90.8845C87.4244 90.6909 87.7202 90.5408 87.8486 90.2993C88.8058 88.5111 89.3366 86.5727 89.8021 84.6105C90.5614 81.4082 91.003 78.1711 91.114 74.8774C91.1596 73.546 91.4403 72.2212 91.6643 70.9007C91.7296 70.5178 91.9667 70.1632 92.1255 69.7933C92.1886 69.8086 92.2517 69.826 92.317 69.8412C92.317 70.3198 92.3605 70.8006 92.3083 71.2727C92.1168 73.0196 91.8123 74.7578 91.71 76.509C91.6404 77.7251 91.673 78.9934 91.9385 80.1747C92.5628 82.9484 92.5128 85.7134 92.2039 88.5024C91.8275 91.8983 91.0574 95.2072 90.1589 98.5008C89.2213 101.942 88.4425 105.43 87.5919 108.895C87.4505 109.474 87.296 110.048 87.0262 110.64C86.9675 110.427 86.887 110.216 86.8566 109.998C86.4171 106.842 85.8819 103.694 85.5709 100.524C84.4962 89.5879 84.0741 78.6105 83.6717 67.6331C83.0799 51.4889 82.7145 35.3426 82.9646 19.1876C83.0495 13.7685 83.1996 8.34936 83.8044 2.95637C83.9044 2.06008 84.0632 1.17031 84.196 0.276193C84.2786 0.274018 84.3591 0.267491 84.4396 0.258789ZM85.7231 11.3276C85.6753 11.3298 85.6252 11.3341 85.5774 11.3363C85.5491 11.482 85.4969 11.6278 85.4925 11.7736C85.4294 14.1448 85.2706 16.5183 85.3359 18.8873C85.5622 27.2172 85.845 35.5449 86.1452 43.8748C86.3018 48.2192 86.5346 52.5614 86.7478 56.9037C86.7695 57.3518 86.8348 57.8108 86.9719 58.2351C87.1285 58.7224 87.507 58.8007 87.8312 58.4091C88.1357 58.0371 88.4033 57.6107 88.5904 57.1669C89.2474 55.6071 89.5063 53.9559 89.4258 52.2764C89.2278 48.0974 89.0494 43.9139 88.7383 39.7436C88.3098 33.9829 87.8116 28.2245 87.2525 22.4747C86.924 19.1071 86.4193 15.7547 85.982 12.3957C85.932 12.0346 85.8102 11.6822 85.7231 11.3276ZM87.594 99.5168C88.6992 94.474 90.7158 89.6576 91.1422 84.4582C91.0509 84.5626 90.9791 84.6801 90.9334 84.8041C89.8652 87.7475 88.8558 90.7148 87.7115 93.63C86.9371 95.6009 87.2655 97.5371 87.594 99.5168ZM86.874 69.0123C88.5295 68.1291 90.2438 63.4692 89.5389 61.8507C89.3453 62.1357 89.1691 62.3793 89.0081 62.636C88.4599 63.5106 87.9639 64.4199 87.3634 65.2553C86.5107 66.4344 86.9088 67.7005 86.874 69.0123ZM86.8914 63.2974C88.7035 62.9906 90.3482 58.7963 89.6477 57.3823C89.4889 57.552 89.3388 57.6934 89.2126 57.8544C88.7427 58.4504 88.3293 59.1009 87.8029 59.6404C86.7826 60.6933 86.961 61.9877 86.8914 63.2974Z" fill="#38EB38"/>
<path d="M71.6169 5.60596C71.6169 5.7974 71.6191 5.99102 71.6169 6.18246C71.5081 12.2542 71.3297 18.3238 71.308 24.3955C71.2688 35.4143 71.2884 46.4352 71.3602 57.4561C71.3928 62.5489 71.5168 67.6438 71.7518 72.7301C72.065 79.535 72.4305 86.342 72.9483 93.1338C73.4987 100.363 74.5059 107.544 75.7829 114.684C75.8112 114.836 75.8199 114.993 75.8395 115.147C75.7894 115.176 75.7416 115.206 75.6915 115.234C75.387 114.828 75.0324 114.447 74.7844 114.007C73.8902 112.43 73.416 110.699 73.0396 108.941C72.0628 104.379 71.6365 99.7386 71.06 95.1179C70.6684 91.9917 70.1985 88.8743 69.6437 85.7742C69.3587 84.1752 68.5582 82.7416 67.5792 81.4429C67.3878 81.1883 67.0179 81.0643 66.7308 80.8816C66.6176 81.1905 66.3979 81.5038 66.411 81.8083C66.5197 84.16 66.585 86.5182 66.8352 88.8568C67.2833 93.0359 67.7467 97.2237 68.8083 101.303C69.5937 104.316 70.5487 107.285 71.4276 110.274C71.4776 110.444 71.5233 110.614 71.5299 110.807C70.6727 109.963 69.994 108.997 69.4349 107.942C67.8142 104.884 66.9135 101.583 66.1956 98.2266C65.2689 93.8952 64.7554 89.5073 64.4248 85.0933C63.9657 78.9628 63.6612 72.8258 63.7613 66.6801C63.8722 59.9753 64.0093 53.2705 64.2703 46.5701C64.5597 39.18 65.1949 31.8139 66.089 24.4695C66.8548 18.1802 68.5647 12.1541 71.0795 6.34997C71.1927 6.08674 71.3362 5.83874 71.4646 5.58203C71.5146 5.58638 71.5668 5.59508 71.6169 5.60596ZM69.498 17.0816C69.3892 17.323 69.2391 17.5558 69.1804 17.8103C68.8867 19.0786 68.5364 20.3426 68.3515 21.6283C67.5379 27.2845 67.1833 32.9799 66.9331 38.684C66.6481 45.1843 66.4414 51.6868 66.7134 58.1936C66.7786 59.7708 67.1311 61.2871 67.7032 62.7403C68.06 63.6475 68.5995 64.4829 69.0564 65.3509C68.4168 49.2372 69.0629 33.1779 69.498 17.0816ZM66.6546 62.6359C66.6024 62.6446 66.5502 62.6511 66.498 62.6598C66.498 63.2494 66.5023 63.8389 66.498 64.4285C66.4806 66.741 67.3747 68.7664 68.4929 70.7156C68.6125 70.9245 69.0107 71.1855 69.1521 71.1246C69.3718 71.0311 69.598 70.6873 69.6154 70.4371C69.6503 69.902 69.5915 69.3516 69.498 68.8208C69.1129 66.6148 67.8729 64.7787 66.8765 62.8361C66.8352 62.7534 66.7308 62.7034 66.6546 62.6359ZM68.9606 78.3907C69.0694 76.8004 69.2674 75.3385 68.3276 74.0288C68.0121 73.5894 67.775 73.0934 67.4683 72.6452C67.2442 72.3189 66.9875 72.0057 66.6981 71.7381C66.3196 71.39 65.9846 71.4879 65.9476 71.9904C65.915 72.4603 65.9215 73.0064 66.1238 73.411C66.9179 74.9926 67.7946 76.5328 68.6452 78.0861C68.6909 78.1709 68.7909 78.2297 68.9606 78.3907ZM66.2652 75.8606C66.1934 75.9106 66.1195 75.9585 66.0477 76.0085C65.9889 77.1267 66.2478 78.1709 66.8787 79.1107C67.4008 79.8874 67.9556 80.6423 68.4994 81.4037C68.5995 81.5451 68.7191 81.6713 68.8301 81.804C68.8823 81.7757 68.9323 81.7496 68.9846 81.7213C68.8606 81.2014 68.7975 80.6575 68.6039 80.1659C68.1535 79.0281 67.6706 77.9012 67.1332 76.8026C66.9527 76.4349 66.5611 76.1717 66.2652 75.8606Z" fill="#38EB38"/>
<path d="M96.6253 74.88C96.6253 75.0496 96.6253 75.2193 96.6253 75.389C96.6123 80.484 96.6602 85.5789 96.5666 90.6695C96.4687 96.0364 96.1315 101.392 94.9785 106.659C94.5543 108.595 93.9517 110.473 92.9771 112.213C92.9075 112.339 92.827 112.459 92.7443 112.579C92.7291 112.6 92.6812 112.6 92.592 112.627C92.7574 111.68 92.9205 110.758 93.0793 109.835C94.0431 104.288 94.5151 98.6948 94.6979 93.0734C94.9872 84.1692 94.6348 75.2737 94.2584 66.3826C93.9082 58.1245 93.4883 49.8707 93.0771 41.6148C92.8487 37.0529 92.703 32.4822 92.2875 27.9377C91.6979 21.4961 90.9126 15.0741 90.1729 8.64776C89.8792 6.09376 89.4789 3.55281 89.2266 0.953125C89.3419 1.15327 89.468 1.34688 89.5725 1.55355C90.7102 3.80734 91.3368 6.22429 91.8371 8.68039C92.8857 13.821 93.4296 19.0291 93.8929 24.2481C94.5891 32.1015 95.2135 39.9593 95.9771 47.8062C96.4339 52.4944 97.0496 57.1716 98.3527 61.7227C98.4049 61.9076 98.4702 62.0882 98.6007 62.2622C98.592 52.9512 97.9067 43.6837 96.9843 34.4293C96.0619 25.1726 95.133 15.9182 93.5166 6.7464C93.5927 6.72464 93.6711 6.70289 93.7472 6.68114C94.2693 8.15611 94.8523 9.61367 95.3027 11.1104C96.6079 15.4461 97.2867 19.908 97.9045 24.3808C98.8552 31.2618 99.3925 38.1798 99.8885 45.1043C100.75 57.1694 101.198 69.2477 101.059 81.3454C101.007 85.803 100.926 90.2649 100.315 94.6919C100.026 96.7956 99.6471 98.8819 98.8204 100.855C98.6703 101.214 98.4701 101.549 98.2918 101.897C98.2439 101.886 98.1982 101.878 98.1503 101.867C98.1503 101.68 98.1373 101.492 98.1525 101.308C98.3548 98.7057 98.5724 96.106 98.7682 93.502C99.2402 87.241 98.6877 81.0844 96.8625 75.0605C96.8429 74.9952 96.8037 74.9365 96.7733 74.8734C96.7254 74.8712 96.6754 74.8756 96.6253 74.88ZM98.9879 77.7798C99.373 75.4412 97.191 63.9808 96.0989 62.4776C95.7878 63.5827 98.2265 76.6334 98.9879 77.7798ZM98.6224 68.0316C98.4375 64.6291 97.8023 61.3289 96.3512 58.2202C96.7124 61.5813 97.4085 64.8663 98.6224 68.0316Z" fill="#38EB38"/>
<path d="M92.3068 100.862C92.2263 102.43 92.2089 104.003 92.0479 105.563C91.7586 108.361 91.0015 111.041 89.7354 113.562C88.9827 115.063 88.0581 116.442 86.7267 117.506C85.0146 118.872 83.0219 118.955 81.2619 117.643C79.7326 116.503 78.6013 115.057 78.0335 113.19C77.1633 110.334 76.713 107.401 76.2997 104.456C75.1641 96.3346 74.6616 88.1592 74.2417 79.9794C73.4759 65.0601 73.0495 50.132 73.1909 35.1952C73.2605 27.8399 73.5434 20.4847 73.8523 13.1338C74.0154 9.22661 74.3983 5.32382 75.2272 1.48412C75.2489 1.38405 75.2837 1.28615 75.436 1.19043C75.4926 2.0976 75.5992 3.00695 75.6014 3.91412C75.6144 9.65954 75.56 15.405 75.6144 21.1504C75.7058 30.8095 75.845 40.4707 75.9951 50.1298C76.1039 57.0522 76.2105 63.9767 76.415 70.8969C76.5977 77.0382 76.8588 83.1774 77.1829 89.31C77.4962 95.1925 78.0357 101.062 79.2344 106.84C79.6194 108.693 80.2373 110.503 80.8355 112.305C81.0596 112.977 81.4686 113.614 81.9059 114.18C82.9457 115.524 84.6426 115.766 86.0697 114.822C87.4011 113.941 88.2038 112.616 88.9174 111.245C90.1422 108.891 90.723 106.322 91.3104 103.759C91.5367 102.776 91.8021 101.802 92.0501 100.825C92.1371 100.842 92.2219 100.853 92.3068 100.862Z" fill="#38EB38"/>
<path d="M79.7246 0C79.766 0.909346 79.8182 1.78606 79.8421 2.66278C80.0836 11.1058 80.349 19.5488 80.547 27.9939C80.7297 35.7691 80.8146 43.5442 80.9821 51.3193C81.2148 62.0836 81.4433 72.85 81.7522 83.612C81.9175 89.4096 82.2156 95.2029 82.5092 100.996C82.7137 105.019 83.1162 109.022 84.2235 112.918C84.2431 112.983 84.2409 113.055 84.254 113.168C83.7123 113.242 83.3142 112.992 83.1184 112.581C82.7181 111.736 82.2939 110.877 82.0807 109.977C81.1931 106.248 80.7972 102.441 80.4404 98.6336C79.6202 89.8948 79.2352 81.132 78.8871 72.3648C78.2845 57.1104 77.9799 41.8517 78.0909 26.5864C78.1344 20.6061 78.3367 14.6257 78.5086 8.64749C78.5869 5.92816 78.7979 3.21752 79.481 0.565624C79.5223 0.406814 79.5637 0.25018 79.6115 0.0957212C79.6202 0.071791 79.6616 0.0543868 79.7246 0Z" fill="#38EB38"/>
<path d="M74.5759 129.591C74.7412 130.787 74.9196 131.982 75.0697 133.178C75.5831 137.314 76.0573 141.454 76.6012 145.585C76.8557 147.525 77.6977 149.211 79.1443 150.569C81.9159 153.171 86.1559 152.603 88.1269 149.368C89.0688 147.821 89.5822 146.109 89.7737 144.343C90.1 141.336 90.2806 138.317 90.5286 135.301C90.633 134.02 90.7418 132.737 90.8745 131.457C90.9136 131.068 91.0398 130.689 91.1247 130.307C91.1725 130.313 91.2182 130.32 91.2661 130.324C91.2269 131.185 91.1921 132.049 91.1464 132.911C90.9745 136.222 90.8049 139.533 90.6199 142.844C90.4872 145.202 89.9303 147.445 88.9013 149.59C86.7846 154.008 81.9572 154.204 78.7897 151.452C77.2821 150.142 76.4489 148.45 76.1683 146.516C75.694 143.238 75.2611 139.95 74.8978 136.657C74.6629 134.533 74.5867 132.393 74.441 130.261C74.4257 130.045 74.4388 129.828 74.4388 129.613C74.4867 129.606 74.5302 129.6 74.5759 129.591Z" fill="#38EB38"/>
<path d="M86.9354 135.249C86.5221 136.641 86.1109 138.031 85.6976 139.424C85.641 139.415 85.5844 139.406 85.5279 139.398C85.5279 138.651 85.5279 137.907 85.5279 137.15C85.0144 137.07 84.7273 137.194 84.6425 137.675C84.5359 138.284 84.4097 138.888 84.2356 139.489C83.9485 138.812 84.2944 138.029 83.8528 137.407C83.7831 137.398 83.7113 137.39 83.6417 137.381C83.4742 138.123 83.3045 138.865 83.137 139.604C83.0826 139.606 83.0304 139.609 82.976 139.611C82.7889 138.88 82.5997 138.149 82.4126 137.418C82.3321 137.42 82.2494 137.42 82.1689 137.422C82.0776 138.034 81.9862 138.647 81.8948 139.258C81.8513 139.263 81.81 139.265 81.7665 139.269C81.6512 138.734 81.5337 138.199 81.4227 137.664C81.3357 137.244 81.0964 137.05 80.6048 137.098C80.6048 137.966 80.6048 138.81 80.6048 139.726C80.124 139.113 79.1233 135.891 79.1972 135.342C81.7338 135.71 84.2704 136.204 86.7722 135.116C86.8266 135.162 86.881 135.205 86.9354 135.249Z" fill="#38EB38"/>
<path d="M89.5911 131.634C89.5803 131.481 89.5694 131.327 89.5607 131.175C89.4258 129.136 89.28 127.1 89.1734 125.059C89.1582 124.77 89.2539 124.363 89.4541 124.193C90.0045 123.726 90.6375 123.354 91.3163 123.008C91.3968 126.051 90.8638 128.91 89.7391 131.651C89.689 131.644 89.6412 131.64 89.5911 131.634Z" fill="#38EB38"/>
<path d="M76.7213 131.685C75.2137 128.988 74.6503 126.064 74.4414 123.031C75.5226 123.049 76.6212 124.217 76.6256 125.198C76.6321 126.986 76.6887 128.777 76.7191 130.565C76.7256 130.937 76.7213 131.311 76.7213 131.685Z" fill="#38EB38"/>
<path d="M83.751 141.269C83.8075 141.671 83.8402 142.078 83.9337 142.47C83.9707 142.624 84.1404 142.746 84.2513 142.883C84.3905 142.766 84.6081 142.672 84.6538 142.526C84.8343 141.946 84.9627 141.347 85.239 140.747C85.289 140.923 85.3652 141.099 85.3847 141.28C85.437 141.728 85.4826 142.18 85.4979 142.631C85.5392 143.742 85.4805 143.873 84.3797 143.921C83.3398 143.964 82.2934 143.86 81.2513 143.799C80.8511 143.775 80.6683 143.534 80.6531 143.112C80.6226 142.309 80.466 141.504 80.8685 140.701C80.9381 141.023 81.0033 141.347 81.0751 141.669C81.1382 141.952 81.1643 142.25 81.2818 142.511C81.3645 142.696 81.569 142.829 81.7212 142.985C81.8104 142.814 81.9475 142.65 81.978 142.47C82.0454 142.07 82.0606 141.663 82.0976 141.258C82.152 141.254 82.2086 141.252 82.2629 141.247C82.3347 141.621 82.4043 141.996 82.4761 142.37C82.5262 142.631 82.5153 142.92 82.9221 142.92C83.2941 142.92 83.3681 142.707 83.4116 142.411C83.4681 142.037 83.5486 141.667 83.6204 141.295C83.6618 141.282 83.7074 141.276 83.751 141.269Z" fill="#38EB38"/>
<path d="M81.7373 130.84C81.5045 130.296 81.2348 129.856 81.1282 129.38C80.8845 128.294 80.7127 127.192 80.5234 126.093C80.4538 125.686 80.6539 125.564 81.052 125.582C81.9984 125.623 82.5248 126.034 82.4443 126.92C82.3356 128.138 82.0919 129.343 81.9027 130.555C81.8939 130.614 81.8396 130.668 81.7373 130.84Z" fill="#38EB38"/>
<path d="M88.5644 141.586C88.8429 143.696 89.3041 145.817 87.9226 147.753C87.5963 148.21 87.4636 148.315 86.9023 148.356C87.2069 146.026 87.7921 143.785 88.5644 141.586Z" fill="#38EB38"/>
<path d="M77.7745 141.715C78.475 143.925 79.0819 146.157 79.3756 148.52C78.8731 148.578 78.6251 148.302 78.4097 147.991C77.7353 147.01 77.3437 145.933 77.4046 144.728C77.4569 143.725 77.5417 142.726 77.6113 141.726C77.6657 141.719 77.7201 141.717 77.7745 141.715Z" fill="#38EB38"/>
<path d="M84.1886 130.772C84.1016 130.578 83.9797 130.395 83.9362 130.195C83.7121 129.173 83.4663 128.15 83.3053 127.117C83.1509 126.116 83.6926 125.596 84.6955 125.72C84.839 125.738 85.0675 125.925 85.0783 126.047C85.2197 127.656 85.0239 129.218 84.3234 130.693C84.3147 130.719 84.2691 130.728 84.1886 130.772Z" fill="#38EB38"/>
<path d="M86.8597 130.466C86.7596 129.795 86.6595 129.125 86.5616 128.453C86.4833 127.916 86.4115 127.376 86.3289 126.841C86.1657 125.775 86.3115 125.499 87.2795 125.057C87.8778 124.783 88.1671 124.957 88.0888 125.616C87.967 126.639 87.7929 127.657 87.6059 128.671C87.5254 129.112 87.3666 129.543 87.2273 129.972C87.1686 130.15 87.0685 130.313 86.988 130.485C86.9467 130.476 86.9032 130.472 86.8597 130.466Z" fill="#38EB38"/>
<path d="M78.8741 130.52C78.7284 130.22 78.6174 130.072 78.5826 129.906C78.2802 128.46 77.9495 127.017 77.7124 125.56C77.5884 124.794 77.9321 124.618 78.6348 124.979C79.4724 125.41 79.592 125.649 79.4593 126.576C79.3027 127.666 79.1526 128.758 78.9981 129.85C78.9764 130.019 78.9372 130.191 78.8741 130.52Z" fill="#38EB38"/>
<path d="M80.1597 145.323C80.7145 146.439 81.1996 147.575 81.1974 148.845C81.1974 149.091 81.0821 149.383 80.9211 149.568C80.7688 149.742 80.4121 149.868 80.3337 149.489C80.0509 148.117 79.8812 146.731 80.1597 145.323Z" fill="#38EB38"/>
<path d="M86.2699 145.197C86.5179 146.587 86.3678 147.943 86.1198 149.294C86.0589 149.622 85.7674 149.624 85.6412 149.476C85.4389 149.239 85.2322 148.906 85.2344 148.615C85.2409 147.384 85.713 146.272 86.2699 145.197Z" fill="#38EB38"/>
<path d="M84.6406 146.448C84.5884 147.553 84.5471 148.656 84.4644 149.759C84.4557 149.879 84.1794 150.096 84.0815 150.07C83.8792 150.016 83.5659 149.835 83.5572 149.69C83.5246 149.194 83.5333 148.671 83.6573 148.193C83.8183 147.575 84.1076 146.992 84.3404 146.392C84.4405 146.413 84.5406 146.431 84.6406 146.448Z" fill="#38EB38"/>
<path d="M81.8359 146.453C82.5081 147.41 82.8932 148.418 82.8258 149.566C82.804 149.949 82.606 150.058 82.2797 150.091C81.9229 150.125 81.8381 149.906 81.8359 149.623C81.8316 148.566 81.8359 147.508 81.8359 146.453Z" fill="#38EB38"/>
</svg>
