<svg width="26" height="26" viewBox="0 0 26 26" fill="none" xmlns="http://www.w3.org/2000/svg">
<path d="M4.99638 25.4106C5.09611 25.4776 5.20831 25.507 5.33298 25.4986C5.45764 25.4902 5.60725 25.4232 5.78178 25.2974L13 19.9783L20.2182 25.2974C20.3928 25.4232 20.5424 25.4902 20.667 25.4986C20.7917 25.507 20.9039 25.4776 21.0036 25.4106C21.1034 25.3351 21.1698 25.2345 21.2031 25.1088C21.2363 24.9914 21.2197 24.8196 21.1532 24.5932L18.3856 16.0298L25.6288 10.7484C25.8116 10.6143 25.9238 10.4885 25.9654 10.3712C26.0069 10.2454 26.0111 10.1281 25.9778 10.0191C25.9446 9.9101 25.8739 9.81789 25.7659 9.74244C25.6579 9.66699 25.4875 9.62927 25.2548 9.62927L16.3286 9.64184L13.5859 1.07844C13.5111 0.852093 13.4239 0.701196 13.3241 0.625747C13.2244 0.541916 13.1164 0.5 13 0.5C12.8836 0.5 12.7756 0.541916 12.6759 0.625747C12.5761 0.701196 12.4889 0.852093 12.4141 1.07844L9.67139 9.64184L0.745232 9.62927C0.51252 9.62927 0.342142 9.66699 0.234097 9.74244C0.126052 9.81789 0.0554076 9.9101 0.022163 10.0191C-0.0110815 10.1281 -0.00692595 10.2454 0.0346297 10.3712C0.0761854 10.4885 0.188386 10.6143 0.371231 10.7484L7.61438 16.0298L4.84678 24.5932C4.78029 24.8196 4.76367 24.9914 4.79691 25.1088C4.83015 25.2345 4.89664 25.3351 4.99638 25.4106Z" fill="#FF9F0A"/>
</svg>
