<svg width="164" height="164" viewBox="0 0 164 164" fill="none" xmlns="http://www.w3.org/2000/svg">
<path d="M80.4235 87.633C79.7064 87.1895 79.0357 86.7245 78.3204 86.3436C77.2044 85.7498 76.0544 85.224 74.9277 84.6517C72.9676 83.6556 70.9628 82.7309 69.0813 81.6024C68.1227 81.0283 67.3662 80.1001 66.5614 79.29C66.1161 78.8411 65.6797 78.3439 65.3864 77.7913C65.1164 77.2834 65.0109 76.6771 64.891 76.1012C64.8249 75.7865 64.8642 75.4467 64.8821 75.1212C64.9071 74.6884 64.7444 74.3754 64.3688 74.159C62.8934 73.3095 62.1208 71.9556 61.6593 70.3783C61.3303 69.2551 61.2981 68.1141 61.5109 66.9731C61.6522 66.2201 61.8436 65.4744 62.0564 64.7393C62.1673 64.3566 62.0242 64.1134 61.7845 63.863C60.8724 62.9098 60.0819 61.885 59.6456 60.6081C59.0983 59.002 58.8175 57.3638 58.8551 55.6666C58.8748 54.7974 58.8372 53.9211 58.4545 53.1181C58.34 52.8767 58.0557 52.7229 57.9072 52.4922C57.4726 51.8197 57.072 51.124 56.6464 50.4444C56.4336 50.1046 56.1939 49.7809 55.9703 49.4483C55.4141 48.6256 54.8615 47.8029 54.3053 46.9802C54.1479 46.7477 53.9476 46.5349 53.8368 46.2809C53.3002 45.0469 53.9011 43.2585 55.0672 42.5574C55.475 42.3124 55.9006 42.0924 56.2923 41.8224C56.7465 41.5076 56.759 41.3163 56.4139 40.8763C56.1402 40.5258 55.8183 40.2074 55.5823 39.8337C54.8883 38.7338 54.8973 37.4908 54.9027 36.2479C54.908 34.6311 55.8595 33.5098 56.8717 32.417C58.2774 30.8987 59.98 29.7863 61.7881 28.8205C63.0615 28.1391 64.333 27.4524 65.6314 26.821C67.5647 25.8821 69.6179 25.3349 71.7586 25.1381C73.7903 24.9503 75.8255 24.784 77.8697 24.9611C80.175 25.1596 80.7634 26.0001 81.4483 28.0425C81.9044 29.4035 81.8436 30.8379 81.7577 32.2543C81.7112 33.0251 81.6146 33.7959 81.4912 34.5596C81.4233 34.9816 81.2784 35.3948 81.1246 35.7954C80.9547 36.2353 80.6131 36.5 80.1642 36.6646C79.6205 36.8631 79.0876 37.0974 78.5725 37.3603C78.4223 37.4372 78.3508 37.6661 78.2434 37.827C78.4008 37.9182 78.5511 38.0649 78.7174 38.0899C79.4095 38.1901 80.1177 38.1972 80.7991 38.3385C82.0063 38.5889 82.4659 39.1219 82.5947 40.3416C82.8075 42.3446 82.4838 44.2886 81.865 46.1897C81.5824 47.0607 80.9368 47.5829 80.1463 47.9692C79.7332 48.1713 79.3183 48.3752 78.9213 48.6095C78.8175 48.6703 78.7281 48.8438 78.7281 48.9654C78.7281 49.0369 78.9105 49.1424 79.025 49.1728C79.7153 49.3588 80.411 49.518 81.1014 49.7022C82.2603 50.0098 82.8844 50.7628 82.9792 51.9664C83.1455 54.0713 83.0454 56.1674 82.7396 58.2491C82.5017 59.8766 81.7023 60.617 79.9907 60.9961C79.7296 61.0534 79.4542 61.0748 79.2074 61.1678C79.0697 61.2197 78.9749 61.3824 78.8605 61.4969C78.9892 61.5756 79.1144 61.7115 79.2486 61.7222C80.2036 61.8027 81.0209 62.1586 81.5807 62.9509C81.7845 63.2406 81.9437 63.618 81.9688 63.9667C82.0653 65.3188 82.0796 66.6744 82.1601 68.0283C82.2585 69.6897 81.5413 70.8611 80.0998 71.6301C79.8763 71.75 79.642 71.8573 79.4417 72.0075C79.2825 72.1273 79.1216 72.2865 79.0429 72.4636C78.8623 72.8713 79.0286 73.0448 79.4721 72.984C79.9425 72.9196 80.4182 72.882 80.8885 72.8212C81.3035 72.7694 81.5342 72.9679 81.6468 73.3452C81.9312 74.3021 81.9741 75.2732 81.5574 76.1871C81.1389 77.1045 80.699 78.0327 80.1142 78.8447C79.7135 79.4009 79.0751 79.8051 78.4956 80.2092C77.8464 80.6617 77.7552 80.7637 78.0879 81.4737C78.5743 82.511 79.152 83.5053 79.5991 84.5569C79.9693 85.4279 80.2089 86.3543 80.5022 87.2574C80.5237 87.3254 80.5166 87.4059 80.5094 87.4774C80.504 87.5114 80.47 87.549 80.4235 87.633ZM74.2213 73.2505C74.6308 73.1932 75.0547 73.1754 75.4464 73.0555C75.6002 73.009 75.7593 72.7318 75.7683 72.553C75.7736 72.4188 75.5662 72.2203 75.4088 72.1488C75.1709 72.0397 74.8973 71.9843 74.6326 71.9574C73.6937 71.8609 72.567 70.8701 72.4954 69.924C72.3846 68.4414 72.3398 66.9516 72.3166 65.4636C72.3005 64.4371 72.7548 63.6716 73.7366 63.2442C74.1032 63.085 74.4448 62.8615 74.7739 62.6308C74.9009 62.5413 75.0261 62.3571 75.0279 62.2141C75.0279 62.1175 74.824 61.978 74.6863 61.9315C74.3626 61.8224 74.0281 61.7294 73.6919 61.6793C72.6296 61.5202 71.9196 60.93 71.4421 59.9821C70.2939 57.6983 70.2206 55.2767 70.5729 52.8266C70.6981 51.9556 71.0862 51.1222 72.0662 50.82C72.3917 50.7198 72.7387 50.6859 73.0642 50.5803C73.3414 50.4909 73.6418 50.3943 73.8564 50.2119C74.2642 49.8614 74.1319 49.3749 73.6132 49.2336C73.3843 49.171 73.1446 49.1478 72.9104 49.1174C71.9178 48.985 71.0075 48.7061 70.487 47.7457C70.3457 47.4846 70.2259 47.2127 70.0954 46.9445C69.3997 45.5155 68.8184 44.0472 68.8005 42.4322C68.7827 40.7726 69.2298 39.7514 70.9324 39.0289C71.5959 38.7463 72.3452 38.6783 73.0355 38.453C73.2466 38.3832 73.3914 38.1114 73.5667 37.9308C73.395 37.7966 73.2394 37.616 73.0445 37.5409C72.7995 37.4461 72.5223 37.43 72.2558 37.3942C71.7979 37.3334 71.3365 37.2977 70.8805 37.2297C69.7234 37.0562 68.9651 36.4499 68.7987 35.241C68.6843 34.4165 68.5967 33.5867 68.4858 32.7622C68.4661 32.612 68.391 32.4671 68.3409 32.3205C68.1746 32.3974 67.96 32.4313 67.8509 32.5583C66.5274 34.0892 65.2398 35.6523 63.9002 37.1707C62.9953 38.1955 62.0832 39.2292 60.7419 39.7335C60.5147 39.8193 60.2983 39.9928 60.1356 40.177C59.9907 40.3416 59.9264 40.5794 59.8262 40.7833C60.0354 40.8602 60.2393 40.9783 60.4557 41.0051C61.1461 41.0945 61.8436 41.1356 62.5339 41.2268C63.1616 41.3091 63.53 41.7169 63.7357 42.2927C64.0272 43.1047 64.3617 43.9023 64.6049 44.7286C64.9626 45.9429 65.2881 47.1698 65.263 48.4539C65.2451 49.3678 64.8803 50.0992 64.0737 50.5696C63.4692 50.9219 62.8451 51.2421 62.2531 51.6123C61.7148 51.9485 61.7345 52.3187 62.3336 52.5208C63.0346 52.7568 63.7625 52.9697 64.4922 53.0394C65.7137 53.1557 66.4649 53.7924 66.8851 54.8869C67.5218 56.5501 67.9725 58.2581 68.053 60.0465C68.087 60.7905 67.901 61.4647 67.3 61.9708C66.6848 62.4895 66.066 63.0028 65.4687 63.5411C65.331 63.6645 65.2738 63.8755 65.179 64.0472C65.3453 64.1187 65.5063 64.2332 65.6779 64.2547C67.4217 64.4782 68.3677 65.3224 68.8828 67.0267C69.262 68.2786 69.3424 69.5413 69.1797 70.8236C69.1546 71.0203 69.0205 71.2492 68.8667 71.3744C67.8831 72.1685 66.8744 72.9339 65.8836 73.719C65.7459 73.8281 65.6583 74.0034 65.5474 74.1483C65.7262 74.2144 65.9122 74.3521 66.0839 74.336C67.343 74.2162 68.6002 74.0767 69.8557 73.9193C70.149 73.8818 70.3422 73.9122 70.4548 74.2144C70.7678 75.0514 71.0665 75.8938 71.4224 76.7129C71.6817 77.3066 72.0144 77.8682 72.3381 78.4315C72.3881 78.5192 72.5813 78.5997 72.6707 78.5693C72.7619 78.5389 72.837 78.3761 72.8656 78.2581C72.9282 77.9988 72.973 77.7323 72.998 77.4658C73.0964 76.3999 73.2645 75.334 73.2537 74.2681C73.2466 73.1914 73.1679 73.1932 74.2213 73.2505Z" fill="#AEF63D"/>
<path d="M112.703 41.2626C112.662 42.7506 112.558 44.2135 111.968 45.6031C111.349 47.0607 110.251 47.9173 108.725 48.275C108.482 48.3323 108.26 48.4807 108.028 48.5862C108.166 48.8169 108.293 49.0548 108.443 49.2748C108.516 49.3821 108.625 49.4733 108.736 49.5484C110.201 50.5428 110.589 52.0307 110.272 53.6081C109.777 56.069 109.112 58.4995 108.432 60.9192C108.067 62.2141 107.189 63.1369 105.893 63.6198C105.633 63.7163 105.394 63.8862 105.165 64.049C104.923 64.2225 104.907 64.4496 105.14 64.6463C105.318 64.7983 105.513 64.9432 105.721 65.0505C106.007 65.1989 106.155 65.4046 106.12 65.7283C105.864 68.0515 105.723 70.4086 104.777 72.5834C104.478 73.2701 103.965 73.9014 103.432 74.4415C101.885 76.01 100.248 77.4837 98.4366 78.7552C97.3313 79.5314 96.2904 80.397 94.9366 80.7511C94.4251 80.8853 93.9458 81.1517 93.4594 81.3753C93.302 81.4486 93.1303 81.5488 93.0301 81.6829C92.1699 82.8561 91.0021 83.6824 89.87 84.5569C88.3605 85.7248 86.8565 86.9087 85.0931 87.6652C84.3849 87.9692 83.5837 88.0694 82.8182 88.225C82.4498 88.3001 82.4265 87.9567 82.4033 87.7206C82.2692 86.3829 82.1779 85.0362 82.4748 83.7146C82.7181 82.6308 82.9809 81.5345 83.3994 80.5115C83.6606 79.8748 84.2293 79.3651 84.6585 78.7982C84.9447 78.4208 85.254 78.056 85.5116 77.6589C85.7602 77.2744 85.787 76.847 85.576 76.4213C85.1128 75.4842 84.6925 74.5399 84.6263 73.4668C84.6013 73.0609 84.6961 72.9715 85.0967 72.9393C85.7602 72.8874 86.4237 72.7533 87.0711 72.5923C87.2571 72.5458 87.4771 72.3026 87.5182 72.1148C87.5468 71.9807 87.3376 71.7124 87.173 71.6355C86.8279 71.4745 86.4487 71.3762 86.0731 71.2993C85.2075 71.124 84.857 70.7824 84.7533 69.9132C84.5297 68.0443 84.7426 66.1951 85.0519 64.3548C85.2058 63.4427 85.8174 62.9938 86.6526 62.7506C87.08 62.6254 87.4967 62.4573 87.9027 62.2766C88.0315 62.2194 88.1871 62.0549 88.1907 61.9351C88.1942 61.8313 88.0207 61.6757 87.892 61.6203C87.4967 61.4504 87.0908 61.3002 86.6794 61.1768C86.2162 61.0373 85.8854 60.7887 85.7655 60.2986C85.2487 58.1972 84.8177 56.0726 84.8642 53.9032C84.8964 52.4045 85.2415 50.9666 86.531 49.9669C87.2839 49.3821 88.1388 49.0172 89.0562 48.7704C89.2744 48.7114 89.6321 48.5129 89.6232 48.4038C89.5999 48.1427 89.4479 47.8476 89.2565 47.6562C89.0545 47.4541 88.7629 47.3146 88.4857 47.2199C87.8383 47.0017 87.4645 46.5349 87.1891 45.9465C86.4559 44.3816 86.1894 42.7112 86.0767 41.0086C85.9855 39.6333 86.0553 38.2688 86.4952 36.9471C86.8994 35.7346 87.731 35.0496 89.0294 34.9745C89.3567 34.9566 89.6894 34.9584 90.0077 34.8922C90.1651 34.86 90.3564 34.7169 90.4101 34.5757C90.4441 34.4916 90.2634 34.2949 90.1418 34.1876C90.047 34.1035 89.9022 34.0695 89.7734 34.0356C87.7811 33.5223 86.5238 32.1577 85.5491 30.4408C84.8517 29.2104 84.3956 27.8887 84.0165 26.542C83.8072 25.8016 83.7267 25.0237 83.6105 24.2582C83.5604 23.9238 83.7786 23.9828 83.9807 24.0597C84.5923 24.294 85.1932 24.564 85.8192 24.7518C88.0905 25.4332 90.4047 25.9304 92.7547 26.2469C94.7256 26.5134 96.632 27.0088 98.5188 27.6401C101.069 28.4932 103.557 29.484 105.891 30.8182C107.195 31.5639 108.448 32.4009 109.695 33.2379C110.04 33.4704 110.297 33.8442 110.571 34.1715C110.838 34.4898 111.059 34.8457 111.326 35.1641C112.073 36.0547 112.261 37.1528 112.424 38.2384C112.578 39.2399 112.615 40.2539 112.703 41.2626ZM99.1609 75.4413C99.3898 75.3304 99.6044 75.2928 99.6402 75.1909C99.6813 75.0764 99.5937 74.8779 99.5007 74.7635C99.1931 74.3825 98.9051 73.9605 98.5242 73.6654C97.6157 72.9643 97.3742 72.0486 97.4958 70.9738C97.6049 69.9973 97.6514 69.0101 97.8231 68.0443C98.0127 66.9784 98.2756 65.9215 98.5778 64.8824C98.7835 64.1777 99.3129 63.7861 100.078 63.7575C100.703 63.7342 101.328 63.7145 101.951 63.652C102.371 63.609 102.468 63.3801 102.224 63.0421C102.044 62.7917 101.82 62.5628 101.586 62.3589C101.049 61.8939 100.661 61.3395 100.545 60.6349C100.456 60.093 100.373 59.5421 100.372 58.9949C100.357 56.01 101.216 53.2343 102.509 50.5857C102.734 50.1243 103.212 49.7541 103.643 49.4357C104.031 49.1478 104.519 48.9993 104.952 48.7668C105.081 48.6971 105.252 48.5558 105.252 48.4449C105.252 48.3287 105.091 48.1856 104.968 48.0998C104.517 47.7832 104.036 47.5078 103.6 47.1751C102.945 46.6744 102.421 46.0484 102.294 45.2114C102.03 43.457 102.022 41.7151 102.627 40.0053C102.927 39.154 103.492 38.6229 104.338 38.4011C104.721 38.301 105.136 38.3331 105.531 38.2723C105.717 38.2437 105.891 38.1382 106.071 38.0667C105.96 37.9039 105.88 37.7054 105.735 37.5856C103.94 36.1066 101.813 35.4126 99.5579 35.0997C97.7158 34.8439 95.8594 34.6848 94.0084 34.488C93.7545 34.4612 93.4236 34.3485 93.3467 34.7277C93.2752 35.0818 93.5828 35.1605 93.8421 35.2427C93.8993 35.2606 93.9583 35.2714 94.0138 35.291C95.4874 35.7989 96.5319 36.6753 96.877 38.2992C97.1954 39.7961 97.2294 41.2966 97.0523 42.7881C96.9057 44.0221 96.5909 45.2401 96.2761 46.4473C96.0884 47.168 95.5626 47.5811 94.7756 47.6437C94.4269 47.6723 94.0674 47.7653 93.7491 47.9084C93.2465 48.1355 93.1857 48.4968 93.6096 48.8348C94.0352 49.1746 94.502 49.4947 94.9992 49.7111C95.9506 50.1243 96.4228 50.82 96.5319 51.8304C96.7948 54.2716 96.5855 56.6807 96.0132 59.0575C95.804 59.932 95.2478 60.5633 94.418 60.9264C93.9691 61.1231 93.5041 61.2823 93.0552 61.479C92.9193 61.5398 92.7154 61.6793 92.7207 61.7723C92.7279 61.9136 92.871 62.071 92.9979 62.1729C93.1821 62.3214 93.3968 62.434 93.606 62.5467C94.8776 63.2245 95.0171 63.7324 94.7774 65.1989C94.6576 65.934 94.477 66.6583 94.3661 67.3933C94.2266 68.3198 94.1533 69.2569 94.0048 70.1833C93.8618 71.0811 93.2752 71.623 92.4346 71.9056C92.1806 71.9914 91.9142 72.0343 91.662 72.1237C91.5225 72.1738 91.3115 72.265 91.2972 72.3616C91.2793 72.4832 91.3955 72.6835 91.5118 72.7568C91.9374 73.0251 92.3809 73.2683 92.8298 73.4955C93.0659 73.6153 93.1804 73.7333 93.0749 74.0123C92.7082 74.987 92.3291 75.9599 92.0072 76.9507C91.8015 77.5838 91.6727 78.2437 91.544 78.8983C91.5153 79.045 91.6316 79.2202 91.6817 79.3812C91.8426 79.3293 92.0197 79.3043 92.1645 79.222C93.7205 78.3296 94.688 76.9507 95.3909 75.3429C95.8219 74.3557 95.8326 74.3825 96.8538 74.7438C97.6264 75.0138 98.4151 75.2177 99.1609 75.4413Z" fill="#AEF63D"/>
<path d="M105.234 76.3529C105.295 76.2402 105.343 76.1168 105.42 76.0167C106.479 74.6253 107.216 73.0729 107.761 71.4204C107.892 71.0252 108.065 70.6425 108.198 70.2472C108.602 69.0293 109.562 68.7324 110.698 68.7181C110.907 68.7163 111.117 68.7288 111.324 68.7199C111.691 68.7038 111.778 68.5625 111.623 68.2334C111.469 67.9115 111.306 67.5914 111.133 67.2802C110.641 66.4057 110.596 65.4596 110.712 64.4992C110.965 62.4085 111.378 60.35 112.073 58.3613C112.275 57.7819 112.59 57.2203 112.957 56.7267C113.393 56.1419 114.023 55.9988 114.679 56.3243C115.201 56.5836 115.65 56.9914 116.14 57.3204C116.287 57.4188 116.462 57.4707 116.625 57.544C116.636 57.3795 116.695 57.1988 116.648 57.0522C116.303 55.9899 115.883 54.9508 115.593 53.8741C115.359 53.005 115.178 52.0982 115.137 51.2004C115.056 49.4335 115.001 47.6576 115.103 45.8942C115.187 44.4527 115.28 42.9611 116.231 41.7307C116.426 41.4785 116.621 41.2246 116.873 40.8955C117.133 41.5125 117.337 42.0294 117.564 42.5355C118.29 44.1558 119.422 45.3934 120.908 46.386C122.498 47.4465 123.861 48.7932 125.077 50.274C125.19 50.4117 125.313 50.5602 125.363 50.7247C125.903 52.4863 126.551 54.23 126.493 56.1133C126.44 57.8677 126.186 59.581 125.335 61.1602C125.25 61.3158 125.233 61.6037 125.322 61.7414C126.062 62.8735 126.002 64.1201 125.876 65.3737C125.737 66.7795 125.284 68.1011 124.415 69.201C123.927 69.8198 123.805 70.3939 123.795 71.1575C123.761 73.4306 123.04 75.5088 121.62 77.3133C121.309 77.7085 120.951 78.0698 120.638 78.4633C120.454 78.6958 120.271 78.6761 120.059 78.5402C119.921 78.4525 119.796 78.3291 119.646 78.2773C118.632 77.9232 118.433 77.172 118.642 76.2313C118.809 75.4802 118.919 74.7022 119.204 73.9976C119.622 72.9638 120.52 72.5078 121.6 72.3898C121.793 72.3683 121.985 72.3307 122.178 72.3254C122.516 72.3146 122.647 72.1233 122.677 71.8157C122.707 71.5134 122.58 71.3543 122.287 71.2648C119.803 70.5048 119.587 67.5217 121.128 65.9228C121.269 65.7761 121.45 65.6599 121.627 65.5526C121.987 65.3344 122.012 65.1395 121.665 64.8855C121.209 64.5511 120.731 64.2453 120.268 63.9198C119.706 63.5263 119.156 63.1221 118.592 62.7322C118.202 62.4622 118.07 62.5301 117.981 62.9987C117.945 63.1865 117.918 63.419 117.796 63.537C117.347 63.968 117.222 64.5421 117.072 65.093C116.848 65.9121 116.394 66.5738 115.824 67.1765C115.301 67.7273 114.767 68.2656 114.261 68.8326C113.974 69.1527 114.066 69.471 114.268 69.8484C114.559 70.3903 114.799 70.9805 114.928 71.5796C114.987 71.855 114.776 72.2288 114.602 72.506C114.262 73.0551 113.924 73.6291 113.475 74.0834C112.771 74.797 111.78 74.8685 110.846 75.0635C109.409 75.3621 107.904 75.3264 106.529 75.9362C106.13 76.1133 105.728 76.285 105.329 76.4602C105.293 76.4244 105.265 76.3887 105.234 76.3529ZM123.983 61.9865C123.709 60.2696 123.476 58.5455 123.147 56.8394C122.904 55.5803 122.475 54.3695 121.666 53.3376C121.577 53.2249 121.402 53.0944 121.286 53.1105C121.18 53.1248 121.091 53.3215 121.015 53.4503C120.973 53.5236 120.974 53.622 120.958 53.7096C120.618 55.5123 120.139 57.2793 119.408 58.9622C119.218 59.3986 119.256 59.6669 119.585 59.9763C120.706 61.0261 122.001 61.8058 123.383 62.4515C123.771 62.6321 123.923 62.4854 123.983 61.9865Z" fill="#AEF63D"/>
<path d="M41.731 48.1804C41.892 48.9423 42.078 49.5682 42.1478 50.2067C42.3051 51.6249 42.425 53.0485 42.5197 54.4721C42.5895 55.5255 42.2282 56.4984 41.799 57.4373C41.6506 57.761 41.6738 58.0042 41.9314 58.2331C43.7967 59.9053 44.267 62.1409 44.4226 64.4873C44.4602 65.0506 44.5746 65.4638 45.1362 65.6837C45.9482 66.0021 46.744 66.3651 47.5595 66.671C47.9119 66.8033 48.105 66.6531 48.2034 66.2382C48.2946 65.8554 48.2445 65.5317 48.1837 65.1651C47.9458 63.7308 48.0192 62.2875 48.2177 60.855C48.4126 59.4564 48.6648 58.0668 48.8919 56.6719C48.967 56.214 48.7578 55.7884 48.3447 55.7633C47.6865 55.7222 47.218 55.343 46.8066 54.9353C45.7157 53.8551 45.0611 52.5531 45.0361 50.9757C44.9914 48.0123 46.1592 45.5317 48.0192 43.3069C48.8955 42.2571 49.8004 41.2001 50.1599 39.8445C50.3119 39.2722 50.3012 38.6409 50.2762 38.04C50.2565 37.5804 50.0938 37.1261 50.0079 36.6683C49.9775 36.5037 49.9811 36.3338 49.9703 36.1657C50.0329 36.1228 50.0937 36.0799 50.1563 36.0352C50.201 36.1425 50.2261 36.2659 50.2958 36.3535C51.3009 37.6286 51.6926 39.0934 51.5907 40.6904C51.5281 41.6526 51.3832 42.6094 51.3027 43.5716C51.2097 44.6912 51.5996 45.7428 51.791 46.8248C52.0664 48.3771 52.1844 49.9581 52.4849 51.5033C52.7156 52.6801 52.3454 53.4115 51.2795 53.8998C50.7984 54.1198 50.3692 54.4649 49.9364 54.7779C49.8094 54.8709 49.6395 55.0927 49.6752 55.1821C49.7325 55.327 49.9364 55.4861 50.092 55.5022C50.4425 55.5362 50.8145 55.5434 51.1525 55.4575C52.6601 55.0784 54.0533 56.2122 54.2608 57.7789C54.3896 58.7482 54.3931 59.7372 54.42 60.7173C54.4665 62.4306 54.4343 64.1403 54.0998 65.834C53.9102 66.7944 53.4703 67.5115 52.5367 67.9014C52.1987 68.0427 51.8858 68.2573 51.5907 68.4791C51.4869 68.5578 51.4172 68.767 51.4422 68.8958C51.4583 68.978 51.6711 69.0639 51.8017 69.0764C52.644 69.1551 53.4435 69.3214 54.132 69.8687C55.0781 70.6198 55.4036 71.6804 55.6128 72.7874C55.7505 73.5242 55.6969 74.2682 55.4555 74.9943C55.2873 75.4969 55.1389 75.563 54.6042 75.5398C53.3147 75.4808 52.0163 75.3699 50.734 75.4647C49.3015 75.5702 47.9691 76.096 46.7494 76.8918C45.5905 77.6466 44.3726 78.2421 43.0151 78.6213C42.1782 78.8555 41.5057 78.7285 40.8136 78.3834C40.6025 78.2779 40.3915 78.0275 40.3236 77.8004C39.8621 76.2462 39.3202 74.7028 39.2612 73.0628C39.2362 72.3814 39.3167 71.6982 39.3489 71.0151C39.3542 70.8809 39.3435 70.745 39.3685 70.6162C39.3936 70.4839 39.4526 70.3569 39.4973 70.2281C39.6118 70.3086 39.7513 70.3676 39.8335 70.4732C40.2681 71.0347 40.6634 71.6303 41.1212 72.1722C41.858 73.0413 42.8756 73.4867 43.9094 73.8819C44.4656 74.0947 45.0522 74.2271 45.603 74.4488C45.941 74.5848 46.2611 74.7922 46.5509 75.0158C47.0713 75.4217 47.4862 75.3127 47.64 74.6742C47.8689 73.7174 48.1497 72.7498 47.8493 71.768C47.5828 70.8988 48.0066 70.3873 48.6451 69.9366C48.8383 69.7989 49.0368 69.663 49.2049 69.4949C49.4893 69.2105 49.4714 69.0102 49.1012 68.9083C48.5629 68.7581 47.9906 68.7366 47.4469 68.6025C45.5011 68.1267 43.4497 67.8066 42.0476 66.1935C41.0354 65.0274 40.0213 63.8148 39.7191 62.2106C39.5975 61.5596 39.6744 60.9462 39.9551 60.3417C40.2842 59.6335 40.497 58.8752 40.0302 58.1652C39.7781 57.7825 39.3721 57.4963 39.0216 57.1833C37.7089 56.0137 37.5229 55.2554 38.1774 53.6315C38.9018 51.8341 39.9891 50.255 41.2249 48.7741C41.3608 48.6114 41.5003 48.4486 41.731 48.1804Z" fill="#AEF63D"/>
<path d="M111.762 78.4043C114.476 78.4776 116.698 79.4684 118.615 81.1943C118.935 81.4822 119.246 81.7862 119.529 82.1117C119.849 82.4801 119.972 82.8772 119.736 83.3815C119.579 83.7195 119.631 84.1505 119.493 84.5011C119.125 85.4436 118.352 86.0445 117.547 86.5882C117.043 86.928 116.506 87.2248 115.961 87.4967C115.687 87.6326 115.367 87.6809 115.065 87.7524C113.593 88.1012 112.11 88.4195 110.647 88.8004C109.54 89.0902 108.435 89.4014 107.366 89.8055C105.391 90.5513 103.451 91.3847 101.487 92.1609C99.7183 92.8602 97.9692 93.6238 96.1575 94.1872C93.9524 94.8722 91.7669 95.6054 89.7084 96.6409C88.85 97.0719 87.9737 97.1095 87.0812 97.1846C86.9006 97.1989 86.652 96.9897 86.5143 96.8216C85.781 95.9238 85.79 94.8579 85.9474 93.7991C86.1119 92.6903 86.5519 91.6709 87.2994 90.8267C88.7623 89.1724 90.2933 87.5521 92.2462 86.488C96.0466 84.4188 99.7147 82.0759 103.801 80.5647C106.021 79.7438 108.219 78.8478 110.583 78.5009C111.007 78.4401 111.44 78.4311 111.762 78.4043Z" fill="#AEF63D"/>
<path d="M76.748 96.8681C75.5855 96.9128 74.5214 96.4997 73.4662 96.1062C72.1016 95.5983 70.7711 95.001 69.4083 94.4913C68.4067 94.1157 67.3587 93.86 66.3608 93.4701C65.1429 92.9944 63.9392 92.4775 62.7642 91.9052C60.9508 91.0235 59.0443 90.4798 57.0645 90.1722C55.6552 89.9522 54.237 89.7823 52.8295 89.5534C51.245 89.2959 49.6551 89.0545 48.092 88.695C46.7667 88.3909 45.6025 87.7239 44.6636 86.7062C43.9875 85.9766 43.7783 84.6281 44.2773 83.7679C45.4666 81.7165 47.2765 80.4664 49.5263 79.819C49.9841 79.6867 50.4473 79.5454 50.9177 79.4989C51.4864 79.4416 52.0659 79.456 52.6382 79.4881C53.1872 79.5185 53.7291 79.6419 54.2782 79.6652C56.5065 79.7618 58.5507 80.5451 60.602 81.3105C63.73 82.4784 66.5808 84.172 69.4369 85.8764C72.1177 87.4753 74.3819 89.5427 76.4869 91.8033C77.5367 92.93 78.0035 94.3124 77.9695 95.8541C77.9516 96.6553 77.8175 96.784 77.018 96.852C76.925 96.8592 76.8374 96.8627 76.748 96.8681Z" fill="#AEF63D"/>
<path d="M106.868 120.738C106.385 120.842 105.947 120.872 105.563 121.033C104.804 121.348 104.264 120.964 103.69 120.586C102.801 120.003 102.065 119.277 101.358 118.476C100.568 117.576 99.6037 116.829 98.7148 116.015C98.375 115.704 98.0442 115.38 97.6901 115.085C97.5953 115.006 97.4307 115.014 97.2984 114.983C97.3037 115.108 97.2716 115.25 97.3198 115.355C97.4576 115.652 97.6525 115.922 97.7813 116.222C98.1318 117.033 98.4412 117.859 98.806 118.662C98.9634 119.007 99.1995 119.322 99.4302 119.629C99.6233 119.887 99.5715 120.046 99.3175 120.209C98.6504 120.635 97.8778 120.626 97.2233 120.155C96.3863 119.554 95.8998 118.676 95.3973 117.812C94.6783 116.58 93.9612 115.346 93.2422 114.112C93.2047 114.048 93.1689 113.969 93.1099 113.935C92.9668 113.851 92.8112 113.79 92.661 113.72C92.6395 113.871 92.5662 114.033 92.6038 114.168C93.0419 115.729 93.4998 117.285 93.9469 118.843C94.013 119.071 94.0595 119.304 94.1132 119.536C94.2527 120.141 94.2384 120.103 93.675 120.313C91.6952 121.049 90.6561 120.164 89.7798 118.463C89.2558 117.446 88.7157 116.439 88.1595 115.439C88.0915 115.316 87.8859 115.269 87.7428 115.189C87.7052 115.337 87.6283 115.487 87.6373 115.632C87.7178 116.931 87.7195 118.222 87.4245 119.499C87.3386 119.867 87.1669 120.028 86.7735 119.992C86.3746 119.957 85.9705 120 85.5699 119.98C84.8742 119.946 84.3376 119.603 84.1516 118.941C83.8297 117.784 83.5936 116.6 83.3254 115.428C83.2789 115.225 83.2771 115.01 83.2091 114.815C83.1662 114.693 83.0392 114.602 82.9498 114.498C82.8443 114.604 82.6708 114.695 82.644 114.817C82.5116 115.427 82.4079 116.044 82.3113 116.661C82.2148 117.279 82.1665 117.905 82.0502 118.519C81.8607 119.513 81.2579 120.053 80.2457 120.145C78.7059 120.284 77.1803 120.159 75.6763 119.806C74.9126 119.628 74.6569 119.227 74.8285 118.471C75.0217 117.628 75.2596 116.798 75.4599 115.958C75.4974 115.8 75.4509 115.623 75.442 115.455C75.2846 115.536 75.095 115.586 74.977 115.704C74.2008 116.485 73.4121 117.258 72.6842 118.084C72.1853 118.651 71.7918 119.308 71.3286 119.91C71.0496 120.273 70.7634 120.645 70.4236 120.948C69.4722 121.788 68.1452 121.797 67.1401 121.023C66.9362 120.865 66.8808 120.694 67.0292 120.49C67.369 120.023 67.6999 119.547 68.0736 119.105C68.8409 118.197 69.6385 117.315 70.4093 116.408C70.5703 116.219 70.6794 115.977 70.7724 115.745C70.8207 115.625 70.7849 115.471 70.7867 115.334C70.6472 115.355 70.4809 115.335 70.3736 115.405C69.8049 115.786 69.2504 116.189 68.6924 116.586C67.285 117.587 65.8471 118.553 64.656 119.819C64.2285 120.273 63.8404 120.767 63.4398 121.248C63.2288 121.502 63.0446 121.613 62.6851 121.42C61.7891 120.937 61.3724 120.187 61.0934 119.231C60.8466 118.385 61.2722 117.981 61.8034 117.557C63.6401 116.085 65.4697 114.606 67.3315 113.166C67.7034 112.878 68.2024 112.748 68.6513 112.565C69.4794 112.231 70.3324 111.954 71.1372 111.573C71.79 111.263 72.4285 111.269 73.0938 111.417C74.7516 111.789 76.3648 112.275 77.9172 112.994C78.7703 113.39 79.7163 113.597 80.632 113.846C82.1218 114.25 83.6258 114.168 85.1299 113.906C85.9025 113.772 86.7091 113.744 87.4441 113.499C89.1753 112.923 90.8851 112.274 92.5823 111.598C93.2637 111.326 93.8092 111.548 94.351 111.861C95.6244 112.597 96.8835 113.359 98.1443 114.119C99.2245 114.772 100.335 115.384 101.367 116.106C102.488 116.89 103.531 117.786 104.613 118.624C105.142 119.034 105.693 119.418 106.224 119.826C106.546 120.077 106.816 120.366 106.868 120.738Z" fill="#AEF63D"/>
<path d="M3.46453 57.8535C3.67735 57.9125 4.01894 57.9698 4.32834 58.1021C6.63005 59.0786 8.93712 60.0461 11.2227 61.0602C13.6586 62.1386 16.0479 63.3225 18.5034 64.3527C21.102 65.4436 23.5397 66.8064 25.8002 68.4661C27.7782 69.9183 29.7527 71.3973 31.5769 73.0337C33.4082 74.6773 34.8354 76.6624 35.413 79.143C35.5722 79.8226 35.7958 80.4897 36.0086 81.1568C36.1391 81.5663 35.9979 81.8525 35.4667 81.806C34.3597 81.7112 33.4315 81.2033 32.4568 80.7651C30.5789 79.9209 29.2161 78.4151 27.6817 77.131C26.9645 76.5319 26.2491 75.9256 25.5731 75.28C25.2458 74.967 24.9829 74.5735 24.7451 74.1837C24.2443 73.3646 23.7954 72.5115 23.2893 71.6942C22.996 71.222 22.5292 70.9734 21.9837 70.8322C21.6028 70.7338 21.2451 70.5406 20.882 70.3779C19.9753 69.9701 19.0793 69.5373 18.1654 69.1474C16.7418 68.5394 15.3415 67.8991 14.1039 66.9423C13.5298 66.4988 12.8842 66.1465 12.2797 65.7423C12.083 65.6117 11.888 65.4651 11.7289 65.2934C11.0439 64.5583 10.1729 64.2883 9.2036 64.2364C8.16453 64.181 7.11472 64.181 6.09174 64.0218C5.4014 63.9145 4.70034 63.6552 4.08691 63.3154C2.66332 62.5285 1.36134 61.5645 0.238202 60.3698C-0.0533118 60.0604 -0.0694039 59.7904 0.146996 59.4577C0.898137 58.2988 2.06419 57.9787 3.46453 57.8535Z" fill="#AEF63D"/>
<path d="M128.379 81.0621C128.433 80.8367 128.443 80.6936 128.501 80.5685C129.062 79.3362 129.627 78.104 130.2 76.8753C131.518 74.0478 133.531 71.8803 136.135 70.1383C139.05 68.1889 142.164 66.6616 145.337 65.2148C147.49 64.2329 149.609 63.1795 151.764 62.1995C154.69 60.8671 157.622 59.5419 160.58 58.281C161.671 57.8161 162.745 58.1845 163.725 58.7657C163.981 58.9177 164.076 59.1305 163.933 59.4829C163.69 60.082 163.557 60.7258 163.359 61.3428C163.178 61.9062 162.749 62.2156 162.2 62.3551C160.918 62.6806 159.612 62.9256 158.355 63.3244C156.699 63.8502 155.059 64.4368 153.454 65.1003C152.072 65.6708 150.734 66.3558 149.404 67.0444C148.679 67.4199 147.996 67.8795 147.327 68.3481C145.952 69.3121 144.548 70.2456 143.253 71.3098C142.305 72.0877 141.497 73.0427 140.649 73.9387C139.059 75.6199 137.343 77.1561 135.386 78.3991C134.839 78.7478 134.195 78.9392 133.619 79.245C132.317 79.9371 130.89 80.2501 129.497 80.665C129.146 80.7688 128.81 80.9065 128.379 81.0621Z" fill="#AEF63D"/>
<path d="M92.0697 134.062C92.3916 135.441 91.4688 136.423 90.7552 137.466C89.8199 138.836 88.4571 139.336 86.8385 139.22C85.6457 139.134 84.5154 138.855 83.5371 138.122C83.0489 137.755 82.5445 137.689 81.999 138.008C81.5233 138.285 81.053 138.58 80.5468 138.791C77.5083 140.064 74.2569 138.834 72.5347 135.853C71.8783 134.719 72.1752 133.615 72.4059 132.49C72.4363 132.345 72.6402 132.206 72.7958 132.122C73.0515 131.986 73.3538 131.932 73.5988 131.782C74.7112 131.099 75.9077 130.68 77.2078 130.591C77.9608 130.539 78.6493 130.741 79.2556 131.21C79.3468 131.281 79.5167 131.339 79.6133 131.305C80.6738 130.924 81.7666 131.156 82.8432 131.117C83.4584 131.094 84.0718 131.102 84.5708 131.544C84.7353 131.691 84.8802 131.859 85.0412 132.011C85.1216 132.088 85.2504 132.224 85.2987 132.202C85.4042 132.156 85.533 132.032 85.5455 131.927C85.6188 131.319 86.0069 130.959 86.5202 130.747C86.9226 130.58 87.3626 130.453 87.7954 130.418C88.8487 130.328 89.7251 130.781 90.5263 131.423C90.7051 131.566 90.934 131.693 91.154 131.728C91.7585 131.825 91.9785 132.208 92.0572 132.835C92.1091 133.218 92.0697 133.61 92.0697 134.062ZM78.0091 136.269C77.4511 136.192 76.8806 136.164 76.3387 136.028C75.516 135.822 74.8114 135.418 74.5234 134.54C74.2498 133.701 74.7631 132.964 75.634 132.898C76.3673 132.843 76.9396 133.111 77.3938 133.671C77.46 133.751 77.5172 133.846 77.5995 133.903C77.6782 133.957 77.7837 133.971 77.8767 134.003C77.9089 133.898 77.9894 133.778 77.9626 133.69C77.8749 133.408 77.7748 133.122 77.6281 132.864C77.1935 132.1 76.6356 131.439 75.6859 131.403C73.8027 131.331 72.456 133.161 73.0569 134.94C73.4378 136.067 74.2444 136.854 75.2173 137.475C77.5083 138.936 80.2947 138.39 81.4285 135.709C81.4786 135.59 81.4464 135.434 81.4536 135.296C81.3194 135.323 81.1513 135.309 81.0548 135.384C80.157 136.089 79.1089 136.223 78.0091 136.269ZM91.154 134.402C91.1129 134.386 91.0718 134.37 91.0306 134.354C91.061 133.277 90.3224 132.308 89.2851 132.063C88.8613 131.963 88.7307 132.102 88.8326 132.524C88.9632 133.059 89.1098 133.59 89.1975 134.132C89.3406 135.037 88.8183 135.624 88.1513 136.107C87.5486 136.545 86.9047 136.613 86.2162 136.28C85.7619 136.062 85.2951 135.86 84.8158 135.708C84.3347 135.556 84.0879 135.776 84.1702 136.276C84.2113 136.53 84.3008 136.838 84.4796 136.994C84.8749 137.337 85.3023 137.709 85.7834 137.877C87.4395 138.457 89.5713 137.668 90.4619 136.157C90.7749 135.622 90.9269 134.991 91.154 134.402Z" fill="#AEF63D"/>
<path d="M99.9844 109.055C100.814 109.189 101.646 109.32 102.476 109.461C105.874 110.039 108.921 109.225 111.602 107.088C112.532 106.346 113.188 105.362 113.634 104.248C114.024 103.275 114.041 103.25 114.886 103.824C115.796 104.443 116.676 105.106 117.556 105.768C117.779 105.936 117.983 106.147 118.137 106.378C118.23 106.519 118.28 106.759 118.23 106.914C118.022 107.562 117.738 108.184 117.538 108.835C117.053 110.409 116.066 111.507 114.524 112.078C113.451 112.473 112.38 112.925 111.266 113.14C110.397 113.306 109.461 113.172 108.558 113.12C107.803 113.077 107.02 113.067 106.308 112.852C105.437 112.589 104.582 112.199 103.797 111.736C102.556 111.003 101.379 110.16 100.172 109.37C100.074 109.305 99.9486 109.284 99.8359 109.243C99.8842 109.178 99.9343 109.116 99.9844 109.055Z" fill="#AEF63D"/>
<path d="M157.982 68.1736C157.706 68.7244 157.451 69.2842 157.156 69.8243C155.195 73.4172 153.307 77.0531 151.23 80.5781C149.996 82.6742 148.492 84.6164 147.056 86.5872C145.69 88.4633 144.039 90.0729 142.165 91.4482C140.189 92.895 138.028 93.9627 135.678 94.6584C133.72 95.2379 131.712 95.4614 129.685 95.4346C128.7 95.4203 127.716 95.1717 126.733 95.0268C126.407 94.9786 126.266 94.78 126.323 94.4581C126.391 94.0772 126.448 93.6909 126.557 93.3225C126.64 93.0417 126.775 92.9272 127.155 93.0614C127.704 93.2563 128.31 93.3368 128.897 93.369C132.563 93.5711 135.827 92.3549 138.905 90.4914C141.788 88.7459 144.361 86.6159 146.681 84.18C148.161 82.6277 149.553 81.002 150.703 79.1796C152.582 76.1983 154.475 73.2259 156.361 70.2499C156.75 69.6365 157.125 69.0159 157.52 68.4079C157.603 68.2809 157.744 68.1915 157.858 68.0859C157.898 68.1128 157.941 68.1432 157.982 68.1736Z" fill="#AEF63D"/>
<path d="M103.025 127.029C102.315 127.449 101.711 127.855 101.06 128.164C100.87 128.254 100.47 128.154 100.309 127.996C99.9886 127.68 99.7024 127.292 99.5164 126.88C99.0658 125.893 98.4416 125.77 97.7352 126.576C97.4222 126.934 97.0949 127.281 96.7676 127.628C96.5441 127.866 96.3581 127.834 96.1399 127.585C95.6195 126.991 95.0722 126.423 94.5357 125.845C94.4552 125.757 94.364 125.677 94.296 125.58C93.84 124.94 93.7201 124.91 93.1228 125.437C92.7902 125.73 92.4969 126.072 92.2018 126.406C91.9335 126.709 91.6706 126.762 91.2593 126.637C88.8073 125.891 86.3196 125.312 83.7801 124.935C80.7844 124.489 77.7852 124.564 74.7807 124.675C72.3734 124.765 70.0127 125.137 67.7056 125.829C67.1602 125.993 66.6648 126.322 66.1247 126.514C65.8206 126.621 65.4558 126.687 65.1482 126.625C64.7333 126.541 64.6814 126.199 65.0391 125.961C65.4451 125.691 65.8779 125.435 66.3339 125.273C70.4026 123.815 74.6179 123.093 78.9191 122.814C82.741 122.567 86.545 122.765 90.3257 123.321C92.3699 123.622 94.3944 124.064 96.426 124.452C97.0681 124.575 97.7244 124.673 98.3397 124.885C99.2071 125.181 100.048 125.559 100.89 125.925C101.491 126.186 102.076 126.483 102.664 126.77C102.762 126.82 102.846 126.9 103.025 127.029Z" fill="#AEF63D"/>
<path d="M8.23926 69.7734C8.45566 70.1204 8.68995 70.4584 8.88847 70.8161C9.86674 72.5759 11.0238 74.2123 12.24 75.8165C13.4257 77.3796 14.4648 79.0518 15.6147 80.6417C16.7737 82.2424 17.963 83.8251 19.1916 85.3739C20.6224 87.1784 22.2749 88.7719 24.1366 90.1276C26.1719 91.6102 28.4145 92.7136 30.9076 93.1017C33.0412 93.4326 35.2106 93.4827 37.3388 92.905C37.4676 92.871 37.5946 92.8209 37.7144 92.7637C38.0882 92.5849 38.3564 92.651 38.4852 93.0373C38.6283 93.4719 38.707 93.928 38.791 94.3804C38.8608 94.756 38.6819 94.9492 38.3081 95.0404C36.9382 95.3694 35.5718 95.5089 34.15 95.4088C32.1506 95.2675 30.1976 94.9384 28.2715 94.4073C26.0628 93.7992 24.1348 92.6832 22.4108 91.1863C18.9752 88.2014 16.3373 84.562 13.964 80.7329C12.4457 78.281 11.1186 75.7092 9.72724 73.1804C9.22469 72.2683 8.78116 71.324 8.31796 70.3904C8.23032 70.2134 8.1731 70.0202 8.10156 69.8342C8.14806 69.8146 8.19455 69.7949 8.23926 69.7734Z" fill="#AEF63D"/>
<path d="M60.2536 110.319C59.8745 110.418 59.5704 110.462 59.2932 110.573C57.8195 111.162 56.303 111.58 54.713 111.648C53.0409 111.72 51.3508 111.666 49.802 110.992C49.0956 110.684 48.4482 110.101 47.9403 109.504C47.2231 108.662 46.6419 107.699 46.0517 106.759C45.9569 106.608 46.0553 106.26 46.1733 106.066C47.0568 104.609 48.3713 103.716 49.9916 103.25C50.1633 103.2 50.3511 103.116 50.512 103.148C50.7016 103.185 50.9699 103.291 51.0325 103.439C51.9016 105.478 53.3825 106.962 55.2156 108.132C56.632 109.035 58.1486 109.71 59.8011 110.053C59.887 110.071 59.9728 110.103 60.0533 110.139C60.0891 110.151 60.1159 110.192 60.2536 110.319Z" fill="#AEF63D"/>
<path d="M79.1475 103.405C80.2867 103.324 81.2489 103.905 82.279 104.229C82.5151 104.303 82.8048 104.319 83.0409 104.256C84.8097 103.782 86.5659 103.222 88.4294 103.326C88.8694 103.351 89.3201 103.433 89.7368 103.576C90.3037 103.771 90.606 104.231 90.6936 104.821C90.7347 105.093 90.6185 105.206 90.3449 105.331C89.7386 105.606 89.202 105.445 88.628 105.274C87.3135 104.88 86.1295 105.265 85.1226 106.086C84.3572 106.712 83.7169 107.489 83.0284 108.207C82.3506 108.913 81.9196 108.799 81.4277 107.962C80.8107 106.912 80.0775 105.928 79.0849 105.184C78.949 105.082 78.7648 105.011 78.5949 104.989C77.4896 104.852 76.4291 104.975 75.4705 105.601C75.4204 105.633 75.3703 105.664 75.3203 105.696C75.1986 105.774 75.0788 105.855 74.9572 105.935C74.8732 105.769 74.7372 105.61 74.714 105.435C74.6353 104.846 74.925 104.381 75.4276 104.161C76.075 103.879 76.7635 103.668 77.4538 103.523C78.0047 103.408 78.5841 103.439 79.1475 103.405Z" fill="#AEF63D"/>
<path d="M70.6993 100.501C70.4292 100.601 70.1663 100.719 69.8909 100.797C68.462 101.207 67.0366 101.615 65.5397 101.718C62.9894 101.897 60.6394 101.286 58.4772 99.9497C56.712 98.8587 55.3206 97.4333 54.6356 95.4178C54.6124 95.348 54.5748 95.2819 54.5551 95.2103C54.3584 94.461 54.3799 94.4038 55.165 94.4538C56.1093 94.5146 56.5617 94.9707 56.9194 95.7934C57.4756 97.0703 58.2447 98.2364 59.4071 99.059C61.2009 100.329 63.2093 100.619 65.3215 100.164C66.205 99.9747 67.0598 99.651 67.9219 99.3684C68.3582 99.2254 68.7553 99.2254 69.1612 99.4632C69.6763 99.7637 70.2093 100.032 70.7351 100.315C70.7225 100.375 70.71 100.438 70.6993 100.501Z" fill="#AEF63D"/>
<path d="M101.81 101.898C100.014 102.042 98.4494 101.4 96.9436 100.528C96.6467 100.356 96.7182 100.191 96.9364 100.07C97.4551 99.7801 97.9844 99.5065 98.5281 99.2686C98.6551 99.2132 98.8805 99.2811 99.0146 99.3652C100.492 100.277 102.076 100.748 103.82 100.517C106.02 100.225 107.787 99.2239 108.926 97.2656C109.307 96.6128 109.618 95.9189 109.999 95.2643C110.106 95.0783 110.321 94.8977 110.523 94.8369C110.933 94.7135 111.365 94.6598 111.793 94.6044C112.117 94.5615 112.142 94.8154 112.077 95.0175C111.907 95.5541 111.755 96.1067 111.494 96.6003C110.26 98.9342 108.246 100.347 105.828 101.234C105.19 101.468 104.521 101.651 103.852 101.76C103.182 101.867 102.491 101.856 101.81 101.898Z" fill="#AEF63D"/>
<path d="M70.6031 108.08C70.5244 108.173 70.4582 108.285 70.3617 108.353C69.5855 108.903 68.795 109.428 68.026 109.986C66.749 110.911 65.4685 111.832 64.222 112.796C62.666 113.998 61.1459 115.244 59.606 116.468C59.2072 116.784 58.2611 116.743 57.7836 116.339C57.4116 116.024 57.0754 115.657 56.7785 115.271C56.5657 114.994 56.8787 114.89 57.0575 114.792C58.0734 114.23 59.0892 113.662 60.1193 113.127C62.7215 111.773 65.329 110.428 67.9437 109.097C68.6859 108.72 69.4603 108.407 70.2239 108.069C70.3223 108.026 70.4386 108.017 70.5459 107.992C70.5655 108.023 70.5834 108.051 70.6031 108.08Z" fill="#AEF63D"/>
<path d="M111.103 117.076C109.924 117.505 108.808 117.703 107.624 117.317C107.129 117.154 106.542 117.292 106.006 117.233C105.737 117.203 105.437 117.092 105.231 116.92C104.48 116.287 103.795 115.575 103.028 114.965C101.701 113.91 100.32 112.923 98.9825 111.879C98.446 111.46 97.9631 110.972 97.4659 110.505C97.3675 110.412 97.3175 110.271 97.2441 110.151C97.2674 110.113 97.2924 110.078 97.3157 110.04C97.8111 110.205 98.3172 110.337 98.7983 110.537C100.542 111.26 102.082 112.335 103.666 113.34C105.136 114.271 106.621 115.185 108.154 116.006C108.889 116.4 109.751 116.559 110.552 116.831C110.741 116.895 110.918 116.993 111.103 117.076Z" fill="#AEF63D"/>
<path d="M117.526 97.7165C116.537 97.602 115.546 97.484 114.555 97.3749C114.189 97.3337 114.164 97.1621 114.296 96.8562C114.838 95.6043 115.8 94.8031 117.03 94.3041C118.52 93.6979 120.083 93.5369 121.677 93.6102C122.177 93.6335 122.138 93.7104 122.031 94.1539C121.686 95.5775 120.5 96.2052 119.489 97.0243C118.898 97.5019 118.3 97.8041 117.526 97.7165Z" fill="#AEF63D"/>
<path d="M44.6225 97.3142C44.762 97.2587 44.8997 97.1961 45.0428 97.1514C45.4667 97.0155 45.8995 96.9046 46.3144 96.7455C46.436 96.699 46.5111 96.5273 46.6077 96.4128C46.4914 96.3395 46.3823 96.225 46.2553 96.2C45.5275 96.0515 44.7942 95.9174 44.061 95.794C43.7051 95.7332 43.4439 95.5973 43.3796 95.2056C43.3599 95.0912 43.2955 94.9839 43.249 94.8748C42.9807 94.2506 43.215 93.7552 43.9018 93.698C44.5152 93.6479 45.1608 93.6533 45.7564 93.7892C47.239 94.1254 48.5821 94.8032 49.7982 95.7153C50.0915 95.9353 50.3383 96.2232 50.5887 96.4951C50.8302 96.758 50.798 97.0423 50.4939 97.2051C49.9467 97.5002 49.3815 97.7631 48.8074 98.0027C48.4802 98.1404 48.1278 98.2424 47.7773 98.2907C47.5126 98.3282 47.2265 98.2781 46.9582 98.2245C46.6023 98.1512 46.25 98.0456 45.903 97.9348C45.4649 97.797 45.0339 97.6397 44.5975 97.4912C44.6064 97.4322 44.6154 97.3732 44.6225 97.3142Z" fill="#AEF63D"/>
<path d="M66.7889 106.342C66.6405 106.408 66.4849 106.466 66.3436 106.544C65.9019 106.791 65.4798 107.079 65.0202 107.283C64.7877 107.387 64.4908 107.354 64.2225 107.362C63.9704 107.369 63.7164 107.346 63.4643 107.338C62.511 107.312 61.556 107.326 60.6081 107.247C59.0504 107.118 57.6393 106.516 56.2962 105.757C55.6756 105.407 55.0872 104.999 54.4792 104.624C53.3131 103.903 52.9322 102.833 53.1003 101.522C53.145 101.175 53.331 101.229 53.5242 101.41C54.0893 101.939 54.6544 102.468 55.2142 103.003C56.4125 104.153 57.6876 105.185 59.2275 105.865C60.7888 106.553 62.3912 106.614 64.0437 106.335C64.7913 106.208 65.5496 106.154 66.3043 106.078C66.4098 106.067 66.5207 106.108 66.6298 106.126C66.6834 106.201 66.7353 106.271 66.7889 106.342Z" fill="#AEF63D"/>
<path d="M112.382 101.086C112.248 101.334 112.157 101.624 111.971 101.826C111.084 102.788 110.161 103.718 109.266 104.677C108.551 105.446 107.66 105.838 106.666 106.142C104.45 106.819 102.183 106.987 99.9058 106.859C98.4751 106.778 97.0604 106.41 95.6386 106.167C95.6029 106.161 95.576 106.115 95.4473 106.004C95.7245 105.941 95.9301 105.841 96.1233 105.859C96.8923 105.932 97.6756 105.964 98.4178 106.152C100.192 106.601 101.893 106.399 103.597 105.823C105.575 105.156 107.539 104.471 109.383 103.471C110.391 102.924 111.144 102.112 111.881 101.27C111.98 101.157 112.103 101.066 112.214 100.966C112.269 101.005 112.325 101.046 112.382 101.086Z" fill="#AEF63D"/>
<path d="M120.724 99.335C120.443 99.9842 120.232 100.587 119.921 101.134C119.791 101.365 119.331 101.429 119.238 101.656C119.134 101.909 119.163 102.182 118.887 102.386C118.378 102.765 117.87 102.939 117.246 102.685C116.861 102.529 116.452 102.434 116.051 102.325C115.463 102.164 115.164 101.774 115.091 101.179C114.946 99.9913 114.939 99.9609 116.094 99.7928C117.462 99.5925 118.836 99.4423 120.209 99.2813C120.368 99.2599 120.536 99.3135 120.724 99.335Z" fill="#AEF63D"/>
<path d="M82.543 100.05C83.4605 99.9824 84.3815 99.9377 85.2972 99.8394C86.4954 99.7106 87.1107 99.986 87.5291 100.928C87.59 101.066 87.5721 101.238 87.5899 101.393C87.4522 101.401 87.3145 101.426 87.1786 101.413C85.9357 101.3 84.6927 101.102 83.4479 101.088C81.9224 101.07 80.3933 101.204 78.866 101.277C78.7515 101.283 78.6389 101.336 78.5244 101.361C78.4064 101.386 78.2096 101.453 78.1792 101.411C78.1041 101.304 78.0612 101.136 78.0845 101.007C78.1685 100.528 78.5477 100.154 79.0681 100.109C80.2216 100.011 81.3769 99.952 82.5323 99.8769C82.5341 99.9324 82.5394 99.9914 82.543 100.05Z" fill="#AEF63D"/>
<path d="M43.6797 101.783C43.9283 101.579 44.1536 101.332 44.4308 101.176C45.7292 100.448 47.1313 100.026 48.6014 99.8225C48.9251 99.7778 49.2506 99.7456 49.5779 99.7277C49.662 99.7241 49.8068 99.7831 49.8247 99.8422C49.8444 99.9155 49.7872 100.06 49.7192 100.101C48.7982 100.659 47.9558 101.384 46.8273 101.513C46.1209 101.593 45.4091 101.64 44.7027 101.72C44.3986 101.756 44.0982 101.838 43.7977 101.901C43.7566 101.859 43.7172 101.822 43.6797 101.783Z" fill="#AEF63D"/>
<path d="M84.1507 97.7374C83.5141 97.251 82.8148 97.301 82.1066 97.4119C81.4091 97.521 80.7098 97.6265 80.0069 97.7338C79.9032 97.2349 80.4451 96.439 81.0746 96.3764C82.1173 96.2745 83.1331 96.3872 83.9343 97.1794C84.0559 97.2993 84.1329 97.4674 84.2312 97.6122C84.2044 97.6552 84.1776 97.6963 84.1507 97.7374Z" fill="#AEF63D"/>
<path d="M64.7423 99.2936C64.2701 99.299 64.0287 99.011 64.0216 98.4351C64.0162 98.0131 64.2988 97.6822 64.6654 97.6768C65.1787 97.6697 65.7134 98.1204 65.7224 98.5657C65.7331 99.0003 65.345 99.2864 64.7423 99.2936Z" fill="#AEF63D"/>
<path d="M105.564 98.3551C105.12 98.3551 104.92 98.1441 104.922 97.6666C104.924 97.3107 105.07 97.0961 105.449 97.0997C105.854 97.105 106.199 97.4377 106.185 97.8454C106.172 98.2031 105.95 98.373 105.564 98.3551Z" fill="#AEF63D"/>
</svg>
