<svg width="164" height="164" viewBox="0 0 164 164" fill="none" xmlns="http://www.w3.org/2000/svg">
<path d="M83.0796 104.313C83.0223 103.483 82.9604 102.653 82.9099 101.821C82.7242 98.6954 82.5339 95.5701 82.3619 92.4447C82.2931 91.1858 82.2794 89.9247 82.2152 88.6681C82.0822 86.0564 81.9377 83.4447 81.7932 80.8329C81.6717 78.6408 81.541 76.4487 81.4149 74.2566C81.2337 71.1496 81.0503 68.0426 80.8692 64.9379C80.7431 62.7641 80.6123 60.5926 80.5 58.4189C80.2684 53.8994 80.0552 49.3822 79.8236 44.8627C79.6699 41.8497 79.5117 38.8366 79.3374 35.8259C79.1288 32.242 78.888 28.6603 78.6885 25.0786C78.606 23.5928 78.6174 22.1 78.5418 20.6142C78.379 17.4292 78.1818 14.2465 78.0052 11.0638C77.9112 9.38536 77.8401 7.70688 77.7461 6.02841C77.6475 4.2949 77.5351 2.56139 77.4159 0.827879C77.3723 0.20189 77.5007 0.0230354 78.1313 0.0207424C81.8552 -0.00218761 85.5859 -0.126009 89.2638 0.662783C90.5846 0.944822 91.9008 1.26355 93.233 1.4768C94.1823 1.63043 94.5859 2.27476 94.9849 3.01082C95.847 4.60216 96.7459 6.17286 97.6172 7.75962C98.0942 8.62637 98.5551 9.50459 99.0045 10.3851C99.0962 10.564 99.1513 10.791 99.1398 10.9905C99.0848 11.9627 99.0114 12.9326 98.9242 13.9026C98.7912 15.4045 98.6376 16.9018 98.5069 18.4037C98.3716 19.963 98.2432 21.5245 98.1355 23.086C98.0139 24.8379 97.9612 26.5943 97.8007 28.3416C97.3879 32.8473 97.0188 37.36 96.4661 41.8497C95.9204 46.3027 95.1706 50.7304 94.5125 55.1674C93.9416 59.0196 93.3729 62.8742 92.7996 66.7264C92.1966 70.7873 91.5889 74.8482 90.9813 78.9068C90.4012 82.7774 89.8073 86.648 89.2432 90.5209C88.9313 92.6557 88.7387 94.8088 88.3489 96.9275C88.2159 97.6521 87.7138 98.34 87.2758 98.9752C86.1385 100.622 84.9484 102.229 83.7721 103.845C83.6253 104.05 83.4304 104.219 83.2585 104.405C83.2057 104.373 83.1438 104.343 83.0796 104.313ZM84.5678 95.2169C84.6067 95.2284 84.6457 95.2422 84.6847 95.2536C84.8085 95.0725 84.953 94.9028 85.0493 94.7079C85.4643 93.8709 85.8839 93.0363 86.26 92.181C86.5099 91.6146 86.8241 91.0299 86.8745 90.4314C87.1566 87.1043 87.3583 83.7703 87.606 80.4386C87.794 77.9071 88.0073 75.3756 88.2182 72.8464C88.4682 69.8403 88.7456 66.8365 88.9772 63.8304C89.1973 60.9756 89.3533 58.1162 89.5734 55.2614C89.9311 50.5974 90.3393 45.9381 90.6832 41.2741C90.9836 37.2201 91.2106 33.1592 91.4972 29.1052C91.7815 25.0878 92.1094 21.0728 92.3892 17.0531C92.419 16.6381 92.325 16.1703 92.1461 15.792C91.7403 14.9321 91.261 14.1066 90.7772 13.2857C90.6878 13.1344 90.4562 13.0037 90.2727 12.9808C88.6447 12.7721 87.0144 12.5703 85.3818 12.4029C83.8501 12.247 83.8271 12.2677 83.8363 13.8177C83.8569 17.1219 83.9074 20.4262 83.9372 23.7281C83.9808 28.3301 84.0197 32.9345 84.0518 37.5365C84.0954 43.535 84.1229 49.5335 84.178 55.532C84.233 61.2805 84.327 67.0291 84.382 72.7776C84.4416 78.9091 84.4738 85.0406 84.5173 91.1744C84.5265 92.3392 84.5242 93.5064 84.5288 94.6712C84.5334 94.8547 84.554 95.0358 84.5678 95.2169Z" fill="#E70D25"/>
<path d="M91.7305 95.3825C91.7809 94.8826 91.8176 94.3827 91.8818 93.8851C92.4023 89.9114 92.9205 85.9353 93.4571 81.9615C93.7666 79.6708 94.0946 77.3847 94.4408 75.0986C95.0026 71.3816 95.5667 67.6624 96.1651 63.95C96.7475 60.3317 97.4286 56.7294 97.972 53.1041C98.6118 48.8391 99.2034 44.565 99.7216 40.2817C100.382 34.8243 100.953 29.3555 101.549 23.889C102.033 19.4475 102.503 15.0059 102.964 10.5644C103.108 9.17941 103.209 7.78985 103.335 6.40488C103.358 6.16411 103.418 5.92564 103.48 5.58398C104.014 5.78348 104.541 5.88207 104.954 6.15265C107.199 7.62705 109.437 9.11291 111.634 10.6584C112.769 11.4564 113.844 12.3483 114.892 13.2587C115.853 14.0933 116.77 14.983 117.651 15.9025C118.873 17.182 120.033 18.5188 121.239 19.8143C121.595 20.1973 121.654 20.5733 121.519 21.0663C120.732 23.9394 119.973 26.8195 119.201 29.6949C118.646 31.7586 118.082 33.8223 117.524 35.886C116.887 38.2455 116.165 40.5843 115.646 42.9691C115.25 44.7989 114.649 46.5278 113.858 48.2063C113.778 48.3783 113.693 48.5502 113.587 48.7084C112.328 50.6185 111.077 52.5332 109.804 54.4318C108.38 56.5551 106.896 58.6371 105.514 60.7834C103.966 63.1864 102.336 65.5391 101.15 68.1645C100.288 70.0769 99.2744 71.9205 98.3618 73.8099C98.1761 74.1928 98.1188 74.6423 98.0408 75.0688C97.7679 76.5523 97.5203 78.0382 97.2497 79.5218C96.9218 81.3264 96.5802 83.1264 96.2523 84.931C96.2202 85.1098 96.2316 85.2978 96.2202 85.518C96.3371 85.4836 96.4151 85.4859 96.4334 85.4538C97.5799 83.5001 98.9213 81.6428 99.6207 79.4599C100.332 77.2471 100.96 75.0046 101.65 72.7849C101.79 72.3355 101.999 71.8884 102.267 71.5009C103.023 70.4048 103.831 69.3409 104.613 68.2631C105.842 66.5663 107.071 64.8718 108.293 63.1704C108.882 62.3495 109.446 61.5126 110.04 60.6962C110.185 60.4968 110.391 60.3431 110.57 60.1688C110.618 60.201 110.664 60.2331 110.712 60.2675C110.308 61.4506 109.916 62.6384 109.497 63.817C108.644 66.2063 107.77 68.5865 106.917 70.9758C105.865 73.9223 104.803 76.8642 103.785 79.8222C103.296 81.2415 102.269 82.2711 101.386 83.4107C100.196 84.947 99.0268 86.5017 97.8299 88.0311C96.8186 89.3221 95.7707 90.5855 94.7526 91.8742C93.9272 92.9198 93.12 93.9814 92.3037 95.0316C92.1914 95.1761 92.0584 95.3068 91.9368 95.4421C91.868 95.426 91.7993 95.4031 91.7305 95.3825ZM101.111 60.0794C101.166 60.1115 101.223 60.1459 101.279 60.178C101.336 60.0817 101.391 59.9831 101.453 59.8891C102.109 58.8871 102.739 57.869 103.432 56.8899C104.344 55.5989 105.316 54.3538 106.236 53.0674C106.745 52.3566 107.206 51.6091 107.667 50.8639C107.784 50.6758 107.848 50.4419 107.892 50.2195C108.153 48.8735 108.385 47.5184 108.657 46.1747C109.217 43.4254 109.753 40.6692 110.386 37.9382C110.966 35.4297 111.657 32.9487 112.31 30.4585C112.663 29.1102 113.078 27.7779 113.388 26.4205C113.47 26.0582 113.388 25.5606 113.186 25.251C112.482 24.1642 111.691 23.1323 110.937 22.0798C110.483 21.447 110.047 20.798 109.577 20.1789C109.465 20.0299 109.18 19.8396 109.082 19.8877C108.919 19.9657 108.779 20.211 108.74 20.4082C108.639 20.931 108.63 21.4722 108.529 21.995C107.88 25.3703 107.217 28.741 106.559 32.114C106.03 34.8289 105.507 37.5461 104.97 40.261C104.335 43.4827 103.686 46.6998 103.049 49.9191C102.409 53.1592 101.776 56.3992 101.143 59.6392C101.116 59.7836 101.12 59.9327 101.111 60.0794Z" fill="#E70D25"/>
<path d="M66.02 79.4297C68.274 85.3525 70.4822 91.1607 72.6926 96.9666C72.633 97.001 72.5734 97.0354 72.5161 97.0698C72.3693 96.9138 72.2065 96.774 72.0804 96.6043C71.0348 95.1964 70.003 93.777 68.9528 92.3691C67.3935 90.2779 65.8274 88.1913 64.2544 86.1115C63.4198 85.0086 63.0322 83.7108 62.5759 82.4336C62.2228 81.4453 61.7688 80.4937 61.3973 79.5123C60.6636 77.5678 59.9573 75.6142 59.235 73.6674C59.0814 73.257 58.8957 72.858 58.7352 72.4498C57.779 70.0147 56.8159 67.5841 55.8781 65.1443C54.7706 62.262 53.6883 59.3683 52.5899 56.4814C51.9249 54.7341 51.2485 52.9914 50.579 51.2442C49.4714 48.3619 48.3547 45.4818 47.2587 42.5927C46.5364 40.6849 45.8531 38.7611 45.14 36.8487C44.874 36.1333 44.5644 35.4339 44.2847 34.7231C43.4752 32.664 42.6543 30.6094 41.8656 28.5412C41.1318 26.6173 40.4187 24.6843 39.7422 22.7399C39.6482 22.4693 39.7056 22.0268 39.8775 21.802C40.8475 20.5294 41.8678 19.2981 42.8791 18.0576C43.5394 17.2458 44.1654 16.3974 44.89 15.6453C45.9838 14.5103 47.0844 13.3684 48.2997 12.3732C50.2121 10.8048 52.1978 9.32353 54.2019 7.87206C55.0778 7.2369 56.073 6.77142 57.0085 6.21881C57.3639 6.01014 57.568 6.06288 57.6437 6.49626C58.1986 9.6927 58.7512 12.8914 59.3222 16.0856C59.7555 18.5116 60.2302 20.9284 60.6613 23.3544C61.3882 27.4336 62.099 31.5129 62.8098 35.5944C63.3808 38.8665 63.9403 42.141 64.5043 45.4131C65.0753 48.7242 65.6417 52.0375 66.2149 55.3486C66.8294 58.9028 67.4554 62.4569 68.07 66.0134C68.6432 69.3428 69.2119 72.6722 69.7714 76.004C69.9823 77.2651 70.1704 78.5286 70.3607 79.7943C70.4409 80.3309 70.2896 80.4455 69.7507 80.3056C68.7005 80.0328 67.648 79.7645 66.5956 79.4985C66.4671 79.471 66.3388 79.4687 66.02 79.4297ZM54.5 21.3251C54.4106 21.3045 54.3211 21.2838 54.2317 21.2632C53.89 21.6828 53.5484 22.1024 53.2044 22.522C51.9089 24.0973 50.6248 25.6818 49.3109 27.241C48.5038 28.1972 47.8251 29.135 48.6551 30.4329C48.8317 30.708 48.8271 31.0933 48.9395 31.4166C49.4783 32.9873 50.024 34.5534 50.5721 36.1218C51.7644 39.543 52.9591 42.9641 54.1515 46.3876C54.7109 47.9904 55.2658 49.5932 55.8253 51.196C56.4422 52.9593 57.0613 54.7226 57.6781 56.486C58.2628 58.1598 58.8475 59.8337 59.4345 61.5076C60.0078 63.1448 60.5787 64.7843 61.1566 66.4215C61.9064 68.5448 62.6883 70.6567 63.3968 72.7938C63.6491 73.555 64.1558 74.0114 64.7979 74.3714C65.2427 74.6213 65.7196 74.8162 66.2539 75.0684C66.2424 74.8414 66.2493 74.7658 66.2333 74.6924C65.6073 71.8009 64.979 68.9094 64.353 66.018C63.8371 63.6309 63.3303 61.2439 62.8075 58.8592C62.1173 55.7086 61.4203 52.5626 60.7163 49.4143C60.2692 47.4194 59.7831 45.436 59.352 43.4388C58.6664 40.2699 58.0243 37.0918 57.3456 33.9228C56.6302 30.5842 55.8964 27.2479 55.1581 23.9116C54.9586 23.0448 54.7178 22.1873 54.5 21.3251Z" fill="#E70D25"/>
<path d="M129.799 77.4528C129.54 79.9705 129.349 82.4974 128.998 85.0014C128.764 86.673 128.336 88.3239 127.934 89.968C127.538 91.5938 127.075 93.2012 126.621 94.8131C125.917 97.3171 124.864 99.6903 123.706 102.002C122.972 103.467 121.98 104.811 121.055 106.175C120.377 107.177 119.684 108.181 118.882 109.08C118.013 110.052 117.006 110.901 116.066 111.809C114.954 112.884 113.603 113.563 112.193 114.136C110.716 114.735 109.196 114.927 107.616 114.618C106.986 114.494 106.327 114.515 105.695 114.395C104.803 114.228 103.924 113.985 103.037 113.792C100.597 113.258 98.2103 112.566 95.9356 111.508C94.4199 110.805 92.8699 110.174 91.3611 109.461C90.9071 109.245 90.5104 108.883 90.1412 108.532C90.0403 108.436 90.0472 108.08 90.1435 107.941C91.2189 106.372 92.2874 104.799 93.4271 103.279C94.1517 102.314 95.0001 101.442 95.7774 100.516C96.6533 99.4748 97.504 98.4109 98.3868 97.3744C98.6322 97.0878 98.9738 96.8837 99.2444 96.6177C99.7833 96.088 100.308 95.54 100.836 94.9989C101.723 94.0863 102.576 93.1392 103.5 92.2679C104.463 91.3599 105.5 90.5252 106.49 89.647C106.713 89.4498 106.864 89.1678 107.091 88.9752C108.04 88.168 109.006 87.3792 109.966 86.5859C111.209 85.5609 112.436 84.5153 113.702 83.5178C114.66 82.7611 115.671 82.0732 116.653 81.3441C117.034 81.062 117.384 80.7364 117.772 80.4658C118.918 79.6656 120.056 78.847 121.239 78.1018C122.553 77.274 123.899 76.4966 125.256 75.7422C126.4 75.1048 127.581 74.5293 128.748 73.9308C129.313 73.6419 129.583 73.8024 129.595 74.4582C129.613 75.451 129.599 76.4439 129.599 77.4368C129.67 77.4414 129.734 77.4459 129.799 77.4528Z" fill="white"/>
<path d="M62.7187 94.7472C62.948 95.5956 63.8079 95.8593 64.3192 96.4554C66.0917 98.5169 67.9605 100.498 69.733 102.562C70.5929 103.564 71.3312 104.671 72.1086 105.742C72.6428 106.478 73.1496 107.235 73.6701 107.982C73.8994 108.31 73.9476 108.64 73.5715 108.872C72.6405 109.443 71.7325 110.083 70.7396 110.525C68.8135 111.383 66.8713 112.24 64.865 112.885C62.6935 113.582 60.4532 114.086 58.2222 114.572C57.1192 114.813 55.9658 114.914 54.8354 114.919C52.9941 114.926 51.2881 114.405 49.7128 113.401C48.5319 112.651 47.4519 111.819 46.537 110.755C45.7322 109.819 44.7875 109 44.0193 108.037C43.148 106.946 42.389 105.763 41.6094 104.602C41.1003 103.846 40.5913 103.082 40.1717 102.275C39.6809 101.333 39.2315 100.36 38.8601 99.3653C38.069 97.2465 37.2527 95.1301 36.6106 92.9632C36.0443 91.0509 35.7393 89.0651 35.2532 87.1275C34.8175 85.3871 34.7992 83.6009 34.5446 81.8445C34.242 79.7555 34.2809 77.6712 34.2809 75.5823C34.2809 75.0251 34.4277 74.4679 34.5171 73.8281C35.4939 74.2959 36.4249 74.6742 37.2893 75.1695C39.2522 76.2908 41.2173 77.4121 43.1159 78.6366C44.8998 79.7876 46.6379 81.019 48.3279 82.3031C50.1164 83.6628 51.827 85.1212 53.5628 86.5474C54.762 87.5311 55.9613 88.5102 57.1307 89.5283C57.9355 90.23 58.6899 90.9912 59.4627 91.7319C60.0222 92.2684 60.5748 92.8119 61.1297 93.353C61.5332 93.9607 62.0056 94.4926 62.7187 94.7472Z" fill="white"/>
<path d="M80.0493 103.912C79.7879 103.348 79.5104 102.791 79.2651 102.22C78.5176 100.463 77.7723 98.7069 77.0478 96.9436C76.5685 95.7787 76.0503 94.6253 75.6949 93.4215C75.3991 92.4218 75.3005 91.3624 75.1423 90.3237C74.8419 88.3608 74.5736 86.3935 74.2709 84.4329C74.0118 82.7728 73.7068 81.1196 73.4477 79.4571C72.8355 75.5338 72.2416 71.6082 71.634 67.6826C71.0676 64.0229 70.4921 60.3633 69.9234 56.7014C69.3433 52.9661 68.77 49.2308 68.1876 45.4955C67.5754 41.5722 66.954 37.6489 66.344 33.7232C65.7708 30.0453 65.2044 26.365 64.638 22.6847C64.0625 18.9494 63.4869 15.2119 62.9183 11.4743C62.5743 9.20878 62.2556 6.941 61.8933 4.67781C61.8154 4.18711 61.9575 3.97157 62.4024 3.7652C65.4016 2.37564 68.5935 1.60061 71.7693 0.775126C71.7876 0.77054 71.806 0.765955 71.8243 0.761369C73.1932 0.463279 73.3675 0.621497 73.3996 2.00188C73.4294 3.31806 73.5349 4.63195 73.5761 5.94813C73.6082 6.95705 73.5601 7.96827 73.606 8.97719C73.7367 11.8182 73.9109 14.6547 74.0416 17.4957C74.1173 19.1352 74.1127 20.7793 74.1976 22.4188C74.3535 25.4111 74.553 28.4035 74.7249 31.3958C74.8258 33.15 74.9084 34.9041 74.9932 36.6583C75.179 40.5105 75.3624 44.3605 75.5458 48.2127C75.6674 50.7488 75.7797 53.2848 75.9127 55.8209C76.126 59.9001 76.3553 63.9794 76.5731 68.0609C76.6625 69.7394 76.8162 71.4179 76.8001 73.0963C76.7726 76.302 77.2358 79.4548 77.6187 82.6215C78.0406 86.1091 78.4465 89.5991 78.8844 93.0844C79.3155 96.5148 79.7764 99.9382 80.2213 103.366C80.2419 103.527 80.2236 103.692 80.2236 103.855C80.1685 103.875 80.1089 103.894 80.0493 103.912Z" fill="#E70D25"/>
<path d="M82.3349 113.062C82.4175 113.243 82.5253 113.417 82.5803 113.605C83.4814 116.742 84.3803 119.879 85.2723 123.018C85.9831 125.513 86.687 128.01 87.3933 130.507C87.9597 132.508 88.5283 134.508 89.0901 136.51C89.6771 138.603 90.2527 140.699 90.8397 142.793C91.406 144.813 91.9816 146.831 92.5525 148.851C93.1739 151.054 93.7976 153.258 94.4099 155.466C94.7103 156.551 95.0129 157.635 95.2514 158.734C95.3087 158.995 95.2032 159.415 95.0152 159.584C94.6117 159.944 94.1049 160.192 93.6371 160.481C93.5569 160.531 93.4468 160.543 93.3803 160.605C92.2223 161.646 90.7594 162.143 89.4134 162.847C88.6636 163.239 88.4687 163.196 88.2417 162.363C87.6776 160.304 87.1411 158.236 86.5907 156.172C86.3683 155.342 86.1276 154.519 85.9143 153.687C85.8065 153.265 85.7194 152.834 85.6575 152.403C85.5864 151.893 85.364 151.589 84.8091 151.602C82.9586 151.648 81.1059 151.692 79.2554 151.733C78.8817 151.742 78.7212 151.93 78.673 152.295C78.2763 155.264 77.8682 158.231 77.4646 161.201C77.3637 161.939 77.2445 162.675 77.1871 163.416C77.1505 163.907 76.912 164.053 76.4786 163.984C76.2929 163.955 76.1003 163.909 75.9329 163.826C74.0091 162.859 72.0348 161.987 70.3311 160.625C69.9436 160.316 69.8037 160.031 69.939 159.557C70.3104 158.252 70.6659 156.945 71.0121 155.633C71.5739 153.492 72.1196 151.348 72.6791 149.206C73.3991 146.454 74.1283 143.707 74.8506 140.956C75.4812 138.557 76.1071 136.157 76.7308 133.756C77.3362 131.431 77.937 129.103 78.5423 126.778C79.1339 124.508 79.7255 122.236 80.3171 119.966C80.8697 117.842 81.4223 115.721 81.9772 113.6C82.0231 113.424 82.0942 113.254 82.1561 113.082C82.2157 113.071 82.2753 113.066 82.3349 113.062ZM82.5986 124.721C82.5413 124.721 82.484 124.721 82.429 124.719C82.3946 124.838 82.3464 124.958 82.3303 125.079C82.0414 127.232 81.7663 129.388 81.4682 131.539C80.9202 135.505 80.3607 139.47 79.8103 143.437C79.7186 144.104 79.8264 144.246 80.473 144.253C81.5805 144.267 82.6881 144.267 83.7933 144.239C84.4284 144.223 84.5454 144.04 84.4697 143.407C84.3597 142.478 84.245 141.552 84.1647 140.621C83.9951 138.628 83.8735 136.629 83.6809 134.639C83.4012 131.754 83.0756 128.874 82.766 125.994C82.7202 125.57 82.656 125.146 82.5986 124.721Z" fill="#E70D25"/>
<path d="M123.896 56.0912C127.375 54.5228 130.851 52.9544 134.329 51.386C134.375 51.4387 134.421 51.4915 134.467 51.5442C134.426 51.7781 134.41 52.0189 134.341 52.2413C133.476 55.0089 132.593 57.7743 131.736 60.5442C131.458 61.4362 131.252 62.3488 130.986 63.2454C130.654 64.3575 130.124 65.3091 129.133 66.0314C127.982 66.8706 126.96 67.8795 125.852 68.783C124.703 69.7185 123.525 70.6174 122.355 71.5254C122.225 71.6263 122.066 71.6928 121.922 71.7776C121.874 71.7524 121.826 71.7249 121.78 71.6997C123.227 67.8108 124.671 63.9218 126.118 60.0329C126.081 59.9824 126.045 59.9297 126.01 59.8793C125.396 60.0902 124.763 60.2599 124.171 60.519C123.139 60.9684 122.117 61.4431 121.122 61.9659C120.791 62.1402 120.459 62.452 120.298 62.7845C119.831 63.743 119.448 64.7427 119.037 65.7287C118.634 66.6986 118.237 67.6709 117.843 68.6431C117.398 69.7369 116.967 70.8352 116.52 71.9267C116.098 72.9517 115.433 73.7771 114.598 74.5201C113.532 75.4671 112.566 76.5264 111.546 77.5239C110.445 78.5993 109.331 79.661 108.219 80.7249C108.129 80.8098 108.019 80.8763 107.836 81.0116C107.868 80.8029 107.87 80.6928 107.902 80.5919C108.593 78.4296 109.29 76.2696 109.975 74.105C110.769 71.5965 111.532 69.0765 112.346 66.5725C113.337 63.5228 114.369 60.4869 115.375 57.4441C116.033 55.4515 116.68 53.4543 117.329 51.4594C118.496 47.8685 119.654 44.2731 120.823 40.6823C121.385 38.9602 121.975 37.2451 122.527 35.5207C123.364 32.9067 124.178 30.2835 125.013 27.6672C125.189 27.1123 125.419 26.5757 125.685 25.8672C126.134 26.5367 126.531 27.0412 126.838 27.5961C127.719 29.1783 128.633 30.7467 129.409 32.3793C130.915 35.5574 132.137 38.8479 133.038 42.2507C133.208 42.8927 133.334 43.56 133.369 44.2227C133.385 44.523 133.197 44.8922 132.992 45.1376C132.084 46.2153 131.121 47.2448 130.209 48.3157C129.381 49.2833 128.606 50.2968 127.778 51.2668C126.65 52.5852 125.492 53.8762 124.355 55.1855C124.139 55.4331 123.963 55.7175 123.77 55.9835C123.804 56.0178 123.85 56.0545 123.896 56.0912ZM126.689 39.7834C126.604 39.7949 126.517 39.8086 126.432 39.8201C125.52 42.9271 124.605 46.0318 123.692 49.1389C123.763 49.1824 123.832 49.2283 123.903 49.2718C124.064 49.148 124.24 49.0403 124.375 48.8935C124.543 48.7124 124.653 48.4808 124.825 48.3042C125.737 47.3641 126.668 46.4377 127.583 45.4976C128.262 44.8005 128.723 44.0553 128.058 43.083C127.955 42.9317 127.934 42.723 127.861 42.5465C127.473 41.627 127.079 40.7052 126.689 39.7834Z" fill="#E70D25"/>
<path d="M46.9978 52.2163C46.2411 51.8747 45.6541 51.5743 45.0373 51.3404C43.4024 50.7236 42.5081 49.4097 41.6781 47.9743C40.6783 46.2408 39.5639 44.5738 38.5114 42.8724C38.211 42.3863 37.9657 41.868 37.6653 41.3819C37.3947 40.9462 37.1792 40.9394 36.9981 41.4071C36.677 42.2395 36.3308 43.0902 36.2093 43.9615C36.1451 44.4224 36.4707 44.9842 36.7321 45.4359C37.6607 47.0365 38.6421 48.6049 39.5937 50.1893C39.8574 50.6296 40.1142 51.0767 40.3206 51.5445C41.0062 53.0946 42.4325 53.92 43.6501 54.9381C45.0213 56.0869 46.3993 57.2449 47.8783 58.2469C48.807 58.8775 49.2725 59.7282 49.6623 60.6798C50.4534 62.6036 51.2146 64.5389 51.992 66.4673C52.618 68.0243 53.2531 69.5789 53.8745 71.1382C55.0417 74.0618 56.2088 76.983 57.3622 79.9135C57.6901 80.7458 57.9721 81.5989 58.2656 82.445C58.3321 82.633 58.3642 82.8348 58.4491 83.1833C58.1487 83.0411 57.9744 82.9861 57.8323 82.8852C56.124 81.6699 54.4157 80.4546 52.7189 79.2233C51.3935 78.2625 50.0957 77.2605 48.7634 76.3089C47.7889 75.6118 46.7617 74.9904 45.7848 74.2956C44.3701 73.289 42.9874 72.2342 41.5772 71.223C40.5866 70.5145 39.5685 69.8472 38.5688 69.1479C37.929 68.7007 37.303 68.2307 36.6724 67.7698C35.9043 67.208 35.104 66.6829 34.3817 66.0661C34.0424 65.7771 33.742 65.3415 33.6205 64.915C32.8936 62.3239 32.2149 59.719 31.5361 57.1142C31.2701 56.0892 31.0408 55.0551 30.7932 54.0255C30.8712 53.9774 30.9491 53.9292 31.0271 53.8811C36.5555 59.5264 42.0862 65.1695 47.6146 70.8149C47.672 70.7851 47.7293 70.7552 47.7866 70.7231C47.6559 70.2416 47.5413 69.7555 47.3922 69.2809C46.6883 67.0429 45.9774 64.8049 45.2529 62.5738C45.1795 62.3491 45.0327 62.1244 44.863 61.9616C44.0376 61.1728 43.1823 60.4115 42.3545 59.625C41.263 58.5886 40.1509 57.5705 39.1099 56.4836C38.4679 55.8118 37.9336 55.0367 37.3626 54.2984C35.9891 52.5167 34.6179 50.7351 33.2582 48.9442C32.4854 47.9261 31.7517 46.8805 30.9789 45.8624C30.6235 45.397 30.5662 44.904 30.6579 44.3491C31.1486 41.4255 31.7425 38.5294 32.8087 35.7526C33.6205 33.6362 34.4368 31.522 35.3104 29.4308C35.6589 28.5962 36.1634 27.8257 36.6587 26.9131C36.849 27.1882 37.021 27.3625 37.1081 27.5712C37.5896 28.7131 38.0459 29.8642 38.5229 31.0084C39.486 33.3151 40.4742 35.6104 41.419 37.9241C42.2261 39.9029 42.9759 41.9024 43.7716 43.8859C44.1041 44.7182 44.503 45.5254 44.8424 46.3577C45.5028 47.9812 46.1494 49.6115 46.7869 51.2441C46.8901 51.4963 46.9084 51.7807 46.9978 52.2163Z" fill="#E70D25"/>
<path d="M103.105 122.463C103.915 122.949 104.731 123.424 105.529 123.928C107.155 124.955 108.767 126.006 110.395 127.033C112.229 128.191 114.073 129.34 115.919 130.479C116.6 130.899 117.297 131.289 117.994 131.683C118.402 131.915 118.505 132.21 118.262 132.632C117.597 133.79 116.939 134.953 116.283 136.118C115.91 136.783 115.591 137.484 115.169 138.117C113.775 140.213 112.353 142.288 110.925 144.361C110.528 144.934 110.209 144.978 109.705 144.489C108.721 143.536 107.779 142.536 106.816 141.559C106.134 140.867 105.451 140.176 104.766 139.488C103.676 138.397 102.587 137.303 101.489 136.221C100.526 135.272 99.5444 134.341 98.579 133.391C97.3844 132.215 96.1989 131.03 95.0089 129.849C94.8919 129.732 94.7612 129.626 94.6374 129.516C94.5961 129.544 94.5525 129.569 94.5113 129.596C94.8071 130.158 95.0983 130.722 95.3987 131.282C97.0359 134.343 98.6708 137.404 100.315 140.461C101.111 141.937 101.938 143.398 102.736 144.877C103.117 145.581 103.456 146.31 103.821 147.023C104.307 147.97 104.8 148.917 105.293 149.862C105.49 150.238 105.502 150.593 105.192 150.914C104.323 151.82 103.477 152.749 102.576 153.62C101.645 154.519 100.668 155.372 99.6843 156.214C99.3518 156.498 98.9345 156.684 98.5561 156.913C98.4071 156.553 98.2191 156.204 98.1136 155.831C97.5357 153.813 96.9762 151.79 96.4145 149.766C95.7839 147.486 95.1556 145.205 94.5296 142.923C94.0435 141.158 93.562 139.39 93.0759 137.624C92.3834 135.104 91.6863 132.584 90.9984 130.062C90.5558 128.443 90.1385 126.817 89.6914 125.198C88.9897 122.658 88.2674 120.124 87.5704 117.583C87.3846 116.905 87.247 116.212 87.0934 115.524C87.0636 115.387 87.0636 115.245 87.043 115.024C87.2241 115.1 87.3434 115.116 87.4167 115.185C89.7923 117.366 92.1587 119.555 94.5365 121.734C95.2955 122.429 96.0911 123.082 96.8524 123.772C97.8957 124.717 98.9138 125.691 99.9617 126.632C100.867 127.443 101.81 128.216 102.725 129.019C103.426 129.633 104.11 130.268 104.8 130.897C106.437 132.385 108.074 133.875 109.712 135.366C109.978 135.609 110.209 135.923 110.626 135.554C111.03 135.196 110.991 134.863 110.718 134.453C109.239 132.233 107.779 130 106.3 127.78C105.38 126.4 104.428 125.04 103.514 123.658C103.293 123.323 103.154 122.935 102.977 122.573C103.016 122.534 103.062 122.497 103.105 122.463Z" fill="#E70D25"/>
<path d="M67.7268 131.593C67.2154 132.047 66.7683 132.373 66.4083 132.774C65.6883 133.583 65.0187 134.439 64.3171 135.266C64.1199 135.498 63.8837 135.697 63.6681 135.913C63.5053 136.074 63.3334 136.225 63.1866 136.399C62.4001 137.328 61.6434 138.279 60.834 139.187C59.5568 140.625 58.2475 142.033 56.9519 143.452C56.5667 143.874 56.1975 144.317 55.7802 144.707C55.6289 144.849 55.356 144.863 55.1405 144.934C55.0969 144.725 54.9754 144.498 55.0189 144.31C55.6724 141.483 56.3581 138.662 57.0139 135.837C57.6123 133.253 58.1879 130.662 58.768 128.073C58.7909 127.965 58.784 127.853 58.6763 127.663C58.2544 128.151 57.8279 128.637 57.4105 129.13C56.4521 130.268 55.4867 131.398 54.5466 132.549C53.7394 133.535 52.969 134.553 52.1664 135.544C51.4694 136.404 50.7517 137.243 50.0431 138.094C49.7634 138.428 49.4814 138.408 49.2521 138.059C48.516 136.945 47.7799 135.83 47.0737 134.698C46.6495 134.019 46.2964 133.299 45.8813 132.613C45.7071 132.324 45.7323 132.116 45.9868 131.923C46.6541 131.421 47.3259 130.921 47.9978 130.424C49.2566 129.495 50.5109 128.562 51.7766 127.644C54.1086 125.952 56.4429 124.267 58.7818 122.588C60.0337 121.69 61.3041 120.816 62.5515 119.91C63.1958 119.442 63.808 118.931 64.434 118.44C64.5074 118.482 64.5785 118.525 64.6518 118.566C63.049 124.244 61.4462 129.919 59.8434 135.597C59.8847 135.631 59.9283 135.665 59.9695 135.7C60.2814 135.344 60.6185 135.01 60.9028 134.633C62.0057 133.177 63.0995 131.717 64.1818 130.245C65.2205 128.832 66.2455 127.411 67.2659 125.984C68.715 123.955 70.1367 121.907 71.6019 119.89C72.0238 119.307 72.565 118.812 73.0442 118.271C73.7596 117.459 74.4636 116.636 75.1836 115.829C75.938 114.982 76.7061 114.148 77.4674 113.309C77.5156 113.334 77.5614 113.359 77.6096 113.387C77.5431 113.731 77.5018 114.084 77.4055 114.421C76.6832 116.954 75.9357 119.481 75.2226 122.017C74.4934 124.606 73.8101 127.209 73.0763 129.795C72.6292 131.375 72.1018 132.934 71.6569 134.514C70.9163 137.14 70.2238 139.779 69.4878 142.404C69.1438 143.636 68.7265 144.849 68.378 146.08C67.6006 148.834 66.8485 151.595 66.0804 154.351C65.9107 154.959 65.725 155.562 65.5392 156.162C65.381 156.667 65.1769 156.733 64.8261 156.378C63.3311 154.858 61.8383 153.335 60.3685 151.792C60.2309 151.648 60.1484 151.322 60.2103 151.139C60.9395 148.949 61.6549 146.752 62.4643 144.592C63.2852 142.395 64.1909 140.228 65.0829 138.059C65.9038 136.067 66.7568 134.09 67.5938 132.104C67.6442 131.985 67.6603 131.857 67.7268 131.593Z" fill="#E70D25"/>
<path d="M29.1999 67.2402C29.2778 67.6759 29.3718 68.1093 29.4315 68.5472C29.7594 70.9687 30.0964 73.3878 30.4014 75.8138C30.7545 78.6158 31.0251 81.4293 31.4264 84.2245C31.7955 86.795 32.3206 89.3402 32.7196 91.906C33.1186 94.4627 33.8959 96.914 34.6251 99.3858C35.462 102.218 36.6108 104.914 37.9522 107.531C38.725 109.039 39.5298 110.541 40.4493 111.963C41.6188 113.77 42.912 115.496 44.164 117.248C44.5538 117.792 44.54 117.934 43.9324 118.145C42.7607 118.553 41.5821 118.936 40.4103 119.346C39.8875 119.53 39.5895 119.424 39.3487 118.869C38.1403 116.104 37.0993 113.279 36.2371 110.388C35.1915 106.877 34.0679 103.385 33.1324 99.8444C32.3871 97.024 31.7382 94.1624 31.2842 91.2823C30.5802 86.7972 29.9932 82.2869 29.5209 77.7697C29.2044 74.7567 29.1655 71.7116 29.0118 68.6825C28.9866 68.2102 29.0095 67.7355 29.0095 67.2632C29.0737 67.2563 29.1357 67.2471 29.1999 67.2402Z" fill="#E70D25"/>
<path d="M134.933 67.3068C134.903 67.7517 134.871 68.1988 134.843 68.6436C134.736 70.4528 134.685 72.2689 134.511 74.0735C134.107 78.2536 133.619 82.4246 133.218 86.6047C132.906 89.847 132.202 93.0136 131.482 96.178C130.966 98.4458 130.432 100.711 129.835 102.961C129.267 105.1 128.677 107.237 127.971 109.333C126.894 112.529 125.706 115.689 124.566 118.865C124.541 118.936 124.507 119.005 124.479 119.076C124.103 120.071 124.075 120.11 123.062 119.782C121.936 119.418 120.831 118.986 119.714 118.592C119.29 118.441 119.239 118.209 119.505 117.861C120.303 116.815 121.14 115.797 121.874 114.71C122.757 113.403 123.566 112.041 124.38 110.688C124.873 109.872 125.348 109.042 125.772 108.189C126.458 106.806 127.205 105.439 127.73 103.997C128.579 101.672 129.326 99.3056 130.01 96.9232C130.544 95.0521 131.005 93.1512 131.337 91.2343C131.817 88.4712 132.163 85.6829 132.548 82.9015C133.22 78.0426 133.878 73.1792 134.545 68.3203C134.593 67.9718 134.658 67.6255 134.715 67.2793C134.786 67.2885 134.859 67.2976 134.933 67.3068Z" fill="#E70D25"/>
<path d="M109.471 121.518C109.739 121.438 110 121.33 110.273 121.284C111.871 121.018 113.477 120.784 115.073 120.504C115.728 120.39 116.302 120.504 116.884 120.821C118.356 121.623 119.849 122.385 121.33 123.171C121.931 123.49 122.007 123.685 121.766 124.325C121.264 125.661 120.755 126.998 120.236 128.33C120.161 128.523 120.032 128.695 119.927 128.874C119.748 129.176 119.521 129.248 119.216 129.039C118.856 128.791 118.473 128.576 118.122 128.314C115.611 126.427 113.107 124.535 110.603 122.639C110.2 122.334 109.812 122.011 109.418 121.694C109.436 121.633 109.455 121.575 109.471 121.518Z" fill="#E70D25"/>
<path d="M53.8473 121.93C53.1594 122.497 52.5908 122.99 51.9946 123.451C51.3158 123.974 50.6142 124.462 49.924 124.969C48.4932 126.017 47.0646 127.062 45.6338 128.112C45.2532 128.392 44.8886 128.697 44.4919 128.956C44.1021 129.213 43.8017 129.055 43.6045 128.667C42.8799 127.239 42.1622 125.806 41.4353 124.379C41.2267 123.969 41.3298 123.696 41.7311 123.494C43.4646 122.618 45.1844 121.708 46.9408 120.88C47.2779 120.722 47.7663 120.821 48.1721 120.883C49.8896 121.142 51.6025 121.431 53.3153 121.715C53.4369 121.736 53.5515 121.809 53.8473 121.93Z" fill="#E70D25"/>
<path d="M62.7183 94.7473C62.0052 94.4928 61.5328 93.9631 61.127 93.3555C61.6566 93.8187 62.1886 94.2818 62.7183 94.7473Z" fill="#8A8A8F"/>
</svg>
