<svg width="164" height="164" viewBox="0 0 164 164" fill="none" xmlns="http://www.w3.org/2000/svg">
<path d="M60.7644 22.2859C64.4552 22.3795 68.0342 22.9365 71.2914 24.8447C71.3302 24.7762 71.369 24.7077 71.4078 24.6392C71.2914 24.4909 71.1841 24.3334 71.0586 24.1919C70.4902 23.5527 69.9219 22.9114 69.3421 22.2837C68.703 21.5921 68.6254 20.6882 68.7646 19.8938C69.0865 18.0678 69.9059 16.397 70.7847 14.7696C70.9924 14.3861 71.2777 14.4409 71.611 14.5482C73.5922 15.185 75.4958 15.9793 77.1803 17.2324C77.2557 17.2895 77.3401 17.3351 77.4246 17.3739C77.4497 17.3853 77.4908 17.358 77.6574 17.3123C77.2237 16.8284 76.8722 16.3331 76.4225 15.9565C75.2904 15.0047 73.9825 14.3724 72.5536 13.9707C72.2661 13.8908 71.9967 13.5941 71.8141 13.3316C70.4377 11.3732 69.9173 9.0815 69.3353 6.81723C69.018 5.58466 68.7418 4.34297 68.3789 3.1241C68.194 2.50781 68.4519 2.27271 68.9632 2.14261C71.3576 1.53545 73.7314 0.836999 76.208 0.622441C76.9087 0.560812 77.614 0.535703 78.3102 0.435272C78.8397 0.359948 79.0315 0.560812 79.084 1.06069C79.3214 3.34778 79.5656 5.63716 79.8304 7.92197C80.0609 9.90321 80.3873 11.8776 80.5516 13.8634C80.7365 16.1003 80.2344 18.2139 78.9676 20.097C78.0614 21.446 77.557 22.9524 77.1415 24.4954C76.4499 27.061 76.3472 29.711 76.0824 32.3382C75.7834 35.326 75.4456 38.3116 75.2379 41.3063C75.1512 42.5639 75.3452 43.8445 75.4365 45.1113C75.61 47.5376 75.7903 49.9616 75.9911 52.3857C76.2536 55.5493 76.4979 58.7129 77.1735 61.8262C77.2465 62.1641 77.21 62.5247 77.2237 62.8762C76.8654 62.8032 76.4705 62.8009 76.1555 62.6434C74.4892 61.8148 72.7933 61.0251 71.1978 60.0732C69.4083 59.005 67.717 57.7725 65.9777 56.6175C65.3705 56.2135 64.9528 55.6908 64.7154 54.9855C64.4438 54.1752 64.0809 53.3968 63.791 52.5934C63.6906 52.3149 63.6518 51.9999 63.6518 51.7032C63.6404 48.2041 63.5993 44.705 63.6655 41.2081C63.686 40.1399 63.9622 39.0671 64.2041 38.0149C64.4484 36.9421 64.7953 35.8921 65.0966 34.8307C65.2769 34.1939 65.4116 34.0889 66.0849 34.3103C67.0779 34.6344 68.0502 35.0202 69.034 35.3763C69.4015 35.5086 69.7735 35.6319 70.1433 35.7597C70.173 35.7209 70.2026 35.6798 70.2323 35.641C69.915 35.2621 69.5909 34.8878 69.2782 34.5066C68.1187 33.096 66.7903 31.8908 65.1149 31.1216C64.8181 30.9847 64.4644 30.8728 64.1471 30.8934C62.4032 31.0052 60.6617 31.1581 58.9201 31.3042C58.7261 31.3202 58.5366 31.3932 58.3449 31.4412C58.3403 31.4891 58.3358 31.537 58.3335 31.585C58.5343 31.6626 58.7306 31.7493 58.9361 31.8178C60.2006 32.2309 61.4697 32.6327 62.7342 33.0504C63.4075 33.2718 63.4349 33.3608 63.1199 33.9725C62.3348 35.5018 61.9992 37.1544 61.8349 38.8457C61.513 42.1759 61.2049 45.5061 60.8945 48.8363C60.8214 49.6124 60.7758 50.3908 60.6982 51.1668C60.6822 51.3197 60.5863 51.4635 60.527 51.6142C60.3969 51.5548 60.2485 51.5138 60.1367 51.4293C58.1509 49.9639 56.1514 48.5145 54.1953 47.008C53.5379 46.5013 52.9672 45.8736 52.4103 45.2528C52.2505 45.0747 52.1935 44.7255 52.2186 44.4676C52.5199 41.4432 52.8486 38.4212 53.1635 35.3968C53.3142 33.9428 53.4945 32.4911 53.5744 31.0326C53.6064 30.4711 53.5493 29.8069 53.2731 29.3435C52.5358 28.0927 52.7618 26.7894 52.7641 25.4655C52.7664 23.6372 53.8346 22.343 54.7704 20.9712C55.809 19.451 56.9206 17.9811 57.9386 16.4472C58.1349 16.1505 58.1623 15.6232 58.0573 15.2626C57.6396 13.8223 57.1443 12.4026 56.665 10.9806C56.2906 9.86441 55.9186 8.74369 55.5031 7.64122C55.3 7.10483 55.4689 6.81723 55.9574 6.61865C57.0142 6.18725 58.0664 5.75129 59.1187 5.31076C60.6799 4.65795 62.2435 4.01428 63.7956 3.33865C64.2612 3.13551 64.4621 3.22452 64.6264 3.71299C65.5006 6.30594 66.4205 8.8852 67.2993 11.4782C67.8493 13.101 67.8996 14.6988 67.0664 16.2783C66.3406 17.6524 65.6924 19.0699 65.0213 20.4736C64.8136 20.9073 64.4781 21.1196 64.0193 21.2268C62.9328 21.4825 61.8554 21.7747 60.7735 22.0508C60.7621 22.1307 60.7644 22.2083 60.7644 22.2859Z" fill="#EC8413"/>
<path d="M96.4639 19.4964C96.4639 18.54 96.4707 17.6544 96.4616 16.7711C96.4547 16.011 96.457 15.2486 96.4114 14.4908C96.3771 13.9088 96.562 13.418 96.8701 12.9432C97.79 11.5235 98.6962 10.0969 99.6046 8.67035C99.7918 8.37819 99.9812 8.207 100.237 8.59274C100.869 9.54228 101.597 10.4439 102.106 11.455C103.339 13.9179 104.45 16.4401 105.646 18.9235C106.098 19.8616 106.651 20.7518 107.153 21.6648C107.336 21.998 107.495 22.3427 107.68 22.6737C107.922 23.1119 107.849 23.5091 107.687 23.9747C107.557 24.3468 107.593 24.8215 107.689 25.2187C107.911 26.134 108.228 27.0242 108.477 27.9349C108.605 28.4028 108.671 28.889 108.764 29.3683C108.826 29.3661 108.888 29.3638 108.949 29.3615C108.949 29.0168 108.954 28.6722 108.949 28.3275C108.936 27.5857 109.047 26.8096 108.867 26.1112C108.637 25.2233 108.328 24.4038 108.792 23.5022C108.881 23.3265 108.774 23.0115 108.685 22.7901C108.354 21.9821 107.934 21.2083 107.662 20.382C107.445 19.7224 107.342 19.0148 107.281 18.3209C107.059 15.8786 106.895 13.4317 106.667 10.9917C106.596 10.2384 106.785 9.66782 107.269 9.06979C108.169 7.96048 109.251 7.07486 110.387 6.24858C110.62 6.07968 111.047 6.00435 111.316 6.09337C112.846 6.60466 114.336 7.24605 115.879 7.70484C116.797 7.97874 117.532 8.44666 118.162 9.11316C118.312 9.27294 118.413 9.59478 118.367 9.80705C117.933 11.7929 117.582 13.8083 116.968 15.7393C116.463 17.3211 115.651 18.8071 114.946 20.325C114.578 21.117 114.149 21.8816 113.747 22.6577C113.304 23.5137 113.464 24.4312 113.777 25.2096C114.612 27.2775 114.854 29.4847 115.461 31.5984C115.776 32.6963 115.692 33.6686 115.126 34.6478C114.329 36.0288 113.457 37.3846 112.83 38.8408C111.805 41.2192 109.764 42.486 107.783 43.8487C106.838 44.4992 106.836 44.481 106.457 43.3762C105.432 40.3724 104.437 37.3572 103.35 34.3739C102.951 33.2738 102.376 32.2284 101.796 31.2058C100.785 29.4208 99.7142 27.6679 98.6574 25.9103C98.4976 25.6455 98.2762 25.4173 98.0822 25.173C98.0297 25.1913 97.9772 25.2096 97.927 25.2278C97.9498 25.7049 97.9612 26.1842 97.9977 26.6613C98.1073 28.0833 98.2397 29.503 98.3378 30.925C98.3926 31.7079 98.3332 31.7376 97.5777 31.6897C96.3908 31.6143 95.2039 31.5573 93.9782 31.6166C94.0969 31.6805 94.211 31.7582 94.3365 31.8038C95.1582 32.1028 96.0279 32.3105 96.7948 32.7122C97.507 33.0843 98.1118 33.6595 98.7646 34.148C98.856 34.2164 98.929 34.3146 99.0271 34.3648C100.579 35.1797 101.006 36.6907 101.232 38.2154C101.568 40.4683 101.782 42.744 101.946 45.0174C102.029 46.1655 101.917 47.3341 101.83 48.4868C101.81 48.763 101.595 49.1031 101.367 49.272C99.1709 50.9017 96.9569 52.5132 94.736 54.1087C93.7339 54.83 93.581 54.7227 93.4053 53.5198C93.0811 51.2806 92.684 49.0529 92.3553 46.816C92.0677 44.8599 91.828 42.8992 91.5678 40.9385C91.1844 38.0557 90.8625 35.1637 90.4037 32.2923C89.9358 29.3683 89.3036 26.4695 88.8037 23.5502C88.564 22.1441 88.8219 20.8408 90.0385 19.8844C90.8009 19.2864 91.5518 18.6724 92.2823 18.0333C92.6383 17.7206 92.9579 17.6932 93.3619 17.9123C94.211 18.378 95.0738 18.8231 95.9343 19.2704C96.1032 19.3549 96.2881 19.4211 96.4639 19.4964Z" fill="#EC8413"/>
<path d="M41.7278 25.0501C42.5518 25.0501 43.4078 25.1893 44.1952 25.0181C45.494 24.7351 46.3819 25.1117 47.199 26.1343C48.5024 27.7663 49.9815 29.2614 51.2597 30.9116C51.9216 31.7676 52.3256 32.8244 52.8027 33.8127C52.894 33.9999 52.8232 34.3012 52.7524 34.5272C52.3576 35.7962 51.9399 37.0608 51.5267 38.3253C51.4856 38.4508 51.4354 38.5741 51.3806 38.695C50.3193 41.0369 48.5275 42.6712 46.334 43.9221C45.8135 44.2188 45.6583 43.8102 45.4529 43.5135C44.4851 42.1029 43.6018 40.6284 42.5518 39.2839C41.1595 37.5036 40.582 35.3534 39.6576 33.3653C39.3791 32.765 39.3471 32.046 39.2399 31.375C39.2147 31.2106 39.3334 31.0166 39.4088 30.8477C39.4955 30.6514 39.6096 30.4665 39.7854 30.1378C39.532 30.2428 39.4225 30.2634 39.3426 30.325C38.9523 30.6263 38.5848 30.9573 38.183 31.2449C36.7519 32.2674 36.4141 33.7602 36.341 35.3899C36.3114 36.0519 36.2315 36.7184 36.0968 37.3689C36.042 37.6291 35.832 37.9441 35.6038 38.0651C33.182 39.3364 30.7694 40.6306 28.2951 41.7924C27.3159 42.2535 26.1906 42.4087 25.1247 42.6804C24.7184 42.7831 24.4947 42.5982 24.5518 42.1599C24.8371 39.9756 25.1954 37.7957 25.3895 35.6022C25.4967 34.3948 25.814 33.5365 27.042 33.0755C27.7359 32.8153 28.302 32.2332 28.9707 31.8817C30.2969 31.1832 31.1255 30.042 31.7714 28.766C32.5498 27.2253 33.2277 25.6344 33.9695 24.0732C34.5196 22.9136 34.7478 21.6651 34.7364 20.4188C34.7182 18.7046 35.3778 17.4538 36.6515 16.3262C38.4775 14.7079 40.5044 13.4274 42.634 12.2907C42.7983 12.2017 43.2069 12.3227 43.3507 12.4825C44.597 13.8634 45.8113 15.2763 47.0324 16.6823C47.142 16.8101 47.2447 16.9425 47.4729 17.0156C47.2493 16.5203 47.0233 16.0227 46.7996 15.5274C46.2678 14.3496 45.7428 13.1672 45.1973 11.9963C45.0032 11.5809 45.0649 11.3389 45.51 11.154C47.5437 10.3026 49.5637 9.42159 51.6043 8.58162C51.7846 8.50629 52.1544 8.58618 52.2822 8.72998C53.4897 10.0972 54.7086 11.4599 55.827 12.8979C56.3314 13.5461 56.6236 14.361 57.0048 15.1051C57.0459 15.185 57.071 15.306 57.039 15.3813C56.6966 16.1688 56.6031 17.0635 55.8704 17.6775C53.7887 19.4236 51.7299 21.1972 49.6847 22.9844C49.3058 23.3154 48.9817 23.4341 48.5161 23.2012C47.5209 22.7059 46.5485 22.731 45.5214 23.2309C44.4486 23.7536 43.3028 24.1302 42.1912 24.573C42.0223 24.6415 41.8579 24.7282 41.6936 24.8059C41.705 24.888 41.7164 24.9679 41.7278 25.0501ZM31.3081 31.5895C31.2784 31.6124 31.2487 31.6329 31.219 31.6557C31.4701 31.9844 31.7486 32.2971 31.9609 32.6486C32.0704 32.8312 32.1754 33.1553 32.0887 33.2991C31.6048 34.0889 31.6824 34.938 31.7052 35.794C31.7258 36.5951 31.7098 37.3963 31.7098 38.1975C31.7805 38.1975 31.8536 38.1997 31.9243 38.1997C31.9905 37.3803 32.091 36.5632 32.1115 35.7437C32.1298 34.9563 32.1891 34.2007 32.568 33.4772C32.6753 33.274 32.6091 32.8563 32.4607 32.6715C32.1321 32.2674 31.6984 31.9456 31.3081 31.5895Z" fill="#EC8413"/>
<path d="M82.65 40.5694C81.7392 40.0353 80.8353 39.4875 79.9132 38.9762C79.4841 38.7388 79.0185 38.5676 78.5642 38.3782C78.1328 38.1978 78.1146 37.8714 78.2059 37.4811C78.4524 36.4266 78.7582 35.3789 78.9112 34.3107C79.0413 33.4 79.0436 32.4618 79.0048 31.542C78.9066 29.3211 78.7468 27.1025 78.6259 24.8816C78.6167 24.7012 78.635 24.4387 78.7468 24.3474C79.4316 23.7928 80.0958 23.1765 80.865 22.7725C81.915 22.2247 83.0973 22.1037 84.2865 22.0147C85.3821 21.9325 86.4664 21.7043 87.5483 21.4943C88.0664 21.3938 88.2102 21.5787 88.1691 22.0512C88.0322 23.6216 87.845 25.192 87.7902 26.7669C87.7537 27.858 87.7948 28.9764 88.0048 30.0446C88.1897 30.9805 88.2262 31.8227 87.8039 32.6901C87.5003 33.3109 87.2767 33.9729 86.9731 34.7261C87.3474 34.7261 87.6053 34.7307 87.8633 34.7238C88.3289 34.7101 88.5709 34.9315 88.5914 35.3995C88.637 36.406 88.669 37.4126 88.7397 38.417C88.9292 41.1628 89.0776 43.9133 89.3469 46.65C89.5706 48.9166 89.9746 51.1672 90.2371 53.4314C90.3147 54.0957 90.1549 54.785 90.1389 55.4652C90.091 57.3346 89.3264 58.9141 88.1897 60.3384C88.0002 60.5758 87.7126 60.8017 87.4273 60.8885C86.4481 61.1898 85.462 61.5025 84.4554 61.6645C83.4374 61.8266 82.5244 62.1073 81.6936 62.7487C80.9198 63.3468 80.8331 63.2851 80.6893 62.2945C80.2419 59.2291 79.8173 56.1591 79.3654 53.0936C78.8358 49.5032 78.2858 45.9151 77.7494 42.3247C77.6969 41.9686 77.6786 41.6057 77.6216 41.2496C77.5508 40.8159 77.7494 40.7429 78.1374 40.752C79.5046 40.7839 80.8742 40.7839 82.2414 40.7885C82.3646 40.7885 82.4879 40.7474 82.6112 40.7269C82.6226 40.6767 82.6363 40.6242 82.65 40.5694Z" fill="#EC8413"/>
<path d="M130.329 19.9627C130.078 19.9627 129.825 19.9468 129.576 19.965C127.531 20.1225 125.488 20.2846 123.445 20.4512C123.094 20.4809 123.014 20.668 123.133 21.0059C123.665 22.5329 124.155 24.0713 124.714 25.5869C124.806 25.8357 125.134 26.105 125.399 26.1644C127.047 26.541 128.704 26.872 130.364 27.1915C130.948 27.3034 131.503 27.3878 131.957 27.8512C132.379 28.2826 132.774 27.9653 133.244 27.6549C132.731 27.365 132.283 27.1436 131.868 26.872C130.64 26.0685 129.206 25.8905 127.832 25.5481C126.239 25.1509 125.198 24.1192 124.877 22.5397C124.79 22.1106 124.92 21.9212 125.333 21.8983C127.7 21.7728 130.099 21.3779 132.395 22.227C133.498 22.6333 134.591 23.2085 135.187 24.3475C136.257 26.4018 137.444 28.4104 138.346 30.5377C139.195 32.5418 139.74 34.6759 140.418 36.753C140.548 37.1502 140.357 37.2917 139.985 37.2369C137.428 36.8626 134.867 36.5042 132.318 36.0797C132.023 36.0318 131.71 35.6529 131.542 35.3516C130.695 33.8223 129.898 32.2656 129.067 30.7294C128.923 30.4624 128.702 30.2387 128.517 29.9967C128.465 30.0287 128.41 30.0607 128.357 30.0926C128.604 30.9349 128.903 31.7657 129.081 32.6217C129.238 33.3772 129.305 34.1601 129.316 34.9339C129.318 35.137 128.994 35.4703 128.766 35.5273C127.403 35.8606 126.034 36.1801 124.653 36.4061C122.612 36.7393 120.553 36.9722 118.508 37.294C117.949 37.3807 117.782 37.2095 117.787 36.6914C117.803 34.9247 117.76 33.1558 117.828 31.3914C117.878 30.0903 117.68 28.8532 117.205 27.6549C116.828 26.7008 116.42 25.7604 116.018 24.8154C115.495 23.5851 115.388 22.3891 116.098 21.1611C117.634 18.4951 119.109 15.7948 120.638 13.122C121.129 12.2638 121.284 12.2501 122.09 12.8481C124.132 14.3705 126.191 15.8724 128.184 17.4588C129.015 18.1207 129.69 18.9767 130.437 19.7459C130.4 19.8189 130.366 19.892 130.329 19.9627Z" fill="#EC8413"/>
<path d="M55.5836 101.709C54.2711 101.757 53.3421 102.677 52.1187 103.081C52.2305 102.887 52.3218 102.675 52.4588 102.504C53.7073 100.949 55.0175 99.47 56.5696 98.1827C57.2909 97.5824 57.663 96.5644 58.1993 95.7427C59.2584 94.1221 60.3267 92.5083 61.3858 90.8877C61.598 90.5636 61.8628 90.5225 62.1595 90.7348C62.8101 91.1959 63.4674 91.6501 64.0769 92.1614C64.2161 92.2778 64.2595 92.6567 64.1842 92.853C63.9445 93.4716 63.5724 94.0399 63.3579 94.6653C63.0954 95.4277 62.8329 96.2174 62.769 97.0095C62.7119 97.733 62.4586 98.1827 61.8309 98.484C61.3515 98.7145 60.8905 98.9793 60.4271 99.2395C60.2902 99.3171 60.1715 99.429 60.0436 99.5225C60.0665 99.5636 60.087 99.6047 60.1098 99.6458C61.0046 99.2646 61.9244 98.9291 62.7781 98.4749C63.0543 98.3265 63.2848 97.8723 63.3191 97.5345C63.4743 95.9686 64.3462 94.6881 64.9237 93.2935C64.9671 93.1885 65.3391 93.0881 65.435 93.1566C66.6379 94.0217 67.8134 94.9232 69.0049 95.8066C69.3541 96.0645 69.224 96.3156 69.0437 96.5872C68.5141 97.377 67.9823 98.1644 67.4619 98.9588C66.453 100.502 65.8139 102.182 65.3893 103.983C64.9237 105.957 64.2481 107.881 63.6911 109.835C63.1798 111.631 63.1479 113.467 63.3236 115.315C63.4218 116.356 63.4903 117.399 63.5907 118.438C63.6341 118.876 63.4515 118.933 63.0908 118.817C60.8653 118.107 58.6376 117.402 56.4099 116.694C56.031 116.573 55.6566 116.425 55.2686 116.336C53.454 115.923 52.372 114.626 51.4362 113.165C51.1098 112.654 50.8085 112.118 50.5848 111.556C50.4159 111.132 50.3178 110.65 50.3086 110.191C50.2744 108.632 50.6853 107.155 51.1714 105.685C51.7603 103.905 51.7329 103.898 53.3809 102.981C54.1228 102.565 54.8509 102.131 55.5836 101.709Z" fill="#EC8413"/>
<path d="M86.424 10.6314C86.141 10.5994 85.8579 10.5675 85.5749 10.5378C84.5729 10.4351 83.5731 10.3255 82.5711 10.2342C82.0804 10.1908 81.8886 9.92607 81.8544 9.45359C81.6764 6.97019 81.4846 4.4868 81.2997 2.0034C81.2678 1.56744 81.2472 1.1292 81.2039 0.695515C81.1536 0.188793 81.318 -0.0417436 81.8749 0.00618953C84.5843 0.243573 87.2914 0.49465 90.0053 0.668122C94.632 0.967134 99.0418 2.31611 103.522 3.3364C104.038 3.45281 104.55 3.58063 105.193 3.73356C104.554 4.37267 104.047 5.01406 103.283 5.31992C101.954 5.85175 100.587 6.02066 99.1491 5.78556C98.0307 5.60295 96.8894 5.571 95.682 5.56872C95.997 5.8061 96.3005 6.06174 96.6315 6.27402C97.1108 6.58216 97.6061 6.8652 98.1037 7.14595C98.4758 7.35822 98.5169 7.55909 98.2041 7.89234C96.6885 9.49467 95.173 11.097 93.6962 12.7336C92.0048 14.6121 90.3637 16.534 88.6837 18.4239C88.4121 18.7298 88.0903 19.0357 87.7296 19.2137C85.9104 20.1107 83.9886 20.6905 81.9822 21.0078C81.6102 21.0671 81.4983 20.9735 81.5143 20.6106C81.5987 18.5974 81.6193 16.5796 81.7699 14.571C81.8567 13.3978 82.6396 12.5601 83.6302 12.0237C84.4085 11.6014 85.2873 11.3618 86.1182 11.0354C86.2323 10.9897 86.3304 10.9076 86.4377 10.8436C86.4332 10.7775 86.4286 10.7044 86.424 10.6314Z" fill="#EC8413"/>
<path d="M115.602 70.3061C114.931 69.2401 114.369 68.3202 113.78 67.4209C112.21 65.022 111.548 62.2305 110.411 59.6466C110.03 58.7838 109.596 57.9347 109.094 57.1358C107.681 54.8921 105.983 52.8675 104.168 50.9411C103.89 50.6443 103.806 50.3773 104.034 50.0372C104.945 48.6836 105.823 47.3073 106.775 45.9834C107.967 44.3263 109.736 43.3311 111.363 42.1898C112.326 41.5119 113.346 40.9139 114.328 40.2634C114.753 39.9826 114.963 40.0694 115.088 40.5601C115.624 42.66 116.154 44.7622 116.731 46.8508C117.485 49.5693 118.053 52.3266 118.227 55.1386C118.309 56.4762 118.138 57.8297 118.044 59.1741C117.875 61.6575 117.665 64.1387 117.508 66.6243C117.471 67.2155 117.343 67.7245 116.983 68.2084C116.524 68.827 116.131 69.4958 115.602 70.3061Z" fill="#EC8413"/>
<path d="M65.948 115.532C65.948 114.412 65.9274 113.289 65.964 112.17C65.9731 111.894 66.1169 111.579 66.2926 111.358C67.3563 110.043 68.5067 108.797 69.511 107.441C70.6956 105.843 71.7593 104.154 72.8892 102.513C73.001 102.351 73.1745 102.207 73.3525 102.118C75.0484 101.262 76.7535 100.422 78.454 99.5752C78.9424 99.3332 79.1022 99.4063 79.141 99.9678C79.2346 101.372 79.2939 102.775 79.3898 104.179C79.5405 106.395 79.666 108.616 79.8805 110.826C80.1818 113.928 80.5585 117.023 80.9031 120.12C80.9785 120.796 80.9739 120.807 80.3142 120.746C78.4448 120.568 76.5777 120.36 74.7083 120.205C73.0604 120.068 71.4078 119.997 69.7598 119.869C68.6049 119.78 67.4544 119.641 66.2995 119.534C65.9 119.497 65.7471 119.308 65.7562 118.899C65.7768 117.778 65.7631 116.655 65.7631 115.535C65.8224 115.532 65.8864 115.532 65.948 115.532Z" fill="#EC8413"/>
<path d="M81.6172 74.7481C81.9002 72.8148 82.181 70.8815 82.4686 68.9482C82.4868 68.8227 82.5553 68.6971 82.6306 68.5899C83.6053 67.1884 84.605 65.8006 85.5568 64.3831C85.9494 63.7988 86.4242 63.5409 87.1318 63.4359C88.1292 63.2898 89.0103 63.3811 89.8252 63.9906C89.9598 64.091 90.1196 64.1709 90.2817 64.2211C91.0965 64.4836 91.5827 65.0611 91.9822 65.7938C92.9933 67.6426 94.0479 69.4709 95.1115 71.2924C95.3717 71.7397 95.3854 72.1255 95.2416 72.6299C94.445 75.4215 93.6986 78.229 92.9431 81.0342C92.8107 81.5295 92.7673 82.0522 92.5984 82.5293C92.5117 82.7735 92.2652 83.0748 92.0324 83.1387C90.2566 83.6249 88.4625 83.9947 86.5931 83.8668C85.5523 83.7961 84.5046 83.8372 83.4592 83.8372C82.7151 83.8372 82.5758 83.7481 82.4891 83.0337C82.2198 80.8105 81.9573 78.5851 81.7176 76.3573C81.6605 75.8323 81.7085 75.2959 81.7085 74.7641C81.6788 74.7595 81.6469 74.755 81.6172 74.7481Z" fill="#EC8413"/>
<path d="M96.6689 163.684C94.1627 163.748 91.6565 163.805 89.1502 163.885C88.6549 163.901 88.4769 163.698 88.4541 163.227C88.3331 160.817 88.1961 158.407 88.0615 155.996C88.0295 155.407 88.0067 154.819 87.9496 154.232C87.9085 153.785 88.066 153.563 88.5248 153.652C89.4949 153.839 90.4809 153.969 91.4236 154.25C93.5829 154.892 95.7855 154.841 97.9859 154.743C101.72 154.577 105.427 154.698 109.122 155.314C110.236 155.499 111.393 155.437 112.53 155.487C113.267 155.519 113.334 155.586 113.379 156.316C113.411 156.845 113.482 157.375 113.493 157.905C113.505 158.388 113.315 158.779 112.866 159.039C111.471 159.849 110.086 160.68 108.698 161.5C108.011 161.906 107.278 162.248 106.644 162.723C105.527 163.558 104.299 163.78 102.944 163.743C100.853 163.689 98.762 163.73 96.6689 163.73C96.6689 163.714 96.6689 163.7 96.6689 163.684Z" fill="#EC8413"/>
<path d="M65.5661 58.6992C65.7304 58.7563 65.8491 58.77 65.9313 58.8339C67.755 60.265 69.5742 61.7007 71.3911 63.1365C71.8407 63.4925 71.8795 63.8555 71.5372 64.3553C70.6675 65.6199 70.2316 67.0784 69.686 68.5027C68.8483 70.6916 69.0903 72.9217 69.104 75.1471C69.1154 76.8727 68.7776 78.5298 68.3439 80.1801C68.1659 80.8603 67.9878 81.5428 67.7915 82.2161C67.5793 82.9374 67.5039 82.9717 66.8466 82.6521C65.3766 81.9354 63.9637 81.0612 62.4321 80.5248C60.7979 79.9541 60.088 78.7216 59.2982 77.3635C58.2072 75.4895 58.4537 73.5631 58.7093 71.6024C58.8029 70.8879 58.8782 70.1484 59.1225 69.4773C59.4306 68.6328 59.7867 67.7563 60.3277 67.0556C61.2201 65.9029 62.302 64.9031 63.263 63.8007C64.4545 62.4334 65.6231 61.0388 65.4793 59.0393C65.4725 58.9549 65.5227 58.8636 65.5661 58.6992Z" fill="#EC8413"/>
<path d="M139.995 78.3268C139.762 79.7785 139.543 81.1092 139.338 82.4422C138.934 85.0534 138.546 87.6646 138.137 90.2736C137.996 91.1752 137.982 92.1452 137.617 92.951C136.708 94.9664 135.709 96.9751 133.186 97.4476C132.666 97.5457 132.168 97.7557 131.652 97.8881C131.125 98.025 130.94 97.8675 131.059 97.3563C131.536 95.302 132.05 93.2568 132.504 91.1957C132.586 90.8237 132.531 90.374 132.399 90.0134C132.203 89.4838 131.828 89.0204 131.627 88.4932C131.52 88.2147 131.513 87.8107 131.636 87.5459C132.155 86.4321 132.762 85.3593 133.287 84.25C133.41 83.9898 133.394 83.6291 133.346 83.3301C133.268 82.8462 133.011 82.376 133.008 81.899C133.001 80.9312 132.639 80.1505 132.052 79.4178C131.632 78.8951 131.518 78.3085 131.63 77.6032C131.778 76.6628 131.707 75.7133 131.13 74.8642C130.714 74.2525 130.331 73.6134 129.988 72.9583C129.753 72.5086 129.566 72.0224 129.445 71.5317C129.402 71.3514 129.548 71.0432 129.708 70.9063C131.116 69.692 132.549 68.5073 133.969 67.3045C134.312 67.0146 134.515 67.0762 134.704 67.4734C135.407 68.9456 136.117 70.4178 136.845 71.8786C137.776 73.748 138.735 75.6083 139.669 77.4754C139.815 77.779 139.911 78.1054 139.995 78.3268Z" fill="#EC8413"/>
<path d="M80.7461 103.912C80.7666 102.711 81.1821 101.412 81.8006 100.152C82.4899 98.7462 83.4692 97.5936 84.8227 96.838C85.7928 96.2971 86.861 95.9204 87.9018 95.5187C89.1253 95.0462 89.075 95.0759 89.2143 96.3929C89.3489 97.6552 89.5658 98.9151 89.8465 100.152C90.2528 101.942 90.771 103.708 91.1841 105.498C91.2571 105.817 91.1156 106.237 90.9559 106.548C90.4514 107.525 89.8671 108.461 89.3626 109.438C89.0043 110.129 88.929 110.878 89.0659 111.659C89.3763 113.45 89.6685 115.247 89.9356 117.048C89.9607 117.223 89.8077 117.525 89.6502 117.611C88.1301 118.454 86.4547 118.657 84.7565 118.705C84.5374 118.712 84.2475 118.524 84.1014 118.337C83.3641 117.397 82.6406 116.454 82.3804 115.228C82.2138 114.434 81.8714 113.679 81.6363 112.898C80.9401 110.572 81.0976 108.153 80.8557 105.776C80.7986 105.226 80.7895 104.674 80.7461 103.912Z" fill="#EC8413"/>
<path d="M38.0987 38.1816C38.2608 38.3642 38.3429 38.4373 38.4 38.5263C39.345 39.9689 40.2922 41.4091 41.2281 42.8586C41.5567 43.3676 41.8923 43.8811 42.1342 44.4335C42.2346 44.6595 42.1776 45.0315 42.0566 45.2666C41.5202 46.3143 40.7989 47.2889 40.4063 48.3823C40.1028 49.2268 40.1598 50.2106 40.1096 51.135C39.9453 54.2256 39.8563 57.3229 39.6166 60.4089C39.5641 61.0914 38.998 61.726 38.6944 62.3947C38.2334 63.4082 37.3569 64.029 36.5511 64.7183C35.0355 66.0148 33.5177 67.309 31.9998 68.6009C31.9039 68.6831 31.7943 68.747 31.6779 68.8269C31.6277 68.7516 31.5729 68.7059 31.5729 68.6603C31.5478 67.0853 31.4702 65.5058 31.525 63.9332C31.5866 62.2007 31.9313 60.5094 32.47 58.85C32.8808 57.5854 33.2666 56.3027 33.5108 55.0016C33.6957 54.0224 33.6592 52.9998 33.6843 51.9955C33.7026 51.2172 33.6866 50.4366 33.6386 49.6605C33.5839 48.7406 33.8555 47.8984 34.1636 47.0584C35.1542 44.365 36.275 41.731 37.6354 39.1997C37.7951 38.9052 37.9138 38.5902 38.0987 38.1816Z" fill="#EC8413"/>
<path d="M99.5754 109.634C99.4727 110.784 99.3586 111.932 99.2695 113.085C99.233 113.551 99.007 113.82 98.603 114.053C96.3958 115.326 93.9513 116.011 91.5957 116.915C91.2487 117.05 91.0958 116.892 91.0387 116.573C90.8493 115.507 90.6644 114.438 90.4681 113.375C90.3814 112.909 90.2809 112.446 90.1691 111.987C89.8495 110.654 90.4042 109.526 91.0114 108.417C92.4402 105.806 92.2462 106.502 91.5318 103.854C90.9383 101.659 90.4795 99.4217 90.0299 97.1893C89.8906 96.4955 89.9523 95.7559 89.9728 95.0392C89.9774 94.8817 90.1645 94.6649 90.322 94.5895C91.2807 94.1308 92.2462 93.6811 93.2323 93.2839C93.44 93.1995 93.8417 93.2543 93.9809 93.4026C94.515 93.9801 94.9807 94.6238 95.4714 95.2446C95.4828 95.2583 95.4851 95.2812 95.4942 95.2971C96.8524 97.0752 97.0601 99.2573 97.6193 101.316C98.2059 103.48 98.7948 105.642 99.338 107.817C99.4841 108.399 99.4613 109.02 99.5161 109.625C99.5366 109.625 99.5571 109.629 99.5754 109.634Z" fill="#EC8413"/>
<path d="M137.282 38.8546C138.175 38.8546 139.067 38.8546 139.96 38.8546C140.281 38.8546 140.485 38.9641 140.551 39.3248C141.247 43.2119 141.97 47.0945 142.657 50.984C143.032 53.0976 143.372 55.2158 143.676 57.3408C143.733 57.7402 143.639 58.2219 143.454 58.5825C142.753 59.9497 142.005 61.2919 141.229 62.6157C141.096 62.844 140.742 63.0585 140.48 63.0745C139.229 63.1476 137.974 63.1453 136.721 63.1841C136.335 63.1955 136.166 63.0266 136.143 62.6523C135.977 60.0753 135.869 57.4915 135.618 54.9213C135.365 52.3352 136.009 49.8632 136.349 47.3479C136.397 47.0009 136.397 46.6198 136.301 46.2888C135.641 44.0085 134.952 41.7374 134.267 39.464C134.046 38.729 134.091 38.6674 134.833 38.6765C135.65 38.688 136.467 38.6788 137.284 38.6788C137.28 38.7382 137.28 38.7975 137.282 38.8546Z" fill="#EC8413"/>
<path d="M66.0428 148.554C65.7803 149.314 65.5475 149.978 65.3239 150.642C64.7669 152.299 64.1529 153.938 63.6781 155.618C63.2399 157.172 63.3723 158.786 63.5092 160.379C63.5686 161.078 63.5572 161.103 62.9021 160.852C60.8798 160.076 58.8118 159.396 56.8534 158.48C55.4724 157.834 54.2513 156.889 53.6464 155.335C52.6079 152.662 51.4894 150.019 50.4235 147.357C50.0925 146.529 49.8072 145.682 49.5242 144.835C49.4694 144.673 49.4511 144.411 49.5424 144.317C49.6314 144.226 49.8939 144.253 50.0606 144.301C52.2883 144.945 54.4932 145.675 56.7415 146.232C59.0994 146.817 61.5006 147.23 63.8813 147.73C64.4747 147.855 65.0614 148.017 65.6388 148.2C65.7986 148.248 65.915 148.435 66.0428 148.554Z" fill="#EC8413"/>
<path d="M48.1149 64.9486C47.3228 64.1109 46.6244 63.312 45.8597 62.5839C45.1202 61.8786 44.2939 61.2623 43.5407 60.5684C43.2942 60.3401 43.0979 60.0183 42.9792 59.701C42.3127 57.9161 42.372 56.049 42.3857 54.1864C42.3994 52.4586 42.3309 50.733 42.3652 49.0051C42.3743 48.5372 42.5501 48.0373 42.7715 47.6173C43.1504 46.896 43.6023 46.2113 44.0748 45.5471C44.1912 45.3827 44.5313 45.2321 44.7093 45.2823C46.7385 45.8483 48.7631 46.4395 50.774 47.0741C51.0411 47.1585 51.3127 47.4918 51.4222 47.7725C51.7829 48.6901 52.034 49.6533 52.4037 50.5663C52.5498 50.9293 52.8603 51.2511 53.157 51.5273C53.6454 51.9792 53.9445 52.4563 53.8691 53.1661C53.7436 54.3553 53.666 55.5491 53.6021 56.7406C53.5792 57.1469 53.4606 57.398 53.0657 57.5737C52.1823 57.9663 51.3515 58.4753 50.3358 58.489C49.9112 58.4958 49.8176 58.8611 49.7263 59.2057C49.2561 61.0044 48.7745 62.803 48.2952 64.5993C48.2746 64.6838 48.2153 64.7591 48.1149 64.9486Z" fill="#EC8413"/>
<path d="M72.4355 152.919C72.6159 151.817 72.7848 150.788 72.9514 149.758C73.0199 149.343 73.2139 149.19 73.6635 149.283C76.7883 149.925 79.9086 150.596 83.0516 151.137C84.0787 151.313 84.6585 151.844 85.2748 152.588C86.0531 153.527 86.0394 154.631 86.1855 155.702C86.5028 158.016 86.7379 160.342 87.0346 162.659C87.0894 163.093 86.9593 163.259 86.5484 163.282C85.0123 163.367 83.4762 163.456 81.9423 163.551C80.8809 163.615 79.8173 163.672 78.7604 163.773C78.3405 163.814 78.0734 163.693 77.8748 163.33C77.2448 162.182 76.5601 161.061 75.9894 159.883C75.7224 159.336 75.695 158.674 75.517 158.078C75.4028 157.692 75.2727 157.284 75.0399 156.966C74.2776 155.928 73.4399 154.942 72.6866 153.896C72.4949 153.627 72.5063 153.218 72.4355 152.919Z" fill="#EC8413"/>
<path d="M58.0211 56.444C57.948 58.0783 57.9138 59.7856 57.7768 61.4838C57.7084 62.3284 57.4162 63.1546 57.2907 63.9969C57.0807 65.4006 56.9004 66.809 56.7451 68.2196C56.5123 70.3149 56.2955 72.4149 56.1037 74.5148C56.0513 75.1037 55.7568 75.3913 55.2683 75.6789C53.8281 76.5303 52.6891 75.6675 51.4999 75.0946C51.3264 75.0101 51.2214 74.743 51.1278 74.5399C50.1007 72.2779 49.562 69.8584 48.9069 67.48C48.7905 67.0601 48.9571 66.5419 49.0576 66.0831C49.5072 63.9855 49.982 61.8947 50.4385 59.797C50.5093 59.4684 50.6531 59.3131 51.0046 59.1967C52.0089 58.8658 52.9904 58.4618 53.9627 58.0441C54.1134 57.9779 54.2275 57.6811 54.2481 57.4803C54.4375 55.6291 54.6338 53.778 54.7571 51.9223C54.8004 51.2558 54.6406 50.5756 54.5767 49.9023C54.5562 49.6968 54.5197 49.4868 54.5379 49.286C54.5745 48.9025 54.7913 48.7952 55.1314 48.9824C55.7979 49.3499 56.4735 49.6991 57.1149 50.1054C57.2907 50.2173 57.4459 50.4866 57.4687 50.6989C57.6673 52.582 57.8362 54.4719 58.0211 56.444Z" fill="#EC8413"/>
<path d="M131.434 123.863C131.505 126.654 131.603 129.444 131.628 132.235C131.635 132.918 131.526 133.657 131.259 134.278C130.179 136.787 129.019 139.261 127.876 141.742C127.789 141.929 127.597 142.068 127.454 142.23C127.303 142.068 127.118 141.927 127.009 141.74C125.783 139.701 125.039 137.474 124.445 135.187C123.754 132.523 123.076 129.855 122.407 127.184C122.345 126.935 122.377 126.661 122.37 126.401C122.359 125.954 122.329 125.506 122.352 125.064C122.368 124.769 122.37 124.386 122.546 124.198C123.402 123.285 124.299 122.409 125.219 121.558C125.452 121.343 125.803 121.188 126.118 121.144C127.641 120.939 129.17 120.786 130.693 120.599C131.124 120.546 131.275 120.722 131.291 121.131C131.329 122.041 131.393 122.95 131.446 123.861C131.446 123.863 131.439 123.863 131.434 123.863Z" fill="#EC8413"/>
<path d="M29.5437 68.165C28.7105 67.4072 27.8706 66.6563 27.0511 65.8825C26.8183 65.6634 26.6882 65.3347 26.4485 65.127C25.5858 64.3829 25.4031 63.4082 25.4146 62.3491C25.4442 59.6763 25.4442 57.0011 25.5013 54.3283C25.5584 51.7285 25.6725 49.1287 25.7661 46.5289C25.798 45.6752 25.8619 44.8216 25.8779 43.9679C25.887 43.5045 26.1153 43.274 26.5307 43.1667C27.761 42.8495 28.9753 42.3678 30.2238 42.2583C31.5683 42.1396 32.9446 42.3564 34.305 42.45C34.6725 42.4751 34.6383 42.7285 34.5219 42.9955C34.1635 43.8332 33.7778 44.6618 33.4696 45.5177C33.0565 46.659 32.689 47.8185 32.342 48.9826C32.2485 49.2999 32.2667 49.6605 32.2895 49.9983C32.4676 52.6004 32.0955 55.0907 30.9931 57.4805C30.4133 58.7359 29.8632 60.0301 29.5277 61.3653C29.2994 62.2692 29.4272 63.2758 29.4683 64.2345C29.5231 65.499 29.6509 66.759 29.7468 68.0212C29.6806 68.0669 29.6121 68.1171 29.5437 68.165Z" fill="#EC8413"/>
<path d="M103.434 52.5801C103.621 52.7399 103.733 52.806 103.804 52.9019C105.347 55.0452 106.979 57.1314 108.392 59.3569C109.528 61.1487 110.4 63.1208 110.921 65.1956C111.503 67.517 112.808 69.4548 114.018 71.4475C114.65 72.4906 114.682 72.4952 113.603 73.0977C111.71 74.1523 109.825 75.2159 107.933 76.2705C107.689 76.4051 107.431 76.517 107.054 76.6996C107.002 76.2202 106.956 75.8391 106.915 75.4579C106.757 74.0085 106.611 72.5591 106.442 71.1097C106.369 70.4797 106.045 69.9821 105.559 69.5644C104.082 68.2999 102.724 66.9212 101.571 65.3486C101.371 65.0747 101.307 64.8624 101.469 64.5291C102.407 62.5867 103.144 60.6009 103.124 58.3823C103.108 56.6932 103.233 55.0018 103.304 53.3128C103.315 53.1005 103.379 52.8905 103.434 52.5801Z" fill="#EC8413"/>
<path d="M106.436 98.1045C106.783 98.2848 107.141 98.4514 107.477 98.65C109.456 99.8232 111.608 100.554 113.802 101.206C115.091 101.59 116.36 102.056 117.616 102.544C118.449 102.868 118.93 103.512 119.081 104.425C119.453 106.673 119.789 108.933 120.277 111.156C120.656 112.877 119.567 113.881 118.688 115.016C118.625 115.098 118.364 115.098 118.234 115.043C116.223 114.187 114.228 113.295 112.469 111.975C111.346 111.133 110.266 110.232 109.186 109.332C108.995 109.172 108.848 108.912 108.775 108.67C108.232 106.91 107.648 105.158 107.207 103.37C106.867 101.994 106.723 100.567 106.486 99.1636C106.431 98.8395 106.351 98.5199 106.285 98.1981C106.335 98.1684 106.386 98.1364 106.436 98.1045Z" fill="#EC8413"/>
<path d="M123.201 118.743C123.665 116.783 123.098 114.952 122.567 113.092C121.683 110.006 120.894 106.89 120.049 103.793C119.933 103.366 120.031 103.131 120.471 103.058C121.763 102.845 123.051 102.574 124.352 102.441C125.36 102.339 126.388 102.409 127.406 102.398C127.887 102.391 128.161 102.647 128.383 103.051C129.385 104.881 130.005 106.842 130.581 108.839C130.982 110.236 130.587 111.512 130.352 112.82C130.042 114.55 129.832 116.28 129.996 118.033C130.051 118.618 129.846 118.88 129.311 118.992C127.584 119.355 125.858 119.741 124.128 120.088C123.45 120.222 123.226 120.005 123.203 119.314C123.197 119.122 123.201 118.933 123.201 118.743Z" fill="#EC8413"/>
<path d="M37.9282 98.5799C36.7367 98.9771 35.9013 98.4156 35.1184 97.6487C34.5066 97.0529 33.8698 96.48 33.2147 95.9299C32.8358 95.6127 32.8838 95.3798 33.1896 95.0466C34.6482 93.4465 36.0793 91.8214 37.5424 90.2259C39.4278 88.1693 41.3428 86.1424 43.2213 84.0813C43.6299 83.6339 43.9654 83.6271 44.5018 83.8736C46.0174 84.5698 47.565 85.2043 49.1171 85.8206C49.4937 85.969 49.5919 86.1447 49.4778 86.4962C48.8957 88.304 48.3182 90.114 47.7293 91.9172C47.6791 92.0747 47.5718 92.2254 47.4577 92.3486C46.4169 93.4762 45.44 94.6608 44.107 95.4894C42.6735 96.3819 41.3223 97.4136 39.8683 98.2718C39.3182 98.5982 38.5832 98.6096 37.9327 98.7648C37.9304 98.7055 37.9282 98.6439 37.9282 98.5799Z" fill="#EC8413"/>
<path d="M50.5435 135.33C50.4728 135.531 50.4476 135.782 50.3153 135.949C49.4296 137.058 48.5258 138.156 47.6173 139.247C47.2841 139.646 46.9348 139.631 46.5468 139.27C44.7116 137.565 42.8674 135.869 41.0185 134.178C40.5186 133.721 40.2767 133.196 40.1968 132.5C39.8247 129.236 39.4116 125.976 38.9551 122.724C38.8638 122.071 38.9756 121.895 39.6809 122.096C41.1235 122.512 42.5546 122.961 43.9881 123.404C44.8052 123.655 45.6132 123.931 46.4327 124.173C47.033 124.349 47.421 124.751 47.6241 125.305C48.7083 128.245 49.7697 131.194 50.297 134.303C50.3563 134.641 50.4568 134.967 50.5435 135.33Z" fill="#EC8413"/>
<path d="M103.975 87.5341C105.436 87.4794 106.904 87.4771 108.358 87.3515C110.058 87.2077 111.754 86.9612 113.334 86.2468C113.724 86.071 113.973 86.1349 114.16 86.5321C114.667 87.6117 115.189 88.6822 115.703 89.7573C115.785 89.9285 115.824 90.1362 115.945 90.2709C116.534 90.9214 116.493 91.7271 116.577 92.5169C116.789 94.4799 117.022 96.4406 117.287 98.3967C117.397 99.2184 117.358 99.2686 116.552 99.2709C113.712 99.2709 111.193 98.278 108.869 96.7578C108.052 96.2237 107.378 95.4682 106.659 94.7926C105.358 93.5714 104.064 92.3411 102.781 91.0994C102.629 90.9534 102.501 90.7228 102.473 90.5151C102.373 89.7436 102.318 88.9653 102.247 88.1892C102.209 87.7624 102.387 87.5455 102.834 87.5592C103.213 87.5729 103.594 87.5615 103.973 87.5615C103.978 87.5547 103.975 87.5455 103.975 87.5341Z" fill="#EC8413"/>
<path d="M37.9616 118.373C35.6586 118.617 33.9877 117.46 32.4881 115.965C31.6824 115.162 30.9109 114.317 30.1736 113.448C29.9317 113.162 29.7605 112.758 29.7012 112.386C29.5026 111.108 29.4501 109.841 29.8221 108.552C30.5731 105.947 30.6507 103.279 30.3928 100.588C30.2878 99.4922 30.3083 98.3851 30.2969 97.2827C30.2923 96.801 30.5411 96.6573 30.8949 96.9608C31.5842 97.552 32.3831 97.851 33.2505 98.0291C33.3943 98.0587 33.5381 98.1409 33.6545 98.2322C34.8369 99.1589 36.0078 100.097 37.1924 101.021C37.5211 101.279 37.5873 101.569 37.5028 101.971C37.1262 103.776 36.6469 105.573 36.462 107.399C36.3182 108.814 36.4301 110.289 36.6515 111.701C36.987 113.84 37.5165 115.947 37.9594 118.067C37.9822 118.188 37.9616 118.318 37.9616 118.373Z" fill="#EC8413"/>
<path d="M71.8565 89.5563C71.8291 89.1204 71.7971 88.6844 71.772 88.2485C71.7492 87.8262 71.877 87.6481 72.3723 87.6961C76.0541 88.0659 79.7358 88.5041 83.4266 88.7095C85.207 88.8077 87.0125 88.4493 88.8066 88.2895C89.1832 88.2553 89.5575 88.1777 89.9319 88.1138C90.2651 88.0567 90.4751 88.1754 90.4409 88.5269C90.329 89.6385 90.1989 90.7501 90.0711 91.8617C90.0574 91.9735 90.0026 92.0854 90.0049 92.195C90.0117 93.2769 89.2585 93.7174 88.4094 94.0164C86.8596 94.5619 85.3052 95.1098 83.7234 95.5526C81.7764 96.0981 79.802 96.4724 77.7865 95.8128C76.8666 95.5115 75.9377 95.2261 74.995 95.0139C73.9222 94.7719 73.1142 94.1351 72.3586 93.407C72.1623 93.2175 72.0094 92.9025 71.9866 92.6309C71.8999 91.6106 71.8747 90.5835 71.8245 89.5586C71.8359 89.5564 71.8451 89.5563 71.8565 89.5563Z" fill="#EC8413"/>
<path d="M76.8837 163.99C76.5002 163.99 76.2697 164.015 76.046 163.986C74.5578 163.787 73.0764 163.534 71.5859 163.381C69.68 163.184 67.765 163.041 65.8522 162.926C65.2975 162.894 65.1241 162.682 65.1149 162.171C65.0761 159.61 64.9392 157.044 65.3592 154.499C65.4231 154.111 65.5829 153.737 65.7152 153.363C66.2585 151.822 66.8246 150.293 67.3427 148.745C67.5207 148.211 67.7992 148.09 68.3242 148.211C69.397 148.457 70.4789 148.674 71.5654 148.855C72.0721 148.939 72.1748 149.179 72.0972 149.638C71.9329 150.628 71.7891 151.623 71.6635 152.621C71.5562 153.463 71.5973 154.198 72.3186 154.894C73.1403 155.689 73.8182 156.661 74.4162 157.642C74.6879 158.087 74.6514 158.738 74.6902 159.3C74.77 160.445 75.3407 161.388 75.8885 162.342C76.1784 162.847 76.4888 163.337 76.8837 163.99Z" fill="#EC8413"/>
<path d="M102.353 136.36C100.765 136.102 99.176 135.849 97.5896 135.586C97.2906 135.536 97.0007 135.418 96.7017 135.402C96.1858 135.374 95.8252 135.135 95.6335 134.68C95.0491 133.299 94.4329 131.93 93.933 130.519C93.5107 129.328 94.095 128.492 95.3527 128.26C97.5736 127.846 99.7968 127.436 102.013 126.993C102.869 126.822 103.709 126.573 104.556 126.356C105.473 126.121 106.071 126.303 106.608 127.105C107.048 127.767 107.432 128.47 107.795 129.179C108.107 129.787 108.363 130.423 108.635 131.051C109.228 132.421 108.968 133.466 107.774 134.393C106.19 135.623 104.394 136.255 102.374 136.21C102.365 136.258 102.36 136.308 102.353 136.36Z" fill="white"/>
<path d="M124.12 55.3781C123.846 54.8691 123.563 54.3669 123.303 53.8534C122.799 52.8536 122.361 51.8128 121.785 50.8541C121.475 50.336 120.982 49.8909 120.487 49.5257C119.503 48.7976 118.829 47.9759 118.674 46.6702C118.403 44.3923 117.969 42.1349 117.588 39.8706C117.503 39.3707 117.729 39.0671 118.17 38.985C120.484 38.5559 122.801 38.145 125.122 37.7547C125.538 37.6839 125.812 37.9167 125.825 38.3755C125.942 41.9272 126.108 45.4765 126.15 49.0281C126.163 50.2356 125.942 51.4476 125.351 52.5774C124.899 53.4425 124.648 54.4126 124.308 55.337C124.248 55.3507 124.184 55.3644 124.12 55.3781Z" fill="#EC8413"/>
<path d="M24.2305 84.5714C24.4884 81.668 24.7212 79.0408 24.9655 76.4113C24.9814 76.2401 25.1024 76.0781 25.1754 75.9092C25.3443 76.005 25.5361 76.0758 25.6753 76.2013C27.2229 77.6005 28.7453 79.0271 30.318 80.3966C30.633 80.6705 31.1237 80.7938 31.5528 80.8714C32.2787 81.0038 33.0205 81.0654 33.76 81.1202C34.1595 81.1499 34.3147 81.3119 34.228 81.6977C33.9221 83.0672 33.6231 84.4367 33.3081 85.8017C33.1346 86.5595 32.9109 87.3081 32.7557 88.0705C32.58 88.9242 32.2193 89.682 31.7263 90.3941C31.3497 90.9396 31.0233 91.5217 30.6672 92.0832C30.229 92.7702 30.1262 92.768 29.5351 92.1836C28.387 91.0492 27.2754 89.8714 26.0633 88.81C24.671 87.5889 24.534 85.9318 24.2305 84.5714Z" fill="#EC8413"/>
<path d="M125.674 100.036C125.521 100.036 125.37 100.036 125.217 100.036C124.154 100.038 124.199 100.038 124.229 98.9538C124.288 96.8653 124.313 94.7745 124.293 92.686C124.288 92.3048 124.071 91.8802 123.841 91.5515C123.32 90.8029 122.764 90.077 122.166 89.39C121.027 88.0775 120.319 86.5186 119.6 84.971C119.18 84.0717 119.242 84.0032 120.111 83.5193C121.04 83.0035 121.962 82.4762 122.873 81.9261C123.186 81.7367 123.341 81.8348 123.526 82.0882C125.767 85.1536 128 88.2236 130.273 91.2639C130.688 91.8209 130.766 92.3162 130.54 92.9462C129.981 94.5029 129.55 96.112 128.881 97.6185C128.509 98.4562 127.835 99.2049 127.153 99.8371C126.847 100.12 126.183 100.017 125.681 100.091C125.678 100.072 125.676 100.054 125.674 100.036Z" fill="#EC8413"/>
<path d="M133.275 57.496C133.021 56.9322 132.768 56.3684 132.517 55.8046C132.355 55.4417 132.222 55.0582 132.024 54.7159C131.7 54.1544 131.325 53.675 130.604 53.5107C129.68 53.3007 129.047 52.5954 128.406 51.9472C128.059 51.5956 127.769 51.1825 127.393 50.8698C126.765 50.3448 126.635 49.7194 126.635 48.916C126.63 45.5766 126.546 42.2373 126.475 38.8979C126.459 38.1675 126.507 38.0876 127.185 38.3798C128.892 39.1148 130.584 39.8817 132.284 40.6349C132.752 40.8426 133.012 41.1736 133.103 41.7009C133.318 42.954 133.599 44.1934 133.827 45.4442C134.176 47.3524 133.966 49.272 133.891 51.1848C133.816 53.0998 133.635 55.0103 133.498 56.9231C133.485 57.1057 133.457 57.286 133.437 57.4686C133.38 57.4777 133.327 57.4869 133.275 57.496Z" fill="#EC8413"/>
<path d="M95.166 82.0039C95.3555 81.2644 95.5084 80.7052 95.6385 80.1414C96.0539 78.3473 96.4716 76.5555 96.8688 74.7569C97.1221 73.6088 97.2545 72.4264 97.6015 71.308C97.9142 70.3014 98.414 69.3496 98.8911 68.4023C99.238 67.7153 99.6786 67.0739 100.089 66.4211C100.274 66.1266 100.482 66.1289 100.729 66.3914C102.016 67.7564 103.335 69.0916 104.591 70.4863C104.912 70.8446 105.179 71.3628 105.23 71.833C105.36 73.0541 105.353 74.2913 105.408 75.5215C105.426 75.9575 105.456 76.3935 105.499 76.8271C105.554 77.3704 105.362 77.7356 104.83 77.9342C103.942 78.2651 103.084 78.6988 102.176 78.9545C100.035 79.5593 98.0877 80.5773 96.1384 81.6068C95.8873 81.7414 95.6065 81.8282 95.166 82.0039Z" fill="#EC8413"/>
<path d="M89.4688 137.214C86.7823 137.235 84.6755 136.082 82.7193 134.557C82.5824 134.45 82.4591 134.247 82.4454 134.08C82.3587 132.985 82.2514 131.889 82.256 130.791C82.2606 129.978 82.66 129.684 83.4817 129.604C86.2253 129.342 88.9666 129.077 91.708 128.789C92.1576 128.741 92.5228 128.846 92.7602 129.198C93.1071 129.714 93.4815 130.239 93.6938 130.816C94.1183 131.973 94.4287 133.174 94.8168 134.345C94.9925 134.877 94.7871 135.231 94.3922 135.525C92.8972 136.632 91.24 137.262 89.4688 137.214Z" fill="white"/>
<path d="M45.4919 121.797C43.4262 121.599 41.5614 121.375 39.8769 120.426C39.3953 120.154 39.1488 119.017 39.4067 118.492C40.1782 116.931 40.8835 115.338 41.6641 113.781C42.3785 112.357 43.1752 110.974 43.8987 109.554C44.1954 108.972 44.4397 108.356 44.6246 107.73C44.9281 106.712 45.1404 105.664 45.4485 104.649C45.5125 104.434 45.8069 104.19 46.0329 104.142C46.9048 103.959 47.7927 103.843 48.6761 103.72C49.1052 103.66 49.2878 103.845 49.1531 104.286C48.6167 106.046 48.0643 107.803 47.5576 109.57C47.0646 111.284 46.4551 112.987 46.2018 114.74C45.9302 116.625 46.0146 118.561 45.937 120.474C45.9256 120.775 45.9302 121.092 45.8389 121.373C45.775 121.571 45.5604 121.72 45.4919 121.797Z" fill="#EC8413"/>
<path d="M97.7539 97.1328C98.0027 97.2424 98.1283 97.2698 98.2196 97.3428C100.324 98.9976 102.415 100.668 104.526 102.314C105.688 103.223 106.06 104.567 106.444 105.861C107.014 107.79 107.432 109.762 107.92 111.716C108.014 112.088 107.918 112.293 107.521 112.36C105.499 112.704 103.476 113.053 101.458 113.414C100.977 113.501 100.86 113.259 100.835 112.85C100.694 110.518 100.504 108.189 100.408 105.857C100.349 104.389 99.7009 103.108 99.2946 101.753C99.0161 100.826 98.7354 99.8992 98.4318 98.9794C98.2401 98.3996 98.0118 97.8335 97.7539 97.1328Z" fill="#EC8413"/>
<path d="M98.3511 146.616C98.0886 146.641 97.8923 146.682 97.6983 146.673C95.8586 146.59 94.0143 146.545 92.1791 146.396C90.2732 146.241 88.3719 146.008 86.4774 145.753C86.1008 145.703 85.7447 145.42 85.4 145.207C85.1284 145.038 84.8933 144.812 84.6377 144.618C83.7886 143.979 83.5649 143.356 83.9255 142.395C84.2565 141.514 84.3409 140.633 84.1424 139.711C84.0282 139.179 84.1812 139.015 84.7175 139.184C85.8132 139.526 86.9065 139.464 88.0272 139.357C89.8783 139.177 91.734 139.056 93.5897 138.946C94.3681 138.901 94.5187 139.072 94.5575 139.848C94.5735 140.151 94.5986 140.462 94.5507 140.759C94.3864 141.77 94.8611 142.486 95.5116 143.187C96.4292 144.173 97.2829 145.219 98.1594 146.244C98.2301 146.321 98.2598 146.433 98.3511 146.616Z" fill="#EC8413"/>
<path d="M45.0588 103.27C43.8947 103.14 42.9589 103.102 42.0527 102.919C40.9389 102.695 40.3294 101.796 39.7702 100.906C39.7086 100.808 39.9323 100.431 40.1103 100.301C41.5163 99.2646 42.9429 98.258 44.3627 97.24C44.9949 96.7858 45.7139 96.4114 46.2389 95.8568C47.4418 94.5854 48.7657 93.3734 49.0692 91.4972C49.1628 90.9174 49.3477 90.3536 49.5166 89.7898C49.5737 89.5981 49.6627 89.3539 49.8156 89.258C50.7811 88.6554 51.7421 88.0346 52.9085 87.8771C53.3969 87.8109 53.349 88.1259 53.2737 88.4157C53.0591 89.242 52.7989 90.0592 52.6003 90.89C52.0868 93.0447 51.0665 95.0077 50.3178 97.0711C49.875 98.2877 49.7129 99.6138 49.4938 100.903C49.4093 101.397 49.229 101.68 48.7657 101.864C48.0079 102.166 47.2866 102.558 46.5265 102.853C45.9855 103.058 45.4081 103.172 45.0588 103.27Z" fill="#EC8413"/>
<path d="M72.4469 137.168C74.2455 136.997 76.0076 137.611 77.7994 137.994C79.3926 138.335 79.3561 138.355 79.0959 139.953C78.895 141.183 78.7672 142.429 78.6325 143.669C78.5914 144.059 78.418 144.123 78.0665 144.091C76.2747 143.931 74.4806 143.783 72.6865 143.653C70.7738 143.514 68.861 143.367 67.0122 142.806C66.5945 142.678 66.1722 142.566 65.7431 142.493C65.3687 142.429 65.2158 142.244 65.2409 141.877C65.2774 141.366 65.2774 140.85 65.3459 140.343C65.3756 140.113 65.508 139.884 65.6312 139.677C65.7362 139.499 65.9439 139.375 66.0215 139.19C66.6858 137.609 67.9708 137.243 69.5252 137.342C69.9954 137.371 70.4725 137.301 70.9472 137.271C71.4197 137.243 71.8922 137.207 72.4469 137.168Z" fill="#EC8413"/>
<path d="M106.621 84.583C105.121 84.6606 103.658 84.4826 102.225 84.0489C102.042 83.9941 101.853 83.9599 101.681 83.8846C101.572 83.8366 101.492 83.7248 101.398 83.6426C101.499 83.549 101.583 83.4098 101.702 83.3664C102.768 82.9647 103.852 82.6086 104.909 82.1864C108.207 80.8625 111.487 79.4975 114.788 78.1851C117.276 77.1945 119.784 76.2518 122.288 75.3023C122.859 75.0854 122.98 75.2041 122.923 75.7884C122.779 77.2561 122.48 78.6918 121.311 79.6938C120.512 80.3763 119.613 80.9903 118.666 81.4423C115.651 82.8803 112.478 83.8732 109.177 84.4118C108.337 84.5442 107.475 84.5282 106.621 84.583Z" fill="white"/>
<path d="M58.2459 84.8756C55.1919 84.9349 52.3022 84.1475 49.4719 83.1158C48.1366 82.6296 46.8059 82.1046 45.5345 81.4746C44.6763 81.0501 43.8568 80.4908 43.1378 79.8586C41.9098 78.7812 41.6816 77.2428 41.515 75.7181C41.467 75.2798 41.7592 75.3278 42.0422 75.4328C43.3958 75.9372 44.7607 76.4074 46.096 76.9529C51.0514 78.9775 55.9953 81.0295 60.9461 83.0655C61.3844 83.2459 61.8455 83.3714 62.2814 83.5563C62.4344 83.6202 62.5485 83.78 62.6809 83.8964C62.5485 84.0196 62.4321 84.2159 62.2769 84.2525C61.2794 84.4807 60.2774 84.6884 59.2708 84.8665C58.9375 84.9258 58.586 84.8756 58.2459 84.8756Z" fill="white"/>
<path d="M71.2793 72.1338C71.7701 72.6999 72.0942 73.2089 72.5416 73.5649C73.5482 74.3661 74.6095 75.0965 75.6549 75.8475C76.9605 76.7856 78.2684 77.7192 79.5809 78.6481C79.9256 78.8924 80.0511 79.1822 79.9986 79.6205C79.8731 80.675 79.8069 81.7364 79.711 82.7955C79.6288 83.7085 79.4942 83.8158 78.588 83.8295C76.8236 83.8569 75.0592 83.9322 73.2948 83.9276C72.4457 83.9253 71.5966 83.793 70.7475 83.7222C70.3207 83.6857 70.1358 83.4369 70.17 83.0329C70.259 82.0126 70.3595 80.9946 70.4622 79.9766C70.6996 77.637 70.9392 75.2951 71.1789 72.9555C71.204 72.7227 71.236 72.4876 71.2793 72.1338Z" fill="#EC8413"/>
<path d="M80.5258 71.221C80.4117 73.0767 80.2976 74.9324 80.1857 76.7881C80.1583 77.2355 80.0145 77.2994 79.6174 77.0529C77.9922 76.0417 76.3419 75.0671 74.7122 74.0627C73.6919 73.4351 72.9569 72.5768 72.3498 71.5154C71.8339 70.6116 71.9412 69.8583 72.2311 68.9864C72.6945 67.5986 73.1008 66.1926 73.539 64.7957C73.8471 63.8165 73.9179 63.7891 74.8218 64.2068C76.0977 64.798 77.3714 65.396 78.6541 65.9712C79.2362 66.2337 79.437 66.6422 79.5489 67.2836C79.7406 68.3975 80.1287 69.4794 80.4368 70.5728C80.4984 70.7873 80.5783 70.9973 80.6514 71.2096C80.608 71.2119 80.5669 71.2164 80.5258 71.221Z" fill="#EC8413"/>
<path d="M94.8668 68.4916C94.6043 67.6517 94.3715 66.9532 94.1638 66.2456C93.8967 65.3349 93.6023 64.4287 93.4083 63.4997C93.3033 62.9976 93.3969 62.4543 93.3809 61.9316C93.3649 61.393 93.2964 60.852 93.301 60.3133C93.3033 59.9938 93.2942 59.5829 93.4768 59.3729C94.6294 58.0399 95.8209 56.7366 97.0329 55.4538C97.421 55.043 97.9597 54.7691 98.3363 54.3514C98.9183 53.7054 99.5437 53.8743 100.206 54.1094C100.525 54.2235 100.838 54.3605 101.164 54.4449C101.568 54.5477 101.744 54.7485 101.653 55.1799C101.381 56.4422 101.176 57.7227 100.845 58.9712C100.525 60.1787 100.009 61.3336 99.7104 62.5456C99.1329 64.883 97.2452 66.1612 95.7022 67.7293C95.4694 67.9644 95.2115 68.1789 94.8668 68.4916Z" fill="#EC8413"/>
<path d="M37.6148 132.55C36.9803 132.094 36.4622 131.69 35.9121 131.336C34.4147 130.373 33.0954 129.213 31.9975 127.812C31.7716 127.524 31.6209 127.163 31.5045 126.812C30.7741 124.632 30.8563 122.359 30.7741 120.104C30.7307 118.946 30.6851 117.789 30.6417 116.632C30.6349 116.456 30.6417 116.278 30.6417 116.102C30.6942 116.084 30.7444 116.068 30.7969 116.05C30.9111 116.203 31.0366 116.351 31.1416 116.511C31.4977 117.047 31.8241 117.606 32.203 118.127C33.027 119.254 34.3075 119.633 35.5309 120.101C35.6199 120.136 35.7112 120.161 35.8025 120.19C37.6605 120.818 37.4231 120.626 37.6651 122.566C37.8089 123.71 37.7518 124.881 37.7541 126.04C37.7564 127.955 37.7358 129.873 37.7176 131.788C37.7153 132 37.6628 132.212 37.6148 132.55Z" fill="#EC8413"/>
<path d="M131.939 115.687C131.872 114.68 131.731 113.756 131.767 112.838C131.856 110.697 131.505 108.648 130.793 106.637C130.229 105.044 129.752 103.418 129.209 101.818C129.058 101.378 129.181 101.15 129.578 100.965C130.51 100.531 131.414 100.038 132.359 99.6431C133 99.3738 133.694 99.2345 134.363 99.0314C134.778 98.9058 134.86 99.1775 134.904 99.481C135.07 100.647 135.248 101.812 135.387 102.98C135.636 105.073 135.919 107.166 136.065 109.266C136.132 110.216 135.912 111.19 135.791 112.149C135.771 112.318 135.634 112.501 135.499 112.624C134.42 113.612 133.329 114.587 132.24 115.561C132.19 115.605 132.107 115.616 131.939 115.687Z" fill="#EC8413"/>
<path d="M111.874 132.455C110.984 132.688 110.477 132.229 110.078 131.348C109.471 130.001 108.695 128.732 108.049 127.402C107.839 126.97 107.777 126.459 107.702 125.975C107.638 125.553 107.953 125.384 108.3 125.261C109.662 124.784 111.03 124.32 112.379 123.809C113.086 123.54 113.771 123.202 114.442 122.852C114.839 122.645 115.049 122.732 115.264 123.104C115.891 124.19 116.558 125.251 117.19 126.333C117.61 127.05 118.026 127.774 118.377 128.525C118.459 128.698 118.356 129.079 118.206 129.223C117.548 129.846 116.905 130.52 116.14 130.987C114.746 131.843 113.278 132.613 111.874 132.455Z" fill="white"/>
<path d="M22.9321 62.8101C22.8065 62.6755 22.6354 62.5613 22.5623 62.4038C21.7223 60.5778 20.7454 58.7974 20.1246 56.8984C19.7114 55.6316 19.7685 54.2004 19.6909 52.8377C19.5653 50.6214 19.4992 48.4005 19.4079 46.1842C19.4033 46.07 19.4307 45.9308 19.3759 45.8486C18.9217 45.1639 19.4193 45.0429 19.9146 44.8626C21.0353 44.454 22.1423 44.0021 23.2631 43.5844C23.8907 43.3493 24.03 43.4314 24.014 44.0979C23.9706 46.0175 23.8976 47.9349 23.8337 49.8522C23.7173 53.365 23.61 56.8801 23.4685 60.3929C23.4365 61.1941 23.2722 61.9884 23.1695 62.7873C23.0896 62.7919 23.0097 62.801 22.9321 62.8101Z" fill="#EC8413"/>
<path d="M107.244 143.468C107.048 144.094 106.925 144.632 106.699 145.125C106.626 145.287 106.297 145.395 106.073 145.42C104.526 145.589 102.976 145.721 101.426 145.879C100.842 145.938 100.264 146.075 99.6799 146.105C99.4425 146.116 99.0933 146.013 98.9677 145.838C98.3332 144.938 97.7352 144.011 97.1737 143.064C97.0207 142.806 97.0093 142.448 96.9842 142.133C96.8792 140.83 96.8016 139.524 96.6966 138.221C96.6692 137.876 96.8153 137.842 97.1006 137.883C98.9928 138.155 100.885 138.422 102.777 138.675C102.978 138.702 103.211 138.695 103.394 138.618C103.88 138.412 104.106 138.65 104.357 139.026C105.151 140.225 105.989 141.396 106.795 142.587C106.991 142.873 107.114 143.206 107.244 143.468Z" fill="#EC8413"/>
<path d="M116.704 145.12C116.526 146.396 116.522 147.732 116.118 148.932C115.745 150.042 114.956 151.039 113.865 151.626C112.58 152.315 111.24 152.906 109.93 153.55C109.35 153.835 108.763 153.746 108.215 153.527C108.035 153.456 107.85 153.082 107.873 152.87C108.026 151.569 108.252 150.279 108.423 148.98C108.542 148.081 108.633 147.177 108.681 146.273C108.697 145.963 108.784 145.833 109.067 145.76C110.79 145.31 112.518 144.872 114.232 144.383C114.848 144.207 115.446 143.94 116.017 143.646C116.448 143.424 116.567 143.55 116.572 143.968C116.574 144.349 116.572 144.728 116.572 145.109C116.617 145.111 116.661 145.116 116.704 145.12Z" fill="#EC8413"/>
<path d="M133.156 60.5027C133.058 61.1167 133.005 61.7284 132.848 62.3127C132.786 62.5387 132.517 62.7487 132.291 62.8765C131.996 63.0408 131.615 63.0545 131.337 63.2349C130.549 63.7439 129.894 63.4973 129.125 63.1116C128.116 62.6026 127.461 61.879 126.984 60.877C126.356 59.5577 125.614 58.2955 124.957 56.9899C124.848 56.7707 124.832 56.4352 124.911 56.2024C125.192 55.3989 125.528 54.6114 125.868 53.8308C125.929 53.687 126.107 53.5273 126.256 53.5021C126.963 53.3743 127.68 53.2853 128.395 53.194C128.52 53.178 128.671 53.1849 128.778 53.2419C129.413 53.5775 130.047 53.9153 130.663 54.2851C130.828 54.3855 130.972 54.5818 131.045 54.7644C131.738 56.5288 132.416 58.2977 133.092 60.0713C133.142 60.2037 133.135 60.3634 133.156 60.5027Z" fill="#EC8413"/>
<path d="M123.183 93.6518C123.098 95.5828 123.021 97.5139 122.909 99.4426C122.9 99.5818 122.63 99.8169 122.489 99.8124C122.137 99.801 121.779 99.7074 121.439 99.5932C120.882 99.4061 120.346 99.1619 119.791 98.9701C119.378 98.8263 119.113 98.5912 119.033 98.1416C118.78 96.7059 118.431 95.2793 118.268 93.8321C118.063 91.9879 117.68 90.2098 116.942 88.5024C116.575 87.6488 116.276 86.7654 115.993 85.8798C115.94 85.7178 116.064 85.3776 116.205 85.2978C116.7 85.0239 117.241 84.8276 117.764 84.6039C118.063 84.476 118.273 84.5582 118.403 84.8641C118.574 85.2658 118.8 85.6493 118.926 86.0647C119.318 87.3657 120.058 88.4545 120.898 89.4999C121.587 90.3581 122.286 91.2164 122.884 92.1385C123.153 92.5516 123.185 93.1177 123.327 93.6153C123.279 93.629 123.231 93.6404 123.183 93.6518Z" fill="#EC8413"/>
<path d="M50.1741 101.337C50.1741 100.983 50.1399 100.812 50.1787 100.662C50.642 98.8836 50.8771 96.9959 51.6486 95.3616C52.6233 93.3028 53.0638 91.1207 53.7463 88.9956C53.7874 88.8701 53.8147 88.7377 53.8444 88.6099C54.0818 87.5417 54.0795 87.5303 55.1523 87.4047C56.378 87.2609 57.606 87.1422 58.834 87.019C59.4275 86.9596 59.5781 87.1559 59.3271 87.7128C58.7564 88.9751 58.1493 90.2236 57.5741 91.4836C56.725 93.3484 55.917 95.2338 55.0359 97.0826C54.4539 98.3015 53.7714 99.4907 52.5639 100.21C51.8495 100.637 51.0529 100.931 50.1741 101.337Z" fill="#EC8413"/>
<path d="M14.2087 65.2391C13.8138 64.1914 14.3958 63.3583 15.2153 62.5343C16.4182 61.3245 17.5389 60.0349 19.0979 59.2383C19.6571 58.953 19.689 58.9461 19.9812 59.5236C20.5587 60.658 21.1635 61.7765 21.7616 62.8995C22.0104 63.3674 22.2797 63.8239 22.5148 64.2964C22.7316 64.7346 22.339 65.5107 21.8049 65.8166C20.9513 66.305 20.0246 66.7159 19.285 67.3436C18.2191 68.2452 17.2878 69.3066 16.3132 70.3132C15.8064 70.8381 15.7151 70.8678 15.3887 70.2196C14.6241 68.7131 14.1927 67.1108 14.2087 65.2391Z" fill="#EC8413"/>
<path d="M66.1309 109.983C66.1058 109.894 66.0328 109.771 66.0442 109.655C66.1743 108.269 66.083 106.879 66.7084 105.537C67.9661 102.837 69.0822 100.07 70.2714 97.336C70.6458 96.4732 70.7142 96.4275 71.6569 96.5371C72.7434 96.6626 73.8596 96.7265 74.9004 97.0301C75.7153 97.2698 76.4411 97.8221 77.1966 98.2558C77.5002 98.4316 77.7764 98.6575 78.1941 98.952C76.5301 99.8422 74.994 100.666 73.3414 101.552C73.3003 99.986 73.8048 98.5229 73.3711 97.094C73.2912 97.0849 73.209 97.0758 73.1292 97.0666C73.0424 97.4547 72.9237 97.8404 72.8758 98.2353C72.8233 98.6667 72.8256 99.1072 72.821 99.5432C72.7982 101.401 72.013 102.949 70.9014 104.378C69.8537 105.724 68.8608 107.117 67.7835 108.44C67.3133 109.011 66.6947 109.461 66.1309 109.983Z" fill="#EC8413"/>
<path d="M46.5008 70.4906C46.5008 70.8878 46.4985 71.2484 46.5008 71.609C46.5031 72.045 46.2862 72.1591 45.8754 72.0929C43.9626 71.7871 42.0499 71.4766 40.1303 71.2073C39.2469 71.0841 38.3499 71.0681 37.462 70.9699C36.9005 70.906 36.8457 70.7348 37.1424 70.2715C38.7448 67.7812 40.3425 65.2864 41.9426 62.7939C42.3375 62.1776 42.4219 62.1616 42.8533 62.7528C43.6956 63.9009 44.5857 65.0239 45.3299 66.2337C46.1287 67.5302 46.7975 68.9111 46.5008 70.4906Z" fill="#EC8413"/>
<path d="M35.4286 133.751C36.1133 134.176 36.8027 134.591 37.4829 135.025C39.9297 136.586 42.3926 138.124 44.8121 139.729C46.0309 140.539 47.1288 141.5 47.7086 142.927C48.1514 144.013 48.6947 145.061 49.1261 146.152C49.3452 146.707 49.4296 147.318 49.546 147.912C49.5734 148.056 49.4798 148.222 49.441 148.377C49.2835 148.339 49.0895 148.343 48.9754 148.25C48.2861 147.684 47.6173 147.092 46.9394 146.515C45.175 145.015 43.4357 143.486 41.6371 142.025C39.7197 140.466 38.0215 138.747 36.8894 136.511C36.4306 135.604 35.844 134.762 35.3145 133.89C35.3533 133.842 35.3921 133.797 35.4286 133.751Z" fill="#EC8413"/>
<path d="M95.6746 152.904C94.6771 152.669 93.6774 152.447 92.6822 152.199C90.8767 151.749 89.0758 151.276 87.268 150.838C86.8914 150.747 86.6449 150.608 86.5878 150.199C86.4554 149.279 86.3025 148.362 86.1678 147.439C86.0811 146.844 86.2249 146.686 86.7978 146.789C89.6259 147.3 92.4813 147.483 95.3505 147.526C96.106 147.538 96.8592 147.661 97.6147 147.725C97.9548 147.754 98.0895 147.946 98.0393 148.263C97.8384 149.539 97.6239 150.813 97.4207 152.089C97.3454 152.566 97.0738 152.765 96.5944 152.758C96.2931 152.753 95.9896 152.813 95.6883 152.842C95.686 152.863 95.6814 152.883 95.6746 152.904Z" fill="#EC8413"/>
<path d="M132.344 133.797C132.364 133.471 132.364 133.231 132.394 132.996C132.672 130.736 132.969 128.479 133.227 126.217C133.282 125.733 133.225 125.231 133.184 124.74C133.074 123.443 133.161 122.172 133.423 120.892C133.563 120.211 133.588 119.426 133.387 118.773C132.953 117.363 133.223 116.281 134.43 115.429C134.816 115.158 135.147 114.793 135.56 114.578C136.272 114.206 136.576 114.457 136.58 115.247C136.589 116.954 136.692 118.664 136.66 120.371C136.612 122.896 136.534 125.425 135.87 127.885C135.261 130.134 134.332 132.204 132.344 133.797Z" fill="#EC8413"/>
<path d="M107.671 147.378C107.525 148.151 107.324 149.078 107.178 150.014C107.041 150.893 106.938 151.778 106.87 152.664C106.833 153.141 106.698 153.319 106.176 153.278C104.058 153.114 101.937 152.983 99.8166 152.874C98.6662 152.815 98.7004 152.835 98.8899 151.71C99.1364 150.254 99.3076 148.786 99.4742 147.318C99.5153 146.951 99.723 146.951 99.9741 146.93C101.355 146.818 102.738 146.718 104.119 146.588C104.929 146.513 105.742 146.423 106.541 146.28C107.433 146.118 107.678 146.293 107.671 147.378Z" fill="#EC8413"/>
<path d="M146.04 58.5713C146.127 58.69 146.223 58.8018 146.298 58.9274C147.214 60.4133 148.122 61.9061 149.38 63.1387C149.649 63.4011 149.743 63.6705 149.679 64.0517C149.236 66.6903 148.818 69.3312 148.375 71.9698C148.353 72.109 148.181 72.3395 148.102 72.3304C147.853 72.3007 147.551 72.2414 147.385 72.0748C147.079 71.7712 146.862 71.3809 146.597 71.0362C145.614 69.7626 144.634 68.4843 143.635 67.2244C143.356 66.8729 143.199 66.5373 143.349 66.0808C143.991 64.1361 144.612 62.1868 145.251 60.2421C145.436 59.6761 145.65 59.1191 145.853 58.5576C145.915 58.5622 145.979 58.5667 146.04 58.5713Z" fill="#EC8413"/>
<path d="M32.6367 93.3411C32.6869 93.1151 32.7326 92.8892 32.7874 92.6655C33.7962 88.5158 34.8097 84.3662 35.8163 80.2165C35.887 79.9221 35.9122 79.6117 36.0057 79.3264C36.0719 79.1278 36.2089 78.8196 36.3413 78.8059C36.5718 78.7808 36.9302 78.8698 37.0466 79.041C37.761 80.0887 38.811 80.7575 39.7582 81.5404C40.1759 81.8851 40.6553 82.1658 41.1414 82.4101C41.5226 82.6018 41.6367 82.773 41.3514 83.1336C39.9477 84.9003 38.5781 86.6966 37.1424 88.4382C35.8505 90.004 34.4833 91.5105 33.1594 93.0512C33.043 93.1882 33.0111 93.3982 32.938 93.5739C32.8376 93.4963 32.7372 93.4187 32.6367 93.3411Z" fill="#EC8413"/>
<path d="M122.155 135.854C122.299 137.093 121.696 138.102 120.877 139.065C120.035 140.056 119.16 140.989 118.065 141.704C117.542 142.044 117.346 141.991 117.287 141.386C117.227 140.802 116.992 140.366 116.547 139.976C115.561 139.115 114.616 138.207 113.655 137.317C113.224 136.92 113.23 136.803 113.687 136.431C115.324 135.103 116.958 133.774 118.59 132.443C119.311 131.855 120.361 132.019 120.843 132.804C120.952 132.98 121.057 133.176 121.212 133.304C122.002 133.95 122.315 134.774 122.155 135.854Z" fill="#EC8413"/>
<path d="M14.0544 62.1959C14.0361 61.963 13.9814 61.7234 14.0065 61.4951C14.2233 59.5915 14.4014 57.681 14.6958 55.7888C15.0336 53.6113 15.4445 51.4429 15.8918 49.2859C16.0996 48.2884 16.467 47.3229 16.7615 46.3437C16.9007 45.8758 17.1701 45.5653 17.7019 45.6133C18.0785 45.6475 18.4003 46.1337 18.4095 46.661C18.4254 47.6858 18.3798 48.7152 18.4597 49.7332C18.6583 52.2691 18.8934 54.805 19.1536 57.3341C19.2221 57.9937 18.8454 58.2722 18.4163 58.6191C17.2066 59.5892 16.022 60.5935 14.8373 61.5956C14.6068 61.7896 14.4265 62.0429 14.221 62.2666C14.164 62.2415 14.1092 62.2187 14.0544 62.1959Z" fill="#EC8413"/>
<path d="M76.0541 129.709C77.2707 129.709 78.4873 129.711 79.7039 129.709C80.4549 129.707 80.7813 129.901 81.0095 130.627C81.1374 131.037 81.1762 131.48 81.215 131.912C81.2675 132.478 81.2697 133.048 81.3131 133.617C81.3725 134.395 81.2538 134.63 80.4686 134.756C78.218 135.116 75.9674 135.203 73.7579 134.493C72.9864 134.247 72.2149 133.987 71.4686 133.672C71.2882 133.596 71.0965 133.268 71.1079 133.067C71.1558 132.158 71.2723 131.252 71.3727 130.346C71.4252 129.871 71.6717 129.679 72.1784 129.693C73.4703 129.727 74.7622 129.704 76.0541 129.704C76.0564 129.704 76.0564 129.707 76.0541 129.709Z" fill="white"/>
<path d="M38.9217 116.812C38.2506 113.484 37.5293 110.298 38.3647 107.006C38.6341 105.94 38.7961 104.845 38.9856 103.761C39.0563 103.352 39.2184 103.229 39.6429 103.327C41.1015 103.662 42.5669 103.968 44.0323 104.272C44.5367 104.377 44.4568 104.687 44.3792 105.052C43.9706 107.02 43.2128 108.826 42.1925 110.569C41.0672 112.496 40.152 114.548 39.1431 116.543C39.1134 116.604 39.0563 116.652 38.9217 116.812Z" fill="#EC8413"/>
<path d="M130.901 87.0234C130.771 86.8294 130.65 86.6901 130.572 86.5304C129.406 84.1634 128.23 81.801 127.096 79.418C126.872 78.9478 126.76 78.4114 126.669 77.8933C126.528 77.0898 126.418 76.2795 126.356 75.4669C126.331 75.1291 126.372 74.7251 126.541 74.4466C126.925 73.8212 127.406 73.2552 127.854 72.6708C128.265 72.1344 128.445 72.1344 128.821 72.6868C129.271 73.3465 129.698 74.0198 130.148 74.6772C130.563 75.2866 130.755 75.9668 130.648 76.679C130.469 77.8682 130.755 78.8907 131.551 79.7786C132.147 80.4451 132.375 81.26 132.499 82.1182C132.542 82.4195 132.579 82.7254 132.674 83.0107C132.814 83.433 132.727 83.7845 132.476 84.1337C132.156 84.5811 131.828 85.0285 131.563 85.5078C131.319 85.9552 131.152 86.4413 130.901 87.0234Z" fill="#EC8413"/>
<path d="M34.6888 76.2494C34.6112 77.4614 34.5268 78.6712 34.4629 79.8832C34.4378 80.3442 34.2278 80.5383 33.7712 80.4766C33.6389 80.4584 33.4996 80.431 33.3741 80.4561C31.3495 80.851 30.1078 79.5819 28.8844 78.3151C28.7565 78.1827 28.7086 77.8152 28.7999 77.6554C29.5098 76.3863 29.3728 75.1218 28.9072 73.8185C28.6652 73.1406 28.5169 72.4307 28.3434 71.73C28.2293 71.2757 28.704 70.3627 29.1286 70.2395C29.2678 70.2007 29.4664 70.2623 29.6034 70.3399C30.8724 71.0658 32.137 71.7985 33.3901 72.5517C33.5841 72.6681 33.7073 72.9078 33.8557 73.0972C33.9014 73.1543 33.9014 73.2547 33.9516 73.3004C34.8783 74.1221 34.7162 75.1949 34.6888 76.2494Z" fill="#EC8413"/>
<path d="M107.89 144.979C107.853 144.842 107.744 144.668 107.785 144.547C108.109 143.598 107.94 142.799 107.278 142.018C106.755 141.402 106.379 140.662 105.943 139.975C105.776 139.713 105.82 139.46 106.141 139.405C107.714 139.14 108.858 138.088 110.118 137.257C110.476 137.02 110.766 137.01 111.09 137.287C112.747 138.711 114.418 140.119 116.064 141.555C116.739 142.146 116.7 142.272 115.888 142.625C113.42 143.696 110.859 144.454 108.212 144.919C108.152 144.931 108.098 144.942 107.89 144.979Z" fill="#EC8413"/>
<path d="M93.7715 125.705C94.1755 124.185 94.5567 122.658 95.0018 121.152C95.0885 120.855 95.3647 120.531 95.6409 120.389C97.3117 119.538 99.0852 118.981 100.95 118.746C101.799 118.639 102.338 119.237 102.173 120.083C101.913 121.426 101.639 122.765 101.345 124.101C101.162 124.929 100.708 125.461 99.7905 125.6C98.1014 125.858 96.4261 126.207 94.7416 126.502C93.9153 126.646 93.8514 126.575 93.7715 125.705Z" fill="white"/>
<path d="M84.0733 123.172C85.1985 123.069 86.616 122.948 88.0312 122.802C88.9533 122.706 89.8732 122.583 90.793 122.455C90.9962 122.427 91.197 122.35 91.3888 122.272C92.1192 121.976 92.5369 122.236 92.7149 123.035C92.9318 124.012 92.5346 124.861 92.2287 125.733C91.9092 126.646 91.3408 127.082 90.2886 127.129C88.3005 127.223 86.3193 127.474 84.3426 127.725C83.4821 127.835 82.8544 127.565 82.4983 126.83C82.0487 125.901 81.72 124.929 82.3842 123.923C82.8156 123.272 82.9617 123.165 84.0733 123.172Z" fill="white"/>
<path d="M63.125 122.476C63.1729 121.636 63.3806 121.407 64.2092 121.556C65.7773 121.839 67.3317 122.193 68.8952 122.499C69.5275 122.622 70.1666 122.718 70.8057 122.793C71.3626 122.859 71.6708 123.206 71.7895 123.692C72.0702 124.834 72.3213 125.984 72.5404 127.139C72.6477 127.7 72.5108 127.776 71.9584 127.63C70.7875 127.324 69.6256 127.413 68.4707 127.723C67.5645 127.967 66.704 127.805 65.791 127.625C64.4329 127.358 63.9809 126.418 63.6819 125.315C63.4331 124.388 63.3076 123.425 63.125 122.476Z" fill="white"/>
<path d="M120.74 54.5977C120.927 54.8624 121.034 54.9857 121.112 55.1272C122.589 57.8252 124.065 60.5231 125.531 63.2279C125.827 63.778 126.067 64.3578 126.357 64.9124C126.569 65.321 126.384 65.5355 126.049 65.741C124.789 66.517 123.536 67.3068 122.285 68.0988C121.981 68.2906 121.696 68.5165 121.404 68.7265C121.05 68.9822 120.849 68.9137 120.822 68.4572C120.74 67.0169 120.594 65.5766 120.582 64.1364C120.559 61.1052 120.607 58.074 120.63 55.0428C120.632 54.9537 120.671 54.867 120.74 54.5977Z" fill="#EC8413"/>
<path d="M55.6814 133.306C54.4557 133.08 53.2094 132.931 52.0111 132.605C51.0342 132.34 50.7534 131.391 51.1962 130.491C51.4793 129.914 51.7577 129.316 51.9152 128.697C52.1024 127.96 52.5224 127.501 53.2322 127.382C53.7983 127.287 54.4146 127.218 54.9624 127.344C56.6606 127.732 58.3337 128.236 60.0251 128.658C60.7577 128.841 60.8171 128.873 60.5911 129.608C60.3515 130.389 60.0935 131.162 59.8516 131.943C59.6598 132.564 59.1417 132.751 58.5939 132.876C58.1123 132.986 57.6238 133.075 57.1331 133.116C56.6606 133.157 56.1836 133.125 55.7088 133.125C55.6997 133.182 55.6905 133.244 55.6814 133.306Z" fill="white"/>
<path d="M68.3177 134.14C66.0809 134.019 64.0791 134.085 62.148 133.471C61.6276 133.304 61.0798 133.224 60.548 133.085C60.1896 132.989 60.0504 132.759 60.2102 132.393C60.6439 131.403 61.0547 130.401 61.5295 129.433C61.6208 129.246 61.9814 129.07 62.2028 129.084C64.8528 129.255 67.5006 129.467 70.1483 129.657C70.5501 129.686 70.7235 129.915 70.7966 130.255C71.0202 131.305 70.9038 132.343 70.5272 133.329C70.4291 133.587 70.0479 133.815 69.7512 133.898C69.2102 134.053 68.635 134.092 68.3177 134.14Z" fill="white"/>
<path d="M59.2049 135.395C59.4172 135.452 59.7002 135.438 59.8326 135.575C60.4238 136.184 61.1907 136.413 61.9622 136.607C63.1697 136.913 64.3589 137.355 65.6508 137.154C66.1347 137.079 66.0822 137.392 65.943 137.693C65.6029 138.435 65.224 139.161 64.9204 139.916C64.7104 140.439 64.562 140.996 64.4456 141.548C64.3064 142.215 64.2836 142.254 63.649 142.119C61.5308 141.669 59.4126 141.224 57.2944 140.772C57.0342 140.717 56.7809 140.635 56.5275 140.553C56.1441 140.43 56.0368 140.161 56.1646 139.793C56.5846 138.576 56.8904 137.319 57.7418 136.278C58.1367 135.789 58.5088 135.388 59.2049 135.395Z" fill="#EC8413"/>
<path d="M143.874 43.9014C143.96 44.0566 144.061 44.2049 144.132 44.3693C145.86 48.3592 147.583 52.3513 149.313 56.3389C149.555 56.8958 149.811 57.4459 150.094 57.9823C150.808 59.3336 150.103 60.6323 150.096 62.116C149.82 61.9105 149.687 61.8398 149.594 61.7371C148.363 60.3676 147.135 58.998 145.921 57.6171C145.791 57.471 145.707 57.2519 145.675 57.0556C145.102 53.3784 144.54 49.699 143.979 46.0218C143.874 45.3371 143.769 44.6546 143.666 43.9698C143.732 43.947 143.803 43.9242 143.874 43.9014Z" fill="#EC8413"/>
<path d="M79.8287 148.661C79.048 148.547 78.2674 148.439 77.4891 148.321C75.8936 148.079 74.3072 147.759 72.7026 147.606C70.7328 147.417 68.8793 146.835 67.0396 146.17C66.8228 146.093 66.5763 145.933 66.469 145.739C66.0832 145.043 65.7477 144.317 65.4053 143.598C65.362 143.509 65.3848 143.388 65.3711 143.196C65.6039 143.253 65.7865 143.278 65.9532 143.34C68.4639 144.269 71.0751 144.509 73.732 144.577C75.2818 144.618 76.8271 144.881 78.3724 145.075C78.555 145.098 78.8038 145.289 78.8677 145.461C79.2306 146.437 79.5479 147.433 79.8766 148.426C79.8926 148.469 79.856 148.531 79.8287 148.661Z" fill="#EC8413"/>
<path d="M102.233 123.345C102.569 121.679 103.094 119.709 104.271 117.977C104.406 117.781 104.602 117.584 104.815 117.488C105.883 116.998 106.951 116.507 108.051 116.096C108.364 115.98 108.8 116.066 109.138 116.183C109.544 116.324 109.672 116.667 109.514 117.112C108.891 118.883 108.277 120.657 107.677 122.437C107.364 123.364 106.864 124.028 105.808 124.185C105.041 124.3 104.297 124.548 103.541 124.736C102.404 125.014 102.219 124.87 102.233 123.345Z" fill="white"/>
<path d="M105.383 97.0615C105.339 97.6664 105.3 98.2736 105.25 98.8784C105.216 99.2938 105.02 99.4217 104.645 99.1866C102.927 98.1069 101.194 97.0433 99.4914 95.9363C99.0349 95.6395 98.6743 95.2036 98.2543 94.8475C97.4874 94.1992 96.7181 93.5533 95.9284 92.9301C95.5609 92.6403 95.5928 92.4417 95.9581 92.1952C96.8733 91.5835 97.7818 90.9626 98.6857 90.3326C98.987 90.1226 99.2289 90.1523 99.5005 90.3851C100.665 91.3894 101.911 92.3116 102.991 93.3981C103.862 94.2769 104.554 95.3382 105.294 96.3425C105.424 96.5183 105.394 96.8105 105.437 97.0501C105.419 97.057 105.401 97.0593 105.383 97.0615Z" fill="#EC8413"/>
<path d="M123.258 136.753C123.859 138.383 124.091 139.996 123.671 141.685C123.368 142.9 123.151 144.135 122.879 145.358C122.836 145.557 122.765 145.787 122.628 145.92C121.25 147.262 119.764 148.462 117.881 149.252C117.86 149.051 117.83 148.88 117.828 148.709C117.817 146.963 117.826 145.214 117.789 143.468C117.78 143.073 117.99 142.936 118.262 142.783C120.175 141.713 121.551 140.111 122.663 138.266C122.93 137.823 123.051 137.294 123.258 136.753Z" fill="#EC8413"/>
<path d="M125.645 145.274C125.608 145.491 125.581 145.712 125.531 145.927C125.36 146.627 125.147 147.319 125.008 148.026C124.855 148.809 124.531 149.485 124.052 150.122C122.68 151.946 121.306 153.774 119.537 155.226C118.726 155.89 117.724 156.319 116.8 156.842C116.494 157.015 116.328 156.842 116.293 156.538C116.181 155.499 116.065 154.461 115.997 153.42C115.985 153.251 116.175 153.018 116.332 152.893C117.3 152.133 118.327 151.446 119.254 150.64C121.03 149.095 122.748 147.485 124.494 145.908C124.803 145.63 125.134 145.376 125.455 145.109C125.517 145.166 125.581 145.219 125.645 145.274Z" fill="#EC8413"/>
<path d="M63.136 125.513C63.1177 126.899 63.1132 126.862 61.7573 127.006C60.7348 127.113 59.7898 126.983 58.8996 126.465C58.7741 126.392 58.5983 126.323 58.4705 126.355C57.6921 126.543 57.3269 126.029 57.0622 125.477C56.7768 124.881 56.5942 124.235 56.3865 123.603C56.1081 122.754 55.8227 121.907 55.5899 121.044C55.3731 120.241 55.6904 119.926 56.487 120.115C58.1692 120.512 59.8469 120.928 61.5291 121.322C62.2161 121.485 62.5494 121.946 62.6612 122.596C62.8301 123.566 62.9785 124.541 63.136 125.513Z" fill="white"/>
<path d="M77.458 127.988C76.5267 127.988 75.5977 127.992 74.6664 127.985C73.8676 127.978 73.4339 127.638 73.2764 126.853C73.1006 125.979 72.9523 125.1 72.813 124.219C72.6966 123.475 73.1508 123.044 73.9041 123.092C75.7598 123.21 77.6132 123.349 79.4712 123.386C80.2198 123.402 80.69 123.658 80.8909 124.331C81.1488 125.196 81.5026 126.052 81.3474 126.995C81.2287 127.709 81.0667 127.885 80.3614 127.896C79.3936 127.91 78.4258 127.901 77.458 127.901C77.458 127.93 77.458 127.96 77.458 127.988Z" fill="white"/>
<path d="M59.6504 66.6012C59.6755 65.4348 59.6938 64.289 59.7303 63.1454C59.8056 60.7351 59.8878 58.3247 59.97 55.9144C59.9905 55.3369 60.1366 55.2524 60.6136 55.5332C61.8553 56.2636 63.0902 57.0123 64.3387 57.7313C64.7199 57.9504 64.8774 58.222 64.8112 58.6603C64.7359 59.1647 64.7085 59.6783 64.6491 60.185C64.5282 61.2327 63.8 61.9722 63.2043 62.7232C62.168 64.0288 60.9788 65.2111 59.8513 66.4437C59.7942 66.5099 59.712 66.5555 59.6504 66.6012Z" fill="#EC8413"/>
<path d="M33.983 19.5766C33.9465 19.9578 33.8917 20.339 33.8758 20.7224C33.8187 22.1559 33.3873 23.4683 32.7094 24.7306C32.1821 25.7143 31.7416 26.746 31.3079 27.7778C30.5433 29.5969 29.2947 30.9139 27.4596 31.6717C26.9757 31.8703 26.5237 32.1442 25.9645 32.4295C25.8116 31.7197 26.0056 31.1331 26.1266 30.535C26.4963 28.7113 27.649 27.3349 28.7332 25.9175C29.9338 24.3494 31.1367 22.7859 32.3442 21.2246C32.7162 20.743 33.102 20.2728 33.49 19.8071C33.5882 19.6907 33.7228 19.604 33.8415 19.5059C33.8917 19.5287 33.9374 19.5515 33.983 19.5766Z" fill="#EC8413"/>
<path d="M115.564 116.555C115.424 116.902 115.244 117.614 114.881 118.214C114.208 119.324 113.635 120.572 112.322 121.102C111.702 121.353 111.028 121.526 110.362 121.597C109.803 121.656 109.634 121.35 109.757 120.787C110.209 118.748 110.668 116.71 111.113 114.669C111.229 114.135 111.608 113.855 112.062 113.699C113.774 113.11 115.548 114.384 115.564 116.555Z" fill="white"/>
<path d="M55.2244 125.826C55.1423 125.808 54.9916 125.785 54.8478 125.74C54.3959 125.594 53.9576 125.368 53.4966 125.299C52.2412 125.112 51.707 124.265 51.3259 123.181C50.7529 121.553 50.1207 119.947 49.5181 118.331C49.4656 118.189 49.4336 118.036 49.4199 117.888C49.372 117.388 49.5409 117.267 50.0157 117.461C51.1752 117.936 52.3416 118.397 53.4874 118.903C53.7545 119.022 54.0695 119.262 54.1608 119.517C54.793 121.284 55.3705 123.071 55.9663 124.852C56.1443 125.386 55.8521 125.81 55.2244 125.826Z" fill="white"/>
<path d="M65.151 146.446C64.6124 146.341 64.2083 146.259 63.8043 146.182C62.7042 145.974 61.5743 145.862 60.5106 145.538C59.342 145.18 58.2121 144.666 57.1051 144.139C56.5801 143.888 56.4409 143.303 56.3633 142.735C56.2058 141.582 55.9935 141.361 57.4657 141.717C59.5086 142.21 61.5994 142.495 63.6697 142.881C63.8363 142.913 64.0874 143.002 64.1285 143.121C64.4777 144.175 64.7881 145.244 65.151 146.446Z" fill="#EC8413"/>
<path d="M83.6794 144.974C83.4968 144.993 83.3895 145.015 83.2845 145.011C82.262 144.961 81.2394 144.89 80.2168 144.86C79.7352 144.846 79.4864 144.648 79.5458 144.171C79.7672 142.386 80.0023 140.603 80.2396 138.821C80.283 138.492 80.4816 138.385 80.808 138.446C81.4425 138.565 82.0794 138.663 82.7139 138.77C83.0745 138.83 83.2686 139.033 83.3393 139.403C83.4968 140.231 83.595 141.051 83.2708 141.865C82.876 142.854 82.7687 143.817 83.5607 144.687C83.6086 144.737 83.6201 144.819 83.6794 144.974Z" fill="#EC8413"/>
<path d="M70.2786 88.402C70.16 89.4543 70.0367 90.5043 69.9226 91.5565C69.8883 91.8806 69.7377 91.9833 69.425 91.9012C67.8934 91.4994 66.6768 90.5659 65.499 89.573C65.3917 89.484 65.3575 89.2192 65.3963 89.064C65.5538 88.4203 65.7296 87.7766 65.9555 87.1558C66.0035 87.0234 66.307 86.8773 66.4623 86.9047C67.5259 87.0987 68.5805 87.3293 69.635 87.5621C70.1896 87.6831 70.2672 87.8086 70.2786 88.402Z" fill="#EC8413"/>
<path d="M85.5524 150.094C85.4451 150.145 85.2602 150.318 85.1073 150.293C83.4319 150.031 81.9003 149.405 80.8526 148.031C80.4144 147.456 80.266 146.655 80.0286 145.94C80.0058 145.872 80.2888 145.589 80.4212 145.598C81.898 145.682 83.3726 145.822 84.7626 146.39C84.8927 146.442 85.0251 146.632 85.0479 146.776C85.2214 147.823 85.3698 148.876 85.5524 150.094Z" fill="#EC8413"/>
<path d="M92.3953 89.0319C92.4045 87.0416 92.4319 87.0005 94.1666 86.2746C94.2716 86.2312 94.3766 86.1833 94.4816 86.1445C96.1775 85.5191 95.6799 85.2703 96.6751 86.9982C96.8714 87.3406 97.006 87.7195 97.2023 88.0641C97.4534 88.5024 97.3667 88.8333 96.9284 89.0479C96.0451 89.4816 95.1572 89.9038 94.2602 90.3101C93.8927 90.4768 93.2855 90.8054 93.1577 90.6799C92.7035 90.2371 92.2104 89.7098 92.3953 89.0319Z" fill="#EC8413"/>
<path d="M51.0703 135.613C53.0013 136.396 54.8867 136.138 56.7629 136.022C56.8862 136.015 57.014 136.038 57.2331 136.056C57.1327 136.264 57.0779 136.414 56.9935 136.547C56.4753 137.364 55.9275 138.161 55.4368 138.994C55.172 139.441 54.9209 139.507 54.4781 139.236C53.6382 138.722 52.7891 138.22 51.9126 137.775C50.9767 137.298 51.1 136.481 51.0703 135.613Z" fill="#EC8413"/>
<path d="M51.6417 138.645C52.7373 139.249 53.7393 139.781 54.7185 140.354C54.9194 140.473 55.1294 140.733 55.1636 140.954C55.2869 141.778 55.3599 142.609 55.4124 143.442C55.4467 143.99 55.3234 144.018 54.8327 143.837C53.8694 143.486 53.4015 142.644 52.7853 141.931C52.0777 141.117 51.5687 140.245 51.6097 139.128C51.612 139.007 51.6257 138.882 51.6417 138.645Z" fill="#EC8413"/>
<path d="M27.5573 72.0723C27.7034 72.5356 27.8243 72.9008 27.9362 73.2706C28.1667 74.033 28.4863 74.7839 28.589 75.5623C28.6643 76.1283 28.4589 76.7332 28.3425 77.3152C28.3333 77.3563 27.9795 77.4157 27.9042 77.3426C27.1966 76.6579 26.5027 75.9549 25.8317 75.2336C25.7244 75.1194 25.6536 74.8524 25.713 74.7223C26.1375 73.7819 26.5667 72.8278 27.5573 72.0723Z" fill="#EC8413"/>
<path d="M53.9203 51.5348C53.5848 51.1468 53.1785 50.8318 52.9845 50.4186C52.649 49.6996 52.439 48.9213 52.1947 48.1635C52.1537 48.0357 52.2084 47.8782 52.2199 47.7344C52.3614 47.7458 52.512 47.7321 52.6444 47.7755C52.8224 47.8348 52.9868 47.9398 53.158 48.0197C53.8473 48.3347 54.2878 48.6953 54.2262 49.6312C54.1395 50.9984 54.2513 51.0075 53.9203 51.5348Z" fill="#EC8413"/>
<path d="M126.672 52.7947C126.259 52.8563 126.174 52.6942 126.284 52.3062C126.384 51.9456 126.403 51.5644 126.478 51.1969C126.505 51.0691 126.599 50.955 126.663 50.834C126.75 50.9184 126.848 50.9938 126.921 51.0896C127.17 51.4206 127.393 51.7721 127.653 52.0939C127.916 52.4158 127.861 52.6029 127.459 52.6806C127.199 52.7285 126.935 52.7559 126.672 52.7947Z" fill="#EC8413"/>
</svg>
