<svg width="26" height="26" viewBox="0 0 26 26" fill="none" xmlns="http://www.w3.org/2000/svg">
<path d="M6.07483 13.9216C6.24499 13.9492 6.41516 13.9769 6.60781 14.0082C6.58442 13.9687 6.57469 13.945 6.55889 13.9261C6.39358 13.7316 6.23497 13.5302 6.05842 13.346C5.91134 13.1926 5.85756 13.0048 5.81168 12.8106C5.7825 12.6869 5.74391 12.5739 5.63452 12.4958C5.35131 12.2934 5.18783 11.9917 4.99305 11.7161C4.91283 11.6024 4.82866 11.4918 4.74844 11.3782C4.72534 11.3457 4.70286 11.3104 4.69161 11.2727C4.64208 11.1056 4.6041 10.9348 4.54819 10.7701C4.38896 10.3034 4.3057 9.82055 4.22578 9.33618C4.1802 9.05966 4.11943 8.78526 4.06352 8.51026C4.0462 8.42518 4.05106 8.41637 4.13857 8.42488C4.19904 8.43065 4.25951 8.43734 4.31968 8.44584C4.37164 8.45344 4.38501 8.43308 4.36891 8.38598C4.28686 8.14137 4.20968 7.89523 4.12186 7.65305C4.06504 7.49686 4.03191 7.34037 4.0307 7.17294C4.02796 6.71987 4.01733 6.26649 4.00912 5.81342C4.00821 5.75538 3.9997 5.69735 4.00001 5.639C4.00031 5.57701 4.02341 5.56577 4.07385 5.60011C4.12307 5.63353 4.17109 5.66878 4.23885 5.71679C4.23399 5.67091 4.23399 5.64538 4.22791 5.62108C4.1875 5.45638 4.13493 5.29381 4.1094 5.12698C4.09603 5.03886 4.1249 4.94284 4.14313 4.85198C4.20421 4.54933 4.27501 4.2488 4.32971 3.94524C4.34915 3.83736 4.33609 3.72341 4.33305 3.6122C4.33001 3.49855 4.31907 3.3849 4.31664 3.27125C4.31603 3.24512 4.32849 3.20927 4.34763 3.19377C4.41054 3.14333 4.47982 3.10078 4.54606 3.05399C4.58587 3.02573 4.60744 3.04123 4.61565 3.08255C4.62203 3.11476 4.61929 3.1488 4.6275 3.1804C4.63297 3.20136 4.65029 3.21899 4.66214 3.23844C4.67551 3.21929 4.69678 3.20197 4.70103 3.18101C4.70954 3.13938 4.70559 3.09501 4.71258 3.05277C4.75603 2.7957 4.79858 2.53863 4.84628 2.28246C4.86603 2.17611 4.89369 2.07067 4.92559 1.96735C4.93653 1.9318 4.96662 1.89716 4.997 1.87346C5.4601 1.50577 5.92228 1.13627 6.39055 0.774969C6.58654 0.623642 6.7956 0.489332 7.00041 0.35016C7.03019 0.329801 7.06969 0.31795 7.10616 0.314608C7.38329 0.28969 7.66072 0.266596 7.93815 0.246541C7.97644 0.243806 8.01959 0.253834 8.05484 0.270547C8.256 0.365354 8.45716 0.461072 8.65468 0.563172C8.71606 0.595079 8.76923 0.644913 8.8215 0.692013C8.94305 0.801406 9.06156 0.913838 9.19769 1.04025C9.16214 1.03751 9.14664 1.04116 9.13752 1.03508C8.92542 0.892567 8.67747 0.842125 8.44045 0.764334C8.3034 0.719362 8.16575 0.675908 8.02688 0.637013C7.99406 0.627897 7.95061 0.630328 7.91992 0.64461C7.3763 0.896821 6.83389 1.15116 6.2924 1.40793C6.24925 1.42829 6.20974 1.46506 6.17966 1.50334C6.08121 1.62823 5.98762 1.75707 5.89311 1.885C5.87822 1.90506 5.86151 1.92663 5.85543 1.94973C5.8056 2.14025 5.74969 2.32987 5.71322 2.52343C5.69651 2.61186 5.71292 2.70849 5.72598 2.79965C5.74726 2.94946 5.77795 3.09805 5.80408 3.24695C5.8056 3.25545 5.80043 3.26518 5.79679 3.28311C5.70046 3.20835 5.6096 3.13786 5.51905 3.06675C5.48714 3.04183 5.45828 3.01297 5.42576 2.98896C5.38261 2.95705 5.35435 2.96951 5.35223 3.0236C5.34858 3.11962 5.34615 3.21595 5.34736 3.31197C5.35222 3.6912 5.35678 4.07073 5.36499 4.44996C5.36894 4.63715 5.39112 4.82463 5.38595 5.01121C5.3814 5.17621 5.41118 5.3248 5.49747 5.46549C5.55399 5.55787 5.59866 5.65784 5.6488 5.75417C5.68314 5.82011 5.67281 5.83682 5.59684 5.83895C5.53607 5.84047 5.4756 5.84351 5.41482 5.84442C5.36529 5.84503 5.34584 5.86083 5.36316 5.91431C5.50507 6.3458 5.59714 6.78854 5.66217 7.23766C5.66886 7.28294 5.69347 7.32791 5.71869 7.36741C5.80043 7.49534 5.88309 7.62236 5.97182 7.74542C6.00767 7.79526 6.05356 7.84297 6.10521 7.87578C6.41881 8.07482 6.73635 8.26778 7.04994 8.46651C7.08702 8.4899 7.12287 8.53153 7.13746 8.57256C7.34865 9.15477 7.55589 9.7385 7.76404 10.3216C7.7692 10.3359 7.77103 10.3526 7.77984 10.3642C7.7926 10.3809 7.8087 10.4 7.82724 10.4061C7.83575 10.4088 7.85732 10.3842 7.86614 10.3681C7.93663 10.2423 8.00592 10.1159 8.07489 9.9895C8.10771 9.92964 8.14144 9.87038 8.17122 9.809C8.19796 9.7537 8.22197 9.74549 8.26025 9.80019C8.40854 10.0114 8.55865 10.221 8.70785 10.4313C8.91874 10.7282 9.12902 11.0254 9.34021 11.3223C9.53043 11.59 9.72521 11.8543 9.91057 12.1254C9.9835 12.2317 10.0777 12.3041 10.1856 12.3673C10.6781 12.656 11.1698 12.9471 11.6624 13.236C11.7095 13.2637 11.7304 13.2923 11.7168 13.3518C11.6754 13.5314 11.6341 13.7116 11.6387 13.8979C11.6438 14.1075 11.6414 14.3178 11.6575 14.5269C11.7013 15.0945 11.7523 15.6615 11.8025 16.2285C11.8137 16.3571 11.8341 16.4847 11.8499 16.6126C11.8523 16.6315 11.8526 16.6506 11.8553 16.6892C11.8198 16.6652 11.797 16.653 11.7775 16.6366C11.4773 16.3808 11.1774 16.1246 10.8772 15.8688C10.8447 15.8408 10.8103 15.8144 10.7745 15.791C10.6086 15.6837 10.494 15.5327 10.3952 15.3649C10.2813 15.1708 10.2789 15.1741 10.0737 15.2631C9.89993 15.3385 9.72521 15.412 9.54866 15.4816C9.51797 15.4938 9.47178 15.4935 9.44291 15.4789C9.33929 15.4266 9.24023 15.3649 9.13844 15.3084C9.08951 15.2814 9.09802 15.2598 9.13844 15.2322C9.19222 15.1954 9.24357 15.1553 9.31316 15.1036C9.27183 15.0878 9.24722 15.0729 9.22139 15.0693C9.02357 15.041 8.82515 15.0164 8.62733 14.9878C8.24172 14.9325 7.85671 14.8724 7.4705 14.8213C7.37052 14.8083 7.28939 14.7675 7.20917 14.7138C6.84605 14.4704 6.48171 14.2285 6.11828 13.9857C6.09883 13.9726 6.08212 13.9556 6.06419 13.9407C6.06845 13.934 6.07148 13.9279 6.07483 13.9216ZM7.06362 0.655245C7.07121 0.716626 7.08033 0.749748 7.13199 0.723008C7.17605 0.700218 7.21981 0.677428 7.26326 0.653726C7.29456 0.636709 7.32707 0.60146 7.28362 0.583228C7.24168 0.565603 7.18213 0.57472 7.13533 0.589002C7.10373 0.599029 7.08124 0.637924 7.06362 0.655245ZM5.58651 2.35235C5.58104 2.34385 5.57557 2.33534 5.5701 2.32653C5.53911 2.34537 5.50811 2.3642 5.47712 2.38304C5.48289 2.39246 5.48897 2.40158 5.49474 2.411C5.52543 2.39186 5.55582 2.37211 5.58651 2.35235Z" fill="#8A8A8F"/>
<path d="M20.5226 8.9417C20.597 8.93288 20.656 8.92438 20.7149 8.91921C20.7511 8.91617 20.7879 8.91799 20.8246 8.91799C20.8177 8.95355 20.8152 8.99123 20.8025 9.02465C20.7368 9.19725 20.6563 9.36499 20.6037 9.54123C20.4946 9.9077 20.4302 10.2836 20.3907 10.6649C20.3618 10.9439 20.3154 11.2213 20.2676 11.4978C20.2543 11.5753 20.2111 11.6486 20.1768 11.7215C20.0811 11.9248 19.9972 12.1369 19.8216 12.2891C19.7052 12.39 19.5815 12.4824 19.4636 12.5814C19.367 12.6629 19.2679 12.7431 19.1816 12.8349C19.1278 12.8923 19.0929 12.9686 19.0546 13.0391C18.9969 13.1448 18.9431 13.253 18.8799 13.3751C18.9613 13.3751 19.0294 13.3751 19.1087 13.3751C19.1023 13.4071 19.1035 13.4283 19.0944 13.4429C18.9823 13.6231 18.8656 13.8003 18.7571 13.9826C18.6982 14.0819 18.6137 14.1391 18.5116 14.1847C18.1886 14.329 17.871 14.4858 17.5447 14.6225C17.3897 14.6873 17.2208 14.7195 17.057 14.7623C16.7659 14.8389 16.4741 14.9121 16.1827 14.9872C16.1761 14.989 16.1706 14.9957 16.1451 15.0142C16.1952 15.0352 16.2341 15.0501 16.2715 15.0671C16.3091 15.0841 16.3456 15.1036 16.3827 15.1221C16.3508 15.1476 16.3216 15.1774 16.287 15.1984C16.1144 15.3032 15.9415 15.4077 15.7655 15.5071C15.7324 15.5259 15.682 15.5338 15.6461 15.5241C15.4097 15.4594 15.1757 15.3862 14.939 15.3217C14.9016 15.3114 14.8466 15.319 14.815 15.3406C14.5525 15.5211 14.2872 15.6985 14.0359 15.8936C13.8527 16.0358 13.6907 16.2054 13.5166 16.3594C13.4187 16.4461 13.3154 16.526 13.1963 16.6238C13.1963 16.5776 13.1939 16.5545 13.1966 16.532C13.2449 16.1455 13.2938 15.7587 13.3428 15.3722C13.3498 15.3169 13.3555 15.2613 13.3674 15.2072C13.4327 14.9088 13.3574 14.6171 13.3145 14.3263C13.2887 14.1497 13.3112 13.9841 13.3455 13.8158C13.3768 13.6623 13.4121 13.5095 13.4467 13.3566C13.4513 13.3363 13.4631 13.3177 13.4716 13.2983C13.4892 13.3095 13.5075 13.3201 13.5248 13.332C13.5309 13.3363 13.5351 13.3429 13.54 13.3487C13.6138 13.4362 13.6117 13.4317 13.6953 13.3518C13.9931 13.067 14.2845 12.7747 14.5968 12.5067C14.8165 12.318 15.0624 12.1585 15.3039 11.9968C15.4832 11.8768 15.627 11.7224 15.7704 11.5659C15.8406 11.4893 15.9056 11.4082 15.9794 11.3356C16.1788 11.1393 16.2706 10.8767 16.4128 10.6452C16.5829 10.3678 16.6741 10.0605 16.7671 9.75303C16.7713 9.73905 16.7783 9.72598 16.789 9.70076C16.8117 9.7196 16.8327 9.73145 16.8467 9.74877C16.9774 9.91286 17.1071 10.0779 17.2372 10.2426C17.2736 10.2887 17.2979 10.2717 17.3201 10.228C17.4948 9.88339 17.6747 9.54123 17.8443 9.19391C18.0749 8.72169 18.2965 8.24523 18.5262 7.77271C18.545 7.73382 18.5948 7.69553 18.6371 7.68489C18.7668 7.65268 18.8996 7.62989 19.0324 7.61196C19.0929 7.60376 19.1199 7.57641 19.1376 7.52232C19.2305 7.23608 19.3284 6.95105 19.4183 6.66389C19.4536 6.55116 19.4831 6.43447 19.497 6.31718C19.5262 6.07317 19.6049 5.84436 19.6949 5.61858C19.7252 5.54231 19.7134 5.49703 19.6411 5.45875C19.5763 5.42441 19.5168 5.38126 19.4545 5.34267C19.4135 5.31714 19.4004 5.28554 19.4083 5.23449C19.4472 4.98745 19.4834 4.73949 19.5153 4.49153C19.5213 4.44322 19.5046 4.39186 19.4973 4.34203C19.4746 4.18189 19.4512 4.02175 19.4287 3.86131C19.3919 3.60089 19.357 3.34047 19.319 3.08036C19.271 2.75006 19.2211 2.42036 19.1704 2.09036C19.1673 2.07091 19.1506 2.05389 19.1403 2.03566C19.126 2.05025 19.1063 2.0624 19.0987 2.07972C19.0631 2.16329 19.0318 2.24898 18.9963 2.33284C18.9887 2.35108 18.9707 2.36505 18.9574 2.38116C18.9446 2.36718 18.9276 2.35563 18.9194 2.33923C18.7908 2.08701 18.666 1.83268 18.5335 1.58229C18.5003 1.51939 18.4481 1.46378 18.3958 1.41425C18.2506 1.2772 18.0953 1.15019 17.954 1.00919C17.8343 0.88977 17.6993 0.809852 17.5377 0.760625C17.3177 0.693774 17.0989 0.619934 16.8853 0.534547C16.7692 0.488359 16.6613 0.493524 16.5456 0.516922C16.2702 0.572834 15.9943 0.625404 15.7187 0.678885C15.6972 0.683139 15.6747 0.682531 15.6437 0.669768C15.6628 0.653663 15.6807 0.635127 15.7017 0.621453C16.0135 0.41938 16.3256 0.217307 16.6391 0.017969C16.6641 0.00216775 16.7175 -0.00725221 16.7327 0.00702964C16.9345 0.195429 17.1901 0.181147 17.4377 0.20971C17.6611 0.235235 17.8847 0.2717 18.102 0.327308C18.1907 0.350098 18.2642 0.43427 18.3439 0.492005C18.7799 0.808029 19.1588 1.18908 19.5381 1.5677C19.6918 1.72146 19.8024 1.91806 19.9328 2.09552C19.9522 2.12196 19.9692 2.15052 19.9908 2.17514C20.1397 2.3447 20.206 2.55376 20.2874 2.75857C20.4014 3.04542 20.4381 3.34199 20.4667 3.64617C20.5053 4.05913 20.5739 4.46904 20.6293 4.88048C20.6545 5.06858 20.6803 5.25637 20.7025 5.44477C20.7092 5.5019 20.7335 5.5256 20.7903 5.52134C20.8483 5.51709 20.9067 5.51891 20.9644 5.51314C21.0228 5.50737 21.0431 5.52742 21.0334 5.58637C20.9909 5.84588 20.9435 6.10477 20.9128 6.36549C20.9009 6.46607 20.9264 6.57152 20.9392 6.67422C20.9665 6.89271 21.0015 7.10997 21.0228 7.32906C21.0301 7.40503 21.0051 7.48404 20.9957 7.56183C20.9717 7.76268 20.9523 7.96445 20.9219 8.1644C20.91 8.24189 20.8851 8.32241 20.8462 8.39017C20.7508 8.557 20.6441 8.71683 20.5423 8.88001C20.5363 8.89156 20.5341 8.90706 20.5226 8.9417Z" fill="#8A8A8F"/>
<path d="M20.2385 14.5527C20.191 14.8463 20.1503 15.1188 20.102 15.3902C20.0491 15.6865 19.9978 15.9837 19.9294 16.2766C19.896 16.42 19.8319 16.558 19.7699 16.6929C19.6672 16.9159 19.5693 17.139 19.5283 17.3842C19.4988 17.561 19.4566 17.7361 19.4189 17.9117C19.4144 17.9336 19.4074 17.9564 19.3958 17.9752C19.2892 18.1524 19.1807 18.3283 19.0743 18.5055C18.9832 18.6571 18.8917 18.8084 18.8042 18.9622C18.6793 19.1822 18.5404 19.3912 18.3754 19.5848C18.177 19.8176 17.991 20.061 17.7993 20.2995C17.7759 20.3284 17.7498 20.3548 17.7133 20.3773C17.9695 19.408 18.2992 18.4626 18.6021 17.5088C18.5945 17.5048 18.5866 17.5006 18.579 17.4966C18.5614 17.5155 18.5407 17.5325 18.5268 17.5537C18.2211 18.0214 17.9129 18.4875 17.6124 18.9585C17.4043 19.2846 17.2089 19.6188 17.0032 19.9464C16.8989 20.1126 16.7838 20.2719 16.6759 20.4359C16.6291 20.5074 16.5887 20.583 16.5294 20.6553C16.5309 20.6307 16.5306 20.6055 16.5343 20.5812C16.5537 20.4487 16.5671 20.3147 16.5957 20.184C16.6391 19.9844 16.6877 19.7857 16.7443 19.5894C16.8196 19.3271 16.9038 19.067 16.9858 18.8069C17.0405 18.6334 17.0992 18.4608 17.1551 18.2876C17.1615 18.2678 17.1621 18.246 17.1657 18.2253C17.1596 18.2223 17.1539 18.2192 17.1478 18.2159C17.1277 18.239 17.1056 18.2605 17.0879 18.2855C16.7825 18.7103 16.4769 19.1351 16.1736 19.5614C16.1499 19.5945 16.1344 19.6383 16.1298 19.679C16.1116 19.8373 16.1098 19.9981 16.0806 20.154C16.0651 20.2366 16.0083 20.3123 15.967 20.3895C15.8281 20.6477 15.688 20.9051 15.5479 21.1625C15.4622 21.3199 15.3759 21.477 15.289 21.6341C15.2796 21.6508 15.2656 21.6648 15.2383 21.6772C15.2407 21.6496 15.2407 21.6213 15.2456 21.594C15.3398 21.0683 15.4343 20.5429 15.5288 20.0175C15.5841 19.7112 15.64 19.4052 15.6947 19.0992C15.7418 18.8352 15.7916 18.5717 15.8314 18.3067C15.8536 18.1597 15.8582 18.0099 15.8691 17.8613C15.887 17.6215 15.9013 17.3815 15.9238 17.142C15.9265 17.1134 15.9682 17.0745 15.9995 17.0645C16.2353 16.9898 16.4732 16.9214 16.7102 16.8503C16.7822 16.8287 16.854 16.8056 16.9515 16.7752C16.8491 17.1226 16.7522 17.4501 16.6555 17.7777C16.6619 17.781 16.6683 17.7847 16.6747 17.788C17.2371 17.2459 17.7388 16.6516 18.1831 16.0074C18.191 16.0092 18.1986 16.011 18.2065 16.0128C18.2126 16.0338 18.2232 16.0545 18.2244 16.0754C18.2332 16.2271 18.2396 16.379 18.2487 16.5306C18.2499 16.551 18.2618 16.5704 18.2688 16.5905C18.2873 16.5798 18.3095 16.5726 18.3235 16.5577C18.6523 16.2073 18.9777 15.8536 19.3092 15.506C19.5693 15.2334 19.837 14.9681 20.1008 14.6995C20.1442 14.6557 20.1853 14.6099 20.2385 14.5527Z" fill="#8A8A8F"/>
<path d="M10.6513 17.2344C10.682 17.2523 10.6993 17.2581 10.7103 17.2696C10.8822 17.4535 11.0782 17.6084 11.2861 17.7491C11.3274 17.7771 11.3408 17.8075 11.328 17.8573C11.3034 17.9527 11.2736 18.049 11.2669 18.1466C11.2584 18.277 11.2675 18.4085 11.2733 18.5395C11.2818 18.734 11.2931 18.9284 11.3043 19.1226C11.3107 19.2363 11.3192 19.3496 11.3274 19.4633C11.3283 19.4766 11.335 19.4897 11.3572 19.5067C11.3772 19.4541 11.3955 19.401 11.4177 19.3493C11.5359 19.0755 11.6538 18.802 11.7738 18.5292C11.8747 18.3003 11.9783 18.0724 12.0819 17.8448C12.0886 17.8306 12.1023 17.8117 12.1147 17.8099C12.1257 17.8081 12.1445 17.8245 12.1521 17.8376C12.2964 18.0779 12.446 18.3152 12.5794 18.5614C12.6213 18.6386 12.6252 18.7388 12.6356 18.8297C12.6653 19.0883 12.6942 19.3475 12.7149 19.607C12.7474 20.0178 12.769 20.4296 12.8033 20.8401C12.8185 21.0203 12.8091 21.1956 12.7848 21.3749C12.7665 21.5095 12.7975 21.6514 12.81 21.7897C12.8246 21.9477 12.8428 22.1051 12.8425 22.271C12.8285 22.2561 12.8118 22.2427 12.8009 22.2257C12.61 21.9237 12.3882 21.645 12.1591 21.3713C12.1071 21.309 12.0685 21.2214 12.0579 21.1409C12.0208 20.8604 11.9965 20.5785 11.9719 20.2965C11.9555 20.1075 11.947 19.9181 11.9345 19.7288C11.9336 19.7146 11.9285 19.7006 11.9215 19.6696C11.8984 19.6994 11.8798 19.7158 11.8704 19.7364C11.803 19.8862 11.737 20.0364 11.672 20.1874C11.6632 20.2077 11.658 20.2311 11.6577 20.2533C11.6507 20.7669 11.6443 21.2807 11.6386 21.7942C11.6374 21.9067 11.6383 22.0191 11.6209 22.1373C11.5781 22.0531 11.5365 21.9684 11.4924 21.8848C11.3037 21.5271 11.1153 21.1695 10.9245 20.8133C10.8777 20.7261 10.8531 20.6377 10.8607 20.538C10.8689 20.4323 10.8667 20.3256 10.8737 20.2196C10.8917 19.944 10.8376 19.6754 10.7972 19.4058C10.7212 18.8996 10.6744 18.3918 10.6717 17.8798C10.6708 17.6953 10.6577 17.5106 10.6504 17.3261C10.6507 17.3009 10.6513 17.2766 10.6513 17.2344Z" fill="#8A8A8F"/>
<path d="M15.3495 17.1156C15.344 17.1822 15.3395 17.2487 15.3325 17.3153C15.2984 17.6419 15.2614 17.9686 15.2304 18.2955C15.196 18.6608 15.1665 19.0267 15.1362 19.3922C15.1283 19.4879 15.1216 19.5837 15.1195 19.6797C15.114 19.9155 15.0575 20.1388 14.9669 20.3555C14.9262 20.4533 14.901 20.5576 14.8575 20.6539C14.7797 20.8265 14.6959 20.996 14.6108 21.165C14.5318 21.3224 14.4479 21.4777 14.3662 21.6339C14.357 21.632 14.3479 21.6302 14.3388 21.6284C14.3731 21.2735 14.4136 20.9189 14.4403 20.563C14.467 20.2048 14.4734 19.8453 14.5017 19.4873C14.5299 19.1282 14.5746 18.7702 14.6144 18.3904C14.5117 18.4505 14.4212 18.5031 14.3312 18.5566C14.2379 18.6122 14.1462 18.6705 14.0514 18.7237C14.0046 18.7501 13.983 18.7827 13.9799 18.8377C13.9644 19.1054 13.9459 19.3731 13.9274 19.6405C13.9049 19.9629 13.8918 20.2868 13.8529 20.6074C13.8338 20.7651 13.7697 20.9182 13.7183 21.0711C13.6408 21.3011 13.5567 21.5287 13.4755 21.7575C13.4375 21.8648 13.4008 21.9724 13.3622 22.0796C13.354 22.1027 13.3403 22.1243 13.3205 22.1635C13.3136 22.131 13.3078 22.1161 13.3075 22.1015C13.2959 21.5172 13.288 20.9325 13.2722 20.3482C13.2619 19.9665 13.2388 19.5855 13.2251 19.2038C13.2221 19.1209 13.233 19.0373 13.24 18.9543C13.2601 18.7152 13.2792 18.4757 13.3047 18.2369C13.3084 18.2041 13.3394 18.1609 13.3692 18.1467C13.7122 17.9801 14.0559 17.8139 14.4035 17.6565C14.5457 17.5921 14.6995 17.5526 14.8444 17.4936C14.9174 17.4639 14.99 17.4237 15.0499 17.3733C15.1477 17.2913 15.2349 17.1968 15.3267 17.1074C15.3346 17.1099 15.3419 17.1129 15.3495 17.1156Z" fill="#8A8A8F"/>
<path d="M7.23234 18.6262C7.30102 18.7548 7.37182 18.8821 7.43837 19.0118C7.60914 19.3446 7.78083 19.677 7.94613 20.0125C8.07345 20.2708 8.18771 20.5354 8.31594 20.7934C8.35879 20.8794 8.38492 20.9615 8.38796 21.0587C8.3989 21.4331 8.41105 21.8074 8.4384 22.1809C8.44661 22.2933 8.49948 22.4039 8.54111 22.5121C8.64473 22.781 8.74683 23.0509 8.8626 23.3143C8.97534 23.5708 9.10418 23.8203 9.22664 24.0725C9.31446 24.253 9.40379 24.4329 9.49252 24.6131C9.48523 24.6194 9.47763 24.6258 9.47034 24.6322C9.44816 24.603 9.42719 24.5729 9.40379 24.545C9.14216 24.2329 8.88661 23.9157 8.61677 23.6112C8.32536 23.2821 8.09199 22.9129 7.84859 22.5504C7.67538 22.2924 7.50613 22.0317 7.33262 21.7743C7.23234 21.6257 7.11748 21.4859 7.02723 21.3319C6.96433 21.2246 6.92392 21.1015 6.88836 20.9812C6.7659 20.5655 6.60941 20.1641 6.41676 19.7758C6.22471 19.3886 6.04391 18.996 5.85825 18.6059C5.85521 18.5995 5.85551 18.5916 5.85156 18.5703C5.87435 18.5873 5.89076 18.5955 5.90231 18.6086C6.19585 18.9398 6.47875 19.2808 6.78566 19.5989C6.95795 19.7779 7.01417 19.9988 7.09469 20.2149C7.18616 20.4607 7.27033 20.7096 7.36817 20.953C7.44141 21.1356 7.53226 21.3109 7.6134 21.4902C7.6529 21.5777 7.68845 21.6667 7.72583 21.7552C7.73525 21.777 7.74497 21.7989 7.75439 21.8211C7.7626 21.8208 7.7705 21.8205 7.7787 21.8205C7.78235 21.7944 7.79086 21.7682 7.78903 21.7424C7.77536 21.5583 7.75257 21.3747 7.74619 21.1906C7.73585 20.8992 7.64925 20.6233 7.58878 20.3422C7.51677 20.0082 7.44414 19.6746 7.36969 19.3412C7.32229 19.1291 7.27154 18.9176 7.22292 18.7058C7.21745 18.6821 7.21593 18.6575 7.21229 18.6332C7.21867 18.6305 7.22536 18.6284 7.23234 18.6262Z" fill="#8A8A8F"/>
<path d="M8.7839 19.7363C8.82918 19.8165 8.87537 19.8965 8.91943 19.9773C9.06528 20.2462 9.21692 20.5121 9.35274 20.7859C9.41595 20.9132 9.45029 21.0557 9.49222 21.1928C9.5217 21.2894 9.53203 21.3924 9.56819 21.486C9.65813 21.7188 9.7578 21.9479 9.85413 22.1782C9.85778 22.1867 9.86628 22.1931 9.88482 22.2153C9.89333 22.1788 9.90336 22.1554 9.90336 22.132C9.90427 21.8461 9.90305 21.5598 9.90518 21.2739C9.90548 21.232 9.91764 21.1891 9.93101 21.149C9.98966 20.9722 10.0346 20.7886 10.1623 20.6434C10.1738 20.6303 10.182 20.6142 10.1936 20.6008C10.1978 20.596 10.2066 20.5948 10.2227 20.5878C10.2294 20.6066 10.2385 20.6233 10.241 20.6406C10.3102 21.1062 10.3832 21.5711 10.4464 22.0372C10.4907 22.3654 10.5208 22.6957 10.5603 23.0248C10.5746 23.1451 10.5968 23.2646 10.6174 23.384C10.6487 23.5654 10.6764 23.7474 10.7156 23.927C10.7752 24.2008 10.8405 24.473 10.9086 24.745C10.9599 24.9507 11.0192 25.1546 11.0742 25.3594C11.0772 25.3707 11.0745 25.3831 11.0745 25.4193C10.945 25.3196 10.7888 25.2987 10.7025 25.154C10.5916 24.9677 10.4637 24.7918 10.3437 24.611C10.3291 24.5888 10.2887 24.5211 10.271 24.4891C10.3467 24.4664 10.4233 24.5438 10.4631 24.5833C10.5014 24.6213 10.5239 24.6529 10.594 24.6627C10.6843 24.6754 10.7107 24.6393 10.7454 24.5833C10.7466 24.5815 10.7454 24.5785 10.7454 24.5885C10.6624 24.5141 10.5858 24.4451 10.5008 24.3685C10.5858 24.3366 10.5937 24.2843 10.577 24.2135C10.564 24.1579 10.5691 24.0981 10.5658 24.0264C10.567 24.0257 10.584 24.0169 10.6013 24.0078C10.6466 23.9841 10.6642 23.9592 10.646 23.8996C10.626 23.8346 10.6336 23.7611 10.6278 23.6751C10.5615 23.7377 10.5646 23.813 10.5433 23.8781C10.5308 23.916 10.5302 23.9656 10.505 23.9899C10.4306 24.0622 10.4233 24.1552 10.4081 24.2464C10.3962 24.3159 10.3813 24.3785 10.3063 24.412C10.2881 24.4202 10.2835 24.4597 10.271 24.4891C10.189 24.4341 10.155 24.3463 10.12 24.2615C10.031 24.0467 9.94499 23.8307 9.85808 23.6152C9.78728 23.4393 9.71556 23.2639 9.64689 23.0871C9.50954 22.734 9.37675 22.3788 9.23727 22.0266C9.14064 21.7826 9.08868 21.5279 9.04037 21.2721C8.96957 20.8992 8.90241 20.5258 8.83404 20.1526C8.80912 20.0174 8.78572 19.8819 8.76172 19.7464C8.76871 19.743 8.77631 19.7397 8.7839 19.7363Z" fill="#8A8A8F"/>
<path d="M10.218 19.4436C10.1943 19.3871 10.1672 19.3315 10.1472 19.2737C10.0092 18.8747 9.87279 18.4755 9.73574 18.0762C9.70627 17.9902 9.67952 17.9027 9.64336 17.8194C9.62787 17.7835 9.59748 17.7428 9.56375 17.7279C9.37231 17.6429 9.17814 17.5648 8.98458 17.4851C8.96938 17.4788 8.95176 17.4779 8.91286 17.47C8.93505 17.5298 8.94933 17.5763 8.96908 17.6204C9.01861 17.731 9.07179 17.8401 9.1201 17.951C9.13378 17.9823 9.14198 18.0184 9.14289 18.0528C9.14715 18.2451 9.14806 18.4375 9.15201 18.6298C9.15262 18.6526 9.16477 18.6751 9.17146 18.6976C9.19333 18.6876 9.21764 18.6806 9.23709 18.6666C9.28632 18.6313 9.33524 18.5952 9.38052 18.5548C9.42853 18.5122 9.44798 18.5314 9.46499 18.5821C9.53336 18.7884 9.6069 18.9933 9.67163 19.2008C9.70353 19.3035 9.7248 19.4099 9.74273 19.5162C9.78132 19.745 9.81475 19.9751 9.84969 20.2045C9.85152 20.2157 9.84696 20.2276 9.84392 20.2498C9.82113 20.2343 9.8032 20.226 9.79013 20.213C9.59414 20.0191 9.39905 19.8246 9.20275 19.6308C9.07877 19.5083 8.95632 19.3837 8.82717 19.2667C8.76032 19.2063 8.74665 19.1285 8.72902 19.0507C8.63938 18.6538 8.54336 18.2579 8.46709 17.8583C8.42303 17.628 8.41087 17.3916 8.38656 17.1576C8.35678 16.8707 8.32913 16.5839 8.30026 16.297C8.29783 16.2733 8.29601 16.2499 8.29297 16.2168C8.31363 16.2262 8.32427 16.2283 8.33065 16.2347C8.55096 16.4505 8.82656 16.5896 9.07331 16.7692C9.23253 16.8853 9.39875 16.9917 9.5595 17.1056C9.6072 17.1393 9.64458 17.1469 9.68165 17.0965C9.73999 17.0172 9.80685 16.9844 9.90834 17.026C9.98947 17.0591 10.0803 17.0682 10.1636 17.0971C10.1876 17.1053 10.2165 17.1451 10.2165 17.1706C10.2213 17.6666 10.2207 18.1622 10.2247 18.6581C10.2268 18.9082 10.2356 19.1583 10.2414 19.4083C10.2417 19.4181 10.2386 19.4278 10.2371 19.4378C10.231 19.4396 10.2244 19.4415 10.218 19.4436Z" fill="#8A8A8F"/>
<path d="M5.11448 14.3359C5.30987 14.5772 5.50313 14.8206 5.70186 15.0594C5.88601 15.281 6.07501 15.4988 6.26463 15.7161C6.30413 15.7614 6.35184 15.8012 6.40076 15.8364C6.46062 15.8796 6.48432 15.9313 6.4749 16.0054C6.46427 16.088 6.45212 16.1725 6.4588 16.2549C6.47673 16.4837 6.50134 16.7125 6.52839 16.9404C6.57184 17.3072 6.61985 17.6733 6.66452 18.0398C6.68792 18.2331 6.69886 18.4284 6.73319 18.6199C6.76085 18.7733 6.81493 18.9219 6.85748 19.0727C6.88027 19.1541 6.90366 19.2352 6.92676 19.3167C6.91855 19.3215 6.91035 19.3267 6.90184 19.3315C6.84016 19.2617 6.76935 19.1981 6.7183 19.1213C6.45819 18.7296 6.20325 18.3346 5.94617 17.9407C5.81217 17.7353 5.67451 17.5323 5.54598 17.3236C5.51468 17.2725 5.5083 17.2042 5.49827 17.1425C5.42747 16.7107 5.35363 16.2792 5.29103 15.8462C5.25882 15.6243 5.2099 15.4028 5.23694 15.1752C5.25943 14.9862 5.18771 14.8112 5.15095 14.631C5.13514 14.5544 5.11296 14.4791 5.09595 14.4025C5.09139 14.3827 5.09534 14.3609 5.09534 14.3402C5.10142 14.3387 5.1078 14.3372 5.11448 14.3359Z" fill="#8A8A8F"/>
<path d="M13.6944 21.9698C13.6944 22.0375 13.6962 22.1053 13.694 22.1728C13.6816 22.5569 13.6558 22.9413 13.6618 23.3253C13.6643 23.4676 13.7405 23.6089 13.7846 23.7502C13.7873 23.7593 13.8034 23.7644 13.8253 23.7799C13.8408 23.7398 13.8575 23.7073 13.866 23.673C13.9694 23.2533 14.0657 22.8322 14.1778 22.415C14.2082 22.3016 14.2802 22.1974 14.3431 22.095C14.482 21.8689 14.6272 21.6468 14.7701 21.4231C14.7846 21.4 14.8013 21.3785 14.8257 21.3447C14.8333 21.3727 14.8418 21.3879 14.8405 21.4022C14.8305 21.5435 14.8172 21.6845 14.8074 21.8254C14.7831 22.1819 14.6634 22.5168 14.5768 22.8592C14.4957 23.1801 14.4203 23.5028 14.3291 23.821C14.2681 24.0343 14.1827 24.2403 14.1094 24.4503C14.0514 24.6168 13.9955 24.7839 13.9381 24.9504C13.8609 25.1747 13.7819 25.3986 13.7062 25.6235C13.6725 25.7238 13.6454 25.8265 13.6141 25.9277C13.6062 25.9529 13.5935 25.9766 13.5646 26C13.5515 25.9332 13.5388 25.866 13.5251 25.7991C13.4804 25.5791 13.4315 25.3597 13.392 25.1388C13.3716 25.0249 13.3625 24.9082 13.3565 24.7921C13.3385 24.4469 13.3209 24.1014 13.3103 23.7559C13.3024 23.5055 13.2996 23.2548 13.3072 23.0048C13.3097 22.9248 13.3501 22.8452 13.378 22.7671C13.4707 22.5076 13.5655 22.249 13.66 21.9901C13.6631 21.9816 13.6697 21.9746 13.6746 21.9667C13.681 21.9674 13.6877 21.9686 13.6944 21.9698ZM13.6126 24.9413C13.674 24.9283 13.6858 24.8836 13.694 24.8292C13.6977 24.8058 13.7323 24.7663 13.7466 24.7687C13.818 24.7812 13.8253 24.7368 13.8378 24.6873C13.8463 24.6523 13.8548 24.6071 13.8797 24.5891C13.9256 24.5557 13.9189 24.5275 13.8986 24.487C13.8876 24.4655 13.8834 24.4402 13.8782 24.4162C13.8773 24.4117 13.8858 24.405 13.8903 24.3989C13.9101 24.4102 13.928 24.4202 13.946 24.4305C13.952 24.4232 13.9581 24.4162 13.9642 24.4089C13.9368 24.3855 13.9034 24.3375 13.8828 24.3424C13.7451 24.3752 13.8505 24.4679 13.8353 24.5399C13.791 24.4837 13.7494 24.4257 13.7238 24.3612C13.7056 24.3154 13.7296 24.2822 13.8074 24.3126C13.7408 24.2366 13.8095 24.2193 13.8323 24.1892C13.8123 24.1543 13.7946 24.1242 13.7721 24.085C13.7548 24.1051 13.7369 24.1242 13.7205 24.1446C13.6822 24.192 13.6451 24.2196 13.5929 24.157C13.5831 24.1452 13.5473 24.1552 13.5151 24.1552C13.5506 24.2023 13.5971 24.2427 13.5901 24.2579C13.5497 24.3445 13.6278 24.3953 13.657 24.443C13.6995 24.5126 13.6579 24.5557 13.6506 24.6131C13.6369 24.5967 13.6232 24.5803 13.5992 24.5515C13.5874 24.594 13.5768 24.6238 13.571 24.6542C13.5515 24.7554 13.5655 24.8523 13.6153 24.9434C13.5114 24.9857 13.4956 24.8651 13.4072 24.8304C13.4181 24.8681 13.4178 24.8994 13.4324 24.9103C13.4783 24.9444 13.474 24.9693 13.4355 25.0057C13.423 25.0176 13.4285 25.0486 13.4233 25.0911C13.4637 25.0623 13.4829 25.0489 13.4993 25.037C13.5482 25.0753 13.5926 25.1103 13.6366 25.1449C13.6439 25.1416 13.6512 25.1382 13.6585 25.1346C13.653 25.1036 13.6494 25.072 13.6421 25.0413C13.6336 25.0076 13.6223 24.9744 13.6126 24.9413ZM13.5236 24.4697C13.5461 24.3688 13.5257 24.319 13.4567 24.2929C13.4716 24.3524 13.4573 24.4187 13.5236 24.4697Z" fill="#8A8A8F"/>
<path d="M8.03384 19.4441C8.02199 19.4267 8.0077 19.4106 7.99829 19.3921C7.83328 19.0736 7.66828 18.7555 7.5048 18.4364C7.38629 18.2049 7.26961 17.9727 7.15353 17.74C7.14289 17.7184 7.13803 17.6913 7.13834 17.667C7.14046 17.5485 7.13955 17.4294 7.15049 17.3115C7.16812 17.1243 7.12345 16.9447 7.10005 16.7621C7.07148 16.5394 7.04657 16.316 7.02438 16.0924C7.00251 15.8712 6.98579 15.649 6.96756 15.4275C6.96604 15.409 6.96726 15.3901 6.96726 15.3713C6.97333 15.3676 6.97941 15.364 6.98549 15.3604C7.03381 15.409 7.08151 15.4582 7.13104 15.5059C7.36563 15.732 7.599 15.9593 7.83663 16.182C7.89375 16.2358 7.92232 16.2865 7.92384 16.3692C7.93326 16.8876 7.9442 17.406 7.96699 17.9241C7.98856 18.4139 8.02533 18.9032 8.05481 19.3927C8.05572 19.4073 8.05329 19.4219 8.05237 19.4365C8.04599 19.4389 8.03992 19.4416 8.03384 19.4441Z" fill="#8A8A8F"/>
<path d="M10.8812 21.3496C10.9797 21.6033 11.069 21.8613 11.1796 22.1096C11.251 22.2694 11.3516 22.4168 11.4428 22.5672C11.5044 22.6687 11.5774 22.7635 11.636 22.8665C11.6631 22.9142 11.6786 22.9738 11.681 23.0288C11.6862 23.1576 11.6764 23.2868 11.6804 23.4159C11.6828 23.501 11.702 23.5855 11.708 23.6709C11.7172 23.7967 11.7251 23.9228 11.7263 24.0489C11.7287 24.2713 11.7254 24.4937 11.7257 24.7162C11.726 24.8952 11.7248 25.0738 11.7296 25.2525C11.7342 25.4087 11.7469 25.5646 11.7548 25.7205C11.7573 25.7691 11.7551 25.8177 11.7551 25.8663C11.7469 25.8672 11.7387 25.8681 11.7305 25.8691C11.7114 25.8025 11.6931 25.736 11.6731 25.6697C11.5725 25.3364 11.4689 25.0039 11.372 24.6697C11.3124 24.464 11.2553 24.2592 11.2507 24.0398C11.2428 23.6578 11.1586 23.2843 11.0948 22.9088C11.0125 22.4232 10.9438 21.9355 10.87 21.4484C10.8651 21.4168 10.8654 21.3843 10.8633 21.352C10.8694 21.3511 10.8751 21.3505 10.8812 21.3496Z" fill="#8A8A8F"/>
<path d="M14.8407 24.8511C14.8407 24.825 14.8386 24.7985 14.841 24.7727C14.8656 24.5065 14.8945 24.2406 14.9152 23.9741C14.9422 23.6241 14.9659 23.2737 14.985 22.9234C14.9923 22.79 14.9908 22.6547 14.9793 22.5216C14.9698 22.4125 15.0169 22.3329 15.0762 22.2527C15.2859 21.968 15.4946 21.6824 15.704 21.3976C15.7541 21.3296 15.8061 21.2627 15.8687 21.1807C15.872 21.2159 15.8769 21.2323 15.8745 21.2478C15.8283 21.5526 15.7921 21.8595 15.7307 22.1612C15.6861 22.38 15.6074 22.5921 15.5439 22.807C15.4785 23.0273 15.4178 23.2488 15.3466 23.467C15.2345 23.8103 15.1163 24.1519 14.999 24.4934C14.9574 24.6147 14.9109 24.7341 14.8668 24.8544C14.858 24.8529 14.8492 24.852 14.8407 24.8511Z" fill="#8A8A8F"/>
<path d="M17.1641 20.3464C17.148 20.4522 17.1346 20.5585 17.1155 20.6637C17.0872 20.8202 17.0569 20.976 17.0246 21.1319C16.9633 21.4288 16.9016 21.7254 16.8359 22.0213C16.8265 22.0636 16.7958 22.1022 16.7709 22.1396C16.6074 22.3857 16.4579 22.64 16.3479 22.9147C16.2477 23.1654 16.1565 23.4198 16.0608 23.6726C16.0498 23.7017 16.0346 23.7291 16.0216 23.7574C16.0143 23.7555 16.007 23.754 16 23.7522C16.0033 23.6814 16.0076 23.6106 16.0097 23.5395C16.0185 23.2393 16.0216 22.9387 16.0365 22.6391C16.0456 22.4528 16.0611 22.2654 16.0957 22.0824C16.1143 21.9843 16.1708 21.8895 16.2246 21.802C16.4525 21.4331 16.6858 21.0675 16.918 20.701C16.9943 20.5807 17.0733 20.4622 17.1511 20.3428C17.1553 20.344 17.1599 20.3452 17.1641 20.3464Z" fill="#8A8A8F"/>
<path d="M17.0586 23.1417C17.0805 22.9797 17.1036 22.8181 17.1239 22.6558C17.1656 22.3225 17.2048 21.9888 17.2464 21.6555C17.2661 21.4975 17.2877 21.3398 17.3111 21.1823C17.3144 21.1593 17.3296 21.1353 17.3461 21.1176C17.508 20.9441 17.6739 20.7746 17.8335 20.5989C17.9845 20.4327 18.1288 20.2604 18.2756 20.0905C18.2929 20.0705 18.3081 20.0483 18.3242 20.0273C18.3312 20.0319 18.3379 20.0368 18.3449 20.0413C18.3449 20.055 18.3485 20.0696 18.3443 20.0817C18.3029 20.1981 18.2592 20.3136 18.2188 20.4303C18.165 20.5855 18.1142 20.7417 18.0617 20.8973C18.0535 20.9213 18.044 20.9447 18.0355 20.9684C18.0219 21.0055 18.0209 21.0371 18.065 21.0559C18.0993 21.0705 18.1045 21.093 18.086 21.1289C17.9125 21.4653 17.738 21.8016 17.5694 22.1404C17.4178 22.4455 17.2728 22.754 17.1245 23.0606C17.1106 23.0894 17.0944 23.1174 17.0793 23.146C17.072 23.1444 17.0653 23.1429 17.0586 23.1417Z" fill="#8A8A8F"/>
<path d="M12.7791 25.9448C12.7733 25.919 12.7666 25.8931 12.7618 25.867C12.7071 25.5741 12.6573 25.2802 12.5968 24.9885C12.5342 24.6862 12.495 24.3814 12.4734 24.0736C12.4546 23.8037 12.4345 23.5333 12.3944 23.2662C12.3589 23.0292 12.2953 22.7964 12.244 22.5615C12.1917 22.3221 12.1389 22.0826 12.0869 21.8432C12.0829 21.8243 12.0842 21.8043 12.082 21.7617C12.1039 21.7915 12.1139 21.8027 12.1212 21.8155C12.3452 22.2114 12.57 22.6071 12.791 23.0045C12.8165 23.0504 12.8329 23.1088 12.8323 23.161C12.8283 23.5254 12.815 23.8894 12.8119 24.2538C12.8092 24.5722 12.8174 24.8904 12.8174 25.2088C12.8174 25.4388 12.8116 25.6689 12.808 25.8989C12.8077 25.9132 12.8025 25.9272 12.7995 25.9411C12.7925 25.9427 12.7858 25.9439 12.7791 25.9448Z" fill="#8A8A8F"/>
<path d="M7.06445 0.654654C7.08208 0.637333 7.10456 0.598438 7.13586 0.588714C7.18266 0.574432 7.24222 0.565317 7.28415 0.582941C7.3276 0.601173 7.29509 0.636118 7.26379 0.653438C7.22034 0.67714 7.17658 0.69993 7.13252 0.722721C7.08117 0.749157 7.07205 0.716035 7.06445 0.654654Z" fill="#8A8A8F"/>
<path d="M5.58595 2.3517C5.55526 2.37145 5.52488 2.3909 5.49419 2.41065C5.48841 2.40123 5.48234 2.39211 5.47656 2.38269C5.50756 2.36385 5.53855 2.34501 5.56955 2.32617C5.57502 2.33468 5.58049 2.34319 5.58595 2.3517Z" fill="#8A8A8F"/>
<path d="M13.614 24.9434C13.5641 24.8525 13.5501 24.7556 13.5696 24.6541C13.5754 24.6237 13.586 24.5939 13.5978 24.5514C13.6218 24.5803 13.6355 24.5967 13.6492 24.6131C13.6565 24.556 13.6981 24.5125 13.6556 24.4429C13.6264 24.3952 13.5483 24.3445 13.5887 24.2579C13.596 24.2424 13.5492 24.202 13.5137 24.1552C13.5459 24.1552 13.5817 24.1451 13.5915 24.157C13.6437 24.2196 13.6808 24.1919 13.7191 24.1445C13.7355 24.1242 13.7534 24.105 13.7707 24.085C13.7932 24.1242 13.8109 24.1542 13.8309 24.1892C13.8081 24.2193 13.7394 24.2366 13.806 24.3126C13.7282 24.2825 13.7042 24.3153 13.7224 24.3612C13.7483 24.4256 13.7899 24.4836 13.834 24.5399C13.8491 24.4678 13.744 24.3752 13.8814 24.3423C13.902 24.3375 13.9354 24.3855 13.9628 24.4089C13.9567 24.4162 13.9506 24.4232 13.9446 24.4305C13.9266 24.4201 13.9087 24.4101 13.889 24.3989C13.8844 24.4049 13.8759 24.4116 13.8768 24.4162C13.882 24.4402 13.8862 24.4654 13.8972 24.487C13.9175 24.5274 13.9242 24.5557 13.8783 24.5891C13.8534 24.607 13.8452 24.6526 13.8364 24.6872C13.8242 24.7368 13.8169 24.7811 13.7452 24.7687C13.7309 24.7662 13.696 24.8057 13.6927 24.8291C13.6844 24.8838 13.6726 24.9282 13.6112 24.9413L13.614 24.9434Z" fill="#8A8A8F"/>
<path d="M13.6123 24.941C13.622 24.9741 13.6332 25.0072 13.6411 25.041C13.6484 25.0717 13.6524 25.103 13.6576 25.1343C13.6503 25.1376 13.643 25.1409 13.6357 25.1446C13.5913 25.1099 13.5472 25.0753 13.4983 25.0367C13.4819 25.0483 13.4631 25.0619 13.4224 25.0908C13.4275 25.0483 13.4221 25.0173 13.4345 25.0054C13.4731 24.9689 13.4777 24.944 13.4315 24.91C13.4166 24.8991 13.4172 24.8675 13.4062 24.8301C13.4947 24.8647 13.5105 24.9854 13.6144 24.9431C13.6144 24.9428 13.6123 24.941 13.6123 24.941Z" fill="#8A8A8F"/>
<path d="M13.5219 24.4698C13.4557 24.4185 13.47 24.3522 13.4551 24.293C13.5241 24.3191 13.5444 24.3689 13.5219 24.4698Z" fill="#8A8A8F"/>
</svg>
